<svg width="1200" height="630" viewBox="0 0 1200 630" fill="none" xmlns="http://www.w3.org/2000/svg">
<rect width="1200" height="630" fill="#E8E4DD"/>
<g opacity="0.4">
<path d="M460 432.411L462.33 429.151L572.539 220.183L572.772 217.97L524.191 126.78C520.119 119.142 508.659 121.073 507.324 129.624L460 432.411Z" fill="#FFC24A"/>
<path d="M461.375 429.925L463.137 426.491L572.193 219.712L523.731 128.151C519.704 120.593 509.476 122.52 508.154 130.981L461.375 429.925Z" fill="#FFA712"/>
<g filter="url(#filter0_i)">
<path d="M461.375 429.925L463.137 426.491L572.193 219.712L523.731 128.151C519.704 120.593 509.476 122.52 508.154 130.981L461.375 429.925Z" fill="#FFC24A"/>
</g>
<path d="M608.189 286.947L644.362 249.928L608.178 180.902C604.744 174.368 595.153 174.348 591.755 180.902L572.422 217.742V220.879L608.188 286.947H608.189Z" fill="#F4BD62"/>
<path d="M607.544 285.404L642.711 249.414L607.544 182.498C604.205 176.146 596.092 175.48 592.788 181.85L573.354 219.263L572.772 221.176L607.544 285.404Z" fill="#FFA50E"/>
<g filter="url(#filter1_i)">
<path d="M607.544 285.404L642.711 249.414L607.544 182.498C604.205 176.146 596.092 175.48 592.788 181.85L573.354 219.263L572.772 221.176L607.544 285.404Z" fill="#FFA712"/>
</g>
<path d="M460 432.411L461.056 431.349L464.893 429.792L605.917 289.393L607.704 284.532L572.524 217.542L460 432.411Z" fill="#F6820C"/>
<path d="M612.707 503.217L740.337 432.088L703.89 207.785C702.75 200.767 694.134 197.993 689.107 203.024L460 432.411L586.898 503.211C590.842 505.412 595.284 506.568 599.802 506.569C604.319 506.57 608.762 505.416 612.707 503.217Z" fill="#FDE068"/>
<path d="M739.193 431.492L703.023 208.892C701.893 201.926 694.727 199.045 689.738 204.039L461.416 431.974L586.921 502.073C590.835 504.257 595.243 505.404 599.726 505.405C604.209 505.406 608.618 504.261 612.534 502.079L739.194 431.491L739.193 431.492Z" fill="#FCCA3F"/>
<path d="M612.706 501.121C608.761 503.32 604.318 504.473 599.801 504.472C595.284 504.471 590.842 503.316 586.898 501.115L461.022 431.333L460.001 432.411L586.898 503.211C590.842 505.412 595.284 506.568 599.802 506.569C604.319 506.57 608.762 505.416 612.707 503.217L740.337 432.088L740.024 430.167L612.707 501.122L612.706 501.121Z" fill="#EEAB37"/>
</g>
<path d="M1144.5 200L1111 0H1172.5L1144.5 200Z" fill="#FFC665"/>
<path d="M1110 444.5L1001.5 0H1111L1144.5 199.5L1110 444.5Z" fill="#FDDC82"/>
<path d="M919.5 630L1123.5 356V630H919.5Z" fill="#FCD589"/>
<path d="M1084 630L1172.5 0H1200V630H1084Z" fill="#F9AE61" fill-opacity="0.85"/>
<path d="M1042 630L1102.5 501L1084 630H1042Z" fill="#FDE068"/>
<path d="M972 559L1072 289L1097 391.5L972 559Z" fill="#FED789" fill-opacity="0.68"/>
<path d="M0 630H163L59 575L0 460.5V630Z" fill="#FFC665" fill-opacity="0.8"/>
<rect x="226.5" y="123.5" width="670" height="177" fill="white" fill-opacity="0.47" stroke="black"/>
<rect x="261.5" y="140.5" width="617" height="36" stroke="black"/>
<path d="M300.776 159.287L294.967 157.011V155.341L302.473 158.663V159.946L294.967 163.277V161.59L300.776 159.287ZM317.634 153.592H313.521V165H311.842V153.592H307.737V152.203H317.634V153.592ZM320.903 156.642C321.624 155.757 322.562 155.314 323.716 155.314C325.726 155.314 326.739 156.448 326.757 158.716V165H325.131V158.707C325.125 158.021 324.967 157.515 324.656 157.187C324.352 156.858 323.874 156.694 323.224 156.694C322.696 156.694 322.233 156.835 321.835 157.116C321.437 157.397 321.126 157.767 320.903 158.224V165H319.277V151.5H320.903V156.642ZM330.958 165H329.332V155.49H330.958V165ZM329.2 152.968C329.2 152.704 329.279 152.481 329.438 152.3C329.602 152.118 329.842 152.027 330.158 152.027C330.475 152.027 330.715 152.118 330.879 152.3C331.043 152.481 331.125 152.704 331.125 152.968C331.125 153.231 331.043 153.451 330.879 153.627C330.715 153.803 330.475 153.891 330.158 153.891C329.842 153.891 329.602 153.803 329.438 153.627C329.279 153.451 329.2 153.231 329.2 152.968ZM339.105 162.478C339.105 162.038 338.938 161.698 338.604 161.458C338.276 161.212 337.699 161.001 336.873 160.825C336.053 160.649 335.399 160.438 334.913 160.192C334.433 159.946 334.075 159.653 333.841 159.313C333.612 158.974 333.498 158.569 333.498 158.101C333.498 157.321 333.826 156.662 334.482 156.123C335.145 155.584 335.988 155.314 337.014 155.314C338.092 155.314 338.965 155.593 339.633 156.149C340.307 156.706 340.644 157.418 340.644 158.285H339.009C339.009 157.84 338.818 157.456 338.438 157.134C338.062 156.812 337.588 156.65 337.014 156.65C336.422 156.65 335.959 156.779 335.625 157.037C335.291 157.295 335.124 157.632 335.124 158.048C335.124 158.44 335.279 158.736 335.59 158.936C335.9 159.135 336.46 159.325 337.269 159.507C338.083 159.688 338.742 159.905 339.246 160.157C339.75 160.409 340.122 160.714 340.362 161.071C340.608 161.423 340.731 161.854 340.731 162.363C340.731 163.213 340.392 163.896 339.712 164.411C339.032 164.921 338.15 165.176 337.066 165.176C336.305 165.176 335.631 165.041 335.045 164.771C334.459 164.502 333.999 164.127 333.665 163.646C333.337 163.16 333.173 162.636 333.173 162.073H334.799C334.828 162.618 335.045 163.052 335.449 163.374C335.859 163.69 336.398 163.849 337.066 163.849C337.682 163.849 338.174 163.726 338.543 163.479C338.918 163.228 339.105 162.894 339.105 162.478ZM355.348 160.351C355.348 161.798 355.017 162.964 354.354 163.849C353.692 164.733 352.796 165.176 351.665 165.176C350.511 165.176 349.603 164.81 348.94 164.077V168.656H347.314V155.49H348.8L348.879 156.545C349.541 155.725 350.461 155.314 351.639 155.314C352.781 155.314 353.684 155.745 354.346 156.606C355.014 157.468 355.348 158.666 355.348 160.201V160.351ZM353.722 160.166C353.722 159.094 353.493 158.247 353.036 157.626C352.579 157.005 351.952 156.694 351.155 156.694C350.171 156.694 349.433 157.131 348.94 158.004V162.548C349.427 163.415 350.171 163.849 351.173 163.849C351.952 163.849 352.57 163.541 353.027 162.926C353.49 162.305 353.722 161.385 353.722 160.166ZM361.236 163.849C361.816 163.849 362.323 163.673 362.757 163.321C363.19 162.97 363.431 162.53 363.478 162.003H365.016C364.986 162.548 364.799 163.066 364.453 163.559C364.107 164.051 363.645 164.443 363.064 164.736C362.49 165.029 361.881 165.176 361.236 165.176C359.941 165.176 358.91 164.745 358.143 163.884C357.381 163.017 357 161.833 357 160.333V160.061C357 159.135 357.17 158.312 357.51 157.591C357.85 156.87 358.336 156.311 358.969 155.912C359.607 155.514 360.36 155.314 361.228 155.314C362.294 155.314 363.179 155.634 363.882 156.272C364.591 156.911 364.969 157.74 365.016 158.76H363.478C363.431 158.145 363.196 157.641 362.774 157.248C362.358 156.85 361.843 156.65 361.228 156.65C360.401 156.65 359.76 156.949 359.303 157.547C358.852 158.139 358.626 158.997 358.626 160.122V160.43C358.626 161.525 358.852 162.369 359.303 162.961C359.754 163.553 360.398 163.849 361.236 163.849ZM381.53 159.287L375.721 157.011V155.341L383.227 158.663V159.946L375.721 163.277V161.59L381.53 159.287ZM404.197 165H402.501L396.059 155.139V165H394.362V152.203H396.059L402.519 162.108V152.203H404.197V165ZM410.886 165.176C409.597 165.176 408.548 164.754 407.739 163.91C406.931 163.061 406.526 161.927 406.526 160.509V160.21C406.526 159.267 406.705 158.426 407.062 157.688C407.426 156.943 407.93 156.363 408.574 155.947C409.225 155.525 409.928 155.314 410.684 155.314C411.92 155.314 412.881 155.722 413.566 156.536C414.252 157.351 414.595 158.517 414.595 160.034V160.711H408.152C408.176 161.648 408.448 162.407 408.97 162.987C409.497 163.562 410.165 163.849 410.974 163.849C411.548 163.849 412.034 163.731 412.433 163.497C412.831 163.263 413.18 162.952 413.479 162.565L414.472 163.339C413.675 164.563 412.479 165.176 410.886 165.176ZM410.684 156.65C410.027 156.65 409.477 156.891 409.031 157.371C408.586 157.846 408.311 158.514 408.205 159.375H412.969V159.252C412.922 158.426 412.699 157.787 412.301 157.336C411.902 156.879 411.363 156.65 410.684 156.65ZM424.904 162.759L426.732 155.49H428.358L425.59 165H424.271L421.96 157.793L419.71 165H418.392L415.632 155.49H417.249L419.121 162.609L421.336 155.49H422.646L424.904 162.759ZM438.976 162.759L442.632 152.203H444.478L439.731 165H438.237L433.5 152.203H435.337L438.976 162.759ZM445.11 160.157C445.11 159.226 445.292 158.388 445.655 157.644C446.024 156.899 446.534 156.325 447.185 155.921C447.841 155.517 448.588 155.314 449.426 155.314C450.721 155.314 451.767 155.763 452.563 156.659C453.366 157.556 453.768 158.748 453.768 160.236V160.351C453.768 161.276 453.589 162.108 453.231 162.847C452.88 163.579 452.373 164.15 451.711 164.561C451.055 164.971 450.299 165.176 449.443 165.176C448.154 165.176 447.108 164.728 446.306 163.831C445.509 162.935 445.11 161.748 445.11 160.271V160.157ZM446.745 160.351C446.745 161.405 446.988 162.252 447.475 162.891C447.967 163.529 448.623 163.849 449.443 163.849C450.27 163.849 450.926 163.526 451.412 162.882C451.898 162.231 452.142 161.323 452.142 160.157C452.142 159.114 451.893 158.271 451.395 157.626C450.902 156.976 450.246 156.65 449.426 156.65C448.623 156.65 447.976 156.97 447.483 157.608C446.991 158.247 446.745 159.161 446.745 160.351ZM457.573 165H455.947V151.5H457.573V165ZM466.055 164.06C465.422 164.804 464.493 165.176 463.269 165.176C462.255 165.176 461.481 164.883 460.948 164.297C460.421 163.705 460.154 162.832 460.148 161.678V155.49H461.774V161.634C461.774 163.075 462.36 163.796 463.532 163.796C464.774 163.796 465.601 163.333 466.011 162.407V155.49H467.637V165H466.09L466.055 164.06ZM471.645 155.49L471.688 156.545C472.386 155.725 473.326 155.314 474.51 155.314C475.84 155.314 476.745 155.824 477.226 156.844C477.542 156.387 477.952 156.018 478.456 155.736C478.966 155.455 479.566 155.314 480.258 155.314C482.344 155.314 483.404 156.419 483.439 158.628V165H481.813V158.725C481.813 158.045 481.658 157.538 481.348 157.204C481.037 156.864 480.516 156.694 479.783 156.694C479.18 156.694 478.679 156.876 478.28 157.239C477.882 157.597 477.65 158.08 477.586 158.689V165H475.951V158.769C475.951 157.386 475.274 156.694 473.921 156.694C472.854 156.694 472.125 157.148 471.732 158.057V165H470.106V155.49H471.645ZM489.847 165.176C488.558 165.176 487.509 164.754 486.7 163.91C485.892 163.061 485.487 161.927 485.487 160.509V160.21C485.487 159.267 485.666 158.426 486.023 157.688C486.387 156.943 486.891 156.363 487.535 155.947C488.186 155.525 488.889 155.314 489.645 155.314C490.881 155.314 491.842 155.722 492.527 156.536C493.213 157.351 493.556 158.517 493.556 160.034V160.711H487.113C487.137 161.648 487.409 162.407 487.931 162.987C488.458 163.562 489.126 163.849 489.935 163.849C490.509 163.849 490.995 163.731 491.394 163.497C491.792 163.263 492.141 162.952 492.439 162.565L493.433 163.339C492.636 164.563 491.44 165.176 489.847 165.176ZM489.645 156.65C488.988 156.65 488.438 156.891 487.992 157.371C487.547 157.846 487.271 158.514 487.166 159.375H491.93V159.252C491.883 158.426 491.66 157.787 491.262 157.336C490.863 156.879 490.324 156.65 489.645 156.65ZM499.849 159.806C499.849 158.481 500.024 157.21 500.376 155.991C500.733 154.772 501.264 153.665 501.967 152.669C502.67 151.673 503.399 150.97 504.155 150.56L504.489 151.632C503.634 152.288 502.931 153.29 502.38 154.638C501.835 155.985 501.536 157.494 501.483 159.164L501.475 159.911C501.475 162.173 501.888 164.136 502.714 165.8C503.212 166.796 503.804 167.575 504.489 168.138L504.155 169.131C503.376 168.697 502.632 167.971 501.923 166.951C500.54 164.959 499.849 162.577 499.849 159.806ZM513.551 159.085H508.005V163.62H514.447V165H506.317V152.203H514.359V153.592H508.005V157.705H513.551V159.085ZM516.24 164.147C516.24 163.866 516.322 163.632 516.486 163.444C516.656 163.257 516.908 163.163 517.242 163.163C517.576 163.163 517.828 163.257 517.998 163.444C518.174 163.632 518.262 163.866 518.262 164.147C518.262 164.417 518.174 164.643 517.998 164.824C517.828 165.006 517.576 165.097 517.242 165.097C516.908 165.097 516.656 165.006 516.486 164.824C516.322 164.643 516.24 164.417 516.24 164.147ZM516.249 156.387C516.249 156.105 516.331 155.871 516.495 155.684C516.665 155.496 516.917 155.402 517.251 155.402C517.585 155.402 517.837 155.496 518.007 155.684C518.183 155.871 518.271 156.105 518.271 156.387C518.271 156.656 518.183 156.882 518.007 157.063C517.837 157.245 517.585 157.336 517.251 157.336C516.917 157.336 516.665 157.245 516.495 157.063C516.331 156.882 516.249 156.656 516.249 156.387ZM524.405 159.894C524.405 161.2 524.232 162.454 523.887 163.655C523.547 164.851 523.022 165.955 522.313 166.969C521.61 167.982 520.872 168.703 520.099 169.131L519.756 168.138C520.658 167.446 521.382 166.374 521.927 164.921C522.478 163.462 522.759 161.845 522.771 160.069V159.788C522.771 158.558 522.642 157.415 522.384 156.36C522.126 155.3 521.766 154.351 521.303 153.513C520.846 152.675 520.33 152.021 519.756 151.553L520.099 150.56C520.872 150.987 521.607 151.702 522.305 152.704C523.008 153.706 523.532 154.811 523.878 156.018C524.229 157.225 524.405 158.517 524.405 159.894ZM537.132 159.287L531.322 157.011V155.341L538.828 158.663V159.946L531.322 163.277V161.59L537.132 159.287ZM547.187 159.99V165H545.499V152.203H550.219C551.619 152.203 552.715 152.561 553.506 153.275C554.303 153.99 554.701 154.937 554.701 156.114C554.701 157.356 554.312 158.314 553.532 158.988C552.759 159.656 551.648 159.99 550.201 159.99H547.187ZM547.187 158.61H550.219C551.121 158.61 551.812 158.399 552.293 157.978C552.773 157.55 553.014 156.935 553.014 156.132C553.014 155.37 552.773 154.761 552.293 154.304C551.812 153.847 551.153 153.609 550.315 153.592H547.187V158.61ZM562.471 164.06C561.838 164.804 560.909 165.176 559.685 165.176C558.671 165.176 557.897 164.883 557.364 164.297C556.837 163.705 556.57 162.832 556.564 161.678V155.49H558.19V161.634C558.19 163.075 558.776 163.796 559.948 163.796C561.19 163.796 562.017 163.333 562.427 162.407V155.49H564.053V165H562.506L562.471 164.06ZM574.582 160.351C574.582 161.804 574.248 162.973 573.58 163.857C572.912 164.736 572.016 165.176 570.891 165.176C569.689 165.176 568.761 164.751 568.104 163.901L568.025 165H566.531V151.5H568.157V156.536C568.813 155.722 569.719 155.314 570.873 155.314C572.027 155.314 572.933 155.751 573.589 156.624C574.251 157.497 574.582 158.692 574.582 160.21V160.351ZM572.956 160.166C572.956 159.059 572.742 158.203 572.314 157.6C571.887 156.996 571.271 156.694 570.469 156.694C569.396 156.694 568.626 157.192 568.157 158.188V162.302C568.655 163.298 569.432 163.796 570.486 163.796C571.266 163.796 571.872 163.494 572.306 162.891C572.739 162.287 572.956 161.379 572.956 160.166ZM578.405 165H576.779V151.5H578.405V165ZM582.782 165H581.156V155.49H582.782V165ZM581.024 152.968C581.024 152.704 581.104 152.481 581.262 152.3C581.426 152.118 581.666 152.027 581.982 152.027C582.299 152.027 582.539 152.118 582.703 152.3C582.867 152.481 582.949 152.704 582.949 152.968C582.949 153.231 582.867 153.451 582.703 153.627C582.539 153.803 582.299 153.891 581.982 153.891C581.666 153.891 581.426 153.803 581.262 153.627C581.104 153.451 581.024 153.231 581.024 152.968ZM589.207 163.849C589.787 163.849 590.294 163.673 590.728 163.321C591.161 162.97 591.401 162.53 591.448 162.003H592.986C592.957 162.548 592.77 163.066 592.424 163.559C592.078 164.051 591.615 164.443 591.035 164.736C590.461 165.029 589.852 165.176 589.207 165.176C587.912 165.176 586.881 164.745 586.113 163.884C585.352 163.017 584.971 161.833 584.971 160.333V160.061C584.971 159.135 585.141 158.312 585.48 157.591C585.82 156.87 586.307 156.311 586.939 155.912C587.578 155.514 588.331 155.314 589.198 155.314C590.265 155.314 591.149 155.634 591.853 156.272C592.562 156.911 592.939 157.74 592.986 158.76H591.448C591.401 158.145 591.167 157.641 590.745 157.248C590.329 156.85 589.813 156.65 589.198 156.65C588.372 156.65 587.73 156.949 587.273 157.547C586.822 158.139 586.597 158.997 586.597 160.122V160.43C586.597 161.525 586.822 162.369 587.273 162.961C587.725 163.553 588.369 163.849 589.207 163.849Z" fill="black"/>
<path d="M267.743 153.321L267.688 152.125C267.688 151.396 267.977 150.696 268.493 150.18C269.009 149.665 269.708 149.375 270.438 149.375H275.487C276.216 149.375 276.915 149.665 277.431 150.181L278.569 151.319C279.085 151.835 279.784 152.125 280.514 152.125H285.989C286.371 152.125 286.749 152.205 287.099 152.359C287.448 152.513 287.762 152.738 288.02 153.02C288.277 153.303 288.473 153.635 288.595 153.998C288.717 154.36 288.762 154.743 288.728 155.124L287.852 164.749C287.79 165.432 287.475 166.068 286.968 166.53C286.462 166.993 285.8 167.25 285.114 167.25H270.886C270.2 167.25 269.538 166.993 269.032 166.53C268.525 166.068 268.21 165.432 268.148 164.749L267.272 155.124C267.214 154.487 267.38 153.85 267.743 153.323V153.321ZM270.011 153.5C269.82 153.5 269.631 153.54 269.457 153.617C269.282 153.694 269.125 153.806 268.996 153.947C268.867 154.088 268.769 154.255 268.708 154.436C268.647 154.617 268.625 154.809 268.642 154.999L269.518 164.624C269.548 164.965 269.706 165.283 269.959 165.515C270.212 165.746 270.543 165.875 270.886 165.875H285.114C285.457 165.875 285.788 165.746 286.041 165.515C286.294 165.283 286.452 164.965 286.482 164.624L287.358 154.999C287.375 154.809 287.353 154.617 287.292 154.436C287.231 154.255 287.133 154.088 287.004 153.947C286.875 153.806 286.718 153.694 286.543 153.617C286.369 153.54 286.18 153.5 285.989 153.5H270.011ZM276.46 151.153C276.332 151.025 276.18 150.924 276.013 150.854C275.846 150.785 275.667 150.75 275.487 150.75H270.438C270.077 150.75 269.731 150.891 269.474 151.143C269.217 151.396 269.069 151.739 269.063 152.099L269.071 152.29C269.365 152.183 269.681 152.125 270.011 152.125H277.431L276.459 151.153H276.46Z" fill="black"/>
<path d="M267.743 153.321L267.688 152.125C267.688 151.396 267.977 150.696 268.493 150.18C269.009 149.665 269.708 149.375 270.438 149.375H275.487C276.216 149.375 276.915 149.665 277.431 150.181L278.569 151.319C279.085 151.835 279.784 152.125 280.514 152.125H285.989C286.371 152.125 286.749 152.205 287.099 152.359C287.448 152.513 287.762 152.738 288.02 153.02C288.277 153.303 288.473 153.635 288.595 153.998C288.717 154.36 288.762 154.743 288.728 155.124L287.852 164.749C287.79 165.432 287.475 166.068 286.968 166.53C286.462 166.993 285.8 167.25 285.114 167.25H270.886C270.2 167.25 269.538 166.993 269.032 166.53C268.525 166.068 268.21 165.432 268.148 164.749L267.272 155.124C267.214 154.487 267.38 153.85 267.743 153.323V153.321ZM270.011 153.5C269.82 153.5 269.631 153.54 269.457 153.617C269.282 153.694 269.125 153.806 268.996 153.947C268.867 154.088 268.769 154.255 268.708 154.436C268.647 154.617 268.625 154.809 268.642 154.999L269.518 164.624C269.548 164.965 269.706 165.283 269.959 165.515C270.212 165.746 270.543 165.875 270.886 165.875H285.114C285.457 165.875 285.788 165.746 286.041 165.515C286.294 165.283 286.452 164.965 286.482 164.624L287.358 154.999C287.375 154.809 287.353 154.617 287.292 154.436C287.231 154.255 287.133 154.088 287.004 153.947C286.875 153.806 286.718 153.694 286.543 153.617C286.369 153.54 286.18 153.5 285.989 153.5H270.011ZM276.46 151.153C276.332 151.025 276.18 150.924 276.013 150.854C275.846 150.785 275.667 150.75 275.487 150.75H270.438C270.077 150.75 269.731 150.891 269.474 151.143C269.217 151.396 269.069 151.739 269.063 152.099L269.071 152.29C269.365 152.183 269.681 152.125 270.011 152.125H277.431L276.459 151.153H276.46Z" fill="black" fill-opacity="0.2"/>
<path d="M328.997 208.339H327.371V198.829H328.997V208.339ZM327.239 196.307C327.239 196.043 327.318 195.82 327.477 195.639C327.641 195.457 327.881 195.366 328.197 195.366C328.514 195.366 328.754 195.457 328.918 195.639C329.082 195.82 329.164 196.043 329.164 196.307C329.164 196.57 329.082 196.79 328.918 196.966C328.754 197.142 328.514 197.229 328.197 197.229C327.881 197.229 327.641 197.142 327.477 196.966C327.318 196.79 327.239 196.57 327.239 196.307ZM333.146 198.829L333.198 200.024C333.925 199.11 334.874 198.653 336.046 198.653C338.056 198.653 339.069 199.787 339.087 202.055V208.339H337.461V202.046C337.455 201.36 337.297 200.854 336.986 200.525C336.682 200.197 336.204 200.033 335.554 200.033C335.026 200.033 334.563 200.174 334.165 200.455C333.767 200.736 333.456 201.105 333.233 201.562V208.339H331.607V198.829H333.146ZM341.144 203.505C341.144 202.046 341.489 200.874 342.181 199.989C342.872 199.099 343.777 198.653 344.896 198.653C346.01 198.653 346.892 199.034 347.542 199.796V194.839H349.168V208.339H347.674L347.595 207.319C346.944 208.116 346.039 208.515 344.879 208.515C343.777 208.515 342.878 208.063 342.181 207.161C341.489 206.259 341.144 205.081 341.144 203.628V203.505ZM342.77 203.689C342.77 204.768 342.992 205.611 343.438 206.221C343.883 206.83 344.498 207.135 345.283 207.135C346.314 207.135 347.067 206.672 347.542 205.746V201.378C347.056 200.481 346.309 200.033 345.301 200.033C344.504 200.033 343.883 200.341 343.438 200.956C342.992 201.571 342.77 202.482 342.77 203.689ZM355.646 208.515C354.356 208.515 353.308 208.093 352.499 207.249C351.69 206.399 351.286 205.266 351.286 203.848V203.549C351.286 202.605 351.465 201.765 351.822 201.026C352.186 200.282 352.689 199.702 353.334 199.286C353.984 198.864 354.688 198.653 355.443 198.653C356.68 198.653 357.641 199.061 358.326 199.875C359.012 200.689 359.354 201.855 359.354 203.373V204.05H352.912C352.936 204.987 353.208 205.746 353.729 206.326C354.257 206.9 354.925 207.188 355.733 207.188C356.308 207.188 356.794 207.07 357.192 206.836C357.591 206.602 357.939 206.291 358.238 205.904L359.231 206.678C358.435 207.902 357.239 208.515 355.646 208.515ZM355.443 199.989C354.787 199.989 354.236 200.229 353.791 200.71C353.346 201.185 353.07 201.853 352.965 202.714H357.729V202.591C357.682 201.765 357.459 201.126 357.061 200.675C356.662 200.218 356.123 199.989 355.443 199.989ZM364.435 202.301L366.544 198.829H368.442L365.331 203.531L368.539 208.339H366.658L364.461 204.779L362.264 208.339H360.374L363.582 203.531L360.471 198.829H362.352L364.435 202.301ZM370.209 207.486C370.209 207.205 370.291 206.971 370.455 206.783C370.625 206.596 370.877 206.502 371.211 206.502C371.545 206.502 371.797 206.596 371.967 206.783C372.143 206.971 372.23 207.205 372.23 207.486C372.23 207.756 372.143 207.981 371.967 208.163C371.797 208.345 371.545 208.436 371.211 208.436C370.877 208.436 370.625 208.345 370.455 208.163C370.291 207.981 370.209 207.756 370.209 207.486ZM376.546 199.98C377.267 199.096 378.204 198.653 379.358 198.653C381.368 198.653 382.382 199.787 382.399 202.055V208.339H380.773V202.046C380.768 201.36 380.609 200.854 380.299 200.525C379.994 200.197 379.517 200.033 378.866 200.033C378.339 200.033 377.876 200.174 377.478 200.455C377.079 200.736 376.769 201.105 376.546 201.562V208.339H374.92V194.839H376.546V199.98ZM387.04 196.526V198.829H388.815V200.086H387.04V205.983C387.04 206.364 387.119 206.651 387.277 206.845C387.436 207.032 387.705 207.126 388.086 207.126C388.273 207.126 388.531 207.091 388.859 207.021V208.339C388.432 208.456 388.016 208.515 387.611 208.515C386.885 208.515 386.337 208.295 385.968 207.855C385.599 207.416 385.414 206.792 385.414 205.983V200.086H383.683V198.829H385.414V196.526H387.04ZM392.252 198.829L392.296 199.884C392.993 199.063 393.934 198.653 395.117 198.653C396.447 198.653 397.353 199.163 397.833 200.183C398.149 199.726 398.56 199.356 399.063 199.075C399.573 198.794 400.174 198.653 400.865 198.653C402.951 198.653 404.012 199.758 404.047 201.967V208.339H402.421V202.063C402.421 201.384 402.266 200.877 401.955 200.543C401.645 200.203 401.123 200.033 400.391 200.033C399.787 200.033 399.286 200.215 398.888 200.578C398.489 200.936 398.258 201.419 398.193 202.028V208.339H396.559V202.107C396.559 200.725 395.882 200.033 394.528 200.033C393.462 200.033 392.732 200.487 392.34 201.396V208.339H390.714V198.829H392.252ZM408.274 208.339H406.648V194.839H408.274V208.339Z" fill="black"/>
<path d="M332.768 234.155C332.768 233.716 332.601 233.376 332.267 233.136C331.938 232.89 331.361 232.679 330.535 232.503C329.715 232.327 329.062 232.116 328.575 231.87C328.095 231.624 327.737 231.331 327.503 230.991C327.274 230.651 327.16 230.247 327.16 229.778C327.16 228.999 327.488 228.34 328.145 227.801C328.807 227.262 329.65 226.992 330.676 226.992C331.754 226.992 332.627 227.271 333.295 227.827C333.969 228.384 334.306 229.096 334.306 229.963H332.671C332.671 229.518 332.48 229.134 332.1 228.812C331.725 228.489 331.25 228.328 330.676 228.328C330.084 228.328 329.621 228.457 329.287 228.715C328.953 228.973 328.786 229.31 328.786 229.726C328.786 230.118 328.941 230.414 329.252 230.613C329.562 230.812 330.122 231.003 330.931 231.185C331.745 231.366 332.404 231.583 332.908 231.835C333.412 232.087 333.784 232.392 334.024 232.749C334.271 233.101 334.394 233.531 334.394 234.041C334.394 234.891 334.054 235.573 333.374 236.089C332.694 236.599 331.812 236.854 330.729 236.854C329.967 236.854 329.293 236.719 328.707 236.449C328.121 236.18 327.661 235.805 327.327 235.324C326.999 234.838 326.835 234.313 326.835 233.751H328.461C328.49 234.296 328.707 234.729 329.111 235.052C329.521 235.368 330.061 235.526 330.729 235.526C331.344 235.526 331.836 235.403 332.205 235.157C332.58 234.905 332.768 234.571 332.768 234.155ZM338.718 224.865V227.168H340.493V228.425H338.718V234.322C338.718 234.703 338.797 234.99 338.955 235.184C339.113 235.371 339.383 235.465 339.764 235.465C339.951 235.465 340.209 235.43 340.537 235.359V236.678C340.109 236.795 339.693 236.854 339.289 236.854C338.562 236.854 338.015 236.634 337.646 236.194C337.276 235.755 337.092 235.131 337.092 234.322V228.425H335.36V227.168H337.092V224.865H338.718ZM345.512 234.296L347.727 227.168H349.467L345.644 238.146C345.052 239.728 344.111 240.519 342.822 240.519L342.515 240.492L341.908 240.378V239.06L342.348 239.095C342.898 239.095 343.326 238.983 343.631 238.761C343.941 238.538 344.196 238.131 344.396 237.539L344.756 236.572L341.363 227.168H343.139L345.512 234.296ZM352.692 236.678H351.066V223.178H352.692V236.678ZM359.249 236.854C357.96 236.854 356.911 236.432 356.103 235.588C355.294 234.738 354.89 233.604 354.89 232.187V231.888C354.89 230.944 355.068 230.104 355.426 229.365C355.789 228.621 356.293 228.041 356.938 227.625C357.588 227.203 358.291 226.992 359.047 226.992C360.283 226.992 361.244 227.399 361.93 228.214C362.615 229.028 362.958 230.194 362.958 231.712V232.389H356.516C356.539 233.326 356.812 234.085 357.333 234.665C357.86 235.239 358.528 235.526 359.337 235.526C359.911 235.526 360.397 235.409 360.796 235.175C361.194 234.94 361.543 234.63 361.842 234.243L362.835 235.017C362.038 236.241 360.843 236.854 359.249 236.854ZM359.047 228.328C358.391 228.328 357.84 228.568 357.395 229.049C356.949 229.523 356.674 230.191 356.568 231.053H361.332V230.93C361.285 230.104 361.062 229.465 360.664 229.014C360.266 228.557 359.727 228.328 359.047 228.328ZM364.883 235.825C364.883 235.544 364.965 235.31 365.129 235.122C365.299 234.935 365.551 234.841 365.885 234.841C366.219 234.841 366.471 234.935 366.641 235.122C366.816 235.31 366.904 235.544 366.904 235.825C366.904 236.095 366.816 236.32 366.641 236.502C366.471 236.684 366.219 236.774 365.885 236.774C365.551 236.774 365.299 236.684 365.129 236.502C364.965 236.32 364.883 236.095 364.883 235.825ZM373.408 235.526C373.988 235.526 374.495 235.351 374.929 234.999C375.362 234.647 375.603 234.208 375.649 233.681H377.188C377.158 234.226 376.971 234.744 376.625 235.236C376.279 235.729 375.816 236.121 375.236 236.414C374.662 236.707 374.053 236.854 373.408 236.854C372.113 236.854 371.082 236.423 370.314 235.562C369.553 234.694 369.172 233.511 369.172 232.011V231.738C369.172 230.812 369.342 229.989 369.682 229.269C370.021 228.548 370.508 227.988 371.141 227.59C371.779 227.191 372.532 226.992 373.399 226.992C374.466 226.992 375.351 227.312 376.054 227.95C376.763 228.589 377.141 229.418 377.188 230.438H375.649C375.603 229.822 375.368 229.318 374.946 228.926C374.53 228.527 374.015 228.328 373.399 228.328C372.573 228.328 371.932 228.627 371.475 229.225C371.023 229.816 370.798 230.675 370.798 231.8V232.107C370.798 233.203 371.023 234.047 371.475 234.639C371.926 235.23 372.57 235.526 373.408 235.526ZM384.553 234.155C384.553 233.716 384.386 233.376 384.052 233.136C383.724 232.89 383.146 232.679 382.32 232.503C381.5 232.327 380.847 232.116 380.36 231.87C379.88 231.624 379.522 231.331 379.288 230.991C379.06 230.651 378.945 230.247 378.945 229.778C378.945 228.999 379.273 228.34 379.93 227.801C380.592 227.262 381.436 226.992 382.461 226.992C383.539 226.992 384.412 227.271 385.08 227.827C385.754 228.384 386.091 229.096 386.091 229.963H384.456C384.456 229.518 384.266 229.134 383.885 228.812C383.51 228.489 383.035 228.328 382.461 228.328C381.869 228.328 381.406 228.457 381.072 228.715C380.738 228.973 380.571 229.31 380.571 229.726C380.571 230.118 380.727 230.414 381.037 230.613C381.348 230.812 381.907 231.003 382.716 231.185C383.53 231.366 384.189 231.583 384.693 231.835C385.197 232.087 385.569 232.392 385.81 232.749C386.056 233.101 386.179 233.531 386.179 234.041C386.179 234.891 385.839 235.573 385.159 236.089C384.479 236.599 383.598 236.854 382.514 236.854C381.752 236.854 381.078 236.719 380.492 236.449C379.906 236.18 379.446 235.805 379.112 235.324C378.784 234.838 378.62 234.313 378.62 233.751H380.246C380.275 234.296 380.492 234.729 380.896 235.052C381.307 235.368 381.846 235.526 382.514 235.526C383.129 235.526 383.621 235.403 383.99 235.157C384.365 234.905 384.553 234.571 384.553 234.155ZM393.834 234.155C393.834 233.716 393.667 233.376 393.333 233.136C393.005 232.89 392.428 232.679 391.602 232.503C390.781 232.327 390.128 232.116 389.642 231.87C389.161 231.624 388.804 231.331 388.569 230.991C388.341 230.651 388.227 230.247 388.227 229.778C388.227 228.999 388.555 228.34 389.211 227.801C389.873 227.262 390.717 226.992 391.742 226.992C392.82 226.992 393.693 227.271 394.361 227.827C395.035 228.384 395.372 229.096 395.372 229.963H393.737C393.737 229.518 393.547 229.134 393.166 228.812C392.791 228.489 392.316 228.328 391.742 228.328C391.15 228.328 390.688 228.457 390.354 228.715C390.02 228.973 389.853 229.31 389.853 229.726C389.853 230.118 390.008 230.414 390.318 230.613C390.629 230.812 391.188 231.003 391.997 231.185C392.812 231.366 393.471 231.583 393.975 231.835C394.479 232.087 394.851 232.392 395.091 232.749C395.337 233.101 395.46 233.531 395.46 234.041C395.46 234.891 395.12 235.573 394.44 236.089C393.761 236.599 392.879 236.854 391.795 236.854C391.033 236.854 390.359 236.719 389.773 236.449C389.188 236.18 388.728 235.805 388.394 235.324C388.065 234.838 387.901 234.313 387.901 233.751H389.527C389.557 234.296 389.773 234.729 390.178 235.052C390.588 235.368 391.127 235.526 391.795 235.526C392.41 235.526 392.902 235.403 393.271 235.157C393.646 234.905 393.834 234.571 393.834 234.155Z" fill="#020202"/>
<path d="M328.76 255.507L328.804 256.562C329.501 255.741 330.441 255.331 331.625 255.331C332.955 255.331 333.86 255.841 334.341 256.86C334.657 256.403 335.067 256.034 335.571 255.753C336.081 255.472 336.682 255.331 337.373 255.331C339.459 255.331 340.52 256.436 340.555 258.645V265.017H338.929V258.741C338.929 258.062 338.773 257.555 338.463 257.221C338.152 256.881 337.631 256.711 336.898 256.711C336.295 256.711 335.794 256.893 335.396 257.256C334.997 257.613 334.766 258.097 334.701 258.706V265.017H333.066V258.785C333.066 257.402 332.39 256.711 331.036 256.711C329.97 256.711 329.24 257.165 328.848 258.073V265.017H327.222V255.507H328.76ZM348.887 265.017C348.793 264.829 348.717 264.495 348.658 264.015C347.902 264.8 347 265.192 345.951 265.192C345.014 265.192 344.243 264.929 343.64 264.401C343.042 263.868 342.743 263.194 342.743 262.38C342.743 261.39 343.118 260.622 343.868 260.077C344.624 259.526 345.685 259.251 347.05 259.251H348.632V258.504C348.632 257.936 348.462 257.484 348.122 257.15C347.782 256.811 347.281 256.641 346.619 256.641C346.039 256.641 345.553 256.787 345.16 257.08C344.768 257.373 344.571 257.728 344.571 258.144H342.937C342.937 257.669 343.104 257.212 343.438 256.772C343.777 256.327 344.234 255.976 344.809 255.718C345.389 255.46 346.024 255.331 346.716 255.331C347.812 255.331 348.67 255.606 349.291 256.157C349.912 256.702 350.234 257.455 350.258 258.416V262.793C350.258 263.666 350.369 264.36 350.592 264.876V265.017H348.887ZM346.188 263.777C346.698 263.777 347.182 263.646 347.639 263.382C348.096 263.118 348.427 262.775 348.632 262.354V260.402H347.357C345.365 260.402 344.369 260.985 344.369 262.151C344.369 262.661 344.539 263.06 344.879 263.347C345.219 263.634 345.655 263.777 346.188 263.777ZM354.573 265.017H352.947V255.507H354.573V265.017ZM352.815 252.984C352.815 252.721 352.895 252.498 353.053 252.316C353.217 252.135 353.457 252.044 353.773 252.044C354.09 252.044 354.33 252.135 354.494 252.316C354.658 252.498 354.74 252.721 354.74 252.984C354.74 253.248 354.658 253.468 354.494 253.644C354.33 253.819 354.09 253.907 353.773 253.907C353.457 253.907 353.217 253.819 353.053 253.644C352.895 253.468 352.815 253.248 352.815 252.984ZM358.722 255.507L358.774 256.702C359.501 255.788 360.45 255.331 361.622 255.331C363.632 255.331 364.646 256.465 364.663 258.732V265.017H363.037V258.724C363.031 258.038 362.873 257.531 362.562 257.203C362.258 256.875 361.78 256.711 361.13 256.711C360.603 256.711 360.14 256.852 359.741 257.133C359.343 257.414 359.032 257.783 358.81 258.24V265.017H357.184V255.507H358.722ZM367.15 264.164C367.15 263.883 367.232 263.648 367.396 263.461C367.566 263.273 367.818 263.18 368.152 263.18C368.486 263.18 368.738 263.273 368.908 263.461C369.084 263.648 369.172 263.883 369.172 264.164C369.172 264.434 369.084 264.659 368.908 264.841C368.738 265.022 368.486 265.113 368.152 265.113C367.818 265.113 367.566 265.022 367.396 264.841C367.232 264.659 367.15 264.434 367.15 264.164ZM373.54 255.507V266.115C373.54 267.943 372.711 268.857 371.053 268.857C370.695 268.857 370.364 268.805 370.06 268.699V267.398C370.247 267.445 370.493 267.469 370.798 267.469C371.161 267.469 371.437 267.369 371.624 267.17C371.817 266.977 371.914 266.637 371.914 266.15V255.507H373.54ZM371.747 252.984C371.747 252.727 371.826 252.507 371.984 252.325C372.148 252.138 372.386 252.044 372.696 252.044C373.013 252.044 373.253 252.135 373.417 252.316C373.581 252.498 373.663 252.721 373.663 252.984C373.663 253.248 373.581 253.468 373.417 253.644C373.253 253.819 373.013 253.907 372.696 253.907C372.38 253.907 372.143 253.819 371.984 253.644C371.826 253.468 371.747 253.248 371.747 252.984ZM381.705 262.494C381.705 262.055 381.538 261.715 381.204 261.475C380.876 261.229 380.299 261.018 379.473 260.842C378.652 260.666 377.999 260.455 377.513 260.209C377.032 259.963 376.675 259.67 376.44 259.33C376.212 258.99 376.098 258.586 376.098 258.117C376.098 257.338 376.426 256.679 377.082 256.14C377.744 255.601 378.588 255.331 379.613 255.331C380.691 255.331 381.564 255.609 382.232 256.166C382.906 256.723 383.243 257.435 383.243 258.302H381.608C381.608 257.856 381.418 257.473 381.037 257.15C380.662 256.828 380.188 256.667 379.613 256.667C379.021 256.667 378.559 256.796 378.225 257.054C377.891 257.312 377.724 257.648 377.724 258.064C377.724 258.457 377.879 258.753 378.189 258.952C378.5 259.151 379.06 259.342 379.868 259.523C380.683 259.705 381.342 259.922 381.846 260.174C382.35 260.426 382.722 260.73 382.962 261.088C383.208 261.439 383.331 261.87 383.331 262.38C383.331 263.229 382.991 263.912 382.312 264.428C381.632 264.938 380.75 265.192 379.666 265.192C378.904 265.192 378.23 265.058 377.645 264.788C377.059 264.519 376.599 264.144 376.265 263.663C375.937 263.177 375.772 262.652 375.772 262.09H377.398C377.428 262.635 377.645 263.068 378.049 263.391C378.459 263.707 378.998 263.865 379.666 263.865C380.281 263.865 380.773 263.742 381.143 263.496C381.518 263.244 381.705 262.91 381.705 262.494Z" fill="#020202"/>
<path d="M305 190.289H297C296.47 190.289 295.961 190.51 295.586 190.904C295.211 191.298 295 191.832 295 192.388V209.182C295 209.739 295.211 210.273 295.586 210.666C295.961 211.06 296.47 211.281 297 211.281H309C309.53 211.281 310.039 211.06 310.414 210.666C310.789 210.273 311 209.739 311 209.182V196.587L305 190.289ZM304 192.388L309 197.636H304V192.388ZM299.531 207.083H298.771V205.602H297.515V207.083H296.748V203.542H297.515V204.903H298.772V203.542H299.532V207.083H299.531ZM302.531 204.215H301.61V207.083H300.844V204.215H299.939V203.542H302.531V204.215ZM305.818 207.083L305.768 205.728C305.751 205.303 305.738 204.787 305.738 204.272H305.722C305.618 204.724 305.477 205.228 305.347 205.644L304.937 207.025H304.34L303.981 205.653C303.859 205.198 303.757 204.737 303.675 204.272H303.664C303.643 204.751 303.63 205.296 303.605 205.737L303.545 207.083H302.84L303.056 203.542H304.071L304.402 204.724C304.506 205.135 304.612 205.575 304.686 205.99H304.703C304.798 205.58 304.912 205.113 305.023 204.719L305.382 203.542H306.378L306.563 207.083H305.818ZM309.252 207.083H307.144V203.542H307.911V206.41H309.253V207.083H309.252Z" fill="black"/>
<path d="M305 221.777H297C296.47 221.777 295.961 221.998 295.586 222.392C295.211 222.785 295 223.319 295 223.876V240.669C295 241.226 295.211 241.76 295.586 242.154C295.961 242.547 296.47 242.769 297 242.769H309C309.53 242.769 310.039 242.547 310.414 242.154C310.789 241.76 311 241.226 311 240.669V228.074L305 221.777ZM300.446 237.953C300.721 237.953 301.027 237.889 301.208 237.815L301.346 238.563C301.178 238.651 300.8 238.746 300.309 238.746C298.912 238.746 298.192 237.833 298.192 236.624C298.191 235.178 299.175 234.372 300.398 234.372C300.872 234.372 301.231 234.473 301.393 234.561L301.207 235.323C300.963 235.218 300.702 235.164 300.439 235.166C299.713 235.166 299.149 235.626 299.149 236.57C299.15 237.418 299.631 237.953 300.446 237.953ZM302.937 238.746C302.476 238.746 302.02 238.621 301.792 238.488L301.978 237.695C302.224 237.827 302.602 237.959 302.992 237.959C303.412 237.959 303.634 237.777 303.634 237.5C303.634 237.235 303.442 237.084 302.956 236.901C302.284 236.656 301.847 236.266 301.847 235.649C301.847 234.926 302.422 234.372 303.376 234.372C303.831 234.372 304.167 234.473 304.407 234.585L304.203 235.36C303.939 235.225 303.65 235.157 303.357 235.158C302.961 235.158 302.77 235.348 302.77 235.567C302.77 235.838 302.998 235.958 303.519 236.166C304.233 236.443 304.569 236.833 304.569 237.43C304.568 238.142 304.046 238.746 302.937 238.746ZM306.177 238.746C305.716 238.746 305.26 238.621 305.032 238.488L305.218 237.695C305.464 237.827 305.842 237.959 306.232 237.959C306.652 237.959 306.874 237.777 306.874 237.5C306.874 237.235 306.682 237.084 306.196 236.901C305.524 236.656 305.087 236.266 305.087 235.649C305.087 234.926 305.662 234.372 306.616 234.372C307.071 234.372 307.407 234.473 307.647 234.585L307.443 235.36C307.179 235.225 306.89 235.157 306.597 235.158C306.201 235.158 306.01 235.348 306.01 235.567C306.01 235.838 306.238 235.958 306.759 236.166C307.473 236.443 307.809 236.833 307.809 237.43C307.809 238.142 307.286 238.746 306.177 238.746ZM305 229.124H304V223.876L309 229.124H305Z" fill="black"/>
<path d="M305 249.066H297C296.47 249.066 295.961 249.287 295.586 249.681C295.211 250.075 295 250.609 295 251.165V267.959C295 268.515 295.211 269.049 295.586 269.443C295.961 269.837 296.47 270.058 297 270.058H309C309.53 270.058 310.039 269.837 310.414 269.443C310.789 269.049 311 268.515 311 267.959V255.364L305 249.066ZM302.255 263.956C302.255 265.367 301.611 265.86 300.574 265.86C300.329 265.86 300.007 265.815 299.797 265.742L299.916 264.838C300.063 264.89 300.252 264.926 300.462 264.926C300.91 264.926 301.191 264.713 301.191 263.942V260.825H302.255V263.956ZM304.298 265.852C303.759 265.852 303.227 265.704 302.961 265.551L303.178 264.624C303.465 264.778 303.907 264.933 304.362 264.933C304.853 264.933 305.111 264.72 305.111 264.396C305.111 264.087 304.887 263.91 304.32 263.697C303.536 263.412 303.025 262.955 303.025 262.234C303.025 261.388 303.697 260.742 304.811 260.742C305.344 260.742 305.736 260.859 306.016 260.992L305.778 261.895C305.589 261.8 305.253 261.66 304.791 261.66C304.329 261.66 304.104 261.881 304.104 262.138C304.104 262.454 304.371 262.594 304.979 262.836C305.813 263.16 306.205 263.614 306.205 264.314C306.203 265.146 305.595 265.852 304.298 265.852ZM305 256.413H304V251.165L309 256.413H305Z" fill="black"/>
<rect x="226.5" y="412.5" width="670" height="177" fill="white" fill-opacity="0.47" stroke="black"/>
<rect x="261.5" y="429.5" width="617" height="36" stroke="black"/>
<path d="M328.997 497.339H327.371V487.829H328.997V497.339ZM327.239 485.307C327.239 485.043 327.318 484.82 327.477 484.639C327.641 484.457 327.881 484.366 328.197 484.366C328.514 484.366 328.754 484.457 328.918 484.639C329.082 484.82 329.164 485.043 329.164 485.307C329.164 485.57 329.082 485.79 328.918 485.966C328.754 486.142 328.514 486.229 328.197 486.229C327.881 486.229 327.641 486.142 327.477 485.966C327.318 485.79 327.239 485.57 327.239 485.307ZM333.146 487.829L333.198 489.024C333.925 488.11 334.874 487.653 336.046 487.653C338.056 487.653 339.069 488.787 339.087 491.055V497.339H337.461V491.046C337.455 490.36 337.297 489.854 336.986 489.525C336.682 489.197 336.204 489.033 335.554 489.033C335.026 489.033 334.563 489.174 334.165 489.455C333.767 489.736 333.456 490.105 333.233 490.562V497.339H331.607V487.829H333.146ZM341.144 492.505C341.144 491.046 341.489 489.874 342.181 488.989C342.872 488.099 343.777 487.653 344.896 487.653C346.01 487.653 346.892 488.034 347.542 488.796V483.839H349.168V497.339H347.674L347.595 496.319C346.944 497.116 346.039 497.515 344.879 497.515C343.777 497.515 342.878 497.063 342.181 496.161C341.489 495.259 341.144 494.081 341.144 492.628V492.505ZM342.77 492.689C342.77 493.768 342.992 494.611 343.438 495.221C343.883 495.83 344.498 496.135 345.283 496.135C346.314 496.135 347.067 495.672 347.542 494.746V490.378C347.056 489.481 346.309 489.033 345.301 489.033C344.504 489.033 343.883 489.341 343.438 489.956C342.992 490.571 342.77 491.482 342.77 492.689ZM355.646 497.515C354.356 497.515 353.308 497.093 352.499 496.249C351.69 495.399 351.286 494.266 351.286 492.848V492.549C351.286 491.605 351.465 490.765 351.822 490.026C352.186 489.282 352.689 488.702 353.334 488.286C353.984 487.864 354.688 487.653 355.443 487.653C356.68 487.653 357.641 488.061 358.326 488.875C359.012 489.689 359.354 490.855 359.354 492.373V493.05H352.912C352.936 493.987 353.208 494.746 353.729 495.326C354.257 495.9 354.925 496.188 355.733 496.188C356.308 496.188 356.794 496.07 357.192 495.836C357.591 495.602 357.939 495.291 358.238 494.904L359.231 495.678C358.435 496.902 357.239 497.515 355.646 497.515ZM355.443 488.989C354.787 488.989 354.236 489.229 353.791 489.71C353.346 490.185 353.07 490.853 352.965 491.714H357.729V491.591C357.682 490.765 357.459 490.126 357.061 489.675C356.662 489.218 356.123 488.989 355.443 488.989ZM364.435 491.301L366.544 487.829H368.442L365.331 492.531L368.539 497.339H366.658L364.461 493.779L362.264 497.339H360.374L363.582 492.531L360.471 487.829H362.352L364.435 491.301ZM370.209 496.486C370.209 496.205 370.291 495.971 370.455 495.783C370.625 495.596 370.877 495.502 371.211 495.502C371.545 495.502 371.797 495.596 371.967 495.783C372.143 495.971 372.23 496.205 372.23 496.486C372.23 496.756 372.143 496.981 371.967 497.163C371.797 497.345 371.545 497.436 371.211 497.436C370.877 497.436 370.625 497.345 370.455 497.163C370.291 496.981 370.209 496.756 370.209 496.486ZM376.546 488.98C377.267 488.096 378.204 487.653 379.358 487.653C381.368 487.653 382.382 488.787 382.399 491.055V497.339H380.773V491.046C380.768 490.36 380.609 489.854 380.299 489.525C379.994 489.197 379.517 489.033 378.866 489.033C378.339 489.033 377.876 489.174 377.478 489.455C377.079 489.736 376.769 490.105 376.546 490.562V497.339H374.92V483.839H376.546V488.98ZM387.04 485.526V487.829H388.815V489.086H387.04V494.983C387.04 495.364 387.119 495.651 387.277 495.845C387.436 496.032 387.705 496.126 388.086 496.126C388.273 496.126 388.531 496.091 388.859 496.021V497.339C388.432 497.456 388.016 497.515 387.611 497.515C386.885 497.515 386.337 497.295 385.968 496.855C385.599 496.416 385.414 495.792 385.414 494.983V489.086H383.683V487.829H385.414V485.526H387.04ZM392.252 487.829L392.296 488.884C392.993 488.063 393.934 487.653 395.117 487.653C396.447 487.653 397.353 488.163 397.833 489.183C398.149 488.726 398.56 488.356 399.063 488.075C399.573 487.794 400.174 487.653 400.865 487.653C402.951 487.653 404.012 488.758 404.047 490.967V497.339H402.421V491.063C402.421 490.384 402.266 489.877 401.955 489.543C401.645 489.203 401.123 489.033 400.391 489.033C399.787 489.033 399.286 489.215 398.888 489.578C398.489 489.936 398.258 490.419 398.193 491.028V497.339H396.559V491.107C396.559 489.725 395.882 489.033 394.528 489.033C393.462 489.033 392.732 489.487 392.34 490.396V497.339H390.714V487.829H392.252ZM408.274 497.339H406.648V483.839H408.274V497.339Z" fill="black"/>
<path d="M332.768 523.155C332.768 522.716 332.601 522.376 332.267 522.136C331.938 521.89 331.361 521.679 330.535 521.503C329.715 521.327 329.062 521.116 328.575 520.87C328.095 520.624 327.737 520.331 327.503 519.991C327.274 519.651 327.16 519.247 327.16 518.778C327.16 517.999 327.488 517.34 328.145 516.801C328.807 516.262 329.65 515.992 330.676 515.992C331.754 515.992 332.627 516.271 333.295 516.827C333.969 517.384 334.306 518.096 334.306 518.963H332.671C332.671 518.518 332.48 518.134 332.1 517.812C331.725 517.489 331.25 517.328 330.676 517.328C330.084 517.328 329.621 517.457 329.287 517.715C328.953 517.973 328.786 518.31 328.786 518.726C328.786 519.118 328.941 519.414 329.252 519.613C329.562 519.812 330.122 520.003 330.931 520.185C331.745 520.366 332.404 520.583 332.908 520.835C333.412 521.087 333.784 521.392 334.024 521.749C334.271 522.101 334.394 522.531 334.394 523.041C334.394 523.891 334.054 524.573 333.374 525.089C332.694 525.599 331.812 525.854 330.729 525.854C329.967 525.854 329.293 525.719 328.707 525.449C328.121 525.18 327.661 524.805 327.327 524.324C326.999 523.838 326.835 523.313 326.835 522.751H328.461C328.49 523.296 328.707 523.729 329.111 524.052C329.521 524.368 330.061 524.526 330.729 524.526C331.344 524.526 331.836 524.403 332.205 524.157C332.58 523.905 332.768 523.571 332.768 523.155ZM338.718 513.865V516.168H340.493V517.425H338.718V523.322C338.718 523.703 338.797 523.99 338.955 524.184C339.113 524.371 339.383 524.465 339.764 524.465C339.951 524.465 340.209 524.43 340.537 524.359V525.678C340.109 525.795 339.693 525.854 339.289 525.854C338.562 525.854 338.015 525.634 337.646 525.194C337.276 524.755 337.092 524.131 337.092 523.322V517.425H335.36V516.168H337.092V513.865H338.718ZM345.512 523.296L347.727 516.168H349.467L345.644 527.146C345.052 528.728 344.111 529.519 342.822 529.519L342.515 529.492L341.908 529.378V528.06L342.348 528.095C342.898 528.095 343.326 527.983 343.631 527.761C343.941 527.538 344.196 527.131 344.396 526.539L344.756 525.572L341.363 516.168H343.139L345.512 523.296ZM352.692 525.678H351.066V512.178H352.692V525.678ZM359.249 525.854C357.96 525.854 356.911 525.432 356.103 524.588C355.294 523.738 354.89 522.604 354.89 521.187V520.888C354.89 519.944 355.068 519.104 355.426 518.365C355.789 517.621 356.293 517.041 356.938 516.625C357.588 516.203 358.291 515.992 359.047 515.992C360.283 515.992 361.244 516.399 361.93 517.214C362.615 518.028 362.958 519.194 362.958 520.712V521.389H356.516C356.539 522.326 356.812 523.085 357.333 523.665C357.86 524.239 358.528 524.526 359.337 524.526C359.911 524.526 360.397 524.409 360.796 524.175C361.194 523.94 361.543 523.63 361.842 523.243L362.835 524.017C362.038 525.241 360.843 525.854 359.249 525.854ZM359.047 517.328C358.391 517.328 357.84 517.568 357.395 518.049C356.949 518.523 356.674 519.191 356.568 520.053H361.332V519.93C361.285 519.104 361.062 518.465 360.664 518.014C360.266 517.557 359.727 517.328 359.047 517.328ZM364.883 524.825C364.883 524.544 364.965 524.31 365.129 524.122C365.299 523.935 365.551 523.841 365.885 523.841C366.219 523.841 366.471 523.935 366.641 524.122C366.816 524.31 366.904 524.544 366.904 524.825C366.904 525.095 366.816 525.32 366.641 525.502C366.471 525.684 366.219 525.774 365.885 525.774C365.551 525.774 365.299 525.684 365.129 525.502C364.965 525.32 364.883 525.095 364.883 524.825ZM373.408 524.526C373.988 524.526 374.495 524.351 374.929 523.999C375.362 523.647 375.603 523.208 375.649 522.681H377.188C377.158 523.226 376.971 523.744 376.625 524.236C376.279 524.729 375.816 525.121 375.236 525.414C374.662 525.707 374.053 525.854 373.408 525.854C372.113 525.854 371.082 525.423 370.314 524.562C369.553 523.694 369.172 522.511 369.172 521.011V520.738C369.172 519.812 369.342 518.989 369.682 518.269C370.021 517.548 370.508 516.988 371.141 516.59C371.779 516.191 372.532 515.992 373.399 515.992C374.466 515.992 375.351 516.312 376.054 516.95C376.763 517.589 377.141 518.418 377.188 519.438H375.649C375.603 518.822 375.368 518.318 374.946 517.926C374.53 517.527 374.015 517.328 373.399 517.328C372.573 517.328 371.932 517.627 371.475 518.225C371.023 518.816 370.798 519.675 370.798 520.8V521.107C370.798 522.203 371.023 523.047 371.475 523.639C371.926 524.23 372.57 524.526 373.408 524.526ZM384.553 523.155C384.553 522.716 384.386 522.376 384.052 522.136C383.724 521.89 383.146 521.679 382.32 521.503C381.5 521.327 380.847 521.116 380.36 520.87C379.88 520.624 379.522 520.331 379.288 519.991C379.06 519.651 378.945 519.247 378.945 518.778C378.945 517.999 379.273 517.34 379.93 516.801C380.592 516.262 381.436 515.992 382.461 515.992C383.539 515.992 384.412 516.271 385.08 516.827C385.754 517.384 386.091 518.096 386.091 518.963H384.456C384.456 518.518 384.266 518.134 383.885 517.812C383.51 517.489 383.035 517.328 382.461 517.328C381.869 517.328 381.406 517.457 381.072 517.715C380.738 517.973 380.571 518.31 380.571 518.726C380.571 519.118 380.727 519.414 381.037 519.613C381.348 519.812 381.907 520.003 382.716 520.185C383.53 520.366 384.189 520.583 384.693 520.835C385.197 521.087 385.569 521.392 385.81 521.749C386.056 522.101 386.179 522.531 386.179 523.041C386.179 523.891 385.839 524.573 385.159 525.089C384.479 525.599 383.598 525.854 382.514 525.854C381.752 525.854 381.078 525.719 380.492 525.449C379.906 525.18 379.446 524.805 379.112 524.324C378.784 523.838 378.62 523.313 378.62 522.751H380.246C380.275 523.296 380.492 523.729 380.896 524.052C381.307 524.368 381.846 524.526 382.514 524.526C383.129 524.526 383.621 524.403 383.99 524.157C384.365 523.905 384.553 523.571 384.553 523.155ZM393.834 523.155C393.834 522.716 393.667 522.376 393.333 522.136C393.005 521.89 392.428 521.679 391.602 521.503C390.781 521.327 390.128 521.116 389.642 520.87C389.161 520.624 388.804 520.331 388.569 519.991C388.341 519.651 388.227 519.247 388.227 518.778C388.227 517.999 388.555 517.34 389.211 516.801C389.873 516.262 390.717 515.992 391.742 515.992C392.82 515.992 393.693 516.271 394.361 516.827C395.035 517.384 395.372 518.096 395.372 518.963H393.737C393.737 518.518 393.547 518.134 393.166 517.812C392.791 517.489 392.316 517.328 391.742 517.328C391.15 517.328 390.688 517.457 390.354 517.715C390.02 517.973 389.853 518.31 389.853 518.726C389.853 519.118 390.008 519.414 390.318 519.613C390.629 519.812 391.188 520.003 391.997 520.185C392.812 520.366 393.471 520.583 393.975 520.835C394.479 521.087 394.851 521.392 395.091 521.749C395.337 522.101 395.46 522.531 395.46 523.041C395.46 523.891 395.12 524.573 394.44 525.089C393.761 525.599 392.879 525.854 391.795 525.854C391.033 525.854 390.359 525.719 389.773 525.449C389.188 525.18 388.728 524.805 388.394 524.324C388.065 523.838 387.901 523.313 387.901 522.751H389.527C389.557 523.296 389.773 523.729 390.178 524.052C390.588 524.368 391.127 524.526 391.795 524.526C392.41 524.526 392.902 524.403 393.271 524.157C393.646 523.905 393.834 523.571 393.834 523.155Z" fill="#020202"/>
<path d="M328.76 544.507L328.804 545.562C329.501 544.741 330.441 544.331 331.625 544.331C332.955 544.331 333.86 544.841 334.341 545.86C334.657 545.403 335.067 545.034 335.571 544.753C336.081 544.472 336.682 544.331 337.373 544.331C339.459 544.331 340.52 545.436 340.555 547.645V554.017H338.929V547.741C338.929 547.062 338.773 546.555 338.463 546.221C338.152 545.881 337.631 545.711 336.898 545.711C336.295 545.711 335.794 545.893 335.396 546.256C334.997 546.613 334.766 547.097 334.701 547.706V554.017H333.066V547.785C333.066 546.402 332.39 545.711 331.036 545.711C329.97 545.711 329.24 546.165 328.848 547.073V554.017H327.222V544.507H328.76ZM348.887 554.017C348.793 553.829 348.717 553.495 348.658 553.015C347.902 553.8 347 554.192 345.951 554.192C345.014 554.192 344.243 553.929 343.64 553.401C343.042 552.868 342.743 552.194 342.743 551.38C342.743 550.39 343.118 549.622 343.868 549.077C344.624 548.526 345.685 548.251 347.05 548.251H348.632V547.504C348.632 546.936 348.462 546.484 348.122 546.15C347.782 545.811 347.281 545.641 346.619 545.641C346.039 545.641 345.553 545.787 345.16 546.08C344.768 546.373 344.571 546.728 344.571 547.144H342.937C342.937 546.669 343.104 546.212 343.438 545.772C343.777 545.327 344.234 544.976 344.809 544.718C345.389 544.46 346.024 544.331 346.716 544.331C347.812 544.331 348.67 544.606 349.291 545.157C349.912 545.702 350.234 546.455 350.258 547.416V551.793C350.258 552.666 350.369 553.36 350.592 553.876V554.017H348.887ZM346.188 552.777C346.698 552.777 347.182 552.646 347.639 552.382C348.096 552.118 348.427 551.775 348.632 551.354V549.402H347.357C345.365 549.402 344.369 549.985 344.369 551.151C344.369 551.661 344.539 552.06 344.879 552.347C345.219 552.634 345.655 552.777 346.188 552.777ZM354.573 554.017H352.947V544.507H354.573V554.017ZM352.815 541.984C352.815 541.721 352.895 541.498 353.053 541.316C353.217 541.135 353.457 541.044 353.773 541.044C354.09 541.044 354.33 541.135 354.494 541.316C354.658 541.498 354.74 541.721 354.74 541.984C354.74 542.248 354.658 542.468 354.494 542.644C354.33 542.819 354.09 542.907 353.773 542.907C353.457 542.907 353.217 542.819 353.053 542.644C352.895 542.468 352.815 542.248 352.815 541.984ZM358.722 544.507L358.774 545.702C359.501 544.788 360.45 544.331 361.622 544.331C363.632 544.331 364.646 545.465 364.663 547.732V554.017H363.037V547.724C363.031 547.038 362.873 546.531 362.562 546.203C362.258 545.875 361.78 545.711 361.13 545.711C360.603 545.711 360.14 545.852 359.741 546.133C359.343 546.414 359.032 546.783 358.81 547.24V554.017H357.184V544.507H358.722ZM367.15 553.164C367.15 552.883 367.232 552.648 367.396 552.461C367.566 552.273 367.818 552.18 368.152 552.18C368.486 552.18 368.738 552.273 368.908 552.461C369.084 552.648 369.172 552.883 369.172 553.164C369.172 553.434 369.084 553.659 368.908 553.841C368.738 554.022 368.486 554.113 368.152 554.113C367.818 554.113 367.566 554.022 367.396 553.841C367.232 553.659 367.15 553.434 367.15 553.164ZM373.54 544.507V555.115C373.54 556.943 372.711 557.857 371.053 557.857C370.695 557.857 370.364 557.805 370.06 557.699V556.398C370.247 556.445 370.493 556.469 370.798 556.469C371.161 556.469 371.437 556.369 371.624 556.17C371.817 555.977 371.914 555.637 371.914 555.15V544.507H373.54ZM371.747 541.984C371.747 541.727 371.826 541.507 371.984 541.325C372.148 541.138 372.386 541.044 372.696 541.044C373.013 541.044 373.253 541.135 373.417 541.316C373.581 541.498 373.663 541.721 373.663 541.984C373.663 542.248 373.581 542.468 373.417 542.644C373.253 542.819 373.013 542.907 372.696 542.907C372.38 542.907 372.143 542.819 371.984 542.644C371.826 542.468 371.747 542.248 371.747 541.984ZM381.705 551.494C381.705 551.055 381.538 550.715 381.204 550.475C380.876 550.229 380.299 550.018 379.473 549.842C378.652 549.666 377.999 549.455 377.513 549.209C377.032 548.963 376.675 548.67 376.44 548.33C376.212 547.99 376.098 547.586 376.098 547.117C376.098 546.338 376.426 545.679 377.082 545.14C377.744 544.601 378.588 544.331 379.613 544.331C380.691 544.331 381.564 544.609 382.232 545.166C382.906 545.723 383.243 546.435 383.243 547.302H381.608C381.608 546.856 381.418 546.473 381.037 546.15C380.662 545.828 380.188 545.667 379.613 545.667C379.021 545.667 378.559 545.796 378.225 546.054C377.891 546.312 377.724 546.648 377.724 547.064C377.724 547.457 377.879 547.753 378.189 547.952C378.5 548.151 379.06 548.342 379.868 548.523C380.683 548.705 381.342 548.922 381.846 549.174C382.35 549.426 382.722 549.73 382.962 550.088C383.208 550.439 383.331 550.87 383.331 551.38C383.331 552.229 382.991 552.912 382.312 553.428C381.632 553.938 380.75 554.192 379.666 554.192C378.904 554.192 378.23 554.058 377.645 553.788C377.059 553.519 376.599 553.144 376.265 552.663C375.937 552.177 375.772 551.652 375.772 551.09H377.398C377.428 551.635 377.645 552.068 378.049 552.391C378.459 552.707 378.998 552.865 379.666 552.865C380.281 552.865 380.773 552.742 381.143 552.496C381.518 552.244 381.705 551.91 381.705 551.494Z" fill="#020202"/>
<path d="M305 479.289H297C296.47 479.289 295.961 479.51 295.586 479.904C295.211 480.298 295 480.832 295 481.388V498.182C295 498.739 295.211 499.273 295.586 499.666C295.961 500.06 296.47 500.281 297 500.281H309C309.53 500.281 310.039 500.06 310.414 499.666C310.789 499.273 311 498.739 311 498.182V485.587L305 479.289ZM304 481.388L309 486.636H304V481.388ZM299.531 496.083H298.771V494.602H297.515V496.083H296.748V492.542H297.515V493.903H298.772V492.542H299.532V496.083H299.531ZM302.531 493.215H301.61V496.083H300.844V493.215H299.939V492.542H302.531V493.215ZM305.818 496.083L305.768 494.728C305.751 494.303 305.738 493.787 305.738 493.272H305.722C305.618 493.724 305.477 494.228 305.347 494.644L304.937 496.025H304.34L303.981 494.653C303.859 494.198 303.757 493.737 303.675 493.272H303.664C303.643 493.751 303.63 494.296 303.605 494.737L303.545 496.083H302.84L303.056 492.542H304.071L304.402 493.724C304.506 494.135 304.612 494.575 304.686 494.99H304.703C304.798 494.58 304.912 494.113 305.023 493.719L305.382 492.542H306.378L306.563 496.083H305.818ZM309.252 496.083H307.144V492.542H307.911V495.41H309.253V496.083H309.252Z" fill="black"/>
<path d="M305 510.777H297C296.47 510.777 295.961 510.998 295.586 511.392C295.211 511.785 295 512.319 295 512.876V529.669C295 530.226 295.211 530.76 295.586 531.154C295.961 531.547 296.47 531.769 297 531.769H309C309.53 531.769 310.039 531.547 310.414 531.154C310.789 530.76 311 530.226 311 529.669V517.074L305 510.777ZM300.446 526.953C300.721 526.953 301.027 526.889 301.208 526.815L301.346 527.563C301.178 527.651 300.8 527.746 300.309 527.746C298.912 527.746 298.192 526.833 298.192 525.624C298.191 524.178 299.175 523.372 300.398 523.372C300.872 523.372 301.231 523.473 301.393 523.561L301.207 524.323C300.963 524.218 300.702 524.164 300.439 524.166C299.713 524.166 299.149 524.626 299.149 525.57C299.15 526.418 299.631 526.953 300.446 526.953ZM302.937 527.746C302.476 527.746 302.02 527.621 301.792 527.488L301.978 526.695C302.224 526.827 302.602 526.959 302.992 526.959C303.412 526.959 303.634 526.777 303.634 526.5C303.634 526.235 303.442 526.084 302.956 525.901C302.284 525.656 301.847 525.266 301.847 524.649C301.847 523.926 302.422 523.372 303.376 523.372C303.831 523.372 304.167 523.473 304.407 523.585L304.203 524.36C303.939 524.225 303.65 524.157 303.357 524.158C302.961 524.158 302.77 524.348 302.77 524.567C302.77 524.838 302.998 524.958 303.519 525.166C304.233 525.443 304.569 525.833 304.569 526.43C304.568 527.142 304.046 527.746 302.937 527.746ZM306.177 527.746C305.716 527.746 305.26 527.621 305.032 527.488L305.218 526.695C305.464 526.827 305.842 526.959 306.232 526.959C306.652 526.959 306.874 526.777 306.874 526.5C306.874 526.235 306.682 526.084 306.196 525.901C305.524 525.656 305.087 525.266 305.087 524.649C305.087 523.926 305.662 523.372 306.616 523.372C307.071 523.372 307.407 523.473 307.647 523.585L307.443 524.36C307.179 524.225 306.89 524.157 306.597 524.158C306.201 524.158 306.01 524.348 306.01 524.567C306.01 524.838 306.238 524.958 306.759 525.166C307.473 525.443 307.809 525.833 307.809 526.43C307.809 527.142 307.286 527.746 306.177 527.746ZM305 518.124H304V512.876L309 518.124H305Z" fill="black"/>
<path d="M305 538.066H297C296.47 538.066 295.961 538.287 295.586 538.681C295.211 539.075 295 539.609 295 540.165V556.959C295 557.515 295.211 558.049 295.586 558.443C295.961 558.837 296.47 559.058 297 559.058H309C309.53 559.058 310.039 558.837 310.414 558.443C310.789 558.049 311 557.515 311 556.959V544.364L305 538.066ZM302.255 552.956C302.255 554.367 301.611 554.86 300.574 554.86C300.329 554.86 300.007 554.815 299.797 554.742L299.916 553.838C300.063 553.89 300.252 553.926 300.462 553.926C300.91 553.926 301.191 553.713 301.191 552.942V549.825H302.255V552.956ZM304.298 554.852C303.759 554.852 303.227 554.704 302.961 554.551L303.178 553.624C303.465 553.778 303.907 553.933 304.362 553.933C304.853 553.933 305.111 553.72 305.111 553.396C305.111 553.087 304.887 552.91 304.32 552.697C303.536 552.412 303.025 551.955 303.025 551.234C303.025 550.388 303.697 549.742 304.811 549.742C305.344 549.742 305.736 549.859 306.016 549.992L305.778 550.895C305.589 550.8 305.253 550.66 304.791 550.66C304.329 550.66 304.104 550.881 304.104 551.138C304.104 551.454 304.371 551.594 304.979 551.836C305.813 552.16 306.205 552.614 306.205 553.314C306.203 554.146 305.595 554.852 304.298 554.852ZM305 545.413H304V540.165L309 545.413H305Z" fill="black"/>
<path d="M275.045 450.849C275.625 450.849 276.132 450.673 276.565 450.321C276.999 449.97 277.239 449.53 277.286 449.003H278.824C278.795 449.548 278.607 450.066 278.262 450.559C277.916 451.051 277.453 451.443 276.873 451.736C276.299 452.029 275.689 452.176 275.045 452.176C273.75 452.176 272.719 451.745 271.951 450.884C271.189 450.017 270.809 448.833 270.809 447.333V447.061C270.809 446.135 270.979 445.312 271.318 444.591C271.658 443.87 272.145 443.311 272.777 442.912C273.416 442.514 274.169 442.314 275.036 442.314C276.103 442.314 276.987 442.634 277.69 443.272C278.399 443.911 278.777 444.74 278.824 445.76H277.286C277.239 445.145 277.005 444.641 276.583 444.248C276.167 443.85 275.651 443.65 275.036 443.65C274.21 443.65 273.568 443.949 273.111 444.547C272.66 445.139 272.435 445.997 272.435 447.122V447.43C272.435 448.525 272.66 449.369 273.111 449.961C273.562 450.553 274.207 450.849 275.045 450.849ZM282.182 442.49L282.226 443.545C282.923 442.725 283.863 442.314 285.047 442.314C286.377 442.314 287.282 442.824 287.763 443.844C288.079 443.387 288.489 443.018 288.993 442.736C289.503 442.455 290.104 442.314 290.795 442.314C292.881 442.314 293.941 443.419 293.977 445.628V452H292.351V445.725C292.351 445.045 292.195 444.538 291.885 444.204C291.574 443.864 291.053 443.694 290.32 443.694C289.717 443.694 289.216 443.876 288.817 444.239C288.419 444.597 288.188 445.08 288.123 445.689V452H286.488V445.769C286.488 444.386 285.812 443.694 284.458 443.694C283.392 443.694 282.662 444.148 282.27 445.057V452H280.644V442.49H282.182ZM296.042 447.166C296.042 445.707 296.388 444.535 297.079 443.65C297.771 442.76 298.676 442.314 299.795 442.314C300.908 442.314 301.79 442.695 302.44 443.457V438.5H304.066V452H302.572L302.493 450.98C301.843 451.777 300.938 452.176 299.777 452.176C298.676 452.176 297.776 451.725 297.079 450.822C296.388 449.92 296.042 448.742 296.042 447.289V447.166ZM297.668 447.351C297.668 448.429 297.891 449.272 298.336 449.882C298.781 450.491 299.396 450.796 300.182 450.796C301.213 450.796 301.966 450.333 302.44 449.407V445.039C301.954 444.143 301.207 443.694 300.199 443.694C299.402 443.694 298.781 444.002 298.336 444.617C297.891 445.232 297.668 446.144 297.668 447.351Z" fill="black"/>
<path d="M179.277 41.4453V44.3633H169.996V50.6562C170.348 50.5156 170.746 50.3984 171.191 50.3047C171.66 50.2109 172.258 50.1641 172.984 50.1641C174.297 50.1641 175.492 50.4805 176.57 51.1133C177.672 51.7461 178.551 52.6016 179.207 53.6797C179.887 54.7578 180.227 55.9883 180.227 57.3711C180.227 58.9648 179.852 60.3828 179.102 61.625C178.352 62.8438 177.32 63.8047 176.008 64.5078C174.695 65.1875 173.207 65.5273 171.543 65.5273C170.699 65.5273 169.867 65.3984 169.047 65.1406C168.227 64.9062 167.488 64.6016 166.832 64.2266C166.176 63.8516 165.637 63.4766 165.215 63.1016V59.6211C165.66 59.9727 166.199 60.3945 166.832 60.8867C167.465 61.3555 168.18 61.7773 168.977 62.1523C169.773 62.5039 170.629 62.6797 171.543 62.6797C172.598 62.6797 173.559 62.4688 174.426 62.0469C175.293 61.625 175.973 61.0391 176.465 60.2891C176.98 59.5391 177.238 58.6602 177.238 57.6523C177.238 56.6914 176.969 55.8711 176.43 55.1914C175.891 54.4883 175.176 53.9492 174.285 53.5742C173.395 53.1758 172.422 52.9766 171.367 52.9766C170.477 52.9766 169.656 53.0938 168.906 53.3281C168.18 53.5391 167.488 53.7734 166.832 54.0312V41.4453H179.277ZM187.609 60.7109C188.289 60.7109 188.863 60.957 189.332 61.4492C189.824 61.918 190.07 62.4922 190.07 63.1719C190.07 63.8281 189.824 64.4023 189.332 64.8945C188.863 65.3867 188.289 65.6328 187.609 65.6328C186.93 65.6328 186.344 65.3867 185.852 64.8945C185.383 64.4023 185.148 63.8281 185.148 63.1719C185.148 62.4922 185.383 61.918 185.852 61.4492C186.344 60.957 186.93 60.7109 187.609 60.7109ZM213.66 47.0703C214.668 47.0703 215.688 47.3164 216.719 47.8086C217.773 48.2773 218.676 48.9336 219.426 49.7773V47.4219H222.309V64.6484C222.309 66.7344 221.887 68.4688 221.043 69.8516C220.199 71.2344 219.074 72.2656 217.668 72.9453C216.262 73.625 214.727 73.9648 213.062 73.9648C211.984 73.9648 211.059 73.8359 210.285 73.5781C209.535 73.3438 208.891 73.0391 208.352 72.6641C207.812 72.3125 207.32 71.9727 206.875 71.6445V68.5508C207.227 68.8086 207.684 69.1367 208.246 69.5352C208.832 69.957 209.523 70.332 210.32 70.6602C211.141 70.9883 212.055 71.1523 213.062 71.1523C214.211 71.1523 215.266 70.9414 216.227 70.5195C217.188 70.0977 217.961 69.4766 218.547 68.6562C219.133 67.8359 219.426 66.8516 219.426 65.7031V62.0117C218.816 62.9492 217.984 63.7695 216.93 64.4727C215.898 65.1758 214.715 65.5273 213.379 65.5273C211.879 65.5273 210.508 65.1523 209.266 64.4023C208.023 63.6289 207.027 62.5625 206.277 61.2031C205.551 59.8438 205.188 58.2734 205.188 56.4922C205.188 54.5469 205.551 52.8711 206.277 51.4648C207.027 50.0586 208.047 48.9805 209.336 48.2305C210.625 47.457 212.066 47.0703 213.66 47.0703ZM214.188 49.918C212.922 49.918 211.844 50.2344 210.953 50.8672C210.062 51.4766 209.371 52.2852 208.879 53.293C208.41 54.2773 208.176 55.3438 208.176 56.4922C208.176 57.6172 208.41 58.6484 208.879 59.5859C209.348 60.5234 210.004 61.2734 210.848 61.8359C211.715 62.3984 212.711 62.6797 213.836 62.6797C214.914 62.6797 215.875 62.3984 216.719 61.8359C217.562 61.2734 218.23 60.5 218.723 59.5156C219.215 58.5312 219.449 57.418 219.426 56.1758L219.391 52.8008C218.664 51.8867 217.879 51.1836 217.035 50.6914C216.215 50.1758 215.266 49.918 214.188 49.918ZM236.23 47.0703C238.012 47.0703 239.594 47.4922 240.977 48.3359C242.359 49.1797 243.438 50.3047 244.211 51.7109C245.008 53.1172 245.406 54.6523 245.406 56.3164C245.406 57.9805 245.008 59.5156 244.211 60.9219C243.438 62.3047 242.359 63.418 240.977 64.2617C239.594 65.1055 238.012 65.5273 236.23 65.5273C234.449 65.5273 232.867 65.1055 231.484 64.2617C230.102 63.418 229.012 62.3047 228.215 60.9219C227.441 59.5156 227.055 57.9805 227.055 56.3164C227.055 54.6523 227.441 53.1172 228.215 51.7109C229.012 50.3047 230.102 49.1797 231.484 48.3359C232.867 47.4922 234.449 47.0703 236.23 47.0703ZM236.23 49.8828C234.988 49.8828 233.898 50.1875 232.961 50.7969C232.023 51.3828 231.297 52.168 230.781 53.1523C230.289 54.1133 230.043 55.168 230.043 56.3164C230.043 57.4414 230.289 58.4961 230.781 59.4805C231.297 60.4414 232.023 61.2266 232.961 61.8359C233.898 62.4219 234.988 62.7148 236.23 62.7148C237.496 62.7148 238.586 62.4219 239.5 61.8359C240.438 61.2266 241.152 60.4414 241.645 59.4805C242.16 58.4961 242.418 57.4414 242.418 56.3164C242.418 55.168 242.16 54.1133 241.645 53.1523C241.152 52.168 240.438 51.3828 239.5 50.7969C238.586 50.1875 237.496 49.8828 236.23 49.8828ZM265.551 42.3594V47.4219H270.684V50.1289H265.551V60.4297C265.551 61.1562 265.738 61.7305 266.113 62.1523C266.488 62.5742 267.062 62.7852 267.836 62.7852C268.539 62.7852 269.125 62.7031 269.594 62.5391C270.062 62.3516 270.473 62.1523 270.824 61.9414V64.2969C270.355 64.6719 269.852 64.9648 269.312 65.1758C268.797 65.4102 268.094 65.5273 267.203 65.5273C265.703 65.5273 264.566 65.082 263.793 64.1914C263.043 63.2773 262.668 62.0703 262.668 60.5703V50.1289H259.293V49.2852C260.441 48.7695 261.402 47.9258 262.176 46.7539C262.949 45.5586 263.629 44.0938 264.215 42.3594H265.551ZM283.867 47.0703C285.648 47.0703 287.23 47.4922 288.613 48.3359C289.996 49.1797 291.074 50.3047 291.848 51.7109C292.645 53.1172 293.043 54.6523 293.043 56.3164C293.043 57.9805 292.645 59.5156 291.848 60.9219C291.074 62.3047 289.996 63.418 288.613 64.2617C287.23 65.1055 285.648 65.5273 283.867 65.5273C282.086 65.5273 280.504 65.1055 279.121 64.2617C277.738 63.418 276.648 62.3047 275.852 60.9219C275.078 59.5156 274.691 57.9805 274.691 56.3164C274.691 54.6523 275.078 53.1172 275.852 51.7109C276.648 50.3047 277.738 49.1797 279.121 48.3359C280.504 47.4922 282.086 47.0703 283.867 47.0703ZM283.867 49.8828C282.625 49.8828 281.535 50.1875 280.598 50.7969C279.66 51.3828 278.934 52.168 278.418 53.1523C277.926 54.1133 277.68 55.168 277.68 56.3164C277.68 57.4414 277.926 58.4961 278.418 59.4805C278.934 60.4414 279.66 61.2266 280.598 61.8359C281.535 62.4219 282.625 62.7148 283.867 62.7148C285.133 62.7148 286.223 62.4219 287.137 61.8359C288.074 61.2266 288.789 60.4414 289.281 59.4805C289.797 58.4961 290.055 57.4414 290.055 56.3164C290.055 55.168 289.797 54.1133 289.281 53.1523C288.789 52.168 288.074 51.3828 287.137 50.7969C286.223 50.1875 285.133 49.8828 283.867 49.8828ZM309.32 47.4219L315.473 60.3594L321.449 47.4219H324.895L311.957 73.4375H308.617L313.645 63.9453L305.875 47.4219H309.32ZM336.355 47.0703C338.137 47.0703 339.719 47.4922 341.102 48.3359C342.484 49.1797 343.562 50.3047 344.336 51.7109C345.133 53.1172 345.531 54.6523 345.531 56.3164C345.531 57.9805 345.133 59.5156 344.336 60.9219C343.562 62.3047 342.484 63.418 341.102 64.2617C339.719 65.1055 338.137 65.5273 336.355 65.5273C334.574 65.5273 332.992 65.1055 331.609 64.2617C330.227 63.418 329.137 62.3047 328.34 60.9219C327.566 59.5156 327.18 57.9805 327.18 56.3164C327.18 54.6523 327.566 53.1172 328.34 51.7109C329.137 50.3047 330.227 49.1797 331.609 48.3359C332.992 47.4922 334.574 47.0703 336.355 47.0703ZM336.355 49.8828C335.113 49.8828 334.023 50.1875 333.086 50.7969C332.148 51.3828 331.422 52.168 330.906 53.1523C330.414 54.1133 330.168 55.168 330.168 56.3164C330.168 57.4414 330.414 58.4961 330.906 59.4805C331.422 60.4414 332.148 61.2266 333.086 61.8359C334.023 62.4219 335.113 62.7148 336.355 62.7148C337.621 62.7148 338.711 62.4219 339.625 61.8359C340.562 61.2266 341.277 60.4414 341.77 59.4805C342.285 58.4961 342.543 57.4414 342.543 56.3164C342.543 55.168 342.285 54.1133 341.77 53.1523C341.277 52.168 340.562 51.3828 339.625 50.7969C338.711 50.1875 337.621 49.8828 336.355 49.8828ZM364.656 47.4219V57.8281C364.656 59.375 364.328 60.7109 363.672 61.8359C363.016 62.9609 362.125 63.8281 361 64.4375C359.875 65.0469 358.609 65.3516 357.203 65.3516C355.797 65.3516 354.531 65.0469 353.406 64.4375C352.281 63.8281 351.391 62.9609 350.734 61.8359C350.078 60.7109 349.75 59.375 349.75 57.8281V47.4219H352.738V57.8281C352.738 59.3516 353.184 60.5234 354.074 61.3438C354.988 62.1406 356.031 62.5391 357.203 62.5391C358.375 62.5391 359.406 62.1406 360.297 61.3438C361.211 60.5234 361.668 59.3516 361.668 57.8281V47.4219H364.656ZM372.988 47.4219V50.9375C373.668 49.7656 374.488 48.8281 375.449 48.125C376.41 47.4219 377.395 47.0703 378.402 47.0703C379.082 47.0703 379.691 47.1875 380.23 47.4219V50.7617C379.48 50.3164 378.73 50.0938 377.98 50.0938C376.785 50.0938 375.812 50.5156 375.062 51.3594C374.336 52.2031 373.645 53.2109 372.988 54.3828V65H370.105V47.4219H372.988ZM403.398 47.0703C404.922 47.0703 406.293 47.4453 407.512 48.1953C408.754 48.9219 409.738 49.9531 410.465 51.2891C411.215 52.6016 411.59 54.1484 411.59 55.9297C411.59 57.8516 411.215 59.5391 410.465 60.9922C409.738 62.4219 408.73 63.5352 407.441 64.332C406.176 65.1289 404.734 65.5273 403.117 65.5273C402.109 65.5273 401.078 65.2578 400.023 64.7188C398.992 64.1797 398.102 63.4883 397.352 62.6445V73.4375H394.469V47.4219H397.352V50.4102C397.961 49.4727 398.781 48.6875 399.812 48.0547C400.867 47.3984 402.062 47.0703 403.398 47.0703ZM402.941 49.8828C401.887 49.8828 400.926 50.1523 400.059 50.6914C399.215 51.2305 398.547 51.9805 398.055 52.9414C397.586 53.8789 397.352 54.9805 397.352 56.2461L397.387 59.6211C398.137 60.5352 398.922 61.2852 399.742 61.8711C400.562 62.4336 401.512 62.7148 402.59 62.7148C403.855 62.7148 404.934 62.3867 405.824 61.7305C406.715 61.0742 407.395 60.2305 407.863 59.1992C408.355 58.1445 408.602 57.0547 408.602 55.9297C408.602 54.7812 408.367 53.7617 407.898 52.8711C407.43 51.957 406.773 51.2305 405.93 50.6914C405.086 50.1523 404.09 49.8828 402.941 49.8828ZM430.715 47.4219V57.8281C430.715 59.375 430.387 60.7109 429.73 61.8359C429.074 62.9609 428.184 63.8281 427.059 64.4375C425.934 65.0469 424.668 65.3516 423.262 65.3516C421.855 65.3516 420.59 65.0469 419.465 64.4375C418.34 63.8281 417.449 62.9609 416.793 61.8359C416.137 60.7109 415.809 59.375 415.809 57.8281V47.4219H418.797V57.8281C418.797 59.3516 419.242 60.5234 420.133 61.3438C421.047 62.1406 422.09 62.5391 423.262 62.5391C424.434 62.5391 425.465 62.1406 426.355 61.3438C427.27 60.5234 427.727 59.3516 427.727 57.8281V47.4219H430.715ZM444.812 47.0703C446.43 47.0703 447.871 47.457 449.137 48.2305C450.426 48.9805 451.434 50.0586 452.16 51.4648C452.91 52.8711 453.285 54.5469 453.285 56.4922C453.285 58.2734 452.91 59.8438 452.16 61.2031C451.434 62.5625 450.449 63.6289 449.207 64.4023C447.988 65.1523 446.617 65.5273 445.094 65.5273C443.758 65.5273 442.562 65.1758 441.508 64.4727C440.477 63.7695 439.656 62.9492 439.047 62.0117V65H436.164V39.6875H439.047V49.7773C439.797 48.9336 440.688 48.2773 441.719 47.8086C442.773 47.3164 443.805 47.0703 444.812 47.0703ZM444.285 49.918C443.207 49.918 442.258 50.1758 441.438 50.6914C440.617 51.1836 439.832 51.8867 439.082 52.8008L439.047 56.1758C439.047 57.418 439.281 58.5312 439.75 59.5156C440.242 60.5 440.91 61.2734 441.754 61.8359C442.621 62.3984 443.582 62.6797 444.637 62.6797C445.785 62.6797 446.781 62.3984 447.625 61.8359C448.469 61.2734 449.125 60.5234 449.594 59.5859C450.062 58.6484 450.297 57.6172 450.297 56.4922C450.297 55.3438 450.051 54.2773 449.559 53.293C449.09 52.2852 448.41 51.4766 447.52 50.8672C446.629 50.2344 445.551 49.918 444.285 49.918ZM460.914 39.6875V65H458.031V39.6875H460.914ZM469.703 38.9844C470.383 38.9844 470.945 39.2305 471.391 39.7227C471.859 40.1914 472.094 40.7422 472.094 41.375C472.094 41.9844 471.859 42.5352 471.391 43.0273C470.945 43.5195 470.383 43.7656 469.703 43.7656C469.023 43.7656 468.449 43.5195 467.98 43.0273C467.535 42.5352 467.312 41.9844 467.312 41.375C467.312 40.7422 467.535 40.1914 467.98 39.7227C468.449 39.2305 469.023 38.9844 469.703 38.9844ZM471.496 47.4219V65H468.613V50.1289H465.836V47.4219H471.496ZM485.664 47.0703C486.953 47.0703 488.066 47.2812 489.004 47.7031C489.941 48.1016 490.586 48.4648 490.938 48.793V51.7109C490.281 51.2188 489.531 50.7969 488.688 50.4453C487.844 50.0703 486.836 49.8828 485.664 49.8828C484.422 49.8828 483.332 50.1875 482.395 50.7969C481.457 51.3828 480.73 52.168 480.215 53.1523C479.723 54.1133 479.477 55.168 479.477 56.3164C479.477 57.4414 479.723 58.4961 480.215 59.4805C480.73 60.4414 481.457 61.2266 482.395 61.8359C483.332 62.4219 484.422 62.7148 485.664 62.7148C486.836 62.7148 487.844 62.5391 488.688 62.1875C489.531 61.8125 490.281 61.3789 490.938 60.8867V63.8047C490.586 64.1562 489.941 64.5312 489.004 64.9297C488.066 65.3281 486.953 65.5273 485.664 65.5273C483.883 65.5273 482.301 65.1055 480.918 64.2617C479.535 63.418 478.445 62.3047 477.648 60.9219C476.875 59.5156 476.488 57.9805 476.488 56.3164C476.488 54.6523 476.875 53.1172 477.648 51.7109C478.445 50.3047 479.535 49.1797 480.918 48.3359C482.301 47.4922 483.883 47.0703 485.664 47.0703ZM522.121 39.6875V65H519.238V62.0117C518.629 62.9492 517.797 63.7695 516.742 64.4727C515.711 65.1758 514.527 65.5273 513.191 65.5273C511.691 65.5273 510.32 65.1523 509.078 64.4023C507.836 63.6289 506.84 62.5625 506.09 61.2031C505.363 59.8438 505 58.2734 505 56.4922C505 54.5469 505.363 52.8711 506.09 51.4648C506.84 50.0586 507.859 48.9805 509.148 48.2305C510.438 47.457 511.879 47.0703 513.473 47.0703C514.48 47.0703 515.5 47.3164 516.531 47.8086C517.586 48.2773 518.488 48.9336 519.238 49.7773V39.6875H522.121ZM514 49.9531C512.734 49.9531 511.656 50.2695 510.766 50.9023C509.875 51.5117 509.184 52.3086 508.691 53.293C508.223 54.2773 507.988 55.3438 507.988 56.4922C507.988 57.6172 508.223 58.6602 508.691 59.6211C509.16 60.5586 509.816 61.3086 510.66 61.8711C511.527 62.4336 512.523 62.7148 513.648 62.7148C514.727 62.7148 515.688 62.4336 516.531 61.8711C517.375 61.3086 518.043 60.5352 518.535 59.5508C519.027 58.543 519.262 57.418 519.238 56.1758L519.203 52.8008C518.477 51.8867 517.691 51.1836 516.848 50.6914C516.027 50.1992 515.078 49.9531 514 49.9531ZM530.91 38.9844C531.59 38.9844 532.152 39.2305 532.598 39.7227C533.066 40.1914 533.301 40.7422 533.301 41.375C533.301 41.9844 533.066 42.5352 532.598 43.0273C532.152 43.5195 531.59 43.7656 530.91 43.7656C530.23 43.7656 529.656 43.5195 529.188 43.0273C528.742 42.5352 528.52 41.9844 528.52 41.375C528.52 40.7422 528.742 40.1914 529.188 39.7227C529.656 39.2305 530.23 38.9844 530.91 38.9844ZM532.703 47.4219V65H529.82V50.1289H527.043V47.4219H532.703ZM541.809 47.4219V50.9375C542.488 49.7656 543.309 48.8281 544.27 48.125C545.23 47.4219 546.215 47.0703 547.223 47.0703C547.902 47.0703 548.512 47.1875 549.051 47.4219V50.7617C548.301 50.3164 547.551 50.0938 546.801 50.0938C545.605 50.0938 544.633 50.5156 543.883 51.3594C543.156 52.2031 542.465 53.2109 541.809 54.3828V65H538.926V47.4219H541.809ZM559.984 47.0703C561.789 47.0703 563.289 47.4453 564.484 48.1953C565.68 48.9453 566.57 49.9648 567.156 51.2539C567.766 52.543 568.07 53.9961 568.07 55.6133V57.3359H554.57C554.711 58.3203 555.051 59.2227 555.59 60.043C556.129 60.8633 556.832 61.5195 557.699 62.0117C558.566 62.4805 559.562 62.7148 560.688 62.7148C561.953 62.7148 563.137 62.3984 564.238 61.7656C565.34 61.1094 566.266 60.3945 567.016 59.6211L566.98 62.75C566.652 63.1484 566.16 63.5703 565.504 64.0156C564.871 64.4375 564.133 64.7891 563.289 65.0703C562.469 65.375 561.602 65.5273 560.688 65.5273C558.906 65.5273 557.324 65.1055 555.941 64.2617C554.559 63.418 553.469 62.3047 552.672 60.9219C551.898 59.5156 551.512 57.9805 551.512 56.3164C551.512 54.6523 551.875 53.1172 552.602 51.7109C553.328 50.3047 554.324 49.1797 555.59 48.3359C556.879 47.4922 558.344 47.0703 559.984 47.0703ZM559.984 49.8828C558.531 49.8828 557.336 50.375 556.398 51.3594C555.461 52.3203 554.875 53.4922 554.641 54.875H565.223C565.105 53.7266 564.777 52.7891 564.238 52.0625C563.723 51.3359 563.09 50.7969 562.34 50.4453C561.59 50.0703 560.805 49.8828 559.984 49.8828ZM580.762 47.0703C582.051 47.0703 583.164 47.2812 584.102 47.7031C585.039 48.1016 585.684 48.4648 586.035 48.793V51.7109C585.379 51.2188 584.629 50.7969 583.785 50.4453C582.941 50.0703 581.934 49.8828 580.762 49.8828C579.52 49.8828 578.43 50.1875 577.492 50.7969C576.555 51.3828 575.828 52.168 575.312 53.1523C574.82 54.1133 574.574 55.168 574.574 56.3164C574.574 57.4414 574.82 58.4961 575.312 59.4805C575.828 60.4414 576.555 61.2266 577.492 61.8359C578.43 62.4219 579.52 62.7148 580.762 62.7148C581.934 62.7148 582.941 62.5391 583.785 62.1875C584.629 61.8125 585.379 61.3789 586.035 60.8867V63.8047C585.684 64.1562 585.039 64.5312 584.102 64.9297C583.164 65.3281 582.051 65.5273 580.762 65.5273C578.98 65.5273 577.398 65.1055 576.016 64.2617C574.633 63.418 573.543 62.3047 572.746 60.9219C571.973 59.5156 571.586 57.9805 571.586 56.3164C571.586 54.6523 571.973 53.1172 572.746 51.7109C573.543 50.3047 574.633 49.1797 576.016 48.3359C577.398 47.4922 578.98 47.0703 580.762 47.0703ZM595.633 42.3594V47.4219H600.766V50.1289H595.633V60.4297C595.633 61.1562 595.82 61.7305 596.195 62.1523C596.57 62.5742 597.145 62.7852 597.918 62.7852C598.621 62.7852 599.207 62.7031 599.676 62.5391C600.145 62.3516 600.555 62.1523 600.906 61.9414V64.2969C600.438 64.6719 599.934 64.9648 599.395 65.1758C598.879 65.4102 598.176 65.5273 597.285 65.5273C595.785 65.5273 594.648 65.082 593.875 64.1914C593.125 63.2773 592.75 62.0703 592.75 60.5703V50.1289H589.375V49.2852C590.523 48.7695 591.484 47.9258 592.258 46.7539C593.031 45.5586 593.711 44.0938 594.297 42.3594H595.633ZM613.949 47.0703C615.73 47.0703 617.312 47.4922 618.695 48.3359C620.078 49.1797 621.156 50.3047 621.93 51.7109C622.727 53.1172 623.125 54.6523 623.125 56.3164C623.125 57.9805 622.727 59.5156 621.93 60.9219C621.156 62.3047 620.078 63.418 618.695 64.2617C617.312 65.1055 615.73 65.5273 613.949 65.5273C612.168 65.5273 610.586 65.1055 609.203 64.2617C607.82 63.418 606.73 62.3047 605.934 60.9219C605.16 59.5156 604.773 57.9805 604.773 56.3164C604.773 54.6523 605.16 53.1172 605.934 51.7109C606.73 50.3047 607.82 49.1797 609.203 48.3359C610.586 47.4922 612.168 47.0703 613.949 47.0703ZM613.949 49.8828C612.707 49.8828 611.617 50.1875 610.68 50.7969C609.742 51.3828 609.016 52.168 608.5 53.1523C608.008 54.1133 607.762 55.168 607.762 56.3164C607.762 57.4414 608.008 58.4961 608.5 59.4805C609.016 60.4414 609.742 61.2266 610.68 61.8359C611.617 62.4219 612.707 62.7148 613.949 62.7148C615.215 62.7148 616.305 62.4219 617.219 61.8359C618.156 61.2266 618.871 60.4414 619.363 59.4805C619.879 58.4961 620.137 57.4414 620.137 56.3164C620.137 55.168 619.879 54.1133 619.363 53.1523C618.871 52.168 618.156 51.3828 617.219 50.7969C616.305 50.1875 615.215 49.8828 613.949 49.8828ZM630.754 47.4219V50.9375C631.434 49.7656 632.254 48.8281 633.215 48.125C634.176 47.4219 635.16 47.0703 636.168 47.0703C636.848 47.0703 637.457 47.1875 637.996 47.4219V50.7617C637.246 50.3164 636.496 50.0938 635.746 50.0938C634.551 50.0938 633.578 50.5156 632.828 51.3594C632.102 52.2031 631.41 53.2109 630.754 54.3828V65H627.871V47.4219H630.754ZM642.672 47.4219L648.824 60.3594L654.801 47.4219H658.246L645.309 73.4375H641.969L646.996 63.9453L639.227 47.4219H642.672ZM692.242 41.375V55.6836C692.242 57.7227 691.809 59.4805 690.941 60.957C690.098 62.4102 688.949 63.5234 687.496 64.2969C686.043 65.0703 684.391 65.457 682.539 65.457C680.711 65.457 679.059 65.0703 677.582 64.2969C676.129 63.5234 674.969 62.4102 674.102 60.957C673.258 59.4805 672.836 57.7227 672.836 55.6836V41.375H676V55.5781C676 57.1719 676.293 58.4609 676.879 59.4453C677.488 60.4297 678.285 61.1445 679.27 61.5898C680.277 62.0117 681.367 62.2227 682.539 62.2227C683.711 62.1992 684.789 61.9766 685.773 61.5547C686.781 61.1094 687.578 60.4062 688.164 59.4453C688.773 58.4609 689.078 57.1719 689.078 55.5781V41.375H692.242ZM708.66 41.4453C710.02 41.4453 711.32 41.7031 712.562 42.2188C713.805 42.7109 714.824 43.4844 715.621 44.5391C716.441 45.5703 716.852 46.8945 716.852 48.5117C716.852 49.9648 716.43 51.1953 715.586 52.2031C714.766 53.2109 713.711 53.9727 712.422 54.4883C711.156 54.9805 709.844 55.2266 708.484 55.2266C708.062 55.2266 707.5 55.2031 706.797 55.1562L717.766 65H712.914L702.789 55.1562V65H699.625V41.4453H708.66ZM702.789 44.4336V51.9922C703.562 52.2031 704.406 52.3672 705.32 52.4844C706.234 52.6016 707.137 52.6602 708.027 52.6602C709.809 52.6602 711.18 52.2852 712.141 51.5352C713.125 50.7852 713.617 49.7773 713.617 48.5117C713.617 47.1992 713.078 46.1914 712 45.4883C710.945 44.7852 709.656 44.4336 708.133 44.4336H702.789ZM725.148 41.4453V62.0117H738.121V65H721.984V41.4453H725.148ZM756.895 39.6875V65H754.012V39.6875H756.895ZM765.684 38.9844C766.363 38.9844 766.926 39.2305 767.371 39.7227C767.84 40.1914 768.074 40.7422 768.074 41.375C768.074 41.9844 767.84 42.5352 767.371 43.0273C766.926 43.5195 766.363 43.7656 765.684 43.7656C765.004 43.7656 764.43 43.5195 763.961 43.0273C763.516 42.5352 763.293 41.9844 763.293 41.375C763.293 40.7422 763.516 40.1914 763.961 39.7227C764.43 39.2305 765.004 38.9844 765.684 38.9844ZM767.477 47.4219V65H764.594V50.1289H761.816V47.4219H767.477ZM776.582 47.4219V50.1992C776.957 49.7305 777.438 49.2617 778.023 48.793C778.609 48.3008 779.266 47.8906 779.992 47.5625C780.742 47.2344 781.516 47.0703 782.312 47.0703C783.508 47.0703 784.598 47.3398 785.582 47.8789C786.566 48.3945 787.352 49.1914 787.938 50.2695C788.523 51.3242 788.816 52.6602 788.816 54.2773V65H785.934L785.898 54.5586C785.898 53.0352 785.559 51.875 784.879 51.0781C784.223 50.2812 783.203 49.8828 781.82 49.8828C780.883 49.8828 779.945 50.2344 779.008 50.9375C778.094 51.6172 777.285 52.4141 776.582 53.3281V65H773.699V47.4219H776.582ZM809.805 47.4219L801.648 55.0859L810.262 65H806.605L799.645 56.9844L797.148 59.3047V65H794.266V39.6875H797.148V56L805.902 47.4219H809.805ZM815.711 60.7109C816.391 60.7109 816.965 60.957 817.434 61.4492C817.926 61.918 818.172 62.4922 818.172 63.1719C818.172 63.8281 817.926 64.4023 817.434 64.8945C816.965 65.3867 816.391 65.6328 815.711 65.6328C815.031 65.6328 814.445 65.3867 813.953 64.8945C813.484 64.4023 813.25 63.8281 813.25 63.1719C813.25 62.4922 813.484 61.918 813.953 61.4492C814.445 60.957 815.031 60.7109 815.711 60.7109Z" fill="black"/>
<path d="M178.504 346.445C177.777 347.125 176.922 347.91 175.938 348.801C174.953 349.691 173.957 350.641 172.949 351.648C171.941 352.656 171.039 353.664 170.242 354.672C169.445 355.68 168.871 356.641 168.52 357.555C169.105 356.828 169.844 356.172 170.734 355.586C171.625 355 172.621 354.707 173.723 354.707C175.27 354.707 176.594 355.059 177.695 355.762C178.797 356.441 179.641 357.344 180.227 358.469C180.836 359.57 181.141 360.754 181.141 362.02C181.141 363.027 180.953 364.035 180.578 365.043C180.227 366.051 179.699 366.977 178.996 367.82C178.316 368.641 177.484 369.297 176.5 369.789C175.516 370.281 174.402 370.527 173.16 370.527C171.59 370.527 170.16 370.164 168.871 369.438C167.605 368.711 166.586 367.668 165.812 366.309C165.062 364.949 164.688 363.332 164.688 361.457C164.688 360.191 164.922 358.949 165.391 357.73C165.859 356.488 166.457 355.305 167.184 354.18C167.934 353.031 168.73 351.965 169.574 350.98C170.418 349.996 171.215 349.117 171.965 348.344C172.715 347.57 173.336 346.938 173.828 346.445H178.504ZM172.984 357.555C172.117 357.555 171.273 357.766 170.453 358.188C169.633 358.586 168.965 359.148 168.449 359.875C167.934 360.578 167.676 361.41 167.676 362.371C167.676 363.426 167.934 364.352 168.449 365.148C168.965 365.945 169.633 366.566 170.453 367.012C171.273 367.457 172.117 367.68 172.984 367.68C173.875 367.68 174.707 367.457 175.48 367.012C176.277 366.566 176.922 365.945 177.414 365.148C177.906 364.352 178.152 363.426 178.152 362.371C178.152 361.41 177.906 360.578 177.414 359.875C176.922 359.148 176.277 358.586 175.48 358.188C174.707 357.766 173.875 357.555 172.984 357.555ZM187.609 365.711C188.289 365.711 188.863 365.957 189.332 366.449C189.824 366.918 190.07 367.492 190.07 368.172C190.07 368.828 189.824 369.402 189.332 369.895C188.863 370.387 188.289 370.633 187.609 370.633C186.93 370.633 186.344 370.387 185.852 369.895C185.383 369.402 185.148 368.828 185.148 368.172C185.148 367.492 185.383 366.918 185.852 366.449C186.344 365.957 186.93 365.711 187.609 365.711ZM211.27 347.359V352.422H216.402V355.129H211.27V365.43C211.27 366.156 211.457 366.73 211.832 367.152C212.207 367.574 212.781 367.785 213.555 367.785C214.258 367.785 214.844 367.703 215.312 367.539C215.781 367.352 216.191 367.152 216.543 366.941V369.297C216.074 369.672 215.57 369.965 215.031 370.176C214.516 370.41 213.812 370.527 212.922 370.527C211.422 370.527 210.285 370.082 209.512 369.191C208.762 368.277 208.387 367.07 208.387 365.57V355.129H205.012V354.285C206.16 353.77 207.121 352.926 207.895 351.754C208.668 350.559 209.348 349.094 209.934 347.359H211.27ZM222.625 352.422L228.777 365.359L234.754 352.422H238.199L225.262 378.438H221.922L226.949 368.945L219.18 352.422H222.625ZM250.645 352.07C252.168 352.07 253.539 352.445 254.758 353.195C256 353.922 256.984 354.953 257.711 356.289C258.461 357.602 258.836 359.148 258.836 360.93C258.836 362.852 258.461 364.539 257.711 365.992C256.984 367.422 255.977 368.535 254.688 369.332C253.422 370.129 251.98 370.527 250.363 370.527C249.355 370.527 248.324 370.258 247.27 369.719C246.238 369.18 245.348 368.488 244.598 367.645V378.438H241.715V352.422H244.598V355.41C245.207 354.473 246.027 353.688 247.059 353.055C248.113 352.398 249.309 352.07 250.645 352.07ZM250.188 354.883C249.133 354.883 248.172 355.152 247.305 355.691C246.461 356.23 245.793 356.98 245.301 357.941C244.832 358.879 244.598 359.98 244.598 361.246L244.633 364.621C245.383 365.535 246.168 366.285 246.988 366.871C247.809 367.434 248.758 367.715 249.836 367.715C251.102 367.715 252.18 367.387 253.07 366.73C253.961 366.074 254.641 365.23 255.109 364.199C255.602 363.145 255.848 362.055 255.848 360.93C255.848 359.781 255.613 358.762 255.145 357.871C254.676 356.957 254.02 356.23 253.176 355.691C252.332 355.152 251.336 354.883 250.188 354.883ZM270.824 352.07C272.629 352.07 274.129 352.445 275.324 353.195C276.52 353.945 277.41 354.965 277.996 356.254C278.605 357.543 278.91 358.996 278.91 360.613V362.336H265.41C265.551 363.32 265.891 364.223 266.43 365.043C266.969 365.863 267.672 366.52 268.539 367.012C269.406 367.48 270.402 367.715 271.527 367.715C272.793 367.715 273.977 367.398 275.078 366.766C276.18 366.109 277.105 365.395 277.855 364.621L277.82 367.75C277.492 368.148 277 368.57 276.344 369.016C275.711 369.438 274.973 369.789 274.129 370.07C273.309 370.375 272.441 370.527 271.527 370.527C269.746 370.527 268.164 370.105 266.781 369.262C265.398 368.418 264.309 367.305 263.512 365.922C262.738 364.516 262.352 362.98 262.352 361.316C262.352 359.652 262.715 358.117 263.441 356.711C264.168 355.305 265.164 354.18 266.43 353.336C267.719 352.492 269.184 352.07 270.824 352.07ZM270.824 354.883C269.371 354.883 268.176 355.375 267.238 356.359C266.301 357.32 265.715 358.492 265.48 359.875H276.062C275.945 358.727 275.617 357.789 275.078 357.062C274.562 356.336 273.93 355.797 273.18 355.445C272.43 355.07 271.645 354.883 270.824 354.883ZM302.148 352.07C303.438 352.07 304.551 352.281 305.488 352.703C306.426 353.102 307.07 353.465 307.422 353.793V356.711C306.766 356.219 306.016 355.797 305.172 355.445C304.328 355.07 303.32 354.883 302.148 354.883C300.906 354.883 299.816 355.188 298.879 355.797C297.941 356.383 297.215 357.168 296.699 358.152C296.207 359.113 295.961 360.168 295.961 361.316C295.961 362.441 296.207 363.496 296.699 364.48C297.215 365.441 297.941 366.227 298.879 366.836C299.816 367.422 300.906 367.715 302.148 367.715C303.32 367.715 304.328 367.539 305.172 367.188C306.016 366.812 306.766 366.379 307.422 365.887V368.805C307.07 369.156 306.426 369.531 305.488 369.93C304.551 370.328 303.438 370.527 302.148 370.527C300.367 370.527 298.785 370.105 297.402 369.262C296.02 368.418 294.93 367.305 294.133 365.922C293.359 364.516 292.973 362.98 292.973 361.316C292.973 359.652 293.359 358.117 294.133 356.711C294.93 355.305 296.02 354.18 297.402 353.336C298.785 352.492 300.367 352.07 302.148 352.07ZM315.051 352.422V354.672C315.613 354.039 316.328 353.453 317.195 352.914C318.086 352.352 319.129 352.07 320.324 352.07C321.59 352.07 322.773 352.375 323.875 352.984C324.977 353.57 325.82 354.461 326.406 355.656C327.227 354.672 328.117 353.828 329.078 353.125C330.039 352.422 331.164 352.07 332.453 352.07C333.648 352.07 334.762 352.34 335.793 352.879C336.848 353.395 337.691 354.191 338.324 355.27C338.98 356.324 339.309 357.66 339.309 359.277V370H336.426L336.391 359.559C336.391 358.035 335.992 356.875 335.195 356.078C334.422 355.281 333.344 354.883 331.961 354.883C330.953 354.883 330.074 355.199 329.324 355.832C328.574 356.465 327.859 357.203 327.18 358.047V370H324.297L324.262 359.559C324.262 358.035 323.863 356.875 323.066 356.078C322.293 355.281 321.215 354.883 319.832 354.883C318.871 354.883 317.992 355.164 317.195 355.727C316.422 356.289 315.707 356.969 315.051 357.766V370H312.168V352.422H315.051ZM360.648 344.688V370H357.766V367.012C357.156 367.949 356.324 368.77 355.27 369.473C354.238 370.176 353.055 370.527 351.719 370.527C350.219 370.527 348.848 370.152 347.605 369.402C346.363 368.629 345.367 367.562 344.617 366.203C343.891 364.844 343.527 363.273 343.527 361.492C343.527 359.547 343.891 357.871 344.617 356.465C345.367 355.059 346.387 353.98 347.676 353.23C348.965 352.457 350.406 352.07 352 352.07C353.008 352.07 354.027 352.316 355.059 352.809C356.113 353.277 357.016 353.934 357.766 354.777V344.688H360.648ZM352.527 354.953C351.262 354.953 350.184 355.27 349.293 355.902C348.402 356.512 347.711 357.309 347.219 358.293C346.75 359.277 346.516 360.344 346.516 361.492C346.516 362.617 346.75 363.66 347.219 364.621C347.688 365.559 348.344 366.309 349.188 366.871C350.055 367.434 351.051 367.715 352.176 367.715C353.254 367.715 354.215 367.434 355.059 366.871C355.902 366.309 356.57 365.535 357.062 364.551C357.555 363.543 357.789 362.418 357.766 361.176L357.73 357.801C357.004 356.887 356.219 356.184 355.375 355.691C354.555 355.199 353.605 354.953 352.527 354.953ZM385.785 352.07C386.98 352.07 388.07 352.34 389.055 352.879C390.039 353.395 390.824 354.191 391.41 355.27C391.996 356.324 392.289 357.66 392.289 359.277V370H389.406L389.371 359.559C389.371 358.035 389.031 356.875 388.352 356.078C387.695 355.281 386.676 354.883 385.293 354.883C384.355 354.883 383.418 355.234 382.48 355.938C381.566 356.617 380.758 357.414 380.055 358.328V370H377.172V344.688H380.055V355.199C380.43 354.73 380.91 354.262 381.496 353.793C382.082 353.301 382.738 352.891 383.465 352.562C384.215 352.234 384.988 352.07 385.785 352.07ZM400.551 343.984C401.23 343.984 401.793 344.23 402.238 344.723C402.707 345.191 402.941 345.742 402.941 346.375C402.941 346.984 402.707 347.535 402.238 348.027C401.793 348.52 401.23 348.766 400.551 348.766C399.871 348.766 399.297 348.52 398.828 348.027C398.383 347.535 398.16 346.984 398.16 346.375C398.16 345.742 398.383 345.191 398.828 344.723C399.297 344.23 399.871 343.984 400.551 343.984ZM402.344 352.422V370H399.461V355.129H396.684V352.422H402.344ZM413.418 347.359V352.422H418.551V355.129H413.418V365.43C413.418 366.156 413.605 366.73 413.98 367.152C414.355 367.574 414.93 367.785 415.703 367.785C416.406 367.785 416.992 367.703 417.461 367.539C417.93 367.352 418.34 367.152 418.691 366.941V369.297C418.223 369.672 417.719 369.965 417.18 370.176C416.664 370.41 415.961 370.527 415.07 370.527C413.57 370.527 412.434 370.082 411.66 369.191C410.91 368.277 410.535 367.07 410.535 365.57V355.129H407.16V354.285C408.309 353.77 409.27 352.926 410.043 351.754C410.816 350.559 411.496 349.094 412.082 347.359H413.418ZM441.578 352.07C443.383 352.07 444.883 352.445 446.078 353.195C447.273 353.945 448.164 354.965 448.75 356.254C449.359 357.543 449.664 358.996 449.664 360.613V362.336H436.164C436.305 363.32 436.645 364.223 437.184 365.043C437.723 365.863 438.426 366.52 439.293 367.012C440.16 367.48 441.156 367.715 442.281 367.715C443.547 367.715 444.73 367.398 445.832 366.766C446.934 366.109 447.859 365.395 448.609 364.621L448.574 367.75C448.246 368.148 447.754 368.57 447.098 369.016C446.465 369.438 445.727 369.789 444.883 370.07C444.062 370.375 443.195 370.527 442.281 370.527C440.5 370.527 438.918 370.105 437.535 369.262C436.152 368.418 435.062 367.305 434.266 365.922C433.492 364.516 433.105 362.98 433.105 361.316C433.105 359.652 433.469 358.117 434.195 356.711C434.922 355.305 435.918 354.18 437.184 353.336C438.473 352.492 439.938 352.07 441.578 352.07ZM441.578 354.883C440.125 354.883 438.93 355.375 437.992 356.359C437.055 357.32 436.469 358.492 436.234 359.875H446.816C446.699 358.727 446.371 357.789 445.832 357.062C445.316 356.336 444.684 355.797 443.934 355.445C443.184 355.07 442.398 354.883 441.578 354.883ZM457.293 352.422V355.199C457.668 354.73 458.148 354.262 458.734 353.793C459.32 353.301 459.977 352.891 460.703 352.562C461.453 352.234 462.227 352.07 463.023 352.07C464.219 352.07 465.309 352.34 466.293 352.879C467.277 353.395 468.062 354.191 468.648 355.27C469.234 356.324 469.527 357.66 469.527 359.277V370H466.645L466.609 359.559C466.609 358.035 466.27 356.875 465.59 356.078C464.934 355.281 463.914 354.883 462.531 354.883C461.594 354.883 460.656 355.234 459.719 355.938C458.805 356.617 457.996 357.414 457.293 358.328V370H454.41V352.422H457.293ZM479.828 347.359V352.422H484.961V355.129H479.828V365.43C479.828 366.156 480.016 366.73 480.391 367.152C480.766 367.574 481.34 367.785 482.113 367.785C482.816 367.785 483.402 367.703 483.871 367.539C484.34 367.352 484.75 367.152 485.102 366.941V369.297C484.633 369.672 484.129 369.965 483.59 370.176C483.074 370.41 482.371 370.527 481.48 370.527C479.98 370.527 478.844 370.082 478.07 369.191C477.32 368.277 476.945 367.07 476.945 365.57V355.129H473.57V354.285C474.719 353.77 475.68 352.926 476.453 351.754C477.227 350.559 477.906 349.094 478.492 347.359H479.828ZM497.441 352.07C499.246 352.07 500.746 352.445 501.941 353.195C503.137 353.945 504.027 354.965 504.613 356.254C505.223 357.543 505.527 358.996 505.527 360.613V362.336H492.027C492.168 363.32 492.508 364.223 493.047 365.043C493.586 365.863 494.289 366.52 495.156 367.012C496.023 367.48 497.02 367.715 498.145 367.715C499.41 367.715 500.594 367.398 501.695 366.766C502.797 366.109 503.723 365.395 504.473 364.621L504.438 367.75C504.109 368.148 503.617 368.57 502.961 369.016C502.328 369.438 501.59 369.789 500.746 370.07C499.926 370.375 499.059 370.527 498.145 370.527C496.363 370.527 494.781 370.105 493.398 369.262C492.016 368.418 490.926 367.305 490.129 365.922C489.355 364.516 488.969 362.98 488.969 361.316C488.969 359.652 489.332 358.117 490.059 356.711C490.785 355.305 491.781 354.18 493.047 353.336C494.336 352.492 495.801 352.07 497.441 352.07ZM497.441 354.883C495.988 354.883 494.793 355.375 493.855 356.359C492.918 357.32 492.332 358.492 492.098 359.875H502.68C502.562 358.727 502.234 357.789 501.695 357.062C501.18 356.336 500.547 355.797 499.797 355.445C499.047 355.07 498.262 354.883 497.441 354.883ZM513.156 352.422V355.938C513.836 354.766 514.656 353.828 515.617 353.125C516.578 352.422 517.562 352.07 518.57 352.07C519.25 352.07 519.859 352.188 520.398 352.422V355.762C519.648 355.316 518.898 355.094 518.148 355.094C516.953 355.094 515.98 355.516 515.23 356.359C514.504 357.203 513.812 358.211 513.156 359.383V370H510.273V352.422H513.156ZM526.375 365.711C527.055 365.711 527.629 365.957 528.098 366.449C528.59 366.918 528.836 367.492 528.836 368.172C528.836 368.828 528.59 369.402 528.098 369.895C527.629 370.387 527.055 370.633 526.375 370.633C525.695 370.633 525.109 370.387 524.617 369.895C524.148 369.402 523.914 368.828 523.914 368.172C523.914 367.492 524.148 366.918 524.617 366.449C525.109 365.957 525.695 365.711 526.375 365.711Z" fill="black"/>
<defs>
<filter id="filter0_i" x="461.375" y="123.427" width="110.817" height="306.498" filterUnits="userSpaceOnUse" color-interpolation-filters="sRGB">
<feFlood flood-opacity="0" result="BackgroundImageFix"/>
<feBlend mode="normal" in="SourceGraphic" in2="BackgroundImageFix" result="shape"/>
<feColorMatrix in="SourceAlpha" type="matrix" values="0 0 0 0 0 0 0 0 0 0 0 0 0 0 0 0 0 0 127 0" result="hardAlpha"/>
<feOffset/>
<feGaussianBlur stdDeviation="17.5"/>
<feComposite in2="hardAlpha" operator="arithmetic" k2="-1" k3="1"/>
<feColorMatrix type="matrix" values="0 0 0 0 0 0 0 0 0 0 0 0 0 0 0 0 0 0 0.06 0"/>
<feBlend mode="normal" in2="shape" result="effect1_innerShadow"/>
</filter>
<filter id="filter1_i" x="572.772" y="170.39" width="70.9393" height="115.014" filterUnits="userSpaceOnUse" color-interpolation-filters="sRGB">
<feFlood flood-opacity="0" result="BackgroundImageFix"/>
<feBlend mode="normal" in="SourceGraphic" in2="BackgroundImageFix" result="shape"/>
<feColorMatrix in="SourceAlpha" type="matrix" values="0 0 0 0 0 0 0 0 0 0 0 0 0 0 0 0 0 0 127 0" result="hardAlpha"/>
<feOffset dx="1" dy="-9"/>
<feGaussianBlur stdDeviation="3.5"/>
<feComposite in2="hardAlpha" operator="arithmetic" k2="-1" k3="1"/>
<feColorMatrix type="matrix" values="0 0 0 0 0 0 0 0 0 0 0 0 0 0 0 0 0 0 0.09 0"/>
<feBlend mode="normal" in2="shape" result="effect1_innerShadow"/>
</filter>
</defs>
</svg>
