<svg width="271" height="162" viewBox="0 0 271 162" fill="none" xmlns="http://www.w3.org/2000/svg">
<rect width="271" height="162" fill="#039BE5"/>
<path d="M107.125 91.3954V68.2954H119.995V70.6054H110.425V78.5254H118.015V80.8354H110.425V91.3954H107.125ZM124.78 72.2554C124.208 72.2554 123.735 72.0684 123.361 71.6944C122.987 71.3204 122.8 70.8474 122.8 70.2754C122.8 69.7034 122.987 69.2304 123.361 68.8564C123.735 68.4824 124.208 68.2954 124.78 68.2954C125.352 68.2954 125.825 68.4824 126.199 68.8564C126.573 69.2304 126.76 69.7034 126.76 70.2754C126.76 70.8474 126.573 71.3204 126.199 71.6944C125.825 72.0684 125.352 72.2554 124.78 72.2554ZM123.13 91.3954V74.8954H126.43V91.3954H123.13ZM131.38 74.8954H133.69L134.02 76.8754H134.185C134.405 76.5454 134.779 76.1604 135.307 75.7204C136.341 74.9504 137.507 74.5654 138.805 74.5654C139.377 74.5654 139.883 74.6204 140.323 74.7304L140.95 74.8954L140.455 77.5354H140.125C139.971 77.5134 139.74 77.4584 139.432 77.3704C138.948 77.2604 138.464 77.2054 137.98 77.2054C137.254 77.2054 136.473 77.5354 135.637 78.1954C135.351 78.4374 135.032 78.7674 134.68 79.1854V91.3954H131.38V74.8954ZM149.867 91.7254C147.579 91.7254 145.797 90.9994 144.521 89.5474C143.245 88.0954 142.607 85.9614 142.607 83.1454C142.607 80.3514 143.223 78.2284 144.455 76.7764C145.687 75.3024 147.326 74.5654 149.372 74.5654C151.418 74.5654 153.057 75.3024 154.289 76.7764C155.521 78.2284 156.137 80.3514 156.137 83.1454V83.6404L155.477 84.3004H145.907C145.907 85.9944 146.281 87.2704 147.029 88.1284C147.777 88.9864 148.833 89.4154 150.197 89.4154C151.011 89.4154 151.858 89.1734 152.738 88.6894C153.2 88.4254 153.563 88.1724 153.827 87.9304H154.157L155.312 89.9104C154.916 90.2404 154.421 90.5484 153.827 90.8344C152.683 91.4284 151.363 91.7254 149.867 91.7254ZM152.837 81.9904C152.837 80.2524 152.518 78.9654 151.88 78.1294C151.264 77.2934 150.428 76.8754 149.372 76.8754C148.316 76.8754 147.469 77.2934 146.831 78.1294C146.215 78.9654 145.907 80.2524 145.907 81.9904H152.837ZM167.684 91.7254C166.232 91.7254 165.022 91.3404 164.054 90.5704C163.592 90.2404 163.207 89.8554 162.899 89.4154H162.734L162.404 91.3954H160.094V69.2854L161.084 68.2954H163.394V75.5554C163.658 75.4014 164.01 75.2364 164.45 75.0604C165.396 74.7304 166.254 74.5654 167.024 74.5654C169.004 74.5654 170.599 75.3024 171.809 76.7764C173.019 78.2284 173.624 80.3514 173.624 83.1454C173.624 84.9934 173.349 86.5664 172.799 87.8644C172.271 89.1404 171.556 90.1084 170.654 90.7684C169.752 91.4064 168.762 91.7254 167.684 91.7254ZM166.859 89.2504C167.871 89.2504 168.696 88.7554 169.334 87.7654C169.994 86.7754 170.324 85.2354 170.324 83.1454C170.324 80.9674 169.972 79.3834 169.268 78.3934C168.586 77.3814 167.673 76.8754 166.529 76.8754C165.781 76.8754 165.033 76.9854 164.285 77.2054C163.889 77.3154 163.592 77.4254 163.394 77.5354V87.2704C163.702 87.6444 164.032 87.9744 164.384 88.2604C165.22 88.9204 166.045 89.2504 166.859 89.2504ZM182.209 91.7254C180.493 91.7254 179.151 91.2744 178.183 90.3724C177.237 89.4484 176.764 88.1944 176.764 86.6104C176.764 85.0484 177.325 83.8384 178.447 82.9804C179.591 82.1004 181.395 81.6604 183.859 81.6604H186.499V80.8354C186.499 79.5374 186.191 78.5584 185.575 77.8984C184.981 77.2164 184.134 76.8754 183.034 76.8754C182.242 76.8754 181.384 77.1284 180.46 77.6344C179.998 77.8984 179.646 78.1404 179.404 78.3604H179.074L177.919 76.3804C178.359 76.0504 178.854 75.7534 179.404 75.4894C180.592 74.8734 181.912 74.5654 183.364 74.5654C184.618 74.5654 185.729 74.8404 186.697 75.3904C187.665 75.9184 188.424 76.6664 188.974 77.6344C189.524 78.5804 189.799 79.6474 189.799 80.8354V91.3954H187.489L187.159 89.4154H186.994C186.686 89.8554 186.301 90.2404 185.839 90.5704C184.871 91.3404 183.661 91.7254 182.209 91.7254ZM183.034 89.2504C183.848 89.2504 184.673 88.9204 185.509 88.2604C185.883 87.9524 186.213 87.6224 186.499 87.2704V83.9704H183.859C182.605 83.9704 181.659 84.2124 181.021 84.6964C180.383 85.1804 180.064 85.8184 180.064 86.6104C180.064 87.4684 180.306 88.1284 180.79 88.5904C181.296 89.0304 182.044 89.2504 183.034 89.2504ZM199.361 91.7254C197.557 91.7254 196.039 91.4284 194.807 90.8344C194.169 90.5484 193.652 90.2404 193.256 89.9104L194.411 87.9304H194.741C194.983 88.1504 195.368 88.4034 195.896 88.6894C196.908 89.1734 197.953 89.4154 199.031 89.4154C200.351 89.4154 201.308 89.2064 201.902 88.7884C202.518 88.3704 202.826 87.8094 202.826 87.1054C202.826 86.3794 202.507 85.8294 201.869 85.4554C201.253 85.0814 200.285 84.6744 198.965 84.2344C197.799 83.8384 196.864 83.4754 196.16 83.1454C195.456 82.8154 194.851 82.3424 194.345 81.7264C193.839 81.1104 193.586 80.3184 193.586 79.3504C193.586 77.8764 194.103 76.7104 195.137 75.8524C196.193 74.9944 197.766 74.5654 199.856 74.5654C201.418 74.5654 202.837 74.8734 204.113 75.4894C204.729 75.7754 205.235 76.0724 205.631 76.3804L204.476 78.3604H204.146C203.816 78.1184 203.442 77.8764 203.024 77.6344C202.056 77.1284 201.11 76.8754 200.186 76.8754C199.086 76.8754 198.261 77.0844 197.711 77.5024C197.161 77.8984 196.886 78.4044 196.886 79.0204C196.886 79.7464 197.194 80.2964 197.81 80.6704C198.448 81.0444 199.427 81.4514 200.747 81.8914C201.913 82.2874 202.848 82.6504 203.552 82.9804C204.256 83.3104 204.861 83.7834 205.367 84.3994C205.873 85.0154 206.126 85.8074 206.126 86.7754C206.126 88.3374 205.576 89.5584 204.476 90.4384C203.376 91.2964 201.671 91.7254 199.361 91.7254ZM216.19 91.7254C213.902 91.7254 212.12 90.9994 210.844 89.5474C209.568 88.0954 208.93 85.9614 208.93 83.1454C208.93 80.3514 209.546 78.2284 210.778 76.7764C212.01 75.3024 213.649 74.5654 215.695 74.5654C217.741 74.5654 219.38 75.3024 220.612 76.7764C221.844 78.2284 222.46 80.3514 222.46 83.1454V83.6404L221.8 84.3004H212.23C212.23 85.9944 212.604 87.2704 213.352 88.1284C214.1 88.9864 215.156 89.4154 216.52 89.4154C217.334 89.4154 218.181 89.1734 219.061 88.6894C219.523 88.4254 219.886 88.1724 220.15 87.9304H220.48L221.635 89.9104C221.239 90.2404 220.744 90.5484 220.15 90.8344C219.006 91.4284 217.686 91.7254 216.19 91.7254ZM219.16 81.9904C219.16 80.2524 218.841 78.9654 218.203 78.1294C217.587 77.2934 216.751 76.8754 215.695 76.8754C214.639 76.8754 213.792 77.2934 213.154 78.1294C212.538 78.9654 212.23 80.2524 212.23 81.9904H219.16Z" fill="white"/>
<g clip-path="url(#clip0)">
<path d="M42 101.728L42.4112 101.153L61.8592 64.3105L61.9003 63.9204L53.3274 47.8429C52.6088 46.4961 50.5866 46.8367 50.3511 48.3443L42 101.728Z" fill="#FFC24A"/>
<path d="M42.2427 101.29L42.5536 100.684L61.798 64.2274L53.2463 48.0845C52.5356 46.7518 50.7307 47.0916 50.4975 48.5834L42.2427 101.29Z" fill="#FFA712"/>
<g filter="url(#filter0_i)">
<path d="M42.2427 101.29L42.5536 100.684L61.798 64.2274L53.2463 48.0845C52.5356 46.7518 50.7307 47.0916 50.4975 48.5834L42.2427 101.29Z" fill="#FFC24A"/>
</g>
<path d="M68.1501 76.0814L74.5334 69.5546L68.1482 57.3848C67.5421 56.2328 65.8498 56.2294 65.2501 57.3848L61.8385 63.8801V64.4332L68.1499 76.0814H68.1501Z" fill="#F4BD62"/>
<path d="M68.0363 75.8095L74.2421 69.4641L68.0363 57.6662C67.447 56.5463 66.0154 56.4289 65.4324 57.5521L62.003 64.1483L61.9003 64.4856L68.0363 75.8095V75.8095Z" fill="#FFA50E"/>
<g filter="url(#filter1_i)">
<path d="M68.0363 75.8095L74.2421 69.4641L68.0363 57.6662C67.447 56.5463 66.0154 56.4289 65.4324 57.5521L62.003 64.1483L61.9003 64.4856L68.0363 75.8095V75.8095Z" fill="#FFA712"/>
</g>
<path d="M42 101.728L42.1863 101.541L42.8635 101.266L67.7492 76.5127L68.0645 75.6558L61.8565 63.8449L42 101.728Z" fill="#F6820C"/>
<path d="M68.9474 114.212L91.4696 101.671L85.0381 62.1245C84.8368 60.8873 83.3165 60.3982 82.4293 61.2852L42 101.728L64.393 114.211C65.089 114.599 65.8729 114.802 66.6701 114.803C67.4672 114.803 68.2512 114.599 68.9474 114.212" fill="#FDE068"/>
<path d="M91.2678 101.566L84.885 62.3197C84.6855 61.0917 83.4211 60.5836 82.5407 61.4641L42.2499 101.651L64.3971 114.01C65.0878 114.395 65.8657 114.597 66.6568 114.597C67.4479 114.598 68.2259 114.396 68.9168 114.011L91.268 101.566L91.2678 101.566Z" fill="#FCCA3F"/>
<path d="M68.9472 113.842C68.251 114.23 67.4671 114.433 66.67 114.433C65.8728 114.433 65.089 114.229 64.393 113.841L42.1803 101.538L42.0002 101.728L64.393 114.211C65.089 114.599 65.8729 114.802 66.6701 114.802C67.4672 114.803 68.2512 114.599 68.9474 114.212L91.4696 101.671L91.4144 101.332L68.9474 113.842L68.9472 113.842Z" fill="#EEAB37"/>
</g>
<defs>
<filter id="filter0_i" x="42.2427" y="47.2516" width="19.5553" height="54.038" filterUnits="userSpaceOnUse" color-interpolation-filters="sRGB">
<feFlood flood-opacity="0" result="BackgroundImageFix"/>
<feBlend mode="normal" in="SourceGraphic" in2="BackgroundImageFix" result="shape"/>
<feColorMatrix in="SourceAlpha" type="matrix" values="0 0 0 0 0 0 0 0 0 0 0 0 0 0 0 0 0 0 127 0" result="hardAlpha"/>
<feOffset/>
<feGaussianBlur stdDeviation="17.5"/>
<feComposite in2="hardAlpha" operator="arithmetic" k2="-1" k3="1"/>
<feColorMatrix type="matrix" values="0 0 0 0 0 0 0 0 0 0 0 0 0 0 0 0 0 0 0.06 0"/>
<feBlend mode="normal" in2="shape" result="effect1_innerShadow"/>
</filter>
<filter id="filter1_i" x="61.9003" y="49.7657" width="13.3418" height="26.0437" filterUnits="userSpaceOnUse" color-interpolation-filters="sRGB">
<feFlood flood-opacity="0" result="BackgroundImageFix"/>
<feBlend mode="normal" in="SourceGraphic" in2="BackgroundImageFix" result="shape"/>
<feColorMatrix in="SourceAlpha" type="matrix" values="0 0 0 0 0 0 0 0 0 0 0 0 0 0 0 0 0 0 127 0" result="hardAlpha"/>
<feOffset dx="1" dy="-9"/>
<feGaussianBlur stdDeviation="3.5"/>
<feComposite in2="hardAlpha" operator="arithmetic" k2="-1" k3="1"/>
<feColorMatrix type="matrix" values="0 0 0 0 0 0 0 0 0 0 0 0 0 0 0 0 0 0 0.09 0"/>
<feBlend mode="normal" in2="shape" result="effect1_innerShadow"/>
</filter>
<clipPath id="clip0">
<rect width="49.5866" height="67.8785" fill="white" transform="translate(42 47)"/>
</clipPath>
</defs>
</svg>
