<svg width="1200" height="630" viewBox="0 0 1200 630" fill="none" xmlns="http://www.w3.org/2000/svg">
<rect width="1200" height="630" fill="#E8E4DD"/>
<g opacity="0.4">
<path d="M460 432.411L462.33 429.151L572.539 220.183L572.772 217.97L524.191 126.78C520.119 119.142 508.659 121.073 507.324 129.624L460 432.411Z" fill="#FFC24A"/>
<path d="M461.375 429.925L463.137 426.491L572.193 219.712L523.731 128.151C519.704 120.593 509.476 122.52 508.154 130.981L461.375 429.925Z" fill="#FFA712"/>
<g filter="url(#filter0_i)">
<path d="M461.375 429.925L463.137 426.491L572.193 219.712L523.731 128.151C519.704 120.593 509.476 122.52 508.154 130.981L461.375 429.925Z" fill="#FFC24A"/>
</g>
<path d="M608.189 286.947L644.362 249.927L608.178 180.902C604.744 174.368 595.153 174.348 591.755 180.902L572.422 217.742V220.879L608.188 286.947H608.189Z" fill="#F4BD62"/>
<path d="M607.544 285.404L642.711 249.414L607.544 182.498C604.205 176.146 596.092 175.48 592.788 181.85L573.354 219.263L572.772 221.176L607.544 285.404Z" fill="#FFA50E"/>
<g filter="url(#filter1_i)">
<path d="M607.544 285.404L642.711 249.414L607.544 182.498C604.205 176.146 596.092 175.48 592.788 181.85L573.354 219.263L572.772 221.176L607.544 285.404Z" fill="#FFA712"/>
</g>
<path d="M460 432.411L461.056 431.349L464.893 429.792L605.917 289.393L607.704 284.532L572.524 217.542L460 432.411Z" fill="#F6820C"/>
<path d="M612.707 503.217L740.337 432.088L703.89 207.785C702.75 200.767 694.134 197.993 689.107 203.024L460 432.411L586.898 503.211C590.842 505.412 595.284 506.568 599.802 506.569C604.319 506.57 608.762 505.416 612.707 503.217Z" fill="#FDE068"/>
<path d="M739.193 431.492L703.023 208.892C701.893 201.926 694.727 199.045 689.738 204.039L461.416 431.974L586.921 502.073C590.835 504.257 595.243 505.404 599.726 505.405C604.209 505.406 608.618 504.261 612.534 502.079L739.194 431.491L739.193 431.492Z" fill="#FCCA3F"/>
<path d="M612.706 501.121C608.761 503.32 604.318 504.473 599.801 504.472C595.284 504.471 590.842 503.316 586.898 501.115L461.022 431.333L460.001 432.411L586.898 503.211C590.842 505.412 595.284 506.568 599.802 506.569C604.319 506.57 608.762 505.416 612.707 503.217L740.337 432.088L740.024 430.167L612.707 501.122L612.706 501.121Z" fill="#EEAB37"/>
</g>
<path d="M1144.5 200L1111 0H1172.5L1144.5 200Z" fill="#FFC665"/>
<path d="M1110 444.5L1001.5 0H1111L1144.5 199.5L1110 444.5Z" fill="#FDDC82"/>
<path d="M919.5 630L1123.5 356V630H919.5Z" fill="#FCD589"/>
<path d="M1084 630L1172.5 0H1200V630H1084Z" fill="#F9AE61" fill-opacity="0.85"/>
<path d="M1042 630L1102.5 501L1084 630H1042Z" fill="#FDE068"/>
<path d="M972 559L1072 289L1097 391.5L972 559Z" fill="#FED789" fill-opacity="0.68"/>
<path d="M0 630H163L59 575L0 460.5V630Z" fill="#FFC665" fill-opacity="0.8"/>
<path d="M599 118V186M599 186L581.5 169.5M599 186L615.5 169.5" stroke="black" stroke-width="3"/>
<path d="M598.5 261V329M598.5 329L581 312.5M598.5 329L615 312.5" stroke="black" stroke-width="3"/>
<path d="M299.5 457V525M299.5 525L282 508.5M299.5 525L316 508.5" stroke="black" stroke-width="3"/>
<path d="M897.5 457V525M897.5 525L880 508.5M897.5 525L914 508.5" stroke="black" stroke-width="3"/>
<path d="M706.5 460V528M706.5 528L689 511.5M706.5 528L723 511.5" stroke="black" stroke-width="3"/>
<path d="M505.5 457V525M505.5 525L488 508.5M505.5 525L522 508.5" stroke="black" stroke-width="3"/>
<path d="M598.5 391V459M598.5 459H299.5M598.5 459H896.5" stroke="black" stroke-width="3"/>
<path d="M440.352 86.7256V90.793H426.57V104H422.264V71.9395H443.223V76.0068H426.57V86.7256H440.352ZM462.268 79.5957C464.692 79.5957 466.845 80.1699 468.728 81.3184C470.61 82.4668 472.077 83.998 473.13 85.9121C474.215 87.8262 474.757 89.9157 474.757 92.1807C474.757 94.4456 474.215 96.5352 473.13 98.4492C472.077 100.331 470.61 101.847 468.728 102.995C466.845 104.144 464.692 104.718 462.268 104.718C459.843 104.718 457.69 104.144 455.808 102.995C453.925 101.847 452.442 100.331 451.357 98.4492C450.305 96.5352 449.778 94.4456 449.778 92.1807C449.778 89.9157 450.305 87.8262 451.357 85.9121C452.442 83.998 453.925 82.4668 455.808 81.3184C457.69 80.1699 459.843 79.5957 462.268 79.5957ZM462.268 83.4238C460.577 83.4238 459.093 83.8385 457.817 84.668C456.541 85.4655 455.552 86.5342 454.851 87.874C454.181 89.182 453.846 90.6175 453.846 92.1807C453.846 93.7119 454.181 95.1475 454.851 96.4873C455.552 97.7952 456.541 98.8639 457.817 99.6934C459.093 100.491 460.577 100.89 462.268 100.89C463.99 100.89 465.474 100.491 466.718 99.6934C467.994 98.8639 468.967 97.7952 469.637 96.4873C470.339 95.1475 470.689 93.7119 470.689 92.1807C470.689 90.6175 470.339 89.182 469.637 87.874C468.967 86.5342 467.994 85.4655 466.718 84.668C465.474 83.8385 463.99 83.4238 462.268 83.4238ZM485.141 69.5469V104H481.217V69.5469H485.141ZM514.904 69.5469V104H510.98V99.9326C510.151 101.209 509.019 102.325 507.583 103.282C506.179 104.239 504.568 104.718 502.75 104.718C500.708 104.718 498.842 104.207 497.151 103.187C495.461 102.134 494.105 100.682 493.084 98.832C492.095 96.9818 491.601 94.8444 491.601 92.4199C491.601 89.7721 492.095 87.4912 493.084 85.5771C494.105 83.6631 495.493 82.1956 497.247 81.1748C499.002 80.1221 500.964 79.5957 503.133 79.5957C504.505 79.5957 505.892 79.9307 507.296 80.6006C508.731 81.2386 509.96 82.1318 510.98 83.2803V69.5469H514.904ZM503.851 83.5195C502.128 83.5195 500.66 83.9502 499.448 84.8115C498.236 85.641 497.295 86.7256 496.625 88.0654C495.987 89.4053 495.668 90.8568 495.668 92.4199C495.668 93.9512 495.987 95.3708 496.625 96.6787C497.263 97.9548 498.156 98.9756 499.305 99.7412C500.485 100.507 501.841 100.89 503.372 100.89C504.84 100.89 506.147 100.507 507.296 99.7412C508.444 98.9756 509.354 97.9229 510.023 96.583C510.693 95.2113 511.012 93.68 510.98 91.9893L510.933 87.3955C509.944 86.1514 508.875 85.1943 507.727 84.5244C506.61 83.8545 505.318 83.5195 503.851 83.5195ZM532.896 79.5957C535.353 79.5957 537.395 80.1061 539.021 81.127C540.648 82.1478 541.861 83.5355 542.658 85.29C543.488 87.0446 543.902 89.0225 543.902 91.2236V93.5684H525.527C525.719 94.9082 526.181 96.1364 526.915 97.2529C527.649 98.3695 528.606 99.2627 529.786 99.9326C530.966 100.571 532.322 100.89 533.854 100.89C535.576 100.89 537.187 100.459 538.687 99.5977C540.186 98.7044 541.446 97.7314 542.467 96.6787L542.419 100.938C541.972 101.48 541.302 102.054 540.409 102.66C539.548 103.234 538.543 103.713 537.395 104.096C536.278 104.51 535.098 104.718 533.854 104.718C531.429 104.718 529.276 104.144 527.394 102.995C525.511 101.847 524.028 100.331 522.943 98.4492C521.891 96.5352 521.364 94.4456 521.364 92.1807C521.364 89.9157 521.859 87.8262 522.848 85.9121C523.837 83.998 525.192 82.4668 526.915 81.3184C528.67 80.1699 530.663 79.5957 532.896 79.5957ZM532.896 83.4238C530.919 83.4238 529.292 84.0938 528.016 85.4336C526.74 86.7415 525.942 88.3366 525.623 90.2188H540.026C539.867 88.6556 539.42 87.3796 538.687 86.3906C537.985 85.4017 537.123 84.668 536.103 84.1895C535.082 83.679 534.013 83.4238 532.896 83.4238ZM554.286 80.0742V84.8594C555.211 83.2643 556.328 81.9883 557.636 81.0312C558.944 80.0742 560.284 79.5957 561.655 79.5957C562.58 79.5957 563.41 79.7552 564.144 80.0742V84.6201C563.123 84.014 562.102 83.7109 561.081 83.7109C559.454 83.7109 558.13 84.2852 557.109 85.4336C556.12 86.582 555.179 87.9538 554.286 89.5488V104H550.362V80.0742H554.286ZM590.653 79.5957C592.057 79.5957 593.365 79.8031 594.577 80.2178C595.789 80.6006 596.667 80.9993 597.209 81.4141V85.625C596.539 85.1146 595.63 84.6201 594.481 84.1416C593.333 83.6631 592.153 83.4238 590.94 83.4238C589.441 83.4238 588.309 83.7747 587.543 84.4766C586.809 85.1784 586.442 85.9121 586.442 86.6777C586.442 87.2839 586.65 87.9059 587.064 88.5439C587.511 89.1501 588.277 89.6445 589.361 90.0273L593.381 91.4629C594.944 92.0052 596.108 92.7868 596.874 93.8076C597.64 94.8285 598.022 96.0247 598.022 97.3965C598.022 98.7363 597.64 99.9645 596.874 101.081C596.14 102.198 595.104 103.091 593.764 103.761C592.456 104.399 590.94 104.718 589.218 104.718C588.293 104.718 587.32 104.59 586.299 104.335C585.31 104.112 584.417 103.84 583.619 103.521C582.822 103.171 582.231 102.868 581.849 102.612V98.4014C582.295 98.7204 582.917 99.0872 583.715 99.502C584.544 99.8848 585.422 100.22 586.347 100.507C587.272 100.762 588.133 100.89 588.931 100.89C590.43 100.89 591.61 100.555 592.472 99.8848C593.365 99.2148 593.812 98.3854 593.812 97.3965C593.812 96.6309 593.508 96.0247 592.902 95.5781C592.328 95.1315 591.483 94.7008 590.366 94.2861L586.825 92.9941C584.975 92.2923 583.747 91.415 583.141 90.3623C582.535 89.2777 582.231 88.0495 582.231 86.6777C582.231 84.6361 582.997 82.9453 584.528 81.6055C586.06 80.2656 588.101 79.5957 590.653 79.5957ZM610.607 73.1836V80.0742H617.594V83.7588H610.607V97.7793C610.607 98.7682 610.863 99.5498 611.373 100.124C611.883 100.698 612.665 100.985 613.718 100.985C614.675 100.985 615.472 100.874 616.11 100.65C616.748 100.395 617.307 100.124 617.785 99.8369V103.043C617.147 103.553 616.461 103.952 615.728 104.239C615.026 104.558 614.069 104.718 612.856 104.718C610.815 104.718 609.268 104.112 608.215 102.899C607.194 101.655 606.684 100.012 606.684 97.9707V83.7588H602.09V82.6104C603.653 81.9085 604.961 80.7601 606.014 79.165C607.066 77.5381 607.992 75.5443 608.789 73.1836H610.607ZM628.647 80.0742V84.8594C629.573 83.2643 630.689 81.9883 631.997 81.0312C633.305 80.0742 634.645 79.5957 636.017 79.5957C636.942 79.5957 637.771 79.7552 638.505 80.0742V84.6201C637.484 84.014 636.463 83.7109 635.442 83.7109C633.815 83.7109 632.492 84.2852 631.471 85.4336C630.482 86.582 629.541 87.9538 628.647 89.5488V104H624.724V80.0742H628.647ZM663.101 80.0742V94.2383C663.101 96.3438 662.654 98.1621 661.761 99.6934C660.868 101.225 659.655 102.405 658.124 103.234C656.593 104.064 654.87 104.479 652.956 104.479C651.042 104.479 649.319 104.064 647.788 103.234C646.257 102.405 645.045 101.225 644.151 99.6934C643.258 98.1621 642.812 96.3438 642.812 94.2383V80.0742H646.879V94.2383C646.879 96.3118 647.485 97.9069 648.697 99.0234C649.941 100.108 651.361 100.65 652.956 100.65C654.551 100.65 655.955 100.108 657.167 99.0234C658.411 97.9069 659.033 96.3118 659.033 94.2383V80.0742H663.101ZM681.332 79.5957C683.087 79.5957 684.602 79.8828 685.878 80.457C687.154 80.9993 688.031 81.4938 688.51 81.9404V85.9121C687.617 85.2422 686.596 84.668 685.447 84.1895C684.299 83.679 682.927 83.4238 681.332 83.4238C679.641 83.4238 678.158 83.8385 676.882 84.668C675.606 85.4655 674.617 86.5342 673.915 87.874C673.245 89.182 672.91 90.6175 672.91 92.1807C672.91 93.7119 673.245 95.1475 673.915 96.4873C674.617 97.7952 675.606 98.8639 676.882 99.6934C678.158 100.491 679.641 100.89 681.332 100.89C682.927 100.89 684.299 100.65 685.447 100.172C686.596 99.6615 687.617 99.0713 688.51 98.4014V102.373C688.031 102.852 687.154 103.362 685.878 103.904C684.602 104.447 683.087 104.718 681.332 104.718C678.908 104.718 676.754 104.144 674.872 102.995C672.99 101.847 671.507 100.331 670.422 98.4492C669.369 96.5352 668.843 94.4456 668.843 92.1807C668.843 89.9157 669.369 87.8262 670.422 85.9121C671.507 83.998 672.99 82.4668 674.872 81.3184C676.754 80.1699 678.908 79.5957 681.332 79.5957ZM701.573 73.1836V80.0742H708.56V83.7588H701.573V97.7793C701.573 98.7682 701.828 99.5498 702.339 100.124C702.849 100.698 703.631 100.985 704.684 100.985C705.641 100.985 706.438 100.874 707.076 100.65C707.714 100.395 708.272 100.124 708.751 99.8369V103.043C708.113 103.553 707.427 103.952 706.693 104.239C705.992 104.558 705.035 104.718 703.822 104.718C701.781 104.718 700.233 104.112 699.181 102.899C698.16 101.655 697.649 100.012 697.649 97.9707V83.7588H693.056V82.6104C694.619 81.9085 695.927 80.7601 696.979 79.165C698.032 77.5381 698.957 75.5443 699.755 73.1836H701.573ZM735.261 80.0742V94.2383C735.261 96.3438 734.814 98.1621 733.921 99.6934C733.028 101.225 731.815 102.405 730.284 103.234C728.753 104.064 727.03 104.479 725.116 104.479C723.202 104.479 721.479 104.064 719.948 103.234C718.417 102.405 717.205 101.225 716.312 99.6934C715.418 98.1621 714.972 96.3438 714.972 94.2383V80.0742H719.039V94.2383C719.039 96.3118 719.645 97.9069 720.857 99.0234C722.102 100.108 723.521 100.65 725.116 100.65C726.711 100.65 728.115 100.108 729.327 99.0234C730.571 97.9069 731.193 96.3118 731.193 94.2383V80.0742H735.261ZM746.602 80.0742V84.8594C747.527 83.2643 748.643 81.9883 749.951 81.0312C751.259 80.0742 752.599 79.5957 753.971 79.5957C754.896 79.5957 755.725 79.7552 756.459 80.0742V84.6201C755.438 84.014 754.417 83.7109 753.396 83.7109C751.77 83.7109 750.446 84.2852 749.425 85.4336C748.436 86.582 747.495 87.9538 746.602 89.5488V104H742.678V80.0742H746.602ZM771.341 79.5957C773.797 79.5957 775.839 80.1061 777.466 81.127C779.093 82.1478 780.305 83.5355 781.103 85.29C781.932 87.0446 782.347 89.0225 782.347 91.2236V93.5684H763.972C764.163 94.9082 764.626 96.1364 765.359 97.2529C766.093 98.3695 767.05 99.2627 768.23 99.9326C769.411 100.571 770.767 100.89 772.298 100.89C774.021 100.89 775.632 100.459 777.131 99.5977C778.63 98.7044 779.89 97.7314 780.911 96.6787L780.863 100.938C780.417 101.48 779.747 102.054 778.854 102.66C777.992 103.234 776.987 103.713 775.839 104.096C774.722 104.51 773.542 104.718 772.298 104.718C769.873 104.718 767.72 104.144 765.838 102.995C763.956 101.847 762.472 100.331 761.388 98.4492C760.335 96.5352 759.809 94.4456 759.809 92.1807C759.809 89.9157 760.303 87.8262 761.292 85.9121C762.281 83.998 763.637 82.4668 765.359 81.3184C767.114 80.1699 769.108 79.5957 771.341 79.5957ZM771.341 83.4238C769.363 83.4238 767.736 84.0938 766.46 85.4336C765.184 86.7415 764.386 88.3366 764.067 90.2188H778.471C778.311 88.6556 777.865 87.3796 777.131 86.3906C776.429 85.4017 775.568 84.668 774.547 84.1895C773.526 83.679 772.457 83.4238 771.341 83.4238Z" fill="black"/>
<path d="M579.175 225.84C578.904 225.491 578.557 225.208 578.16 225.015C577.762 224.821 577.326 224.721 576.884 224.722H568.868V218.375C568.867 217.633 568.572 216.922 568.047 216.397C567.523 215.872 566.811 215.577 566.069 215.576H549.564L547.412 210.409C547.2 209.899 546.842 209.463 546.382 209.156C545.922 208.85 545.381 208.687 544.829 208.688H524.736C523.994 208.688 523.283 208.983 522.758 209.508C522.233 210.033 521.938 210.744 521.938 211.486V255.618H572.882L579.704 228.333C579.812 227.905 579.821 227.457 579.729 227.025C579.638 226.593 579.448 226.187 579.175 225.84ZM525.813 251.743V212.563H544.111L546.981 219.451H564.993V224.722H536.661C536.013 224.721 535.383 224.938 534.871 225.336C534.36 225.735 533.998 226.294 533.841 226.923L527.637 251.743H525.813ZM569.857 251.743H531.631L537.417 228.597H575.644L569.857 251.743Z" fill="black"/>
<path d="M877.175 556.84C876.904 556.491 876.557 556.208 876.16 556.015C875.762 555.821 875.326 555.721 874.884 555.722H866.868V549.375C866.867 548.633 866.572 547.922 866.047 547.397C865.523 546.872 864.811 546.577 864.069 546.576H847.564L845.412 541.409C845.2 540.899 844.842 540.463 844.382 540.156C843.922 539.85 843.381 539.687 842.829 539.688H822.736C821.994 539.688 821.283 539.983 820.758 540.508C820.233 541.033 819.938 541.744 819.938 542.486V586.618H870.882L877.704 559.333C877.812 558.905 877.821 558.457 877.729 558.025C877.638 557.593 877.448 557.187 877.175 556.84ZM823.813 582.743V543.563H842.111L844.981 550.451H862.993V555.722H834.661C834.013 555.721 833.383 555.938 832.871 556.336C832.36 556.735 831.998 557.294 831.841 557.923L825.637 582.743H823.813ZM867.857 582.743H829.631L835.417 559.597H873.644L867.857 582.743Z" fill="black"/>
<path d="M608.358 227.482C609.831 227.482 611.24 227.825 612.586 228.511C613.932 229.171 615.036 230.136 615.899 231.405C616.788 232.649 617.232 234.147 617.232 235.899C617.232 237.397 616.813 238.781 615.976 240.051C615.138 241.32 613.995 242.349 612.548 243.136C611.126 243.897 609.539 244.278 607.787 244.278C606.492 244.278 605.299 244.151 604.207 243.897C603.141 243.618 602.277 243.326 601.617 243.021V253H598.189V227.482H608.358ZM601.617 230.72V239.898C602.303 240.178 603.191 240.444 604.283 240.698C605.4 240.927 606.53 241.041 607.673 241.041C609.603 241.041 611.088 240.546 612.129 239.556C613.195 238.54 613.729 237.321 613.729 235.899C613.729 234.808 613.424 233.881 612.814 233.119C612.23 232.357 611.456 231.773 610.491 231.367C609.526 230.936 608.498 230.72 607.406 230.72H601.617ZM637.951 233.957V245.23C637.951 246.906 637.596 248.354 636.885 249.572C636.174 250.791 635.209 251.73 633.99 252.391C632.771 253.051 631.4 253.381 629.877 253.381C628.354 253.381 626.982 253.051 625.764 252.391C624.545 251.73 623.58 250.791 622.869 249.572C622.158 248.354 621.803 246.906 621.803 245.23V233.957H625.04V245.23C625.04 246.881 625.522 248.15 626.487 249.039C627.478 249.902 628.607 250.334 629.877 250.334C631.146 250.334 632.264 249.902 633.229 249.039C634.219 248.15 634.714 246.881 634.714 245.23V233.957H637.951ZM653.224 233.576C654.976 233.576 656.537 233.995 657.908 234.833C659.305 235.646 660.396 236.813 661.184 238.337C661.996 239.86 662.402 241.676 662.402 243.783C662.402 245.713 661.996 247.414 661.184 248.887C660.396 250.359 659.33 251.515 657.984 252.353C656.664 253.165 655.179 253.571 653.528 253.571C652.081 253.571 650.786 253.19 649.644 252.429C648.526 251.667 647.638 250.778 646.978 249.763V253H643.854V225.578H646.978V236.509C647.79 235.595 648.755 234.884 649.872 234.376C651.015 233.843 652.132 233.576 653.224 233.576ZM652.652 236.661C651.484 236.661 650.456 236.94 649.567 237.499C648.679 238.032 647.828 238.794 647.016 239.784L646.978 243.44C646.978 244.786 647.231 245.992 647.739 247.059C648.272 248.125 648.996 248.963 649.91 249.572C650.85 250.182 651.891 250.486 653.033 250.486C654.277 250.486 655.356 250.182 656.271 249.572C657.185 248.963 657.896 248.15 658.403 247.135C658.911 246.119 659.165 245.002 659.165 243.783C659.165 242.539 658.898 241.384 658.365 240.317C657.857 239.226 657.121 238.35 656.156 237.689C655.191 237.004 654.023 236.661 652.652 236.661ZM670.667 225.578V253H667.544V225.578H670.667ZM680.188 224.816C680.925 224.816 681.534 225.083 682.017 225.616C682.524 226.124 682.778 226.721 682.778 227.406C682.778 228.066 682.524 228.663 682.017 229.196C681.534 229.729 680.925 229.996 680.188 229.996C679.452 229.996 678.83 229.729 678.322 229.196C677.84 228.663 677.599 228.066 677.599 227.406C677.599 226.721 677.84 226.124 678.322 225.616C678.83 225.083 679.452 224.816 680.188 224.816ZM682.131 233.957V253H679.008V236.89H675.999V233.957H682.131ZM697.479 233.576C698.876 233.576 700.082 233.805 701.098 234.262C702.113 234.693 702.812 235.087 703.192 235.442V238.604C702.481 238.07 701.669 237.613 700.755 237.232C699.841 236.826 698.749 236.623 697.479 236.623C696.134 236.623 694.953 236.953 693.938 237.613C692.922 238.248 692.135 239.099 691.576 240.165C691.043 241.206 690.776 242.349 690.776 243.593C690.776 244.812 691.043 245.954 691.576 247.021C692.135 248.062 692.922 248.912 693.938 249.572C694.953 250.207 696.134 250.524 697.479 250.524C698.749 250.524 699.841 250.334 700.755 249.953C701.669 249.547 702.481 249.077 703.192 248.544V251.705C702.812 252.086 702.113 252.492 701.098 252.924C700.082 253.355 698.876 253.571 697.479 253.571C695.55 253.571 693.836 253.114 692.338 252.2C690.84 251.286 689.659 250.08 688.796 248.582C687.958 247.059 687.539 245.396 687.539 243.593C687.539 241.79 687.958 240.127 688.796 238.604C689.659 237.08 690.84 235.861 692.338 234.947C693.836 234.033 695.55 233.576 697.479 233.576Z" fill="black"/>
<path d="M896.225 578.763V582H884.189V578.763H888.493V559.72H884.189V556.482H896.225V559.72H891.921V578.763H896.225ZM906.774 562.957V565.395C907.384 564.709 908.158 564.074 909.098 563.49C910.062 562.881 911.192 562.576 912.487 562.576C913.858 562.576 915.141 562.906 916.334 563.566C917.527 564.201 918.441 565.166 919.076 566.461C919.965 565.395 920.93 564.48 921.971 563.719C923.012 562.957 924.23 562.576 925.627 562.576C926.922 562.576 928.128 562.868 929.245 563.452C930.388 564.011 931.302 564.874 931.987 566.042C932.698 567.185 933.054 568.632 933.054 570.384V582H929.931L929.893 570.688C929.893 569.038 929.461 567.781 928.598 566.918C927.76 566.055 926.592 565.623 925.094 565.623C924.002 565.623 923.05 565.966 922.237 566.651C921.425 567.337 920.65 568.137 919.914 569.051V582H916.791L916.753 570.688C916.753 569.038 916.321 567.781 915.458 566.918C914.62 566.055 913.452 565.623 911.954 565.623C910.913 565.623 909.961 565.928 909.098 566.537C908.26 567.146 907.485 567.883 906.774 568.746V582H903.651V562.957H906.774ZM946.803 562.576C947.895 562.576 948.999 562.843 950.116 563.376C951.259 563.884 952.236 564.595 953.049 565.509V562.957H956.172V582H953.049V578.763C952.389 579.778 951.487 580.667 950.345 581.429C949.228 582.19 947.945 582.571 946.498 582.571C944.873 582.571 943.388 582.165 942.042 581.353C940.696 580.515 939.617 579.359 938.805 577.887C938.018 576.414 937.624 574.713 937.624 572.783C937.624 570.676 938.018 568.86 938.805 567.337C939.617 565.813 940.722 564.646 942.118 563.833C943.515 562.995 945.076 562.576 946.803 562.576ZM947.374 565.623C946.003 565.623 944.835 565.966 943.87 566.651C942.905 567.337 942.156 568.226 941.623 569.317C941.115 570.384 940.861 571.539 940.861 572.783C940.861 574.002 941.115 575.132 941.623 576.173C942.131 577.188 942.842 578.001 943.756 578.61C944.695 579.22 945.774 579.524 946.993 579.524C948.161 579.524 949.202 579.22 950.116 578.61C951.03 578.001 951.754 577.163 952.287 576.097C952.82 575.005 953.074 573.786 953.049 572.44L953.011 568.784C952.224 567.794 951.373 567.02 950.459 566.461C949.57 565.902 948.542 565.623 947.374 565.623ZM970.492 562.576C971.584 562.576 972.688 562.843 973.806 563.376C974.948 563.884 975.926 564.595 976.738 565.509V562.957H979.861V581.619C979.861 583.879 979.404 585.758 978.49 587.256C977.576 588.754 976.357 589.871 974.834 590.607C973.311 591.344 971.647 591.712 969.845 591.712C968.677 591.712 967.674 591.572 966.836 591.293C966.023 591.039 965.325 590.709 964.741 590.303C964.157 589.922 963.624 589.554 963.142 589.198V585.847C963.522 586.126 964.018 586.481 964.627 586.913C965.262 587.37 966.011 587.776 966.874 588.132C967.763 588.487 968.753 588.665 969.845 588.665C971.089 588.665 972.231 588.437 973.272 587.979C974.313 587.522 975.151 586.85 975.786 585.961C976.421 585.072 976.738 584.006 976.738 582.762V578.763C976.078 579.778 975.177 580.667 974.034 581.429C972.917 582.19 971.635 582.571 970.188 582.571C968.562 582.571 967.077 582.165 965.731 581.353C964.386 580.515 963.307 579.359 962.494 577.887C961.707 576.414 961.313 574.713 961.313 572.783C961.313 570.676 961.707 568.86 962.494 567.337C963.307 565.813 964.411 564.646 965.808 563.833C967.204 562.995 968.766 562.576 970.492 562.576ZM971.063 565.661C969.692 565.661 968.524 566.004 967.56 566.689C966.595 567.35 965.846 568.226 965.312 569.317C964.805 570.384 964.551 571.539 964.551 572.783C964.551 574.002 964.805 575.119 965.312 576.135C965.82 577.15 966.531 577.963 967.445 578.572C968.385 579.182 969.464 579.486 970.683 579.486C971.851 579.486 972.892 579.182 973.806 578.572C974.72 577.963 975.443 577.125 975.977 576.059C976.51 574.992 976.764 573.786 976.738 572.44L976.7 568.784C975.913 567.794 975.062 567.032 974.148 566.499C973.26 565.94 972.231 565.661 971.063 565.661ZM994.182 562.576C996.137 562.576 997.762 562.982 999.057 563.795C1000.35 564.607 1001.32 565.712 1001.95 567.108C1002.61 568.505 1002.94 570.079 1002.94 571.831V573.697H988.316C988.469 574.764 988.837 575.741 989.421 576.63C990.005 577.519 990.767 578.229 991.706 578.763C992.646 579.271 993.725 579.524 994.943 579.524C996.314 579.524 997.597 579.182 998.79 578.496C999.983 577.785 1000.99 577.011 1001.8 576.173L1001.76 579.562C1001.41 579.994 1000.87 580.451 1000.16 580.934C999.476 581.391 998.676 581.771 997.762 582.076C996.873 582.406 995.934 582.571 994.943 582.571C993.014 582.571 991.3 582.114 989.802 581.2C988.304 580.286 987.123 579.08 986.26 577.582C985.422 576.059 985.003 574.396 985.003 572.593C985.003 570.79 985.396 569.127 986.184 567.604C986.971 566.08 988.05 564.861 989.421 563.947C990.817 563.033 992.404 562.576 994.182 562.576ZM994.182 565.623C992.607 565.623 991.312 566.156 990.297 567.223C989.281 568.264 988.646 569.533 988.393 571.031H999.856C999.729 569.787 999.374 568.771 998.79 567.984C998.231 567.197 997.546 566.613 996.733 566.232C995.921 565.826 995.07 565.623 994.182 565.623Z" fill="black"/>
<path d="M252.617 556.482V567.223H267.166V556.482H270.594V582H267.166V570.46H252.617V582H249.189V556.482H252.617ZM296.949 556.482V559.72H288.151V581.886H284.724V559.72H275.926V556.482H296.949ZM325.971 556.482V582H322.543V563.528L314.659 571.945H313.745L305.671 563.528V582H302.243V556.482H303.31L314.202 568.175L324.904 556.482H325.971ZM337.777 556.482V578.763H351.831V582H334.35V556.482H337.777Z" fill="black"/>
<path d="M483.349 552.911C485.202 552.911 486.713 553.165 487.881 553.673C489.074 554.181 490.115 554.841 491.004 555.653V559.424C490.445 559.018 489.811 558.573 489.1 558.091C488.414 557.608 487.602 557.189 486.662 556.834C485.748 556.453 484.644 556.263 483.349 556.263C481.444 556.263 479.743 556.694 478.245 557.558C476.747 558.421 475.566 559.614 474.703 561.138C473.84 562.636 473.408 564.337 473.408 566.241C473.408 568.146 473.84 569.847 474.703 571.345C475.566 572.843 476.747 574.036 478.245 574.925C479.743 575.788 481.444 576.22 483.349 576.22C485.304 576.22 486.967 575.902 488.338 575.268C489.734 574.607 490.877 573.935 491.766 573.249V576.677C490.877 577.464 489.709 578.149 488.262 578.733C486.84 579.292 485.202 579.571 483.349 579.571C481.419 579.571 479.642 579.229 478.017 578.543C476.392 577.832 474.97 576.867 473.751 575.648C472.532 574.43 471.58 573.021 470.895 571.421C470.234 569.796 469.904 568.069 469.904 566.241C469.904 564.413 470.234 562.699 470.895 561.1C471.58 559.475 472.532 558.053 473.751 556.834C474.97 555.615 476.392 554.663 478.017 553.978C479.642 553.267 481.419 552.911 483.349 552.911ZM504.029 553.102C505.527 553.102 506.759 553.317 507.724 553.749C508.714 554.181 509.577 554.638 510.313 555.12V558.662C509.603 558.129 508.739 557.634 507.724 557.177C506.708 556.694 505.604 556.453 504.41 556.453C503.648 556.453 502.849 556.593 502.011 556.872C501.198 557.126 500.513 557.545 499.954 558.129C499.396 558.713 499.116 559.462 499.116 560.376C499.116 561.392 499.484 562.166 500.221 562.699C500.957 563.232 501.846 563.74 502.887 564.223L506.391 565.822C508.143 566.609 509.463 567.485 510.352 568.45C511.24 569.415 511.685 570.697 511.685 572.297C511.685 573.693 511.278 574.925 510.466 575.991C509.653 577.032 508.587 577.857 507.267 578.467C505.946 579.076 504.499 579.381 502.925 579.381C501.452 579.381 500.094 579.127 498.85 578.619C497.605 578.111 496.526 577.54 495.612 576.905V573.363C496.603 574.049 497.732 574.671 499.002 575.229C500.297 575.763 501.757 576.029 503.382 576.029C504.651 576.029 505.769 575.712 506.733 575.077C507.698 574.442 508.181 573.566 508.181 572.449C508.181 571.814 507.978 571.269 507.571 570.812C507.19 570.354 506.721 569.961 506.162 569.631C505.604 569.301 505.058 569.021 504.524 568.793L500.297 566.889C498.469 566.076 497.225 565.124 496.564 564.032C495.904 562.94 495.574 561.684 495.574 560.262C495.574 558.916 495.955 557.71 496.717 556.644C497.504 555.552 498.545 554.688 499.84 554.054C501.135 553.419 502.531 553.102 504.029 553.102ZM523.948 553.102C525.446 553.102 526.678 553.317 527.643 553.749C528.633 554.181 529.496 554.638 530.232 555.12V558.662C529.521 558.129 528.658 557.634 527.643 557.177C526.627 556.694 525.522 556.453 524.329 556.453C523.567 556.453 522.768 556.593 521.93 556.872C521.117 557.126 520.432 557.545 519.873 558.129C519.314 558.713 519.035 559.462 519.035 560.376C519.035 561.392 519.403 562.166 520.14 562.699C520.876 563.232 521.765 563.74 522.806 564.223L526.31 565.822C528.062 566.609 529.382 567.485 530.271 568.45C531.159 569.415 531.604 570.697 531.604 572.297C531.604 573.693 531.197 574.925 530.385 575.991C529.572 577.032 528.506 577.857 527.186 578.467C525.865 579.076 524.418 579.381 522.844 579.381C521.371 579.381 520.013 579.127 518.769 578.619C517.524 578.111 516.445 577.54 515.531 576.905V573.363C516.521 574.049 517.651 574.671 518.921 575.229C520.216 575.763 521.676 576.029 523.301 576.029C524.57 576.029 525.688 575.712 526.652 575.077C527.617 574.442 528.1 573.566 528.1 572.449C528.1 571.814 527.896 571.269 527.49 570.812C527.109 570.354 526.64 569.961 526.081 569.631C525.522 569.301 524.977 569.021 524.443 568.793L520.216 566.889C518.388 566.076 517.144 565.124 516.483 564.032C515.823 562.94 515.493 561.684 515.493 560.262C515.493 558.916 515.874 557.71 516.636 556.644C517.423 555.552 518.464 554.688 519.759 554.054C521.054 553.419 522.45 553.102 523.948 553.102Z" fill="black"/>
<path d="M695.808 553.406V577.705C695.808 579.863 695.452 581.653 694.741 583.075C694.03 584.497 693.053 585.64 691.809 586.503C690.59 587.392 689.181 588.128 687.581 588.712L685.905 585.398C690.222 583.85 692.38 581.514 692.38 578.391V553.406H695.808ZM710.356 553.102C711.854 553.102 713.086 553.317 714.051 553.749C715.041 554.181 715.904 554.638 716.641 555.12V558.662C715.93 558.129 715.066 557.634 714.051 557.177C713.035 556.694 711.931 556.453 710.737 556.453C709.976 556.453 709.176 556.593 708.338 556.872C707.525 557.126 706.84 557.545 706.281 558.129C705.723 558.713 705.443 559.462 705.443 560.376C705.443 561.392 705.812 562.166 706.548 562.699C707.284 563.232 708.173 563.74 709.214 564.223L712.718 565.822C714.47 566.609 715.79 567.485 716.679 568.45C717.567 569.415 718.012 570.697 718.012 572.297C718.012 573.693 717.605 574.925 716.793 575.991C715.98 577.032 714.914 577.857 713.594 578.467C712.273 579.076 710.826 579.381 709.252 579.381C707.779 579.381 706.421 579.127 705.177 578.619C703.933 578.111 702.854 577.54 701.939 576.905V573.363C702.93 574.049 704.06 574.671 705.329 575.229C706.624 575.763 708.084 576.029 709.709 576.029C710.979 576.029 712.096 575.712 713.061 575.077C714.025 574.442 714.508 573.566 714.508 572.449C714.508 571.814 714.305 571.269 713.898 570.812C713.518 570.354 713.048 569.961 712.489 569.631C711.931 569.301 711.385 569.021 710.852 568.793L706.624 566.889C704.796 566.076 703.552 565.124 702.892 564.032C702.231 562.94 701.901 561.684 701.901 560.262C701.901 558.916 702.282 557.71 703.044 556.644C703.831 555.552 704.872 554.688 706.167 554.054C707.462 553.419 708.858 553.102 710.356 553.102Z" fill="black"/>
<path d="M464.175 355.84C463.904 355.491 463.557 355.208 463.16 355.015C462.762 354.821 462.326 354.721 461.884 354.722H453.868V348.375C453.867 347.633 453.572 346.922 453.047 346.397C452.523 345.872 451.811 345.577 451.069 345.576H434.564L432.412 340.409C432.2 339.899 431.842 339.463 431.382 339.156C430.922 338.85 430.381 338.687 429.829 338.688H409.736C408.994 338.688 408.283 338.983 407.758 339.508C407.233 340.033 406.938 340.744 406.938 341.486V385.618H457.882L464.704 358.333C464.812 357.905 464.821 357.457 464.729 357.025C464.638 356.593 464.448 356.187 464.175 355.84ZM410.813 381.743V342.563H429.111L431.981 349.451H449.993V354.722H421.661C421.013 354.721 420.383 354.938 419.871 355.336C419.36 355.735 418.998 356.294 418.841 356.923L412.637 381.743H410.813ZM454.857 381.743H416.631L422.417 358.597H460.644L454.857 381.743Z" fill="black"/>
<path d="M483.304 363.957L489.969 377.973L496.443 363.957H500.176L486.16 392.141H482.542L487.988 381.857L479.571 363.957H483.304ZM512.592 363.576C514.521 363.576 516.235 364.033 517.733 364.947C519.231 365.861 520.399 367.08 521.237 368.604C522.101 370.127 522.532 371.79 522.532 373.593C522.532 375.396 522.101 377.059 521.237 378.582C520.399 380.08 519.231 381.286 517.733 382.2C516.235 383.114 514.521 383.571 512.592 383.571C510.662 383.571 508.948 383.114 507.45 382.2C505.952 381.286 504.771 380.08 503.908 378.582C503.07 377.059 502.651 375.396 502.651 373.593C502.651 371.79 503.07 370.127 503.908 368.604C504.771 367.08 505.952 365.861 507.45 364.947C508.948 364.033 510.662 363.576 512.592 363.576ZM512.592 366.623C511.246 366.623 510.065 366.953 509.05 367.613C508.034 368.248 507.247 369.099 506.688 370.165C506.155 371.206 505.889 372.349 505.889 373.593C505.889 374.812 506.155 375.954 506.688 377.021C507.247 378.062 508.034 378.912 509.05 379.572C510.065 380.207 511.246 380.524 512.592 380.524C513.963 380.524 515.144 380.207 516.134 379.572C517.149 378.912 517.924 378.062 518.457 377.021C519.016 375.954 519.295 374.812 519.295 373.593C519.295 372.349 519.016 371.206 518.457 370.165C517.924 369.099 517.149 368.248 516.134 367.613C515.144 366.953 513.963 366.623 512.592 366.623ZM543.251 363.957V375.23C543.251 376.906 542.896 378.354 542.185 379.572C541.474 380.791 540.509 381.73 539.29 382.391C538.071 383.051 536.7 383.381 535.177 383.381C533.653 383.381 532.282 383.051 531.063 382.391C529.845 381.73 528.88 380.791 528.169 379.572C527.458 378.354 527.103 376.906 527.103 375.23V363.957H530.34V375.23C530.34 376.881 530.822 378.15 531.787 379.039C532.777 379.902 533.907 380.334 535.177 380.334C536.446 380.334 537.563 379.902 538.528 379.039C539.519 378.15 540.014 376.881 540.014 375.23V363.957H543.251ZM552.277 363.957V367.766C553.014 366.496 553.902 365.48 554.943 364.719C555.984 363.957 557.051 363.576 558.143 363.576C558.879 363.576 559.539 363.703 560.123 363.957V367.575C559.311 367.093 558.498 366.852 557.686 366.852C556.391 366.852 555.337 367.309 554.524 368.223C553.737 369.137 552.988 370.229 552.277 371.498V383H549.154V363.957H552.277ZM600.532 363.957L593.867 383H591.925L586.707 369.556L581.489 383H579.547L572.882 363.957H576.614L580.842 377.325L585.831 363.957H587.583L592.572 377.325L596.8 363.957H600.532ZM612.187 363.576C614.142 363.576 615.767 363.982 617.062 364.795C618.356 365.607 619.321 366.712 619.956 368.108C620.616 369.505 620.946 371.079 620.946 372.831V374.697H606.321C606.474 375.764 606.842 376.741 607.426 377.63C608.01 378.519 608.771 379.229 609.711 379.763C610.65 380.271 611.729 380.524 612.948 380.524C614.319 380.524 615.602 380.182 616.795 379.496C617.988 378.785 618.991 378.011 619.804 377.173L619.766 380.562C619.41 380.994 618.877 381.451 618.166 381.934C617.48 382.391 616.681 382.771 615.767 383.076C614.878 383.406 613.938 383.571 612.948 383.571C611.019 383.571 609.305 383.114 607.807 382.2C606.309 381.286 605.128 380.08 604.265 378.582C603.427 377.059 603.008 375.396 603.008 373.593C603.008 371.79 603.401 370.127 604.188 368.604C604.976 367.08 606.055 365.861 607.426 364.947C608.822 364.033 610.409 363.576 612.187 363.576ZM612.187 366.623C610.612 366.623 609.317 367.156 608.302 368.223C607.286 369.264 606.651 370.533 606.397 372.031H617.861C617.734 370.787 617.379 369.771 616.795 368.984C616.236 368.197 615.551 367.613 614.738 367.232C613.926 366.826 613.075 366.623 612.187 366.623ZM635.457 363.576C637.209 363.576 638.771 363.995 640.142 364.833C641.538 365.646 642.63 366.813 643.417 368.337C644.229 369.86 644.636 371.676 644.636 373.783C644.636 375.713 644.229 377.414 643.417 378.887C642.63 380.359 641.563 381.515 640.218 382.353C638.897 383.165 637.412 383.571 635.762 383.571C634.314 383.571 633.02 383.19 631.877 382.429C630.76 381.667 629.871 380.778 629.211 379.763V383H626.088V355.578H629.211V366.509C630.023 365.595 630.988 364.884 632.105 364.376C633.248 363.843 634.365 363.576 635.457 363.576ZM634.886 366.661C633.718 366.661 632.689 366.94 631.801 367.499C630.912 368.032 630.062 368.794 629.249 369.784L629.211 373.44C629.211 374.786 629.465 375.992 629.973 377.059C630.506 378.125 631.229 378.963 632.144 379.572C633.083 380.182 634.124 380.486 635.267 380.486C636.511 380.486 637.59 380.182 638.504 379.572C639.418 378.963 640.129 378.15 640.637 377.135C641.145 376.119 641.398 375.002 641.398 373.783C641.398 372.539 641.132 371.384 640.599 370.317C640.091 369.226 639.354 368.35 638.39 367.689C637.425 367.004 636.257 366.661 634.886 366.661ZM655.452 363.576C656.569 363.576 657.61 363.741 658.575 364.071C659.54 364.376 660.238 364.693 660.67 365.023V368.375C660.137 367.969 659.413 367.575 658.499 367.194C657.585 366.813 656.646 366.623 655.681 366.623C654.487 366.623 653.586 366.902 652.977 367.461C652.393 368.02 652.101 368.604 652.101 369.213C652.101 369.695 652.266 370.19 652.596 370.698C652.951 371.181 653.561 371.574 654.424 371.879L657.623 373.021C658.867 373.453 659.794 374.075 660.403 374.888C661.013 375.7 661.317 376.652 661.317 377.744C661.317 378.811 661.013 379.788 660.403 380.677C659.819 381.565 658.994 382.276 657.928 382.81C656.887 383.317 655.681 383.571 654.31 383.571C653.573 383.571 652.799 383.47 651.986 383.267C651.199 383.089 650.488 382.873 649.854 382.619C649.219 382.34 648.749 382.099 648.444 381.896V378.544C648.8 378.798 649.295 379.09 649.93 379.42C650.59 379.725 651.288 379.991 652.024 380.22C652.761 380.423 653.446 380.524 654.081 380.524C655.274 380.524 656.214 380.258 656.899 379.725C657.61 379.191 657.966 378.531 657.966 377.744C657.966 377.135 657.725 376.652 657.242 376.297C656.785 375.941 656.112 375.599 655.224 375.269L652.405 374.24C650.933 373.682 649.955 372.983 649.473 372.146C648.99 371.282 648.749 370.305 648.749 369.213C648.749 367.588 649.358 366.242 650.577 365.176C651.796 364.109 653.421 363.576 655.452 363.576ZM669.125 354.816C669.861 354.816 670.471 355.083 670.953 355.616C671.461 356.124 671.715 356.721 671.715 357.406C671.715 358.066 671.461 358.663 670.953 359.196C670.471 359.729 669.861 359.996 669.125 359.996C668.389 359.996 667.767 359.729 667.259 359.196C666.776 358.663 666.535 358.066 666.535 357.406C666.535 356.721 666.776 356.124 667.259 355.616C667.767 355.083 668.389 354.816 669.125 354.816ZM671.067 363.957V383H667.944V366.89H664.936V363.957H671.067ZM683.064 358.473V363.957H688.625V366.89H683.064V378.049C683.064 378.836 683.268 379.458 683.674 379.915C684.08 380.372 684.702 380.601 685.54 380.601C686.302 380.601 686.937 380.512 687.444 380.334C687.952 380.131 688.396 379.915 688.777 379.687V382.238C688.27 382.645 687.724 382.962 687.14 383.19C686.581 383.444 685.819 383.571 684.854 383.571C683.229 383.571 681.998 383.089 681.16 382.124C680.348 381.134 679.941 379.826 679.941 378.201V366.89H676.285V365.976C677.529 365.417 678.57 364.503 679.408 363.233C680.246 361.938 680.982 360.352 681.617 358.473H683.064ZM702.146 363.576C704.101 363.576 705.726 363.982 707.021 364.795C708.315 365.607 709.28 366.712 709.915 368.108C710.575 369.505 710.905 371.079 710.905 372.831V374.697H696.28C696.433 375.764 696.801 376.741 697.385 377.63C697.969 378.519 698.73 379.229 699.67 379.763C700.609 380.271 701.688 380.524 702.907 380.524C704.278 380.524 705.561 380.182 706.754 379.496C707.947 378.785 708.95 378.011 709.763 377.173L709.725 380.562C709.369 380.994 708.836 381.451 708.125 381.934C707.439 382.391 706.64 382.771 705.726 383.076C704.837 383.406 703.897 383.571 702.907 383.571C700.978 383.571 699.264 383.114 697.766 382.2C696.268 381.286 695.087 380.08 694.224 378.582C693.386 377.059 692.967 375.396 692.967 373.593C692.967 371.79 693.36 370.127 694.147 368.604C694.935 367.08 696.014 365.861 697.385 364.947C698.781 364.033 700.368 363.576 702.146 363.576ZM702.146 366.623C700.571 366.623 699.276 367.156 698.261 368.223C697.245 369.264 696.61 370.533 696.356 372.031H707.82C707.693 370.787 707.338 369.771 706.754 368.984C706.195 368.197 705.51 367.613 704.697 367.232C703.885 366.826 703.034 366.623 702.146 366.623ZM737.337 363.957V366.89H731.776V383H728.653V366.89H725.645V363.957H728.653V361.52C728.653 360.021 728.945 358.803 729.529 357.863C730.113 356.898 730.862 356.188 731.776 355.73C732.69 355.248 733.617 355.007 734.557 355.007C735.852 355.007 736.905 355.35 737.718 356.035V358.777C737.337 358.523 736.88 358.32 736.347 358.168C735.813 358.016 735.28 357.952 734.747 357.978C733.808 358.003 733.071 358.308 732.538 358.892C732.03 359.45 731.776 360.44 731.776 361.862V363.957H737.337ZM750.096 363.576C752.025 363.576 753.739 364.033 755.237 364.947C756.735 365.861 757.903 367.08 758.741 368.604C759.604 370.127 760.036 371.79 760.036 373.593C760.036 375.396 759.604 377.059 758.741 378.582C757.903 380.08 756.735 381.286 755.237 382.2C753.739 383.114 752.025 383.571 750.096 383.571C748.166 383.571 746.452 383.114 744.954 382.2C743.456 381.286 742.275 380.08 741.412 378.582C740.574 377.059 740.155 375.396 740.155 373.593C740.155 371.79 740.574 370.127 741.412 368.604C742.275 367.08 743.456 365.861 744.954 364.947C746.452 364.033 748.166 363.576 750.096 363.576ZM750.096 366.623C748.75 366.623 747.569 366.953 746.554 367.613C745.538 368.248 744.751 369.099 744.192 370.165C743.659 371.206 743.393 372.349 743.393 373.593C743.393 374.812 743.659 375.954 744.192 377.021C744.751 378.062 745.538 378.912 746.554 379.572C747.569 380.207 748.75 380.524 750.096 380.524C751.467 380.524 752.647 380.207 753.638 379.572C754.653 378.912 755.428 378.062 755.961 377.021C756.52 375.954 756.799 374.812 756.799 373.593C756.799 372.349 756.52 371.206 755.961 370.165C755.428 369.099 754.653 368.248 753.638 367.613C752.647 366.953 751.467 366.623 750.096 366.623ZM768.301 355.578V383H765.178V355.578H768.301ZM791.99 355.578V383H788.867V379.763C788.207 380.778 787.306 381.667 786.163 382.429C785.046 383.19 783.764 383.571 782.316 383.571C780.691 383.571 779.206 383.165 777.86 382.353C776.515 381.515 775.436 380.359 774.623 378.887C773.836 377.414 773.442 375.713 773.442 373.783C773.442 371.676 773.836 369.86 774.623 368.337C775.436 366.813 776.54 365.646 777.937 364.833C779.333 363.995 780.895 363.576 782.621 363.576C783.713 363.576 784.817 363.843 785.935 364.376C787.077 364.884 788.055 365.595 788.867 366.509V355.578H791.99ZM783.192 366.699C781.821 366.699 780.653 367.042 779.688 367.728C778.724 368.388 777.975 369.251 777.441 370.317C776.934 371.384 776.68 372.539 776.68 373.783C776.68 375.002 776.934 376.132 777.441 377.173C777.949 378.188 778.66 379.001 779.574 379.61C780.514 380.22 781.593 380.524 782.812 380.524C783.979 380.524 785.021 380.22 785.935 379.61C786.849 379.001 787.572 378.163 788.105 377.097C788.639 376.005 788.893 374.786 788.867 373.44L788.829 369.784C788.042 368.794 787.191 368.032 786.277 367.499C785.389 366.966 784.36 366.699 783.192 366.699ZM806.311 363.576C808.266 363.576 809.891 363.982 811.186 364.795C812.48 365.607 813.445 366.712 814.08 368.108C814.74 369.505 815.07 371.079 815.07 372.831V374.697H800.445C800.598 375.764 800.966 376.741 801.55 377.63C802.134 378.519 802.896 379.229 803.835 379.763C804.774 380.271 805.854 380.524 807.072 380.524C808.443 380.524 809.726 380.182 810.919 379.496C812.112 378.785 813.115 378.011 813.928 377.173L813.89 380.562C813.534 380.994 813.001 381.451 812.29 381.934C811.604 382.391 810.805 382.771 809.891 383.076C809.002 383.406 808.062 383.571 807.072 383.571C805.143 383.571 803.429 383.114 801.931 382.2C800.433 381.286 799.252 380.08 798.389 378.582C797.551 377.059 797.132 375.396 797.132 373.593C797.132 371.79 797.525 370.127 798.312 368.604C799.1 367.08 800.179 365.861 801.55 364.947C802.946 364.033 804.533 363.576 806.311 363.576ZM806.311 366.623C804.736 366.623 803.441 367.156 802.426 368.223C801.41 369.264 800.775 370.533 800.521 372.031H811.985C811.858 370.787 811.503 369.771 810.919 368.984C810.36 368.197 809.675 367.613 808.862 367.232C808.05 366.826 807.199 366.623 806.311 366.623ZM823.335 363.957V367.766C824.071 366.496 824.96 365.48 826.001 364.719C827.042 363.957 828.108 363.576 829.2 363.576C829.937 363.576 830.597 363.703 831.181 363.957V367.575C830.368 367.093 829.556 366.852 828.743 366.852C827.448 366.852 826.395 367.309 825.582 368.223C824.795 369.137 824.046 370.229 823.335 371.498V383H820.212V363.957H823.335Z" fill="black"/>
<defs>
<filter id="filter0_i" x="461.375" y="123.427" width="110.817" height="306.498" filterUnits="userSpaceOnUse" color-interpolation-filters="sRGB">
<feFlood flood-opacity="0" result="BackgroundImageFix"/>
<feBlend mode="normal" in="SourceGraphic" in2="BackgroundImageFix" result="shape"/>
<feColorMatrix in="SourceAlpha" type="matrix" values="0 0 0 0 0 0 0 0 0 0 0 0 0 0 0 0 0 0 127 0" result="hardAlpha"/>
<feOffset/>
<feGaussianBlur stdDeviation="17.5"/>
<feComposite in2="hardAlpha" operator="arithmetic" k2="-1" k3="1"/>
<feColorMatrix type="matrix" values="0 0 0 0 0 0 0 0 0 0 0 0 0 0 0 0 0 0 0.06 0"/>
<feBlend mode="normal" in2="shape" result="effect1_innerShadow"/>
</filter>
<filter id="filter1_i" x="572.772" y="170.39" width="70.9393" height="115.014" filterUnits="userSpaceOnUse" color-interpolation-filters="sRGB">
<feFlood flood-opacity="0" result="BackgroundImageFix"/>
<feBlend mode="normal" in="SourceGraphic" in2="BackgroundImageFix" result="shape"/>
<feColorMatrix in="SourceAlpha" type="matrix" values="0 0 0 0 0 0 0 0 0 0 0 0 0 0 0 0 0 0 127 0" result="hardAlpha"/>
<feOffset dx="1" dy="-9"/>
<feGaussianBlur stdDeviation="3.5"/>
<feComposite in2="hardAlpha" operator="arithmetic" k2="-1" k3="1"/>
<feColorMatrix type="matrix" values="0 0 0 0 0 0 0 0 0 0 0 0 0 0 0 0 0 0 0.09 0"/>
<feBlend mode="normal" in2="shape" result="effect1_innerShadow"/>
</filter>
</defs>
</svg>
