<svg width="1200" height="630" viewBox="0 0 1200 630" fill="none" xmlns="http://www.w3.org/2000/svg">
<rect width="1200" height="630" fill="white" fill-opacity="0.8"/>
<path d="M274.059 147.92H280.738V151.822H274.059V159.434H269.91V151.822H263.195V147.92H269.91V140.801H274.059V147.92Z" fill="black"/>
<path d="M274.059 412.759H280.738V416.661H274.059V424.272H269.91V416.661H263.195V412.759H269.91V405.639H274.059V412.759Z" fill="black"/>
<path d="M275.059 512.92H281.738V516.822H275.059V524.434H270.91V516.822H264.195V512.92H270.91V505.801H275.059V512.92Z" fill="black"/>
<path d="M274.059 271.759H280.738V275.661H274.059V283.272H269.91V275.661H263.195V271.759H269.91V264.639H274.059V271.759Z" fill="black"/>
<g filter="url(#filter0_dd)">
<rect x="156" y="128.161" width="85.3548" height="45.8387" rx="5" fill="#FFFCFC"/>
</g>
<path d="M190.553 165C190.365 164.637 190.201 164.045 190.061 163.225C188.701 164.643 187.037 165.352 185.068 165.352C183.158 165.352 181.6 164.807 180.393 163.717C179.186 162.627 178.582 161.279 178.582 159.674C178.582 157.646 179.332 156.094 180.832 155.016C182.344 153.926 184.5 153.381 187.301 153.381H189.92V152.133C189.92 151.148 189.645 150.363 189.094 149.777C188.543 149.18 187.705 148.881 186.58 148.881C185.607 148.881 184.811 149.127 184.189 149.619C183.568 150.1 183.258 150.715 183.258 151.465H178.986C178.986 150.422 179.332 149.449 180.023 148.547C180.715 147.633 181.652 146.918 182.836 146.402C184.031 145.887 185.361 145.629 186.826 145.629C189.053 145.629 190.828 146.191 192.152 147.316C193.477 148.43 194.156 150 194.191 152.027V160.605C194.191 162.316 194.432 163.682 194.912 164.701V165H190.553ZM185.859 161.924C186.703 161.924 187.494 161.719 188.232 161.309C188.982 160.898 189.545 160.348 189.92 159.656V156.07H187.617C186.035 156.07 184.846 156.346 184.049 156.896C183.252 157.447 182.854 158.227 182.854 159.234C182.854 160.055 183.123 160.711 183.662 161.203C184.213 161.684 184.945 161.924 185.859 161.924ZM203.209 165H198.938V138H203.209V165ZM213.229 141.357V145.98H216.586V149.145H213.229V159.762C213.229 160.488 213.369 161.016 213.65 161.344C213.943 161.66 214.459 161.818 215.197 161.818C215.689 161.818 216.188 161.76 216.691 161.643V164.947C215.719 165.217 214.781 165.352 213.879 165.352C210.598 165.352 208.957 163.541 208.957 159.92V149.145H205.828V145.98H208.957V141.357H213.229Z" fill="#4200FF"/>
<g filter="url(#filter1_dd)">
<rect x="156" y="393" width="85.3548" height="45.8387" rx="5" fill="#FFFCFC"/>
</g>
<path d="M182.002 424.78C183.068 424.78 183.953 424.469 184.656 423.848C185.359 423.227 185.734 422.46 185.781 421.546H189.807C189.76 422.729 189.391 423.837 188.699 424.868C188.008 425.887 187.07 426.696 185.887 427.294C184.703 427.891 183.426 428.19 182.055 428.19C179.395 428.19 177.285 427.329 175.727 425.606C174.168 423.884 173.389 421.505 173.389 418.469V418.03C173.389 415.135 174.162 412.821 175.709 411.087C177.256 409.341 179.365 408.468 182.037 408.468C184.299 408.468 186.139 409.13 187.557 410.454C188.986 411.766 189.736 413.495 189.807 415.639H185.781C185.734 414.55 185.359 413.653 184.656 412.95C183.965 412.247 183.08 411.895 182.002 411.895C180.619 411.895 179.553 412.399 178.803 413.407C178.053 414.403 177.672 415.921 177.66 417.96V418.645C177.66 420.708 178.029 422.249 178.768 423.268C179.518 424.276 180.596 424.78 182.002 424.78ZM198.385 404.196V408.819H201.742V411.983H198.385V422.6C198.385 423.327 198.525 423.854 198.807 424.182C199.1 424.499 199.615 424.657 200.354 424.657C200.846 424.657 201.344 424.598 201.848 424.481V427.786C200.875 428.055 199.938 428.19 199.035 428.19C195.754 428.19 194.113 426.38 194.113 422.759V411.983H190.984V408.819H194.113V404.196H198.385ZM214.979 412.721C214.416 412.628 213.836 412.581 213.238 412.581C211.281 412.581 209.963 413.331 209.283 414.831V427.839H205.012V408.819H209.09L209.195 410.946C210.227 409.294 211.656 408.468 213.484 408.468C214.094 408.468 214.598 408.55 214.996 408.714L214.979 412.721ZM222.221 427.839H217.949V400.839H222.221V427.839Z" fill="#4200FF"/>
<g filter="url(#filter2_dd)">
<rect x="156" y="491" width="85.3548" height="45.8387" rx="5" fill="#FFFCFC"/>
</g>
<path d="M182.002 522.78C183.068 522.78 183.953 522.469 184.656 521.848C185.359 521.227 185.734 520.46 185.781 519.546H189.807C189.76 520.729 189.391 521.837 188.699 522.868C188.008 523.887 187.07 524.696 185.887 525.294C184.703 525.891 183.426 526.19 182.055 526.19C179.395 526.19 177.285 525.329 175.727 523.606C174.168 521.884 173.389 519.505 173.389 516.469V516.03C173.389 513.135 174.162 510.821 175.709 509.087C177.256 507.341 179.365 506.468 182.037 506.468C184.299 506.468 186.139 507.13 187.557 508.454C188.986 509.766 189.736 511.495 189.807 513.639H185.781C185.734 512.55 185.359 511.653 184.656 510.95C183.965 510.247 183.08 509.895 182.002 509.895C180.619 509.895 179.553 510.399 178.803 511.407C178.053 512.403 177.672 513.921 177.66 515.96V516.645C177.66 518.708 178.029 520.249 178.768 521.268C179.518 522.276 180.596 522.78 182.002 522.78ZM198.385 502.196V506.819H201.742V509.983H198.385V520.6C198.385 521.327 198.525 521.854 198.807 522.182C199.1 522.499 199.615 522.657 200.354 522.657C200.846 522.657 201.344 522.598 201.848 522.481V525.786C200.875 526.055 199.938 526.19 199.035 526.19C195.754 526.19 194.113 524.38 194.113 520.759V509.983H190.984V506.819H194.113V502.196H198.385ZM214.979 510.721C214.416 510.628 213.836 510.581 213.238 510.581C211.281 510.581 209.963 511.331 209.283 512.831V525.839H205.012V506.819H209.09L209.195 508.946C210.227 507.294 211.656 506.468 213.484 506.468C214.094 506.468 214.598 506.55 214.996 506.714L214.979 510.721ZM222.221 525.839H217.949V498.839H222.221V525.839Z" fill="#4200FF"/>
<g filter="url(#filter3_dd)">
<rect x="156" y="252" width="85.3548" height="45.8387" rx="5" fill="#FFFCFC"/>
</g>
<path d="M190.553 288.839C190.365 288.475 190.201 287.884 190.061 287.063C188.701 288.481 187.037 289.19 185.068 289.19C183.158 289.19 181.6 288.645 180.393 287.555C179.186 286.466 178.582 285.118 178.582 283.512C178.582 281.485 179.332 279.932 180.832 278.854C182.344 277.764 184.5 277.219 187.301 277.219H189.92V275.971C189.92 274.987 189.645 274.202 189.094 273.616C188.543 273.018 187.705 272.719 186.58 272.719C185.607 272.719 184.811 272.966 184.189 273.458C183.568 273.938 183.258 274.553 183.258 275.303H178.986C178.986 274.26 179.332 273.288 180.023 272.385C180.715 271.471 181.652 270.757 182.836 270.241C184.031 269.725 185.361 269.468 186.826 269.468C189.053 269.468 190.828 270.03 192.152 271.155C193.477 272.268 194.156 273.839 194.191 275.866V284.444C194.191 286.155 194.432 287.52 194.912 288.54V288.839H190.553ZM185.859 285.762C186.703 285.762 187.494 285.557 188.232 285.147C188.982 284.737 189.545 284.186 189.92 283.495V279.909H187.617C186.035 279.909 184.846 280.184 184.049 280.735C183.252 281.286 182.854 282.065 182.854 283.073C182.854 283.893 183.123 284.55 183.662 285.042C184.213 285.522 184.945 285.762 185.859 285.762ZM203.209 288.839H198.938V261.839H203.209V288.839ZM213.229 265.196V269.819H216.586V272.983H213.229V283.6C213.229 284.327 213.369 284.854 213.65 285.182C213.943 285.499 214.459 285.657 215.197 285.657C215.689 285.657 216.188 285.598 216.691 285.481V288.786C215.719 289.055 214.781 289.19 213.879 289.19C210.598 289.19 208.957 287.38 208.957 283.759V272.983H205.828V269.819H208.957V265.196H213.229Z" fill="#4200FF"/>
<g clip-path="url(#clip0)">
<path d="M531.94 156.69H518.78H491.803V143.352L531.94 142.65V132.12L556.237 149.67L531.94 167.22V156.69ZM536.8 140.895V146.16H510.462V153.18H536.8V158.445L548.948 149.67L536.8 140.895Z" fill="black"/>
</g>
<g clip-path="url(#clip1)">
<path d="M531.94 432.69H518.78H491.803V419.352L531.94 418.65V408.12L556.237 425.67L531.94 443.22V432.69ZM536.8 416.895V422.16H510.462V429.18H536.8V434.445L548.948 425.67L536.8 416.895Z" fill="black"/>
</g>
<g clip-path="url(#clip2)">
<path d="M531.94 520.69H518.78H491.803V507.352L531.94 506.65V496.12L556.237 513.67L531.94 531.22V520.69ZM536.8 504.895V510.16H510.462V517.18H536.8V522.445L548.948 513.67L536.8 504.895Z" fill="black"/>
</g>
<g clip-path="url(#clip3)">
<path d="M531.94 280.529H518.78H491.803V267.191L531.94 266.489V255.959L556.237 273.509L531.94 291.059V280.529ZM536.8 264.734V269.999H510.462V277.019H536.8V282.284L548.948 273.509L536.8 264.734Z" fill="black"/>
</g>
<path d="M607.547 154.828L607.984 157.828L608.625 155.125L613.125 139.25H615.656L620.047 155.125L620.672 157.875L621.156 154.812L624.688 139.25H627.703L622.188 162H619.453L614.766 145.422L614.406 143.688L614.047 145.422L609.188 162H606.453L600.953 139.25H603.953L607.547 154.828ZM629.328 153.391C629.328 151.734 629.651 150.245 630.297 148.922C630.953 147.599 631.859 146.578 633.016 145.859C634.182 145.141 635.51 144.781 637 144.781C639.302 144.781 641.161 145.578 642.578 147.172C644.005 148.766 644.719 150.885 644.719 153.531V153.734C644.719 155.38 644.401 156.859 643.766 158.172C643.141 159.474 642.24 160.49 641.062 161.219C639.896 161.948 638.552 162.312 637.031 162.312C634.74 162.312 632.88 161.516 631.453 159.922C630.036 158.328 629.328 156.219 629.328 153.594V153.391ZM632.234 153.734C632.234 155.609 632.667 157.115 633.531 158.25C634.406 159.385 635.573 159.953 637.031 159.953C638.5 159.953 639.667 159.38 640.531 158.234C641.396 157.078 641.828 155.464 641.828 153.391C641.828 151.536 641.385 150.036 640.5 148.891C639.625 147.734 638.458 147.156 637 147.156C635.573 147.156 634.422 147.724 633.547 148.859C632.672 149.995 632.234 151.62 632.234 153.734ZM656.516 147.688C656.078 147.615 655.604 147.578 655.094 147.578C653.198 147.578 651.911 148.385 651.234 150V162H648.344V145.094H651.156L651.203 147.047C652.151 145.536 653.495 144.781 655.234 144.781C655.797 144.781 656.224 144.854 656.516 145V147.688ZM658.172 153.406C658.172 150.812 658.786 148.729 660.016 147.156C661.245 145.573 662.854 144.781 664.844 144.781C666.823 144.781 668.391 145.458 669.547 146.812V138H672.438V162H669.781L669.641 160.188C668.484 161.604 666.875 162.312 664.812 162.312C662.854 162.312 661.255 161.51 660.016 159.906C658.786 158.302 658.172 156.208 658.172 153.625V153.406ZM661.062 153.734C661.062 155.651 661.458 157.151 662.25 158.234C663.042 159.318 664.135 159.859 665.531 159.859C667.365 159.859 668.703 159.036 669.547 157.391V149.625C668.682 148.031 667.354 147.234 665.562 147.234C664.146 147.234 663.042 147.781 662.25 148.875C661.458 149.969 661.062 151.589 661.062 153.734ZM682.953 153.516H675.328V151.156H682.953V153.516ZM700.75 158.016L704 145.094H706.891L701.969 162H699.625L695.516 149.188L691.516 162H689.172L684.266 145.094H687.141L690.469 157.75L694.406 145.094H696.734L700.75 158.016ZM718.016 147.688C717.578 147.615 717.104 147.578 716.594 147.578C714.698 147.578 713.411 148.385 712.734 150V162H709.844V145.094H712.656L712.703 147.047C713.651 145.536 714.995 144.781 716.734 144.781C717.297 144.781 717.724 144.854 718.016 145V147.688ZM730.5 162C730.333 161.667 730.198 161.073 730.094 160.219C728.75 161.615 727.146 162.312 725.281 162.312C723.615 162.312 722.245 161.844 721.172 160.906C720.109 159.958 719.578 158.76 719.578 157.312C719.578 155.552 720.245 154.188 721.578 153.219C722.922 152.24 724.807 151.75 727.234 151.75H730.047V150.422C730.047 149.411 729.745 148.609 729.141 148.016C728.536 147.411 727.646 147.109 726.469 147.109C725.438 147.109 724.573 147.37 723.875 147.891C723.177 148.411 722.828 149.042 722.828 149.781H719.922C719.922 148.938 720.219 148.125 720.812 147.344C721.417 146.552 722.229 145.927 723.25 145.469C724.281 145.01 725.411 144.781 726.641 144.781C728.589 144.781 730.115 145.271 731.219 146.25C732.323 147.219 732.896 148.557 732.938 150.266V158.047C732.938 159.599 733.135 160.833 733.531 161.75V162H730.5ZM725.703 159.797C726.609 159.797 727.469 159.562 728.281 159.094C729.094 158.625 729.682 158.016 730.047 157.266V153.797H727.781C724.24 153.797 722.469 154.833 722.469 156.906C722.469 157.812 722.771 158.521 723.375 159.031C723.979 159.542 724.755 159.797 725.703 159.797ZM751.75 153.734C751.75 156.307 751.161 158.38 749.984 159.953C748.807 161.526 747.214 162.312 745.203 162.312C743.151 162.312 741.536 161.661 740.359 160.359V168.5H737.469V145.094H740.109L740.25 146.969C741.427 145.51 743.062 144.781 745.156 144.781C747.188 144.781 748.792 145.547 749.969 147.078C751.156 148.609 751.75 150.74 751.75 153.469V153.734ZM748.859 153.406C748.859 151.5 748.453 149.995 747.641 148.891C746.828 147.786 745.714 147.234 744.297 147.234C742.547 147.234 741.234 148.01 740.359 149.562V157.641C741.224 159.182 742.547 159.953 744.328 159.953C745.714 159.953 746.812 159.406 747.625 158.312C748.448 157.208 748.859 155.573 748.859 153.406Z" fill="black"/>
<path d="M616.141 426.359C616.141 428.589 615.766 430.536 615.016 432.203C614.266 433.859 613.203 435.125 611.828 436C610.453 436.875 608.849 437.312 607.016 437.312C605.224 437.312 603.635 436.875 602.25 436C600.865 435.115 599.786 433.859 599.016 432.234C598.255 430.599 597.865 428.708 597.844 426.562V424.922C597.844 422.734 598.224 420.802 598.984 419.125C599.745 417.448 600.818 416.167 602.203 415.281C603.599 414.385 605.193 413.938 606.984 413.938C608.807 413.938 610.411 414.38 611.797 415.266C613.193 416.141 614.266 417.417 615.016 419.094C615.766 420.76 616.141 422.703 616.141 424.922V426.359ZM613.156 424.891C613.156 422.193 612.615 420.125 611.531 418.688C610.448 417.24 608.932 416.516 606.984 416.516C605.089 416.516 603.594 417.24 602.5 418.688C601.417 420.125 600.859 422.125 600.828 424.688V426.359C600.828 428.974 601.375 431.031 602.469 432.531C603.573 434.021 605.089 434.766 607.016 434.766C608.953 434.766 610.453 434.062 611.516 432.656C612.578 431.24 613.125 429.214 613.156 426.578V424.891ZM634.469 428.734C634.469 431.307 633.88 433.38 632.703 434.953C631.526 436.526 629.932 437.312 627.922 437.312C625.87 437.312 624.255 436.661 623.078 435.359V443.5H620.188V420.094H622.828L622.969 421.969C624.146 420.51 625.781 419.781 627.875 419.781C629.906 419.781 631.51 420.547 632.688 422.078C633.875 423.609 634.469 425.74 634.469 428.469V428.734ZM631.578 428.406C631.578 426.5 631.172 424.995 630.359 423.891C629.547 422.786 628.432 422.234 627.016 422.234C625.266 422.234 623.953 423.01 623.078 424.562V432.641C623.943 434.182 625.266 434.953 627.047 434.953C628.432 434.953 629.531 434.406 630.344 433.312C631.167 432.208 631.578 430.573 631.578 428.406ZM645.172 437.312C642.88 437.312 641.016 436.562 639.578 435.062C638.141 433.552 637.422 431.536 637.422 429.016V428.484C637.422 426.807 637.74 425.312 638.375 424C639.021 422.677 639.917 421.646 641.062 420.906C642.219 420.156 643.469 419.781 644.812 419.781C647.01 419.781 648.719 420.505 649.938 421.953C651.156 423.401 651.766 425.474 651.766 428.172V429.375H640.312C640.354 431.042 640.839 432.391 641.766 433.422C642.703 434.443 643.891 434.953 645.328 434.953C646.349 434.953 647.214 434.745 647.922 434.328C648.63 433.911 649.25 433.359 649.781 432.672L651.547 434.047C650.13 436.224 648.005 437.312 645.172 437.312ZM644.812 422.156C643.646 422.156 642.667 422.583 641.875 423.438C641.083 424.281 640.594 425.469 640.406 427H648.875V426.781C648.792 425.312 648.396 424.177 647.688 423.375C646.979 422.562 646.021 422.156 644.812 422.156ZM657.859 420.094L657.953 422.219C659.245 420.594 660.932 419.781 663.016 419.781C666.589 419.781 668.391 421.797 668.422 425.828V437H665.531V425.812C665.521 424.594 665.24 423.693 664.688 423.109C664.146 422.526 663.297 422.234 662.141 422.234C661.203 422.234 660.38 422.484 659.672 422.984C658.964 423.484 658.411 424.141 658.016 424.953V437H655.125V420.094H657.859ZM696.266 416.719H688.953V437H685.969V416.719H678.672V414.25H696.266V416.719ZM704.641 437.312C702.349 437.312 700.484 436.562 699.047 435.062C697.609 433.552 696.891 431.536 696.891 429.016V428.484C696.891 426.807 697.208 425.312 697.844 424C698.49 422.677 699.385 421.646 700.531 420.906C701.688 420.156 702.938 419.781 704.281 419.781C706.479 419.781 708.188 420.505 709.406 421.953C710.625 423.401 711.234 425.474 711.234 428.172V429.375H699.781C699.823 431.042 700.307 432.391 701.234 433.422C702.172 434.443 703.359 434.953 704.797 434.953C705.818 434.953 706.682 434.745 707.391 434.328C708.099 433.911 708.719 433.359 709.25 432.672L711.016 434.047C709.599 436.224 707.474 437.312 704.641 437.312ZM704.281 422.156C703.115 422.156 702.135 422.583 701.344 423.438C700.552 424.281 700.062 425.469 699.875 427H708.344V426.781C708.26 425.312 707.865 424.177 707.156 423.375C706.448 422.562 705.49 422.156 704.281 422.156ZM722.766 422.688C722.328 422.615 721.854 422.578 721.344 422.578C719.448 422.578 718.161 423.385 717.484 425V437H714.594V420.094H717.406L717.453 422.047C718.401 420.536 719.745 419.781 721.484 419.781C722.047 419.781 722.474 419.854 722.766 420V422.688ZM728.156 420.094L728.234 421.969C729.474 420.51 731.146 419.781 733.25 419.781C735.615 419.781 737.224 420.688 738.078 422.5C738.641 421.688 739.37 421.031 740.266 420.531C741.172 420.031 742.24 419.781 743.469 419.781C747.177 419.781 749.062 421.745 749.125 425.672V437H746.234V425.844C746.234 424.635 745.958 423.734 745.406 423.141C744.854 422.536 743.927 422.234 742.625 422.234C741.552 422.234 740.661 422.557 739.953 423.203C739.245 423.839 738.833 424.698 738.719 425.781V437H735.812V425.922C735.812 423.464 734.609 422.234 732.203 422.234C730.307 422.234 729.01 423.042 728.312 424.656V437H725.422V420.094H728.156ZM756.641 437H753.75V420.094H756.641V437ZM753.516 415.609C753.516 415.141 753.656 414.745 753.938 414.422C754.229 414.099 754.656 413.938 755.219 413.938C755.781 413.938 756.208 414.099 756.5 414.422C756.792 414.745 756.938 415.141 756.938 415.609C756.938 416.078 756.792 416.469 756.5 416.781C756.208 417.094 755.781 417.25 755.219 417.25C754.656 417.25 754.229 417.094 753.938 416.781C753.656 416.469 753.516 416.078 753.516 415.609ZM764.016 420.094L764.109 422.219C765.401 420.594 767.089 419.781 769.172 419.781C772.745 419.781 774.547 421.797 774.578 425.828V437H771.688V425.812C771.677 424.594 771.396 423.693 770.844 423.109C770.302 422.526 769.453 422.234 768.297 422.234C767.359 422.234 766.536 422.484 765.828 422.984C765.12 423.484 764.568 424.141 764.172 424.953V437H761.281V420.094H764.016ZM789.375 437C789.208 436.667 789.073 436.073 788.969 435.219C787.625 436.615 786.021 437.312 784.156 437.312C782.49 437.312 781.12 436.844 780.047 435.906C778.984 434.958 778.453 433.76 778.453 432.312C778.453 430.552 779.12 429.188 780.453 428.219C781.797 427.24 783.682 426.75 786.109 426.75H788.922V425.422C788.922 424.411 788.62 423.609 788.016 423.016C787.411 422.411 786.521 422.109 785.344 422.109C784.312 422.109 783.448 422.37 782.75 422.891C782.052 423.411 781.703 424.042 781.703 424.781H778.797C778.797 423.938 779.094 423.125 779.688 422.344C780.292 421.552 781.104 420.927 782.125 420.469C783.156 420.01 784.286 419.781 785.516 419.781C787.464 419.781 788.99 420.271 790.094 421.25C791.198 422.219 791.771 423.557 791.812 425.266V433.047C791.812 434.599 792.01 435.833 792.406 436.75V437H789.375ZM784.578 434.797C785.484 434.797 786.344 434.562 787.156 434.094C787.969 433.625 788.557 433.016 788.922 432.266V428.797H786.656C783.115 428.797 781.344 429.833 781.344 431.906C781.344 432.812 781.646 433.521 782.25 434.031C782.854 434.542 783.63 434.797 784.578 434.797ZM799.484 437H796.594V413H799.484V437Z" fill="black"/>
<path d="M608.172 504.25H611.188V520.359C611.188 522.536 610.531 524.24 609.219 525.469C607.917 526.698 606.177 527.312 604 527.312C601.74 527.312 599.979 526.734 598.719 525.578C597.458 524.422 596.828 522.802 596.828 520.719H599.828C599.828 522.021 600.182 523.036 600.891 523.766C601.609 524.495 602.646 524.859 604 524.859C605.24 524.859 606.24 524.469 607 523.688C607.771 522.906 608.161 521.812 608.172 520.406V504.25ZM626.281 525.328C625.156 526.651 623.505 527.312 621.328 527.312C619.526 527.312 618.151 526.792 617.203 525.75C616.266 524.698 615.792 523.146 615.781 521.094V510.094H618.672V521.016C618.672 523.578 619.714 524.859 621.797 524.859C624.005 524.859 625.474 524.036 626.203 522.391V510.094H629.094V527H626.344L626.281 525.328ZM636.219 510.094L636.297 511.969C637.536 510.51 639.208 509.781 641.312 509.781C643.677 509.781 645.286 510.688 646.141 512.5C646.703 511.688 647.432 511.031 648.328 510.531C649.234 510.031 650.302 509.781 651.531 509.781C655.24 509.781 657.125 511.745 657.188 515.672V527H654.297V515.844C654.297 514.635 654.021 513.734 653.469 513.141C652.917 512.536 651.99 512.234 650.688 512.234C649.615 512.234 648.724 512.557 648.016 513.203C647.307 513.839 646.896 514.698 646.781 515.781V527H643.875V515.922C643.875 513.464 642.672 512.234 640.266 512.234C638.37 512.234 637.073 513.042 636.375 514.656V527H633.484V510.094H636.219ZM675.844 518.734C675.844 521.307 675.255 523.38 674.078 524.953C672.901 526.526 671.307 527.312 669.297 527.312C667.245 527.312 665.63 526.661 664.453 525.359V533.5H661.562V510.094H664.203L664.344 511.969C665.521 510.51 667.156 509.781 669.25 509.781C671.281 509.781 672.885 510.547 674.062 512.078C675.25 513.609 675.844 515.74 675.844 518.469V518.734ZM672.953 518.406C672.953 516.5 672.547 514.995 671.734 513.891C670.922 512.786 669.807 512.234 668.391 512.234C666.641 512.234 665.328 513.01 664.453 514.562V522.641C665.318 524.182 666.641 524.953 668.422 524.953C669.807 524.953 670.906 524.406 671.719 523.312C672.542 522.208 672.953 520.573 672.953 518.406ZM697.906 527C697.74 526.667 697.604 526.073 697.5 525.219C696.156 526.615 694.552 527.312 692.688 527.312C691.021 527.312 689.651 526.844 688.578 525.906C687.516 524.958 686.984 523.76 686.984 522.312C686.984 520.552 687.651 519.188 688.984 518.219C690.328 517.24 692.214 516.75 694.641 516.75H697.453V515.422C697.453 514.411 697.151 513.609 696.547 513.016C695.943 512.411 695.052 512.109 693.875 512.109C692.844 512.109 691.979 512.37 691.281 512.891C690.583 513.411 690.234 514.042 690.234 514.781H687.328C687.328 513.938 687.625 513.125 688.219 512.344C688.823 511.552 689.635 510.927 690.656 510.469C691.688 510.01 692.818 509.781 694.047 509.781C695.995 509.781 697.521 510.271 698.625 511.25C699.729 512.219 700.302 513.557 700.344 515.266V523.047C700.344 524.599 700.542 525.833 700.938 526.75V527H697.906ZM693.109 524.797C694.016 524.797 694.875 524.562 695.688 524.094C696.5 523.625 697.089 523.016 697.453 522.266V518.797H695.188C691.646 518.797 689.875 519.833 689.875 521.906C689.875 522.812 690.177 523.521 690.781 524.031C691.385 524.542 692.161 524.797 693.109 524.797ZM706.297 527V512.328H703.625V510.094H706.297V508.359C706.297 506.547 706.781 505.146 707.75 504.156C708.719 503.167 710.089 502.672 711.859 502.672C712.526 502.672 713.188 502.76 713.844 502.938L713.688 505.281C713.198 505.188 712.677 505.141 712.125 505.141C711.188 505.141 710.464 505.417 709.953 505.969C709.443 506.51 709.188 507.292 709.188 508.312V510.094H712.797V512.328H709.188V527H706.297ZM719.922 506V510.094H723.078V512.328H719.922V522.812C719.922 523.49 720.062 524 720.344 524.344C720.625 524.677 721.104 524.844 721.781 524.844C722.115 524.844 722.573 524.781 723.156 524.656V527C722.396 527.208 721.656 527.312 720.938 527.312C719.646 527.312 718.672 526.922 718.016 526.141C717.359 525.359 717.031 524.25 717.031 522.812V512.328H713.953V510.094H717.031V506H719.922ZM733.484 527.312C731.193 527.312 729.328 526.562 727.891 525.062C726.453 523.552 725.734 521.536 725.734 519.016V518.484C725.734 516.807 726.052 515.312 726.688 514C727.333 512.677 728.229 511.646 729.375 510.906C730.531 510.156 731.781 509.781 733.125 509.781C735.323 509.781 737.031 510.505 738.25 511.953C739.469 513.401 740.078 515.474 740.078 518.172V519.375H728.625C728.667 521.042 729.151 522.391 730.078 523.422C731.016 524.443 732.203 524.953 733.641 524.953C734.661 524.953 735.526 524.745 736.234 524.328C736.943 523.911 737.562 523.359 738.094 522.672L739.859 524.047C738.443 526.224 736.318 527.312 733.484 527.312ZM733.125 512.156C731.958 512.156 730.979 512.583 730.188 513.438C729.396 514.281 728.906 515.469 728.719 517H737.188V516.781C737.104 515.312 736.708 514.177 736 513.375C735.292 512.562 734.333 512.156 733.125 512.156ZM751.609 512.688C751.172 512.615 750.698 512.578 750.188 512.578C748.292 512.578 747.005 513.385 746.328 515V527H743.438V510.094H746.25L746.297 512.047C747.245 510.536 748.589 509.781 750.328 509.781C750.891 509.781 751.318 509.854 751.609 510V512.688ZM761.453 518.391C761.453 516.734 761.776 515.245 762.422 513.922C763.078 512.599 763.984 511.578 765.141 510.859C766.307 510.141 767.635 509.781 769.125 509.781C771.427 509.781 773.286 510.578 774.703 512.172C776.13 513.766 776.844 515.885 776.844 518.531V518.734C776.844 520.38 776.526 521.859 775.891 523.172C775.266 524.474 774.365 525.49 773.188 526.219C772.021 526.948 770.677 527.312 769.156 527.312C766.865 527.312 765.005 526.516 763.578 524.922C762.161 523.328 761.453 521.219 761.453 518.594V518.391ZM764.359 518.734C764.359 520.609 764.792 522.115 765.656 523.25C766.531 524.385 767.698 524.953 769.156 524.953C770.625 524.953 771.792 524.38 772.656 523.234C773.521 522.078 773.953 520.464 773.953 518.391C773.953 516.536 773.51 515.036 772.625 513.891C771.75 512.734 770.583 512.156 769.125 512.156C767.698 512.156 766.547 512.724 765.672 513.859C764.797 514.995 764.359 516.62 764.359 518.734ZM783.203 510.094L783.297 512.219C784.589 510.594 786.276 509.781 788.359 509.781C791.932 509.781 793.734 511.797 793.766 515.828V527H790.875V515.812C790.865 514.594 790.583 513.693 790.031 513.109C789.49 512.526 788.641 512.234 787.484 512.234C786.547 512.234 785.724 512.484 785.016 512.984C784.307 513.484 783.755 514.141 783.359 514.953V527H780.469V510.094H783.203ZM805.141 527.312C802.849 527.312 800.984 526.562 799.547 525.062C798.109 523.552 797.391 521.536 797.391 519.016V518.484C797.391 516.807 797.708 515.312 798.344 514C798.99 512.677 799.885 511.646 801.031 510.906C802.188 510.156 803.438 509.781 804.781 509.781C806.979 509.781 808.688 510.505 809.906 511.953C811.125 513.401 811.734 515.474 811.734 518.172V519.375H800.281C800.323 521.042 800.807 522.391 801.734 523.422C802.672 524.443 803.859 524.953 805.297 524.953C806.318 524.953 807.182 524.745 807.891 524.328C808.599 523.911 809.219 523.359 809.75 522.672L811.516 524.047C810.099 526.224 807.974 527.312 805.141 527.312ZM804.781 512.156C803.615 512.156 802.635 512.583 801.844 513.438C801.052 514.281 800.562 515.469 800.375 517H808.844V516.781C808.76 515.312 808.365 514.177 807.656 513.375C806.948 512.562 805.99 512.156 804.781 512.156ZM838 523.016L841.25 510.094H844.141L839.219 527H836.875L832.766 514.188L828.766 527H826.422L821.516 510.094H824.391L827.719 522.75L831.656 510.094H833.984L838 523.016ZM846.328 518.391C846.328 516.734 846.651 515.245 847.297 513.922C847.953 512.599 848.859 511.578 850.016 510.859C851.182 510.141 852.51 509.781 854 509.781C856.302 509.781 858.161 510.578 859.578 512.172C861.005 513.766 861.719 515.885 861.719 518.531V518.734C861.719 520.38 861.401 521.859 860.766 523.172C860.141 524.474 859.24 525.49 858.062 526.219C856.896 526.948 855.552 527.312 854.031 527.312C851.74 527.312 849.88 526.516 848.453 524.922C847.036 523.328 846.328 521.219 846.328 518.594V518.391ZM849.234 518.734C849.234 520.609 849.667 522.115 850.531 523.25C851.406 524.385 852.573 524.953 854.031 524.953C855.5 524.953 856.667 524.38 857.531 523.234C858.396 522.078 858.828 520.464 858.828 518.391C858.828 516.536 858.385 515.036 857.5 513.891C856.625 512.734 855.458 512.156 854 512.156C852.573 512.156 851.422 512.724 850.547 513.859C849.672 514.995 849.234 516.62 849.234 518.734ZM873.516 512.688C873.078 512.615 872.604 512.578 872.094 512.578C870.198 512.578 868.911 513.385 868.234 515V527H865.344V510.094H868.156L868.203 512.047C869.151 510.536 870.495 509.781 872.234 509.781C872.797 509.781 873.224 509.854 873.516 510V512.688ZM875.172 518.406C875.172 515.812 875.786 513.729 877.016 512.156C878.245 510.573 879.854 509.781 881.844 509.781C883.823 509.781 885.391 510.458 886.547 511.812V503H889.438V527H886.781L886.641 525.188C885.484 526.604 883.875 527.312 881.812 527.312C879.854 527.312 878.255 526.51 877.016 524.906C875.786 523.302 875.172 521.208 875.172 518.625V518.406ZM878.062 518.734C878.062 520.651 878.458 522.151 879.25 523.234C880.042 524.318 881.135 524.859 882.531 524.859C884.365 524.859 885.703 524.036 886.547 522.391V514.625C885.682 513.031 884.354 512.234 882.562 512.234C881.146 512.234 880.042 512.781 879.25 513.875C878.458 514.969 878.062 516.589 878.062 518.734Z" fill="black"/>
<path d="M602.516 263.25L609.953 281.812L617.391 263.25H621.281V286H618.281V277.141L618.562 267.578L611.094 286H608.797L601.344 267.625L601.641 277.141V286H598.641V263.25H602.516ZM625.359 277.391C625.359 275.734 625.682 274.245 626.328 272.922C626.984 271.599 627.891 270.578 629.047 269.859C630.214 269.141 631.542 268.781 633.031 268.781C635.333 268.781 637.193 269.578 638.609 271.172C640.036 272.766 640.75 274.885 640.75 277.531V277.734C640.75 279.38 640.432 280.859 639.797 282.172C639.172 283.474 638.271 284.49 637.094 285.219C635.927 285.948 634.583 286.312 633.062 286.312C630.771 286.312 628.911 285.516 627.484 283.922C626.068 282.328 625.359 280.219 625.359 277.594V277.391ZM628.266 277.734C628.266 279.609 628.698 281.115 629.562 282.25C630.438 283.385 631.604 283.953 633.062 283.953C634.531 283.953 635.698 283.38 636.562 282.234C637.427 281.078 637.859 279.464 637.859 277.391C637.859 275.536 637.417 274.036 636.531 272.891C635.656 271.734 634.49 271.156 633.031 271.156C631.604 271.156 630.453 271.724 629.578 272.859C628.703 273.995 628.266 275.62 628.266 277.734ZM649.703 282.078L653.891 269.094H656.844L650.781 286H648.578L642.453 269.094H645.406L649.703 282.078ZM666.422 286.312C664.13 286.312 662.266 285.562 660.828 284.062C659.391 282.552 658.672 280.536 658.672 278.016V277.484C658.672 275.807 658.99 274.312 659.625 273C660.271 271.677 661.167 270.646 662.312 269.906C663.469 269.156 664.719 268.781 666.062 268.781C668.26 268.781 669.969 269.505 671.188 270.953C672.406 272.401 673.016 274.474 673.016 277.172V278.375H661.562C661.604 280.042 662.089 281.391 663.016 282.422C663.953 283.443 665.141 283.953 666.578 283.953C667.599 283.953 668.464 283.745 669.172 283.328C669.88 282.911 670.5 282.359 671.031 281.672L672.797 283.047C671.38 285.224 669.255 286.312 666.422 286.312ZM666.062 271.156C664.896 271.156 663.917 271.583 663.125 272.438C662.333 273.281 661.844 274.469 661.656 276H670.125V275.781C670.042 274.312 669.646 273.177 668.938 272.375C668.229 271.562 667.271 271.156 666.062 271.156ZM687.453 286H684.562V262H687.453V286ZM695.234 286H692.344V269.094H695.234V286ZM692.109 264.609C692.109 264.141 692.25 263.745 692.531 263.422C692.823 263.099 693.25 262.938 693.812 262.938C694.375 262.938 694.802 263.099 695.094 263.422C695.385 263.745 695.531 264.141 695.531 264.609C695.531 265.078 695.385 265.469 695.094 265.781C694.802 266.094 694.375 266.25 693.812 266.25C693.25 266.25 692.823 266.094 692.531 265.781C692.25 265.469 692.109 265.078 692.109 264.609ZM702.609 269.094L702.703 271.219C703.995 269.594 705.682 268.781 707.766 268.781C711.339 268.781 713.141 270.797 713.172 274.828V286H710.281V274.812C710.271 273.594 709.99 272.693 709.438 272.109C708.896 271.526 708.047 271.234 706.891 271.234C705.953 271.234 705.13 271.484 704.422 271.984C703.714 272.484 703.161 273.141 702.766 273.953V286H699.875V269.094H702.609ZM724.547 286.312C722.255 286.312 720.391 285.562 718.953 284.062C717.516 282.552 716.797 280.536 716.797 278.016V277.484C716.797 275.807 717.115 274.312 717.75 273C718.396 271.677 719.292 270.646 720.438 269.906C721.594 269.156 722.844 268.781 724.188 268.781C726.385 268.781 728.094 269.505 729.312 270.953C730.531 272.401 731.141 274.474 731.141 277.172V278.375H719.688C719.729 280.042 720.214 281.391 721.141 282.422C722.078 283.443 723.266 283.953 724.703 283.953C725.724 283.953 726.589 283.745 727.297 283.328C728.005 282.911 728.625 282.359 729.156 281.672L730.922 283.047C729.505 285.224 727.38 286.312 724.547 286.312ZM724.188 271.156C723.021 271.156 722.042 271.583 721.25 272.438C720.458 273.281 719.969 274.469 719.781 276H728.25V275.781C728.167 274.312 727.771 273.177 727.062 272.375C726.354 271.562 725.396 271.156 724.188 271.156ZM752.875 284.328C751.75 285.651 750.099 286.312 747.922 286.312C746.12 286.312 744.745 285.792 743.797 284.75C742.859 283.698 742.385 282.146 742.375 280.094V269.094H745.266V280.016C745.266 282.578 746.307 283.859 748.391 283.859C750.599 283.859 752.068 283.036 752.797 281.391V269.094H755.688V286H752.938L752.875 284.328ZM774.375 277.734C774.375 280.307 773.786 282.38 772.609 283.953C771.432 285.526 769.839 286.312 767.828 286.312C765.776 286.312 764.161 285.661 762.984 284.359V292.5H760.094V269.094H762.734L762.875 270.969C764.052 269.51 765.688 268.781 767.781 268.781C769.812 268.781 771.417 269.547 772.594 271.078C773.781 272.609 774.375 274.74 774.375 277.469V277.734ZM771.484 277.406C771.484 275.5 771.078 273.995 770.266 272.891C769.453 271.786 768.339 271.234 766.922 271.234C765.172 271.234 763.859 272.01 762.984 273.562V281.641C763.849 283.182 765.172 283.953 766.953 283.953C768.339 283.953 769.438 283.406 770.25 282.312C771.073 281.208 771.484 279.573 771.484 277.406ZM778.641 287.953H776.156L785.656 263.25H788.125L778.641 287.953ZM790.547 277.406C790.547 274.812 791.161 272.729 792.391 271.156C793.62 269.573 795.229 268.781 797.219 268.781C799.198 268.781 800.766 269.458 801.922 270.812V262H804.812V286H802.156L802.016 284.188C800.859 285.604 799.25 286.312 797.188 286.312C795.229 286.312 793.63 285.51 792.391 283.906C791.161 282.302 790.547 280.208 790.547 277.625V277.406ZM793.438 277.734C793.438 279.651 793.833 281.151 794.625 282.234C795.417 283.318 796.51 283.859 797.906 283.859C799.74 283.859 801.078 283.036 801.922 281.391V273.625C801.057 272.031 799.729 271.234 797.938 271.234C796.521 271.234 795.417 271.781 794.625 272.875C793.833 273.969 793.438 275.589 793.438 277.734ZM808.547 277.391C808.547 275.734 808.87 274.245 809.516 272.922C810.172 271.599 811.078 270.578 812.234 269.859C813.401 269.141 814.729 268.781 816.219 268.781C818.521 268.781 820.38 269.578 821.797 271.172C823.224 272.766 823.938 274.885 823.938 277.531V277.734C823.938 279.38 823.62 280.859 822.984 282.172C822.359 283.474 821.458 284.49 820.281 285.219C819.115 285.948 817.771 286.312 816.25 286.312C813.958 286.312 812.099 285.516 810.672 283.922C809.255 282.328 808.547 280.219 808.547 277.594V277.391ZM811.453 277.734C811.453 279.609 811.885 281.115 812.75 282.25C813.625 283.385 814.792 283.953 816.25 283.953C817.719 283.953 818.885 283.38 819.75 282.234C820.615 281.078 821.047 279.464 821.047 277.391C821.047 275.536 820.604 274.036 819.719 272.891C818.844 271.734 817.677 271.156 816.219 271.156C814.792 271.156 813.641 271.724 812.766 272.859C811.891 273.995 811.453 275.62 811.453 277.734ZM842.531 282.016L845.781 269.094H848.672L843.75 286H841.406L837.297 273.188L833.297 286H830.953L826.047 269.094H828.922L832.25 281.75L836.188 269.094H838.516L842.531 282.016ZM854.359 269.094L854.453 271.219C855.745 269.594 857.432 268.781 859.516 268.781C863.089 268.781 864.891 270.797 864.922 274.828V286H862.031V274.812C862.021 273.594 861.74 272.693 861.188 272.109C860.646 271.526 859.797 271.234 858.641 271.234C857.703 271.234 856.88 271.484 856.172 271.984C855.464 272.484 854.911 273.141 854.516 273.953V286H851.625V269.094H854.359Z" fill="black"/>
<path d="M59.9102 59.8086L67.1367 37.5625H72.5664L62.332 66H57.5469L47.3516 37.5625H52.7617L59.9102 59.8086ZM90.6523 58.6758C90.6523 57.4258 90.2096 56.4622 89.3242 55.7852C88.4518 55.1081 86.8698 54.4245 84.5781 53.7344C82.2865 53.0443 80.4635 52.276 79.1094 51.4297C76.5182 49.8021 75.2227 47.6797 75.2227 45.0625C75.2227 42.7708 76.1536 40.8828 78.0156 39.3984C79.8906 37.9141 82.319 37.1719 85.3008 37.1719C87.2799 37.1719 89.0443 37.5365 90.5938 38.2656C92.1432 38.9948 93.3607 40.0365 94.2461 41.3906C95.1315 42.7318 95.5742 44.2227 95.5742 45.8633H90.6523C90.6523 44.3789 90.1836 43.2201 89.2461 42.3867C88.3216 41.5404 86.9935 41.1172 85.2617 41.1172C83.6471 41.1172 82.3906 41.4622 81.4922 42.1523C80.6068 42.8424 80.1641 43.806 80.1641 45.043C80.1641 46.0846 80.6458 46.957 81.6094 47.6602C82.5729 48.3503 84.1615 49.0273 86.375 49.6914C88.5885 50.3424 90.3659 51.0911 91.707 51.9375C93.0482 52.7708 94.0312 53.7344 94.6562 54.8281C95.2812 55.9089 95.5938 57.1784 95.5938 58.6367C95.5938 61.0065 94.6823 62.8945 92.8594 64.3008C91.0495 65.694 88.5885 66.3906 85.4766 66.3906C83.4193 66.3906 81.5247 66.013 79.793 65.2578C78.0742 64.4896 76.7331 63.4349 75.7695 62.0938C74.819 60.7526 74.3438 59.1901 74.3438 57.4062H79.2852C79.2852 59.0208 79.819 60.2708 80.8867 61.1562C81.9544 62.0417 83.4844 62.4844 85.4766 62.4844C87.1953 62.4844 88.4844 62.1393 89.3438 61.4492C90.2161 60.7461 90.6523 59.8216 90.6523 58.6758ZM108.68 55.8242H98.4258V51.9961H108.68V55.8242ZM121.277 62.6016C122.462 62.6016 123.445 62.2565 124.227 61.5664C125.008 60.8763 125.424 60.0234 125.477 59.0078H129.949C129.897 60.3229 129.487 61.5534 128.719 62.6992C127.951 63.832 126.909 64.7305 125.594 65.3945C124.279 66.0586 122.859 66.3906 121.336 66.3906C118.38 66.3906 116.036 65.4336 114.305 63.5195C112.573 61.6055 111.707 58.9622 111.707 55.5898V55.1016C111.707 51.8854 112.566 49.3138 114.285 47.3867C116.004 45.4466 118.348 44.4766 121.316 44.4766C123.829 44.4766 125.874 45.2122 127.449 46.6836C129.038 48.1419 129.871 50.0625 129.949 52.4453H125.477C125.424 51.2344 125.008 50.2383 124.227 49.457C123.458 48.6758 122.475 48.2852 121.277 48.2852C119.741 48.2852 118.556 48.8451 117.723 49.9648C116.889 51.0716 116.466 52.7578 116.453 55.0234V55.7852C116.453 58.0768 116.863 59.7891 117.684 60.9219C118.517 62.0417 119.715 62.6016 121.277 62.6016ZM132.645 55.2383C132.645 53.168 133.055 51.306 133.875 49.6523C134.695 47.9857 135.848 46.7096 137.332 45.8242C138.816 44.9258 140.522 44.4766 142.449 44.4766C145.301 44.4766 147.612 45.3945 149.383 47.2305C151.167 49.0664 152.13 51.5013 152.273 54.5352L152.293 55.6484C152.293 57.7318 151.889 59.5938 151.082 61.2344C150.288 62.875 149.142 64.1445 147.645 65.043C146.16 65.9414 144.441 66.3906 142.488 66.3906C139.507 66.3906 137.117 65.401 135.32 63.4219C133.536 61.4297 132.645 58.7799 132.645 55.4727V55.2383ZM137.391 55.6484C137.391 57.8229 137.84 59.5286 138.738 60.7656C139.637 61.9896 140.887 62.6016 142.488 62.6016C144.09 62.6016 145.333 61.9766 146.219 60.7266C147.117 59.4766 147.566 57.6471 147.566 55.2383C147.566 53.1029 147.104 51.4102 146.18 50.1602C145.268 48.9102 144.025 48.2852 142.449 48.2852C140.9 48.2852 139.669 48.9036 138.758 50.1406C137.846 51.3646 137.391 53.2005 137.391 55.6484ZM155.418 55.2773C155.418 52.0221 156.173 49.4115 157.684 47.4453C159.194 45.4661 161.219 44.4766 163.758 44.4766C165.997 44.4766 167.807 45.2578 169.188 46.8203V36H173.934V66H169.637L169.402 63.8125C167.983 65.5312 166.089 66.3906 163.719 66.3906C161.245 66.3906 159.24 65.3945 157.703 63.4023C156.18 61.4102 155.418 58.7018 155.418 55.2773ZM160.164 55.6875C160.164 57.8359 160.574 59.5156 161.395 60.7266C162.228 61.9245 163.406 62.5234 164.93 62.5234C166.87 62.5234 168.289 61.6576 169.188 59.9258V50.9023C168.315 49.2096 166.909 48.3633 164.969 48.3633C163.432 48.3633 162.247 48.9753 161.414 50.1992C160.581 51.4102 160.164 53.2396 160.164 55.6875ZM188.191 66.3906C185.184 66.3906 182.742 65.4466 180.867 63.5586C179.005 61.6576 178.074 59.1315 178.074 55.9805V55.3945C178.074 53.2852 178.478 51.4036 179.285 49.75C180.105 48.0833 181.251 46.7878 182.723 45.8633C184.194 44.9388 185.835 44.4766 187.645 44.4766C190.522 44.4766 192.742 45.3945 194.305 47.2305C195.88 49.0664 196.668 51.6641 196.668 55.0234V56.9375H182.859C183.003 58.6823 183.582 60.0625 184.598 61.0781C185.626 62.0938 186.915 62.6016 188.465 62.6016C190.639 62.6016 192.41 61.7227 193.777 59.9648L196.336 62.4062C195.49 63.6693 194.357 64.6523 192.938 65.3555C191.531 66.0456 189.949 66.3906 188.191 66.3906ZM187.625 48.2852C186.323 48.2852 185.268 48.7409 184.461 49.6523C183.667 50.5638 183.159 51.8333 182.938 53.4609H191.98V53.1094C191.876 51.5208 191.453 50.3229 190.711 49.5156C189.969 48.6953 188.94 48.2852 187.625 48.2852Z" fill="black" fill-opacity="0.72"/>
<g filter="url(#filter4_dd)">
<rect x="299" y="129" width="64" height="45.8387" rx="5" fill="#FFFCFC"/>
</g>
<path d="M324.532 161.288H338.208V164.839H319.153V161.956L332.389 142.831H319.241V139.245H337.786V142.057L324.532 161.288Z" fill="#4200FF"/>
<g filter="url(#filter5_dd)">
<rect x="299" y="231" width="50" height="45.8387" rx="5" fill="#FFFCFC"/>
</g>
<g filter="url(#filter6_dd)">
<rect x="299" y="494" width="50" height="45.8387" rx="5" fill="#FFFCFC"/>
</g>
<g filter="url(#filter7_dd)">
<rect x="363" y="494" width="50" height="45.8387" rx="5" fill="#FFFCFC"/>
</g>
<g filter="url(#filter8_dd)">
<rect x="299" y="295.161" width="50" height="45.8387" rx="5" fill="#FFFCFC"/>
</g>
<path d="M323.5 239.161L310 250.161M323.5 239.161L336 250.161M323.5 239.161V269.661" stroke="#4200FF" stroke-width="4"/>
<path d="M307.75 516.911L318.75 530.411M307.75 516.911L318.75 504.411M307.75 516.911H338.25" stroke="#4200FF" stroke-width="4"/>
<path d="M402.25 517.911L391.25 504.411M402.25 517.911L391.25 530.411M402.25 517.911H371.75" stroke="#4200FF" stroke-width="4"/>
<path d="M322.5 333.661L336 322.661M322.5 333.661L310 322.661M322.5 333.661V303.161" stroke="#4200FF" stroke-width="4"/>
<path d="M314.732 422.236C314.732 424.697 314.181 426.655 313.077 428.11C311.983 429.565 310.475 430.293 308.551 430.293C306.695 430.293 305.25 429.624 304.215 428.286L304.039 430H300.816V407.5H304.376V415.674C305.401 414.463 306.783 413.857 308.521 413.857C310.455 413.857 311.974 414.575 313.077 416.011C314.181 417.446 314.732 419.453 314.732 422.031V422.236ZM311.173 421.929C311.173 420.21 310.87 418.921 310.265 418.062C309.659 417.202 308.78 416.772 307.628 416.772C306.085 416.772 305.001 417.446 304.376 418.794V425.327C305.011 426.704 306.104 427.393 307.657 427.393C308.771 427.393 309.63 426.978 310.235 426.147C310.841 425.317 311.153 424.062 311.173 422.383V421.929ZM327.198 430C327.042 429.697 326.905 429.204 326.788 428.521C325.655 429.702 324.269 430.293 322.628 430.293C321.036 430.293 319.737 429.839 318.731 428.931C317.726 428.022 317.223 426.899 317.223 425.562C317.223 423.872 317.848 422.578 319.098 421.68C320.357 420.771 322.154 420.317 324.488 420.317H326.671V419.277C326.671 418.457 326.441 417.803 325.982 417.314C325.523 416.816 324.825 416.567 323.888 416.567C323.077 416.567 322.413 416.772 321.896 417.183C321.378 417.583 321.119 418.096 321.119 418.721H317.56C317.56 417.852 317.848 417.041 318.424 416.289C319 415.527 319.781 414.932 320.768 414.502C321.764 414.072 322.872 413.857 324.093 413.857C325.948 413.857 327.428 414.326 328.531 415.264C329.635 416.191 330.201 417.5 330.23 419.189V426.338C330.23 427.764 330.431 428.901 330.831 429.751V430H327.198ZM323.287 427.437C323.99 427.437 324.649 427.266 325.265 426.924C325.89 426.582 326.358 426.123 326.671 425.547V422.559H324.752C323.434 422.559 322.442 422.788 321.778 423.247C321.114 423.706 320.782 424.355 320.782 425.195C320.782 425.879 321.007 426.426 321.456 426.836C321.915 427.236 322.525 427.437 323.287 427.437ZM340.47 427.451C341.358 427.451 342.096 427.192 342.682 426.675C343.268 426.157 343.58 425.518 343.619 424.756H346.974C346.935 425.742 346.627 426.665 346.051 427.524C345.475 428.374 344.693 429.048 343.707 429.546C342.721 430.044 341.656 430.293 340.514 430.293C338.297 430.293 336.539 429.575 335.24 428.14C333.941 426.704 333.292 424.722 333.292 422.192V421.826C333.292 419.414 333.937 417.485 335.226 416.04C336.515 414.585 338.272 413.857 340.499 413.857C342.384 413.857 343.917 414.409 345.099 415.513C346.29 416.606 346.915 418.047 346.974 419.834H343.619C343.58 418.926 343.268 418.179 342.682 417.593C342.105 417.007 341.368 416.714 340.47 416.714C339.317 416.714 338.429 417.134 337.804 417.974C337.179 418.804 336.861 420.068 336.852 421.768V422.339C336.852 424.058 337.159 425.342 337.774 426.191C338.399 427.031 339.298 427.451 340.47 427.451ZM354.811 423.203L353.229 424.829V430H349.669V407.5H353.229V420.479L354.342 419.087L358.722 414.15H362.999L357.11 420.757L363.629 430H359.513L354.811 423.203ZM369.796 410.298V414.15H372.594V416.787H369.796V425.635C369.796 426.24 369.913 426.68 370.147 426.953C370.392 427.217 370.821 427.349 371.437 427.349C371.847 427.349 372.262 427.3 372.682 427.202V429.956C371.871 430.181 371.09 430.293 370.338 430.293C367.604 430.293 366.236 428.784 366.236 425.767V416.787H363.629V414.15H366.236V410.298H369.796ZM379.112 430H375.553V414.15H379.112V430ZM375.333 410.034C375.333 409.487 375.504 409.033 375.846 408.672C376.197 408.311 376.695 408.13 377.34 408.13C377.984 408.13 378.482 408.311 378.834 408.672C379.186 409.033 379.361 409.487 379.361 410.034C379.361 410.571 379.186 411.021 378.834 411.382C378.482 411.733 377.984 411.909 377.34 411.909C376.695 411.909 376.197 411.733 375.846 411.382C375.504 411.021 375.333 410.571 375.333 410.034ZM389.513 427.451C390.401 427.451 391.139 427.192 391.725 426.675C392.311 426.157 392.623 425.518 392.662 424.756H396.017C395.978 425.742 395.67 426.665 395.094 427.524C394.518 428.374 393.736 429.048 392.75 429.546C391.764 430.044 390.699 430.293 389.557 430.293C387.34 430.293 385.582 429.575 384.283 428.14C382.984 426.704 382.335 424.722 382.335 422.192V421.826C382.335 419.414 382.979 417.485 384.269 416.04C385.558 414.585 387.315 413.857 389.542 413.857C391.427 413.857 392.96 414.409 394.142 415.513C395.333 416.606 395.958 418.047 396.017 419.834H392.662C392.623 418.926 392.311 418.179 391.725 417.593C391.148 417.007 390.411 416.714 389.513 416.714C388.36 416.714 387.472 417.134 386.847 417.974C386.222 418.804 385.904 420.068 385.895 421.768V422.339C385.895 424.058 386.202 425.342 386.817 426.191C387.442 427.031 388.341 427.451 389.513 427.451ZM403.854 423.203L402.271 424.829V430H398.712V407.5H402.271V420.479L403.385 419.087L407.765 414.15H412.042L406.153 420.757L412.672 430H408.556L403.854 423.203ZM421.9 421.328C421.9 419.072 422.203 416.934 422.809 414.912C423.414 412.881 424.303 411.069 425.475 409.478C426.646 407.876 427.887 406.753 429.195 406.108L429.898 408.188C428.521 409.233 427.403 410.83 426.544 412.979C425.694 415.117 425.23 417.568 425.152 420.332L425.138 421.592C425.138 424.551 425.553 427.192 426.383 429.517C427.223 431.831 428.395 433.594 429.898 434.805L429.195 436.782C427.887 436.138 426.642 435.01 425.46 433.398C424.288 431.797 423.399 429.99 422.794 427.979C422.198 425.957 421.9 423.74 421.9 421.328ZM438.116 411.938H435.157L431.202 407.5H435.26L438.116 411.938ZM448.839 421.562C448.839 423.73 448.541 425.825 447.945 427.847C447.35 429.858 446.446 431.689 445.235 433.34C444.024 435 442.76 436.147 441.441 436.782L440.738 434.805C442.203 433.672 443.36 431.943 444.21 429.619C445.069 427.285 445.499 424.624 445.499 421.636V421.299C445.499 418.584 445.128 416.113 444.386 413.887C443.644 411.65 442.579 409.858 441.192 408.511L440.738 408.101L441.441 406.108C442.691 406.714 443.902 407.788 445.074 409.331C446.246 410.874 447.145 412.603 447.77 414.517C448.395 416.421 448.746 418.389 448.824 420.42L448.839 421.562Z" fill="#039BE5"/>
<defs>
<filter id="filter0_dd" x="145" y="117.161" width="107.355" height="67.8387" filterUnits="userSpaceOnUse" color-interpolation-filters="sRGB">
<feFlood flood-opacity="0" result="BackgroundImageFix"/>
<feColorMatrix in="SourceAlpha" type="matrix" values="0 0 0 0 0 0 0 0 0 0 0 0 0 0 0 0 0 0 127 0" result="hardAlpha"/>
<feOffset dx="3" dy="3"/>
<feGaussianBlur stdDeviation="4"/>
<feComposite in2="hardAlpha" operator="out"/>
<feColorMatrix type="matrix" values="0 0 0 0 0 0 0 0 0 0 0 0 0 0 0 0 0 0 0.1 0"/>
<feBlend mode="normal" in2="BackgroundImageFix" result="effect1_dropShadow"/>
<feColorMatrix in="SourceAlpha" type="matrix" values="0 0 0 0 0 0 0 0 0 0 0 0 0 0 0 0 0 0 127 0" result="hardAlpha"/>
<feOffset dx="-3" dy="-3"/>
<feGaussianBlur stdDeviation="4"/>
<feComposite in2="hardAlpha" operator="out"/>
<feColorMatrix type="matrix" values="0 0 0 0 0 0 0 0 0 0 0 0 0 0 0 0 0 0 0.1 0"/>
<feBlend mode="normal" in2="effect1_dropShadow" result="effect2_dropShadow"/>
<feBlend mode="normal" in="SourceGraphic" in2="effect2_dropShadow" result="shape"/>
</filter>
<filter id="filter1_dd" x="145" y="382" width="107.355" height="67.8387" filterUnits="userSpaceOnUse" color-interpolation-filters="sRGB">
<feFlood flood-opacity="0" result="BackgroundImageFix"/>
<feColorMatrix in="SourceAlpha" type="matrix" values="0 0 0 0 0 0 0 0 0 0 0 0 0 0 0 0 0 0 127 0" result="hardAlpha"/>
<feOffset dx="3" dy="3"/>
<feGaussianBlur stdDeviation="4"/>
<feComposite in2="hardAlpha" operator="out"/>
<feColorMatrix type="matrix" values="0 0 0 0 0 0 0 0 0 0 0 0 0 0 0 0 0 0 0.1 0"/>
<feBlend mode="normal" in2="BackgroundImageFix" result="effect1_dropShadow"/>
<feColorMatrix in="SourceAlpha" type="matrix" values="0 0 0 0 0 0 0 0 0 0 0 0 0 0 0 0 0 0 127 0" result="hardAlpha"/>
<feOffset dx="-3" dy="-3"/>
<feGaussianBlur stdDeviation="4"/>
<feComposite in2="hardAlpha" operator="out"/>
<feColorMatrix type="matrix" values="0 0 0 0 0 0 0 0 0 0 0 0 0 0 0 0 0 0 0.1 0"/>
<feBlend mode="normal" in2="effect1_dropShadow" result="effect2_dropShadow"/>
<feBlend mode="normal" in="SourceGraphic" in2="effect2_dropShadow" result="shape"/>
</filter>
<filter id="filter2_dd" x="145" y="480" width="107.355" height="67.8387" filterUnits="userSpaceOnUse" color-interpolation-filters="sRGB">
<feFlood flood-opacity="0" result="BackgroundImageFix"/>
<feColorMatrix in="SourceAlpha" type="matrix" values="0 0 0 0 0 0 0 0 0 0 0 0 0 0 0 0 0 0 127 0" result="hardAlpha"/>
<feOffset dx="3" dy="3"/>
<feGaussianBlur stdDeviation="4"/>
<feComposite in2="hardAlpha" operator="out"/>
<feColorMatrix type="matrix" values="0 0 0 0 0 0 0 0 0 0 0 0 0 0 0 0 0 0 0.1 0"/>
<feBlend mode="normal" in2="BackgroundImageFix" result="effect1_dropShadow"/>
<feColorMatrix in="SourceAlpha" type="matrix" values="0 0 0 0 0 0 0 0 0 0 0 0 0 0 0 0 0 0 127 0" result="hardAlpha"/>
<feOffset dx="-3" dy="-3"/>
<feGaussianBlur stdDeviation="4"/>
<feComposite in2="hardAlpha" operator="out"/>
<feColorMatrix type="matrix" values="0 0 0 0 0 0 0 0 0 0 0 0 0 0 0 0 0 0 0.1 0"/>
<feBlend mode="normal" in2="effect1_dropShadow" result="effect2_dropShadow"/>
<feBlend mode="normal" in="SourceGraphic" in2="effect2_dropShadow" result="shape"/>
</filter>
<filter id="filter3_dd" x="145" y="241" width="107.355" height="67.8387" filterUnits="userSpaceOnUse" color-interpolation-filters="sRGB">
<feFlood flood-opacity="0" result="BackgroundImageFix"/>
<feColorMatrix in="SourceAlpha" type="matrix" values="0 0 0 0 0 0 0 0 0 0 0 0 0 0 0 0 0 0 127 0" result="hardAlpha"/>
<feOffset dx="3" dy="3"/>
<feGaussianBlur stdDeviation="4"/>
<feComposite in2="hardAlpha" operator="out"/>
<feColorMatrix type="matrix" values="0 0 0 0 0 0 0 0 0 0 0 0 0 0 0 0 0 0 0.1 0"/>
<feBlend mode="normal" in2="BackgroundImageFix" result="effect1_dropShadow"/>
<feColorMatrix in="SourceAlpha" type="matrix" values="0 0 0 0 0 0 0 0 0 0 0 0 0 0 0 0 0 0 127 0" result="hardAlpha"/>
<feOffset dx="-3" dy="-3"/>
<feGaussianBlur stdDeviation="4"/>
<feComposite in2="hardAlpha" operator="out"/>
<feColorMatrix type="matrix" values="0 0 0 0 0 0 0 0 0 0 0 0 0 0 0 0 0 0 0.1 0"/>
<feBlend mode="normal" in2="effect1_dropShadow" result="effect2_dropShadow"/>
<feBlend mode="normal" in="SourceGraphic" in2="effect2_dropShadow" result="shape"/>
</filter>
<filter id="filter4_dd" x="288" y="118" width="86" height="67.8387" filterUnits="userSpaceOnUse" color-interpolation-filters="sRGB">
<feFlood flood-opacity="0" result="BackgroundImageFix"/>
<feColorMatrix in="SourceAlpha" type="matrix" values="0 0 0 0 0 0 0 0 0 0 0 0 0 0 0 0 0 0 127 0" result="hardAlpha"/>
<feOffset dx="3" dy="3"/>
<feGaussianBlur stdDeviation="4"/>
<feComposite in2="hardAlpha" operator="out"/>
<feColorMatrix type="matrix" values="0 0 0 0 0 0 0 0 0 0 0 0 0 0 0 0 0 0 0.1 0"/>
<feBlend mode="normal" in2="BackgroundImageFix" result="effect1_dropShadow"/>
<feColorMatrix in="SourceAlpha" type="matrix" values="0 0 0 0 0 0 0 0 0 0 0 0 0 0 0 0 0 0 127 0" result="hardAlpha"/>
<feOffset dx="-3" dy="-3"/>
<feGaussianBlur stdDeviation="4"/>
<feComposite in2="hardAlpha" operator="out"/>
<feColorMatrix type="matrix" values="0 0 0 0 0 0 0 0 0 0 0 0 0 0 0 0 0 0 0.1 0"/>
<feBlend mode="normal" in2="effect1_dropShadow" result="effect2_dropShadow"/>
<feBlend mode="normal" in="SourceGraphic" in2="effect2_dropShadow" result="shape"/>
</filter>
<filter id="filter5_dd" x="288" y="220" width="72" height="67.8387" filterUnits="userSpaceOnUse" color-interpolation-filters="sRGB">
<feFlood flood-opacity="0" result="BackgroundImageFix"/>
<feColorMatrix in="SourceAlpha" type="matrix" values="0 0 0 0 0 0 0 0 0 0 0 0 0 0 0 0 0 0 127 0" result="hardAlpha"/>
<feOffset dx="3" dy="3"/>
<feGaussianBlur stdDeviation="4"/>
<feComposite in2="hardAlpha" operator="out"/>
<feColorMatrix type="matrix" values="0 0 0 0 0 0 0 0 0 0 0 0 0 0 0 0 0 0 0.1 0"/>
<feBlend mode="normal" in2="BackgroundImageFix" result="effect1_dropShadow"/>
<feColorMatrix in="SourceAlpha" type="matrix" values="0 0 0 0 0 0 0 0 0 0 0 0 0 0 0 0 0 0 127 0" result="hardAlpha"/>
<feOffset dx="-3" dy="-3"/>
<feGaussianBlur stdDeviation="4"/>
<feComposite in2="hardAlpha" operator="out"/>
<feColorMatrix type="matrix" values="0 0 0 0 0 0 0 0 0 0 0 0 0 0 0 0 0 0 0.1 0"/>
<feBlend mode="normal" in2="effect1_dropShadow" result="effect2_dropShadow"/>
<feBlend mode="normal" in="SourceGraphic" in2="effect2_dropShadow" result="shape"/>
</filter>
<filter id="filter6_dd" x="288" y="483" width="72" height="67.8387" filterUnits="userSpaceOnUse" color-interpolation-filters="sRGB">
<feFlood flood-opacity="0" result="BackgroundImageFix"/>
<feColorMatrix in="SourceAlpha" type="matrix" values="0 0 0 0 0 0 0 0 0 0 0 0 0 0 0 0 0 0 127 0" result="hardAlpha"/>
<feOffset dx="3" dy="3"/>
<feGaussianBlur stdDeviation="4"/>
<feComposite in2="hardAlpha" operator="out"/>
<feColorMatrix type="matrix" values="0 0 0 0 0 0 0 0 0 0 0 0 0 0 0 0 0 0 0.1 0"/>
<feBlend mode="normal" in2="BackgroundImageFix" result="effect1_dropShadow"/>
<feColorMatrix in="SourceAlpha" type="matrix" values="0 0 0 0 0 0 0 0 0 0 0 0 0 0 0 0 0 0 127 0" result="hardAlpha"/>
<feOffset dx="-3" dy="-3"/>
<feGaussianBlur stdDeviation="4"/>
<feComposite in2="hardAlpha" operator="out"/>
<feColorMatrix type="matrix" values="0 0 0 0 0 0 0 0 0 0 0 0 0 0 0 0 0 0 0.1 0"/>
<feBlend mode="normal" in2="effect1_dropShadow" result="effect2_dropShadow"/>
<feBlend mode="normal" in="SourceGraphic" in2="effect2_dropShadow" result="shape"/>
</filter>
<filter id="filter7_dd" x="352" y="483" width="72" height="67.8387" filterUnits="userSpaceOnUse" color-interpolation-filters="sRGB">
<feFlood flood-opacity="0" result="BackgroundImageFix"/>
<feColorMatrix in="SourceAlpha" type="matrix" values="0 0 0 0 0 0 0 0 0 0 0 0 0 0 0 0 0 0 127 0" result="hardAlpha"/>
<feOffset dx="3" dy="3"/>
<feGaussianBlur stdDeviation="4"/>
<feComposite in2="hardAlpha" operator="out"/>
<feColorMatrix type="matrix" values="0 0 0 0 0 0 0 0 0 0 0 0 0 0 0 0 0 0 0.1 0"/>
<feBlend mode="normal" in2="BackgroundImageFix" result="effect1_dropShadow"/>
<feColorMatrix in="SourceAlpha" type="matrix" values="0 0 0 0 0 0 0 0 0 0 0 0 0 0 0 0 0 0 127 0" result="hardAlpha"/>
<feOffset dx="-3" dy="-3"/>
<feGaussianBlur stdDeviation="4"/>
<feComposite in2="hardAlpha" operator="out"/>
<feColorMatrix type="matrix" values="0 0 0 0 0 0 0 0 0 0 0 0 0 0 0 0 0 0 0.1 0"/>
<feBlend mode="normal" in2="effect1_dropShadow" result="effect2_dropShadow"/>
<feBlend mode="normal" in="SourceGraphic" in2="effect2_dropShadow" result="shape"/>
</filter>
<filter id="filter8_dd" x="288" y="284.161" width="72" height="67.8387" filterUnits="userSpaceOnUse" color-interpolation-filters="sRGB">
<feFlood flood-opacity="0" result="BackgroundImageFix"/>
<feColorMatrix in="SourceAlpha" type="matrix" values="0 0 0 0 0 0 0 0 0 0 0 0 0 0 0 0 0 0 127 0" result="hardAlpha"/>
<feOffset dx="3" dy="3"/>
<feGaussianBlur stdDeviation="4"/>
<feComposite in2="hardAlpha" operator="out"/>
<feColorMatrix type="matrix" values="0 0 0 0 0 0 0 0 0 0 0 0 0 0 0 0 0 0 0.1 0"/>
<feBlend mode="normal" in2="BackgroundImageFix" result="effect1_dropShadow"/>
<feColorMatrix in="SourceAlpha" type="matrix" values="0 0 0 0 0 0 0 0 0 0 0 0 0 0 0 0 0 0 127 0" result="hardAlpha"/>
<feOffset dx="-3" dy="-3"/>
<feGaussianBlur stdDeviation="4"/>
<feComposite in2="hardAlpha" operator="out"/>
<feColorMatrix type="matrix" values="0 0 0 0 0 0 0 0 0 0 0 0 0 0 0 0 0 0 0.1 0"/>
<feBlend mode="normal" in2="effect1_dropShadow" result="effect2_dropShadow"/>
<feBlend mode="normal" in="SourceGraphic" in2="effect2_dropShadow" result="shape"/>
</filter>
<clipPath id="clip0">
<rect width="59" height="39" fill="white" transform="translate(505 129)"/>
</clipPath>
<clipPath id="clip1">
<rect width="59" height="39" fill="white" transform="translate(505 405)"/>
</clipPath>
<clipPath id="clip2">
<rect width="59" height="39" fill="white" transform="translate(505 493)"/>
</clipPath>
<clipPath id="clip3">
<rect width="59" height="39" fill="white" transform="translate(505 252.839)"/>
</clipPath>
</defs>
</svg>
