<svg width="1200" height="630" viewBox="0 0 1200 630" fill="none" xmlns="http://www.w3.org/2000/svg">
<rect width="1200" height="630" fill="white" fill-opacity="0.8"/>
<path d="M236.059 60.9199H242.738V64.8223H236.059V72.4336H231.91V64.8223H225.195V60.9199H231.91V53.8008H236.059V60.9199Z" fill="black"/>
<path d="M236.059 441.92H242.738V445.822H236.059V453.434H231.91V445.822H225.195V441.92H231.91V434.801H236.059V441.92Z" fill="black"/>
<path d="M236.059 182.92H242.738V186.822H236.059V194.434H231.91V186.822H225.195V182.92H231.91V175.801H236.059V182.92Z" fill="black"/>
<path d="M236.059 309.92H242.738V313.822H236.059V321.434H231.91V313.822H225.195V309.92H231.91V302.801H236.059V309.92Z" fill="black"/>
<g filter="url(#filter0_dd)">
<rect x="272" y="45" width="44.9236" height="45.8387" rx="5" fill="#FFFCFC"/>
</g>
<path d="M305.29 80.8386H300.861V69.4656H289.417V80.8386H284.97V55.2449H289.417V65.8972H300.861V55.2449H305.29V80.8386Z" fill="#4200FF"/>
<g filter="url(#filter1_dd)">
<rect x="272" y="426" width="44.9236" height="45.8387" rx="5" fill="#FFFCFC"/>
</g>
<path d="M284.97 461.839V436.245H293.741C296.636 436.245 298.839 436.825 300.351 437.985C301.863 439.145 302.618 440.874 302.618 443.171C302.618 444.343 302.302 445.397 301.669 446.335C301.036 447.272 300.111 447.999 298.892 448.514C300.275 448.889 301.341 449.598 302.091 450.641C302.853 451.673 303.234 452.915 303.234 454.368C303.234 456.77 302.46 458.616 300.913 459.905C299.378 461.194 297.175 461.839 294.304 461.839H284.97ZM289.417 450.29V458.288H294.357C295.751 458.288 296.841 457.942 297.626 457.251C298.411 456.559 298.804 455.598 298.804 454.368C298.804 451.708 297.445 450.348 294.726 450.29H289.417ZM289.417 447.02H293.777C295.159 447.02 296.238 446.71 297.011 446.089C297.796 445.456 298.189 444.565 298.189 443.417C298.189 442.151 297.825 441.237 297.099 440.675C296.384 440.112 295.265 439.831 293.741 439.831H289.417V447.02Z" fill="#4200FF"/>
<g filter="url(#filter2_dd)">
<rect x="419" y="547" width="44.9236" height="45.8387" rx="5" fill="#FFFCFC"/>
</g>
<path d="M443.663 582.839H439.234V557.245H443.663V582.839Z" fill="#4200FF"/>
<g filter="url(#filter3_dd)">
<rect x="272" y="167" width="44.9236" height="45.8387" rx="5" fill="#FFFCFC"/>
</g>
<path d="M290.761 205.036H287.404L297.476 177.245H300.833L290.761 205.036Z" fill="#4200FF"/>
<g filter="url(#filter4_dd)">
<rect x="105" y="42" width="93.2036" height="45.8387" rx="5" fill="#FFFCFC"/>
</g>
<path d="M132.554 74.78C133.62 74.78 134.505 74.4695 135.208 73.8484C135.911 73.2273 136.286 72.4597 136.333 71.5457H140.358C140.312 72.7292 139.942 73.8367 139.251 74.8679C138.56 75.8875 137.622 76.696 136.438 77.2937C135.255 77.8914 133.978 78.1902 132.606 78.1902C129.946 78.1902 127.837 77.3289 126.278 75.6062C124.72 73.8835 123.94 71.5046 123.94 68.4695V68.03C123.94 65.1355 124.714 62.821 126.261 61.0867C127.808 59.3406 129.917 58.4675 132.589 58.4675C134.851 58.4675 136.69 59.1296 138.108 60.4539C139.538 61.7664 140.288 63.4949 140.358 65.6394H136.333C136.286 64.5496 135.911 63.6531 135.208 62.95C134.517 62.2468 133.632 61.8953 132.554 61.8953C131.171 61.8953 130.104 62.3992 129.354 63.407C128.604 64.4031 128.224 65.9207 128.212 67.9597V68.6453C128.212 70.7078 128.581 72.2488 129.319 73.2683C130.069 74.2761 131.147 74.78 132.554 74.78ZM148.937 54.196V58.8191H152.294V61.9832H148.937V72.6003C148.937 73.3269 149.077 73.8542 149.358 74.1824C149.651 74.4988 150.167 74.657 150.905 74.657C151.397 74.657 151.896 74.5984 152.399 74.4812V77.7859C151.427 78.0554 150.489 78.1902 149.587 78.1902C146.306 78.1902 144.665 76.3796 144.665 72.7585V61.9832H141.536V58.8191H144.665V54.196H148.937ZM165.53 62.7214C164.968 62.6277 164.388 62.5808 163.79 62.5808C161.833 62.5808 160.515 63.3308 159.835 64.8308V77.8386H155.563V58.8191H159.642L159.747 60.946C160.778 59.2937 162.208 58.4675 164.036 58.4675C164.646 58.4675 165.149 58.5496 165.548 58.7136L165.53 62.7214ZM172.772 77.8386H168.501V50.8386H172.772V77.8386Z" fill="#4200FF"/>
<g filter="url(#filter5_dd)">
<rect x="105" y="423" width="93.2036" height="45.8387" rx="5" fill="#FFFCFC"/>
</g>
<path d="M132.554 455.78C133.62 455.78 134.505 455.469 135.208 454.848C135.911 454.227 136.286 453.46 136.333 452.546H140.358C140.312 453.729 139.942 454.837 139.251 455.868C138.56 456.887 137.622 457.696 136.438 458.294C135.255 458.891 133.978 459.19 132.606 459.19C129.946 459.19 127.837 458.329 126.278 456.606C124.72 454.884 123.94 452.505 123.94 449.469V449.03C123.94 446.135 124.714 443.821 126.261 442.087C127.808 440.341 129.917 439.468 132.589 439.468C134.851 439.468 136.69 440.13 138.108 441.454C139.538 442.766 140.288 444.495 140.358 446.639H136.333C136.286 445.55 135.911 444.653 135.208 443.95C134.517 443.247 133.632 442.895 132.554 442.895C131.171 442.895 130.104 443.399 129.354 444.407C128.604 445.403 128.224 446.921 128.212 448.96V449.645C128.212 451.708 128.581 453.249 129.319 454.268C130.069 455.276 131.147 455.78 132.554 455.78ZM148.937 435.196V439.819H152.294V442.983H148.937V453.6C148.937 454.327 149.077 454.854 149.358 455.182C149.651 455.499 150.167 455.657 150.905 455.657C151.397 455.657 151.896 455.598 152.399 455.481V458.786C151.427 459.055 150.489 459.19 149.587 459.19C146.306 459.19 144.665 457.38 144.665 453.759V442.983H141.536V439.819H144.665V435.196H148.937ZM165.53 443.721C164.968 443.628 164.388 443.581 163.79 443.581C161.833 443.581 160.515 444.331 159.835 445.831V458.839H155.563V439.819H159.642L159.747 441.946C160.778 440.294 162.208 439.468 164.036 439.468C164.646 439.468 165.149 439.55 165.548 439.714L165.53 443.721ZM172.772 458.839H168.501V431.839H172.772V458.839Z" fill="#4200FF"/>
<g filter="url(#filter6_dd)">
<rect x="105" y="164" width="93.2036" height="45.8387" rx="5" fill="#FFFCFC"/>
</g>
<path d="M132.554 196.78C133.62 196.78 134.505 196.469 135.208 195.848C135.911 195.227 136.286 194.46 136.333 193.546H140.358C140.312 194.729 139.942 195.837 139.251 196.868C138.56 197.887 137.622 198.696 136.438 199.294C135.255 199.891 133.978 200.19 132.606 200.19C129.946 200.19 127.837 199.329 126.278 197.606C124.72 195.884 123.94 193.505 123.94 190.469V190.03C123.94 187.135 124.714 184.821 126.261 183.087C127.808 181.341 129.917 180.468 132.589 180.468C134.851 180.468 136.69 181.13 138.108 182.454C139.538 183.766 140.288 185.495 140.358 187.639H136.333C136.286 186.55 135.911 185.653 135.208 184.95C134.517 184.247 133.632 183.895 132.554 183.895C131.171 183.895 130.104 184.399 129.354 185.407C128.604 186.403 128.224 187.921 128.212 189.96V190.645C128.212 192.708 128.581 194.249 129.319 195.268C130.069 196.276 131.147 196.78 132.554 196.78ZM148.937 176.196V180.819H152.294V183.983H148.937V194.6C148.937 195.327 149.077 195.854 149.358 196.182C149.651 196.499 150.167 196.657 150.905 196.657C151.397 196.657 151.896 196.598 152.399 196.481V199.786C151.427 200.055 150.489 200.19 149.587 200.19C146.306 200.19 144.665 198.38 144.665 194.759V183.983H141.536V180.819H144.665V176.196H148.937ZM165.53 184.721C164.968 184.628 164.388 184.581 163.79 184.581C161.833 184.581 160.515 185.331 159.835 186.831V199.839H155.563V180.819H159.642L159.747 182.946C160.778 181.294 162.208 180.468 164.036 180.468C164.646 180.468 165.149 180.55 165.548 180.714L165.53 184.721ZM172.772 199.839H168.501V172.839H172.772V199.839Z" fill="#4200FF"/>
<g filter="url(#filter7_dd)">
<rect x="105" y="291" width="93.2036" height="45.8387" rx="5" fill="#FFFCFC"/>
</g>
<path d="M132.554 323.78C133.62 323.78 134.505 323.469 135.208 322.848C135.911 322.227 136.286 321.46 136.333 320.546H140.358C140.312 321.729 139.942 322.837 139.251 323.868C138.56 324.887 137.622 325.696 136.438 326.294C135.255 326.891 133.978 327.19 132.606 327.19C129.946 327.19 127.837 326.329 126.278 324.606C124.72 322.884 123.94 320.505 123.94 317.469V317.03C123.94 314.135 124.714 311.821 126.261 310.087C127.808 308.341 129.917 307.468 132.589 307.468C134.851 307.468 136.69 308.13 138.108 309.454C139.538 310.766 140.288 312.495 140.358 314.639H136.333C136.286 313.55 135.911 312.653 135.208 311.95C134.517 311.247 133.632 310.895 132.554 310.895C131.171 310.895 130.104 311.399 129.354 312.407C128.604 313.403 128.224 314.921 128.212 316.96V317.645C128.212 319.708 128.581 321.249 129.319 322.268C130.069 323.276 131.147 323.78 132.554 323.78ZM148.937 303.196V307.819H152.294V310.983H148.937V321.6C148.937 322.327 149.077 322.854 149.358 323.182C149.651 323.499 150.167 323.657 150.905 323.657C151.397 323.657 151.896 323.598 152.399 323.481V326.786C151.427 327.055 150.489 327.19 149.587 327.19C146.306 327.19 144.665 325.38 144.665 321.759V310.983H141.536V307.819H144.665V303.196H148.937ZM165.53 311.721C164.968 311.628 164.388 311.581 163.79 311.581C161.833 311.581 160.515 312.331 159.835 313.831V326.839H155.563V307.819H159.642L159.747 309.946C160.778 308.294 162.208 307.468 164.036 307.468C164.646 307.468 165.149 307.55 165.548 307.714L165.53 311.721ZM172.772 326.839H168.501V299.839H172.772V326.839Z" fill="#4200FF"/>
<g clip-path="url(#clip0)">
<path d="M543.94 71.6901H530.78H503.803V58.3521L543.94 57.6501V47.1201L568.237 64.6701L543.94 82.2201V71.6901ZM548.8 55.8951V61.1601H522.462V68.1801H548.8V73.4451L560.948 64.6701L548.8 55.8951Z" fill="black"/>
</g>
<g clip-path="url(#clip1)">
<path d="M543.94 452.69H530.78H503.803V439.352L543.94 438.65V428.12L568.237 445.67L543.94 463.22V452.69ZM548.8 436.895V442.16H522.462V449.18H548.8V454.445L560.948 445.67L548.8 436.895Z" fill="black"/>
</g>
<g clip-path="url(#clip2)">
<path d="M543.94 193.69H530.78H503.803V180.352L543.94 179.65V169.12L568.237 186.67L543.94 204.22V193.69ZM548.8 177.895V183.16H522.462V190.18H548.8V195.445L560.948 186.67L548.8 177.895Z" fill="black"/>
</g>
<path d="M612.344 67.8594C609.771 67.1198 607.896 66.2135 606.719 65.1406C605.552 64.0573 604.969 62.724 604.969 61.1406C604.969 59.349 605.682 57.8698 607.109 56.7031C608.547 55.526 610.411 54.9375 612.703 54.9375C614.266 54.9375 615.656 55.2396 616.875 55.8438C618.104 56.4479 619.052 57.2812 619.719 58.3438C620.396 59.4062 620.734 60.5677 620.734 61.8281H617.719C617.719 60.4531 617.281 59.375 616.406 58.5938C615.531 57.8021 614.297 57.4062 612.703 57.4062C611.224 57.4062 610.068 57.7344 609.234 58.3906C608.411 59.0365 608 59.9375 608 61.0938C608 62.0208 608.391 62.8073 609.172 63.4531C609.964 64.0885 611.302 64.6719 613.188 65.2031C615.083 65.7344 616.562 66.3229 617.625 66.9688C618.698 67.6042 619.49 68.349 620 69.2031C620.521 70.0573 620.781 71.0625 620.781 72.2188C620.781 74.0625 620.062 75.5417 618.625 76.6562C617.188 77.7604 615.266 78.3125 612.859 78.3125C611.297 78.3125 609.839 78.0156 608.484 77.4219C607.13 76.8177 606.083 75.9948 605.344 74.9531C604.615 73.9115 604.25 72.7292 604.25 71.4062H607.266C607.266 72.7812 607.771 73.8698 608.781 74.6719C609.802 75.4635 611.161 75.8594 612.859 75.8594C614.443 75.8594 615.656 75.5365 616.5 74.8906C617.344 74.2448 617.766 73.3646 617.766 72.25C617.766 71.1354 617.375 70.276 616.594 69.6719C615.812 69.0573 614.396 68.4531 612.344 67.8594ZM631.203 78.3125C628.911 78.3125 627.047 77.5625 625.609 76.0625C624.172 74.5521 623.453 72.5365 623.453 70.0156V69.4844C623.453 67.8073 623.771 66.3125 624.406 65C625.052 63.6771 625.948 62.6458 627.094 61.9062C628.25 61.1562 629.5 60.7812 630.844 60.7812C633.042 60.7812 634.75 61.5052 635.969 62.9531C637.188 64.401 637.797 66.474 637.797 69.1719V70.375H626.344C626.385 72.0417 626.87 73.3906 627.797 74.4219C628.734 75.4427 629.922 75.9531 631.359 75.9531C632.38 75.9531 633.245 75.7448 633.953 75.3281C634.661 74.9115 635.281 74.3594 635.812 73.6719L637.578 75.0469C636.161 77.224 634.036 78.3125 631.203 78.3125ZM630.844 63.1562C629.677 63.1562 628.698 63.5833 627.906 64.4375C627.115 65.2812 626.625 66.4688 626.438 68H634.906V67.7812C634.823 66.3125 634.427 65.1771 633.719 64.375C633.01 63.5625 632.052 63.1562 630.844 63.1562ZM644.297 78H641.406V54H644.297V78ZM655.953 78.3125C653.661 78.3125 651.797 77.5625 650.359 76.0625C648.922 74.5521 648.203 72.5365 648.203 70.0156V69.4844C648.203 67.8073 648.521 66.3125 649.156 65C649.802 63.6771 650.698 62.6458 651.844 61.9062C653 61.1562 654.25 60.7812 655.594 60.7812C657.792 60.7812 659.5 61.5052 660.719 62.9531C661.938 64.401 662.547 66.474 662.547 69.1719V70.375H651.094C651.135 72.0417 651.62 73.3906 652.547 74.4219C653.484 75.4427 654.672 75.9531 656.109 75.9531C657.13 75.9531 657.995 75.7448 658.703 75.3281C659.411 74.9115 660.031 74.3594 660.562 73.6719L662.328 75.0469C660.911 77.224 658.786 78.3125 655.953 78.3125ZM655.594 63.1562C654.427 63.1562 653.448 63.5833 652.656 64.4375C651.865 65.2812 651.375 66.4688 651.188 68H659.656V67.7812C659.573 66.3125 659.177 65.1771 658.469 64.375C657.76 63.5625 656.802 63.1562 655.594 63.1562ZM672.688 75.9531C673.719 75.9531 674.62 75.6406 675.391 75.0156C676.161 74.3906 676.589 73.6094 676.672 72.6719H679.406C679.354 73.6406 679.021 74.5625 678.406 75.4375C677.792 76.3125 676.969 77.0104 675.938 77.5312C674.917 78.0521 673.833 78.3125 672.688 78.3125C670.385 78.3125 668.552 77.5469 667.188 76.0156C665.833 74.474 665.156 72.3698 665.156 69.7031V69.2188C665.156 67.5729 665.458 66.1094 666.062 64.8281C666.667 63.5469 667.531 62.5521 668.656 61.8438C669.792 61.1354 671.13 60.7812 672.672 60.7812C674.568 60.7812 676.141 61.349 677.391 62.4844C678.651 63.6198 679.323 65.0938 679.406 66.9062H676.672C676.589 65.8125 676.172 64.9167 675.422 64.2188C674.682 63.5104 673.766 63.1562 672.672 63.1562C671.203 63.1562 670.062 63.6875 669.25 64.75C668.448 65.8021 668.047 67.3281 668.047 69.3281V69.875C668.047 71.8229 668.448 73.3229 669.25 74.375C670.052 75.4271 671.198 75.9531 672.688 75.9531ZM686.578 57V61.0938H689.734V63.3281H686.578V73.8125C686.578 74.4896 686.719 75 687 75.3438C687.281 75.6771 687.76 75.8438 688.438 75.8438C688.771 75.8438 689.229 75.7812 689.812 75.6562V78C689.052 78.2083 688.312 78.3125 687.594 78.3125C686.302 78.3125 685.328 77.9219 684.672 77.1406C684.016 76.3594 683.688 75.25 683.688 73.8125V63.3281H680.609V61.0938H683.688V57H686.578ZM710.906 73.5156C710.906 72.7344 710.609 72.1302 710.016 71.7031C709.432 71.2656 708.406 70.8906 706.938 70.5781C705.479 70.2656 704.318 69.8906 703.453 69.4531C702.599 69.0156 701.964 68.4948 701.547 67.8906C701.141 67.2865 700.938 66.5677 700.938 65.7344C700.938 64.349 701.521 63.1771 702.688 62.2188C703.865 61.2604 705.365 60.7812 707.188 60.7812C709.104 60.7812 710.656 61.276 711.844 62.2656C713.042 63.2552 713.641 64.5208 713.641 66.0625H710.734C710.734 65.2708 710.396 64.5885 709.719 64.0156C709.052 63.4427 708.208 63.1562 707.188 63.1562C706.135 63.1562 705.312 63.3854 704.719 63.8438C704.125 64.3021 703.828 64.901 703.828 65.6406C703.828 66.3385 704.104 66.8646 704.656 67.2188C705.208 67.5729 706.203 67.9115 707.641 68.2344C709.089 68.5573 710.26 68.9427 711.156 69.3906C712.052 69.8385 712.714 70.3802 713.141 71.0156C713.578 71.6406 713.797 72.4062 713.797 73.3125C713.797 74.8229 713.193 76.0365 711.984 76.9531C710.776 77.8594 709.208 78.3125 707.281 78.3125C705.927 78.3125 704.729 78.0729 703.688 77.5938C702.646 77.1146 701.828 76.4479 701.234 75.5938C700.651 74.7292 700.359 73.7969 700.359 72.7969H703.25C703.302 73.7656 703.688 74.5365 704.406 75.1094C705.135 75.6719 706.094 75.9531 707.281 75.9531C708.375 75.9531 709.25 75.7344 709.906 75.2969C710.573 74.849 710.906 74.2552 710.906 73.5156ZM728 78C727.833 77.6667 727.698 77.0729 727.594 76.2188C726.25 77.6146 724.646 78.3125 722.781 78.3125C721.115 78.3125 719.745 77.8438 718.672 76.9062C717.609 75.9583 717.078 74.7604 717.078 73.3125C717.078 71.5521 717.745 70.1875 719.078 69.2188C720.422 68.2396 722.307 67.75 724.734 67.75H727.547V66.4219C727.547 65.4115 727.245 64.6094 726.641 64.0156C726.036 63.4115 725.146 63.1094 723.969 63.1094C722.938 63.1094 722.073 63.3698 721.375 63.8906C720.677 64.4115 720.328 65.0417 720.328 65.7812H717.422C717.422 64.9375 717.719 64.125 718.312 63.3438C718.917 62.5521 719.729 61.9271 720.75 61.4688C721.781 61.0104 722.911 60.7812 724.141 60.7812C726.089 60.7812 727.615 61.2708 728.719 62.25C729.823 63.2188 730.396 64.5573 730.438 66.2656V74.0469C730.438 75.599 730.635 76.8333 731.031 77.75V78H728ZM723.203 75.7969C724.109 75.7969 724.969 75.5625 725.781 75.0938C726.594 74.625 727.182 74.0156 727.547 73.2656V69.7969H725.281C721.74 69.7969 719.969 70.8333 719.969 72.9062C719.969 73.8125 720.271 74.5208 720.875 75.0312C721.479 75.5417 722.255 75.7969 723.203 75.7969ZM737.688 61.0938L737.766 62.9688C739.005 61.5104 740.677 60.7812 742.781 60.7812C745.146 60.7812 746.755 61.6875 747.609 63.5C748.172 62.6875 748.901 62.0312 749.797 61.5312C750.703 61.0312 751.771 60.7812 753 60.7812C756.708 60.7812 758.594 62.7448 758.656 66.6719V78H755.766V66.8438C755.766 65.6354 755.49 64.7344 754.938 64.1406C754.385 63.5365 753.458 63.2344 752.156 63.2344C751.083 63.2344 750.193 63.5573 749.484 64.2031C748.776 64.8385 748.365 65.6979 748.25 66.7812V78H745.344V66.9219C745.344 64.4635 744.141 63.2344 741.734 63.2344C739.839 63.2344 738.542 64.0417 737.844 65.6562V78H734.953V61.0938H737.688ZM770.047 78.3125C767.755 78.3125 765.891 77.5625 764.453 76.0625C763.016 74.5521 762.297 72.5365 762.297 70.0156V69.4844C762.297 67.8073 762.615 66.3125 763.25 65C763.896 63.6771 764.792 62.6458 765.938 61.9062C767.094 61.1562 768.344 60.7812 769.688 60.7812C771.885 60.7812 773.594 61.5052 774.812 62.9531C776.031 64.401 776.641 66.474 776.641 69.1719V70.375H765.188C765.229 72.0417 765.714 73.3906 766.641 74.4219C767.578 75.4427 768.766 75.9531 770.203 75.9531C771.224 75.9531 772.089 75.7448 772.797 75.3281C773.505 74.9115 774.125 74.3594 774.656 73.6719L776.422 75.0469C775.005 77.224 772.88 78.3125 770.047 78.3125ZM769.688 63.1562C768.521 63.1562 767.542 63.5833 766.75 64.4375C765.958 65.2812 765.469 66.4688 765.281 68H773.75V67.7812C773.667 66.3125 773.271 65.1771 772.562 64.375C771.854 63.5625 770.896 63.1562 769.688 63.1562ZM802.906 74.0156L806.156 61.0938H809.047L804.125 78H801.781L797.672 65.1875L793.672 78H791.328L786.422 61.0938H789.297L792.625 73.75L796.562 61.0938H798.891L802.906 74.0156ZM811.234 69.3906C811.234 67.7344 811.557 66.2448 812.203 64.9219C812.859 63.599 813.766 62.5781 814.922 61.8594C816.089 61.1406 817.417 60.7812 818.906 60.7812C821.208 60.7812 823.068 61.5781 824.484 63.1719C825.911 64.7656 826.625 66.8854 826.625 69.5312V69.7344C826.625 71.3802 826.307 72.8594 825.672 74.1719C825.047 75.474 824.146 76.4896 822.969 77.2188C821.802 77.9479 820.458 78.3125 818.938 78.3125C816.646 78.3125 814.786 77.5156 813.359 75.9219C811.943 74.3281 811.234 72.2188 811.234 69.5938V69.3906ZM814.141 69.7344C814.141 71.6094 814.573 73.1146 815.438 74.25C816.312 75.3854 817.479 75.9531 818.938 75.9531C820.406 75.9531 821.573 75.3802 822.438 74.2344C823.302 73.0781 823.734 71.4635 823.734 69.3906C823.734 67.5365 823.292 66.0365 822.406 64.8906C821.531 63.7344 820.365 63.1562 818.906 63.1562C817.479 63.1562 816.328 63.724 815.453 64.8594C814.578 65.9948 814.141 67.6198 814.141 69.7344ZM838.422 63.6875C837.984 63.6146 837.51 63.5781 837 63.5781C835.104 63.5781 833.818 64.3854 833.141 66V78H830.25V61.0938H833.062L833.109 63.0469C834.057 61.5365 835.401 60.7812 837.141 60.7812C837.703 60.7812 838.13 60.8542 838.422 61V63.6875ZM840.078 69.4062C840.078 66.8125 840.693 64.7292 841.922 63.1562C843.151 61.5729 844.76 60.7812 846.75 60.7812C848.729 60.7812 850.297 61.4583 851.453 62.8125V54H854.344V78H851.688L851.547 76.1875C850.391 77.6042 848.781 78.3125 846.719 78.3125C844.76 78.3125 843.161 77.5104 841.922 75.9062C840.693 74.3021 840.078 72.2083 840.078 69.625V69.4062ZM842.969 69.7344C842.969 71.651 843.365 73.151 844.156 74.2344C844.948 75.3177 846.042 75.8594 847.438 75.8594C849.271 75.8594 850.609 75.0365 851.453 73.3906V65.625C850.589 64.0312 849.26 63.2344 847.469 63.2344C846.052 63.2344 844.948 63.7812 844.156 64.875C843.365 65.9688 842.969 67.5885 842.969 69.7344ZM866.172 71.8906C866.172 70.7969 866.474 69.7917 867.078 68.875C867.693 67.9583 868.859 66.8906 870.578 65.6719C869.568 64.4427 868.891 63.4531 868.547 62.7031C868.203 61.9531 868.031 61.2083 868.031 60.4688C868.031 58.7396 868.542 57.3854 869.562 56.4062C870.583 55.4271 871.969 54.9375 873.719 54.9375C875.281 54.9375 876.573 55.3958 877.594 56.3125C878.615 57.2188 879.125 58.3646 879.125 59.75C879.125 60.6667 878.891 61.5156 878.422 62.2969C877.964 63.0677 877.156 63.8802 876 64.7344L874.328 65.9688L879.391 72.0156C880.099 70.6615 880.453 69.1562 880.453 67.5H883.062C883.062 70.1562 882.422 72.3594 881.141 74.1094L884.391 78H880.922L879.406 76.2031C878.635 76.8906 877.729 77.4167 876.688 77.7812C875.656 78.1354 874.604 78.3125 873.531 78.3125C871.312 78.3125 869.531 77.724 868.188 76.5469C866.844 75.3698 866.172 73.8177 866.172 71.8906ZM873.531 75.9531C875.062 75.9531 876.464 75.3698 877.734 74.2031L872.188 67.5625L871.672 67.9375C869.932 69.2188 869.062 70.5365 869.062 71.8906C869.062 73.1198 869.458 74.1042 870.25 74.8438C871.052 75.5833 872.146 75.9531 873.531 75.9531ZM870.922 60.375C870.922 61.375 871.536 62.625 872.766 64.125L874.609 62.8281C875.318 62.3281 875.802 61.8542 876.062 61.4062C876.323 60.9479 876.453 60.3958 876.453 59.75C876.453 59.0521 876.193 58.474 875.672 58.0156C875.151 57.5469 874.495 57.3125 873.703 57.3125C872.849 57.3125 872.172 57.6042 871.672 58.1875C871.172 58.7604 870.922 59.4896 870.922 60.375ZM902.797 63.6875C902.359 63.6146 901.885 63.5781 901.375 63.5781C899.479 63.5781 898.193 64.3854 897.516 66V78H894.625V61.0938H897.438L897.484 63.0469C898.432 61.5365 899.776 60.7812 901.516 60.7812C902.078 60.7812 902.505 60.8542 902.797 61V63.6875ZM912.172 78.3125C909.88 78.3125 908.016 77.5625 906.578 76.0625C905.141 74.5521 904.422 72.5365 904.422 70.0156V69.4844C904.422 67.8073 904.74 66.3125 905.375 65C906.021 63.6771 906.917 62.6458 908.062 61.9062C909.219 61.1562 910.469 60.7812 911.812 60.7812C914.01 60.7812 915.719 61.5052 916.938 62.9531C918.156 64.401 918.766 66.474 918.766 69.1719V70.375H907.312C907.354 72.0417 907.839 73.3906 908.766 74.4219C909.703 75.4427 910.891 75.9531 912.328 75.9531C913.349 75.9531 914.214 75.7448 914.922 75.3281C915.63 74.9115 916.25 74.3594 916.781 73.6719L918.547 75.0469C917.13 77.224 915.005 78.3125 912.172 78.3125ZM911.812 63.1562C910.646 63.1562 909.667 63.5833 908.875 64.4375C908.083 65.2812 907.594 66.4688 907.406 68H915.875V67.7812C915.792 66.3125 915.396 65.1771 914.688 64.375C913.979 63.5625 913.021 63.1562 911.812 63.1562ZM936.406 69.7344C936.406 72.3073 935.818 74.3802 934.641 75.9531C933.464 77.526 931.87 78.3125 929.859 78.3125C927.807 78.3125 926.193 77.6615 925.016 76.3594V84.5H922.125V61.0938H924.766L924.906 62.9688C926.083 61.5104 927.719 60.7812 929.812 60.7812C931.844 60.7812 933.448 61.5469 934.625 63.0781C935.812 64.6094 936.406 66.7396 936.406 69.4688V69.7344ZM933.516 69.4062C933.516 67.5 933.109 65.9948 932.297 64.8906C931.484 63.7865 930.37 63.2344 928.953 63.2344C927.203 63.2344 925.891 64.0104 925.016 65.5625V73.6406C925.88 75.1823 927.203 75.9531 928.984 75.9531C930.37 75.9531 931.469 75.4062 932.281 74.3125C933.104 73.2083 933.516 71.5729 933.516 69.4062ZM943.234 78H940.344V54H943.234V78ZM958.312 78C958.146 77.6667 958.01 77.0729 957.906 76.2188C956.562 77.6146 954.958 78.3125 953.094 78.3125C951.427 78.3125 950.057 77.8438 948.984 76.9062C947.922 75.9583 947.391 74.7604 947.391 73.3125C947.391 71.5521 948.057 70.1875 949.391 69.2188C950.734 68.2396 952.62 67.75 955.047 67.75H957.859V66.4219C957.859 65.4115 957.557 64.6094 956.953 64.0156C956.349 63.4115 955.458 63.1094 954.281 63.1094C953.25 63.1094 952.385 63.3698 951.688 63.8906C950.99 64.4115 950.641 65.0417 950.641 65.7812H947.734C947.734 64.9375 948.031 64.125 948.625 63.3438C949.229 62.5521 950.042 61.9271 951.062 61.4688C952.094 61.0104 953.224 60.7812 954.453 60.7812C956.401 60.7812 957.927 61.2708 959.031 62.25C960.135 63.2188 960.708 64.5573 960.75 66.2656V74.0469C960.75 75.599 960.948 76.8333 961.344 77.75V78H958.312ZM953.516 75.7969C954.422 75.7969 955.281 75.5625 956.094 75.0938C956.906 74.625 957.495 74.0156 957.859 73.2656V69.7969H955.594C952.052 69.7969 950.281 70.8333 950.281 72.9062C950.281 73.8125 950.583 74.5208 951.188 75.0312C951.792 75.5417 952.568 75.7969 953.516 75.7969ZM972.062 75.9531C973.094 75.9531 973.995 75.6406 974.766 75.0156C975.536 74.3906 975.964 73.6094 976.047 72.6719H978.781C978.729 73.6406 978.396 74.5625 977.781 75.4375C977.167 76.3125 976.344 77.0104 975.312 77.5312C974.292 78.0521 973.208 78.3125 972.062 78.3125C969.76 78.3125 967.927 77.5469 966.562 76.0156C965.208 74.474 964.531 72.3698 964.531 69.7031V69.2188C964.531 67.5729 964.833 66.1094 965.438 64.8281C966.042 63.5469 966.906 62.5521 968.031 61.8438C969.167 61.1354 970.505 60.7812 972.047 60.7812C973.943 60.7812 975.516 61.349 976.766 62.4844C978.026 63.6198 978.698 65.0938 978.781 66.9062H976.047C975.964 65.8125 975.547 64.9167 974.797 64.2188C974.057 63.5104 973.141 63.1562 972.047 63.1562C970.578 63.1562 969.438 63.6875 968.625 64.75C967.823 65.8021 967.422 67.3281 967.422 69.3281V69.875C967.422 71.8229 967.823 73.3229 968.625 74.375C969.427 75.4271 970.573 75.9531 972.062 75.9531ZM989.047 78.3125C986.755 78.3125 984.891 77.5625 983.453 76.0625C982.016 74.5521 981.297 72.5365 981.297 70.0156V69.4844C981.297 67.8073 981.615 66.3125 982.25 65C982.896 63.6771 983.792 62.6458 984.938 61.9062C986.094 61.1562 987.344 60.7812 988.688 60.7812C990.885 60.7812 992.594 61.5052 993.812 62.9531C995.031 64.401 995.641 66.474 995.641 69.1719V70.375H984.188C984.229 72.0417 984.714 73.3906 985.641 74.4219C986.578 75.4427 987.766 75.9531 989.203 75.9531C990.224 75.9531 991.089 75.7448 991.797 75.3281C992.505 74.9115 993.125 74.3594 993.656 73.6719L995.422 75.0469C994.005 77.224 991.88 78.3125 989.047 78.3125ZM988.688 63.1562C987.521 63.1562 986.542 63.5833 985.75 64.4375C984.958 65.2812 984.469 66.4688 984.281 68H992.75V67.7812C992.667 66.3125 992.271 65.1771 991.562 64.375C990.854 63.5625 989.896 63.1562 988.688 63.1562ZM1010.08 78H1007.19V61.0938H1010.08V78ZM1006.95 56.6094C1006.95 56.1406 1007.09 55.7448 1007.38 55.4219C1007.67 55.099 1008.09 54.9375 1008.66 54.9375C1009.22 54.9375 1009.65 55.099 1009.94 55.4219C1010.23 55.7448 1010.38 56.1406 1010.38 56.6094C1010.38 57.0781 1010.23 57.4688 1009.94 57.7812C1009.65 58.0938 1009.22 58.25 1008.66 58.25C1008.09 58.25 1007.67 58.0938 1007.38 57.7812C1007.09 57.4688 1006.95 57.0781 1006.95 56.6094ZM1018.64 57V61.0938H1021.8V63.3281H1018.64V73.8125C1018.64 74.4896 1018.78 75 1019.06 75.3438C1019.34 75.6771 1019.82 75.8438 1020.5 75.8438C1020.83 75.8438 1021.29 75.7812 1021.88 75.6562V78C1021.11 78.2083 1020.38 78.3125 1019.66 78.3125C1018.36 78.3125 1017.39 77.9219 1016.73 77.1406C1016.08 76.3594 1015.75 75.25 1015.75 73.8125V63.3281H1012.67V61.0938H1015.75V57H1018.64Z" fill="black"/>
<path d="M623.141 448.359C623.141 450.589 622.766 452.536 622.016 454.203C621.266 455.859 620.203 457.125 618.828 458C617.453 458.875 615.849 459.312 614.016 459.312C612.224 459.312 610.635 458.875 609.25 458C607.865 457.115 606.786 455.859 606.016 454.234C605.255 452.599 604.865 450.708 604.844 448.562V446.922C604.844 444.734 605.224 442.802 605.984 441.125C606.745 439.448 607.818 438.167 609.203 437.281C610.599 436.385 612.193 435.938 613.984 435.938C615.807 435.938 617.411 436.38 618.797 437.266C620.193 438.141 621.266 439.417 622.016 441.094C622.766 442.76 623.141 444.703 623.141 446.922V448.359ZM620.156 446.891C620.156 444.193 619.615 442.125 618.531 440.688C617.448 439.24 615.932 438.516 613.984 438.516C612.089 438.516 610.594 439.24 609.5 440.688C608.417 442.125 607.859 444.125 607.828 446.688V448.359C607.828 450.974 608.375 453.031 609.469 454.531C610.573 456.021 612.089 456.766 614.016 456.766C615.953 456.766 617.453 456.062 618.516 454.656C619.578 453.24 620.125 451.214 620.156 448.578V446.891ZM641.469 450.734C641.469 453.307 640.88 455.38 639.703 456.953C638.526 458.526 636.932 459.312 634.922 459.312C632.87 459.312 631.255 458.661 630.078 457.359V465.5H627.188V442.094H629.828L629.969 443.969C631.146 442.51 632.781 441.781 634.875 441.781C636.906 441.781 638.51 442.547 639.688 444.078C640.875 445.609 641.469 447.74 641.469 450.469V450.734ZM638.578 450.406C638.578 448.5 638.172 446.995 637.359 445.891C636.547 444.786 635.432 444.234 634.016 444.234C632.266 444.234 630.953 445.01 630.078 446.562V454.641C630.943 456.182 632.266 456.953 634.047 456.953C635.432 456.953 636.531 456.406 637.344 455.312C638.167 454.208 638.578 452.573 638.578 450.406ZM652.172 459.312C649.88 459.312 648.016 458.562 646.578 457.062C645.141 455.552 644.422 453.536 644.422 451.016V450.484C644.422 448.807 644.74 447.312 645.375 446C646.021 444.677 646.917 443.646 648.062 442.906C649.219 442.156 650.469 441.781 651.812 441.781C654.01 441.781 655.719 442.505 656.938 443.953C658.156 445.401 658.766 447.474 658.766 450.172V451.375H647.312C647.354 453.042 647.839 454.391 648.766 455.422C649.703 456.443 650.891 456.953 652.328 456.953C653.349 456.953 654.214 456.745 654.922 456.328C655.63 455.911 656.25 455.359 656.781 454.672L658.547 456.047C657.13 458.224 655.005 459.312 652.172 459.312ZM651.812 444.156C650.646 444.156 649.667 444.583 648.875 445.438C648.083 446.281 647.594 447.469 647.406 449H655.875V448.781C655.792 447.312 655.396 446.177 654.688 445.375C653.979 444.562 653.021 444.156 651.812 444.156ZM664.859 442.094L664.953 444.219C666.245 442.594 667.932 441.781 670.016 441.781C673.589 441.781 675.391 443.797 675.422 447.828V459H672.531V447.812C672.521 446.594 672.24 445.693 671.688 445.109C671.146 444.526 670.297 444.234 669.141 444.234C668.203 444.234 667.38 444.484 666.672 444.984C665.964 445.484 665.411 446.141 665.016 446.953V459H662.125V442.094H664.859ZM687.109 452.891C687.109 451.797 687.411 450.792 688.016 449.875C688.63 448.958 689.797 447.891 691.516 446.672C690.505 445.443 689.828 444.453 689.484 443.703C689.141 442.953 688.969 442.208 688.969 441.469C688.969 439.74 689.479 438.385 690.5 437.406C691.521 436.427 692.906 435.938 694.656 435.938C696.219 435.938 697.51 436.396 698.531 437.312C699.552 438.219 700.062 439.365 700.062 440.75C700.062 441.667 699.828 442.516 699.359 443.297C698.901 444.068 698.094 444.88 696.938 445.734L695.266 446.969L700.328 453.016C701.036 451.661 701.391 450.156 701.391 448.5H704C704 451.156 703.359 453.359 702.078 455.109L705.328 459H701.859L700.344 457.203C699.573 457.891 698.667 458.417 697.625 458.781C696.594 459.135 695.542 459.312 694.469 459.312C692.25 459.312 690.469 458.724 689.125 457.547C687.781 456.37 687.109 454.818 687.109 452.891ZM694.469 456.953C696 456.953 697.401 456.37 698.672 455.203L693.125 448.562L692.609 448.938C690.87 450.219 690 451.536 690 452.891C690 454.12 690.396 455.104 691.188 455.844C691.99 456.583 693.083 456.953 694.469 456.953ZM691.859 441.375C691.859 442.375 692.474 443.625 693.703 445.125L695.547 443.828C696.255 443.328 696.74 442.854 697 442.406C697.26 441.948 697.391 441.396 697.391 440.75C697.391 440.052 697.13 439.474 696.609 439.016C696.089 438.547 695.432 438.312 694.641 438.312C693.786 438.312 693.109 438.604 692.609 439.188C692.109 439.76 691.859 440.49 691.859 441.375ZM722.344 456.953C723.375 456.953 724.276 456.641 725.047 456.016C725.818 455.391 726.245 454.609 726.328 453.672H729.062C729.01 454.641 728.677 455.562 728.062 456.438C727.448 457.312 726.625 458.01 725.594 458.531C724.573 459.052 723.49 459.312 722.344 459.312C720.042 459.312 718.208 458.547 716.844 457.016C715.49 455.474 714.812 453.37 714.812 450.703V450.219C714.812 448.573 715.115 447.109 715.719 445.828C716.323 444.547 717.188 443.552 718.312 442.844C719.448 442.135 720.786 441.781 722.328 441.781C724.224 441.781 725.797 442.349 727.047 443.484C728.307 444.62 728.979 446.094 729.062 447.906H726.328C726.245 446.812 725.828 445.917 725.078 445.219C724.339 444.51 723.422 444.156 722.328 444.156C720.859 444.156 719.719 444.688 718.906 445.75C718.104 446.802 717.703 448.328 717.703 450.328V450.875C717.703 452.823 718.104 454.323 718.906 455.375C719.708 456.427 720.854 456.953 722.344 456.953ZM735.453 459H732.562V435H735.453V459ZM739.328 450.391C739.328 448.734 739.651 447.245 740.297 445.922C740.953 444.599 741.859 443.578 743.016 442.859C744.182 442.141 745.51 441.781 747 441.781C749.302 441.781 751.161 442.578 752.578 444.172C754.005 445.766 754.719 447.885 754.719 450.531V450.734C754.719 452.38 754.401 453.859 753.766 455.172C753.141 456.474 752.24 457.49 751.062 458.219C749.896 458.948 748.552 459.312 747.031 459.312C744.74 459.312 742.88 458.516 741.453 456.922C740.036 455.328 739.328 453.219 739.328 450.594V450.391ZM742.234 450.734C742.234 452.609 742.667 454.115 743.531 455.25C744.406 456.385 745.573 456.953 747.031 456.953C748.5 456.953 749.667 456.38 750.531 455.234C751.396 454.078 751.828 452.464 751.828 450.391C751.828 448.536 751.385 447.036 750.5 445.891C749.625 444.734 748.458 444.156 747 444.156C745.573 444.156 744.422 444.724 743.547 445.859C742.672 446.995 742.234 448.62 742.234 450.734ZM768.188 454.516C768.188 453.734 767.891 453.13 767.297 452.703C766.714 452.266 765.688 451.891 764.219 451.578C762.76 451.266 761.599 450.891 760.734 450.453C759.88 450.016 759.245 449.495 758.828 448.891C758.422 448.286 758.219 447.568 758.219 446.734C758.219 445.349 758.802 444.177 759.969 443.219C761.146 442.26 762.646 441.781 764.469 441.781C766.385 441.781 767.938 442.276 769.125 443.266C770.323 444.255 770.922 445.521 770.922 447.062H768.016C768.016 446.271 767.677 445.589 767 445.016C766.333 444.443 765.49 444.156 764.469 444.156C763.417 444.156 762.594 444.385 762 444.844C761.406 445.302 761.109 445.901 761.109 446.641C761.109 447.339 761.385 447.865 761.938 448.219C762.49 448.573 763.484 448.911 764.922 449.234C766.37 449.557 767.542 449.943 768.438 450.391C769.333 450.839 769.995 451.38 770.422 452.016C770.859 452.641 771.078 453.406 771.078 454.312C771.078 455.823 770.474 457.036 769.266 457.953C768.057 458.859 766.49 459.312 764.562 459.312C763.208 459.312 762.01 459.073 760.969 458.594C759.927 458.115 759.109 457.448 758.516 456.594C757.932 455.729 757.641 454.797 757.641 453.797H760.531C760.583 454.766 760.969 455.536 761.688 456.109C762.417 456.672 763.375 456.953 764.562 456.953C765.656 456.953 766.531 456.734 767.188 456.297C767.854 455.849 768.188 455.255 768.188 454.516ZM781.859 459.312C779.568 459.312 777.703 458.562 776.266 457.062C774.828 455.552 774.109 453.536 774.109 451.016V450.484C774.109 448.807 774.427 447.312 775.062 446C775.708 444.677 776.604 443.646 777.75 442.906C778.906 442.156 780.156 441.781 781.5 441.781C783.698 441.781 785.406 442.505 786.625 443.953C787.844 445.401 788.453 447.474 788.453 450.172V451.375H777C777.042 453.042 777.526 454.391 778.453 455.422C779.391 456.443 780.578 456.953 782.016 456.953C783.036 456.953 783.901 456.745 784.609 456.328C785.318 455.911 785.938 455.359 786.469 454.672L788.234 456.047C786.818 458.224 784.693 459.312 781.859 459.312ZM781.5 444.156C780.333 444.156 779.354 444.583 778.562 445.438C777.771 446.281 777.281 447.469 777.094 449H785.562V448.781C785.479 447.312 785.083 446.177 784.375 445.375C783.667 444.562 782.708 444.156 781.5 444.156ZM809.594 454.516C809.594 453.734 809.297 453.13 808.703 452.703C808.12 452.266 807.094 451.891 805.625 451.578C804.167 451.266 803.005 450.891 802.141 450.453C801.286 450.016 800.651 449.495 800.234 448.891C799.828 448.286 799.625 447.568 799.625 446.734C799.625 445.349 800.208 444.177 801.375 443.219C802.552 442.26 804.052 441.781 805.875 441.781C807.792 441.781 809.344 442.276 810.531 443.266C811.729 444.255 812.328 445.521 812.328 447.062H809.422C809.422 446.271 809.083 445.589 808.406 445.016C807.74 444.443 806.896 444.156 805.875 444.156C804.823 444.156 804 444.385 803.406 444.844C802.812 445.302 802.516 445.901 802.516 446.641C802.516 447.339 802.792 447.865 803.344 448.219C803.896 448.573 804.891 448.911 806.328 449.234C807.776 449.557 808.948 449.943 809.844 450.391C810.74 450.839 811.401 451.38 811.828 452.016C812.266 452.641 812.484 453.406 812.484 454.312C812.484 455.823 811.88 457.036 810.672 457.953C809.464 458.859 807.896 459.312 805.969 459.312C804.615 459.312 803.417 459.073 802.375 458.594C801.333 458.115 800.516 457.448 799.922 456.594C799.339 455.729 799.047 454.797 799.047 453.797H801.938C801.99 454.766 802.375 455.536 803.094 456.109C803.823 456.672 804.781 456.953 805.969 456.953C807.062 456.953 807.938 456.734 808.594 456.297C809.26 455.849 809.594 455.255 809.594 454.516ZM819.391 459H816.5V442.094H819.391V459ZM816.266 437.609C816.266 437.141 816.406 436.745 816.688 436.422C816.979 436.099 817.406 435.938 817.969 435.938C818.531 435.938 818.958 436.099 819.25 436.422C819.542 436.745 819.688 437.141 819.688 437.609C819.688 438.078 819.542 438.469 819.25 438.781C818.958 439.094 818.531 439.25 817.969 439.25C817.406 439.25 816.979 439.094 816.688 438.781C816.406 438.469 816.266 438.078 816.266 437.609ZM823.328 450.406C823.328 447.812 823.943 445.729 825.172 444.156C826.401 442.573 828.01 441.781 830 441.781C831.979 441.781 833.547 442.458 834.703 443.812V435H837.594V459H834.938L834.797 457.188C833.641 458.604 832.031 459.312 829.969 459.312C828.01 459.312 826.411 458.51 825.172 456.906C823.943 455.302 823.328 453.208 823.328 450.625V450.406ZM826.219 450.734C826.219 452.651 826.615 454.151 827.406 455.234C828.198 456.318 829.292 456.859 830.688 456.859C832.521 456.859 833.859 456.036 834.703 454.391V446.625C833.839 445.031 832.51 444.234 830.719 444.234C829.302 444.234 828.198 444.781 827.406 445.875C826.615 446.969 826.219 448.589 826.219 450.734ZM849.109 459.312C846.818 459.312 844.953 458.562 843.516 457.062C842.078 455.552 841.359 453.536 841.359 451.016V450.484C841.359 448.807 841.677 447.312 842.312 446C842.958 444.677 843.854 443.646 845 442.906C846.156 442.156 847.406 441.781 848.75 441.781C850.948 441.781 852.656 442.505 853.875 443.953C855.094 445.401 855.703 447.474 855.703 450.172V451.375H844.25C844.292 453.042 844.776 454.391 845.703 455.422C846.641 456.443 847.828 456.953 849.266 456.953C850.286 456.953 851.151 456.745 851.859 456.328C852.568 455.911 853.188 455.359 853.719 454.672L855.484 456.047C854.068 458.224 851.943 459.312 849.109 459.312ZM848.75 444.156C847.583 444.156 846.604 444.583 845.812 445.438C845.021 446.281 844.531 447.469 844.344 449H852.812V448.781C852.729 447.312 852.333 446.177 851.625 445.375C850.917 444.562 849.958 444.156 848.75 444.156ZM873.375 450.734C873.375 453.318 872.781 455.396 871.594 456.969C870.406 458.531 868.812 459.312 866.812 459.312C864.677 459.312 863.026 458.557 861.859 457.047L861.719 459H859.062V435H861.953V443.953C863.12 442.505 864.729 441.781 866.781 441.781C868.833 441.781 870.443 442.557 871.609 444.109C872.786 445.661 873.375 447.786 873.375 450.484V450.734ZM870.484 450.406C870.484 448.438 870.104 446.917 869.344 445.844C868.583 444.771 867.49 444.234 866.062 444.234C864.156 444.234 862.786 445.12 861.953 446.891V454.203C862.839 455.974 864.219 456.859 866.094 456.859C867.479 456.859 868.557 456.323 869.328 455.25C870.099 454.177 870.484 452.562 870.484 450.406ZM887.469 459C887.302 458.667 887.167 458.073 887.062 457.219C885.719 458.615 884.115 459.312 882.25 459.312C880.583 459.312 879.214 458.844 878.141 457.906C877.078 456.958 876.547 455.76 876.547 454.312C876.547 452.552 877.214 451.188 878.547 450.219C879.891 449.24 881.776 448.75 884.203 448.75H887.016V447.422C887.016 446.411 886.714 445.609 886.109 445.016C885.505 444.411 884.615 444.109 883.438 444.109C882.406 444.109 881.542 444.37 880.844 444.891C880.146 445.411 879.797 446.042 879.797 446.781H876.891C876.891 445.938 877.188 445.125 877.781 444.344C878.385 443.552 879.198 442.927 880.219 442.469C881.25 442.01 882.38 441.781 883.609 441.781C885.557 441.781 887.083 442.271 888.188 443.25C889.292 444.219 889.865 445.557 889.906 447.266V455.047C889.906 456.599 890.104 457.833 890.5 458.75V459H887.469ZM882.672 456.797C883.578 456.797 884.438 456.562 885.25 456.094C886.062 455.625 886.651 455.016 887.016 454.266V450.797H884.75C881.208 450.797 879.438 451.833 879.438 453.906C879.438 454.812 879.74 455.521 880.344 456.031C880.948 456.542 881.724 456.797 882.672 456.797ZM902.609 444.688C902.172 444.615 901.698 444.578 901.188 444.578C899.292 444.578 898.005 445.385 897.328 447V459H894.438V442.094H897.25L897.297 444.047C898.245 442.536 899.589 441.781 901.328 441.781C901.891 441.781 902.318 441.854 902.609 442V444.688Z" fill="black"/>
<path d="M618.188 189.953H608.641V200H605.641V177.25H619.734V179.719H608.641V187.5H618.188V189.953ZM621.766 191.391C621.766 189.734 622.089 188.245 622.734 186.922C623.391 185.599 624.297 184.578 625.453 183.859C626.62 183.141 627.948 182.781 629.438 182.781C631.74 182.781 633.599 183.578 635.016 185.172C636.443 186.766 637.156 188.885 637.156 191.531V191.734C637.156 193.38 636.839 194.859 636.203 196.172C635.578 197.474 634.677 198.49 633.5 199.219C632.333 199.948 630.99 200.312 629.469 200.312C627.177 200.312 625.318 199.516 623.891 197.922C622.474 196.328 621.766 194.219 621.766 191.594V191.391ZM624.672 191.734C624.672 193.609 625.104 195.115 625.969 196.25C626.844 197.385 628.01 197.953 629.469 197.953C630.938 197.953 632.104 197.38 632.969 196.234C633.833 195.078 634.266 193.464 634.266 191.391C634.266 189.536 633.823 188.036 632.938 186.891C632.062 185.734 630.896 185.156 629.438 185.156C628.01 185.156 626.859 185.724 625.984 186.859C625.109 187.995 624.672 189.62 624.672 191.734ZM648.953 185.688C648.516 185.615 648.042 185.578 647.531 185.578C645.635 185.578 644.349 186.385 643.672 188V200H640.781V183.094H643.594L643.641 185.047C644.589 183.536 645.932 182.781 647.672 182.781C648.234 182.781 648.661 182.854 648.953 183V185.688ZM666.344 197.953C667.375 197.953 668.276 197.641 669.047 197.016C669.818 196.391 670.245 195.609 670.328 194.672H673.062C673.01 195.641 672.677 196.562 672.062 197.438C671.448 198.312 670.625 199.01 669.594 199.531C668.573 200.052 667.49 200.312 666.344 200.312C664.042 200.312 662.208 199.547 660.844 198.016C659.49 196.474 658.812 194.37 658.812 191.703V191.219C658.812 189.573 659.115 188.109 659.719 186.828C660.323 185.547 661.188 184.552 662.312 183.844C663.448 183.135 664.786 182.781 666.328 182.781C668.224 182.781 669.797 183.349 671.047 184.484C672.307 185.62 672.979 187.094 673.062 188.906H670.328C670.245 187.812 669.828 186.917 669.078 186.219C668.339 185.51 667.422 185.156 666.328 185.156C664.859 185.156 663.719 185.688 662.906 186.75C662.104 187.802 661.703 189.328 661.703 191.328V191.875C661.703 193.823 662.104 195.323 662.906 196.375C663.708 197.427 664.854 197.953 666.344 197.953ZM675.547 191.391C675.547 189.734 675.87 188.245 676.516 186.922C677.172 185.599 678.078 184.578 679.234 183.859C680.401 183.141 681.729 182.781 683.219 182.781C685.521 182.781 687.38 183.578 688.797 185.172C690.224 186.766 690.938 188.885 690.938 191.531V191.734C690.938 193.38 690.62 194.859 689.984 196.172C689.359 197.474 688.458 198.49 687.281 199.219C686.115 199.948 684.771 200.312 683.25 200.312C680.958 200.312 679.099 199.516 677.672 197.922C676.255 196.328 675.547 194.219 675.547 191.594V191.391ZM678.453 191.734C678.453 193.609 678.885 195.115 679.75 196.25C680.625 197.385 681.792 197.953 683.25 197.953C684.719 197.953 685.885 197.38 686.75 196.234C687.615 195.078 688.047 193.464 688.047 191.391C688.047 189.536 687.604 188.036 686.719 186.891C685.844 185.734 684.677 185.156 683.219 185.156C681.792 185.156 680.641 185.724 679.766 186.859C678.891 187.995 678.453 189.62 678.453 191.734ZM697.281 183.094L697.359 184.969C698.599 183.51 700.271 182.781 702.375 182.781C704.74 182.781 706.349 183.688 707.203 185.5C707.766 184.688 708.495 184.031 709.391 183.531C710.297 183.031 711.365 182.781 712.594 182.781C716.302 182.781 718.188 184.745 718.25 188.672V200H715.359V188.844C715.359 187.635 715.083 186.734 714.531 186.141C713.979 185.536 713.052 185.234 711.75 185.234C710.677 185.234 709.786 185.557 709.078 186.203C708.37 186.839 707.958 187.698 707.844 188.781V200H704.938V188.922C704.938 186.464 703.734 185.234 701.328 185.234C699.432 185.234 698.135 186.042 697.438 187.656V200H694.547V183.094H697.281ZM725.344 183.094L725.422 184.969C726.661 183.51 728.333 182.781 730.438 182.781C732.802 182.781 734.411 183.688 735.266 185.5C735.828 184.688 736.557 184.031 737.453 183.531C738.359 183.031 739.427 182.781 740.656 182.781C744.365 182.781 746.25 184.745 746.312 188.672V200H743.422V188.844C743.422 187.635 743.146 186.734 742.594 186.141C742.042 185.536 741.115 185.234 739.812 185.234C738.74 185.234 737.849 185.557 737.141 186.203C736.432 186.839 736.021 187.698 735.906 188.781V200H733V188.922C733 186.464 731.797 185.234 729.391 185.234C727.495 185.234 726.198 186.042 725.5 187.656V200H722.609V183.094H725.344ZM757.703 200.312C755.411 200.312 753.547 199.562 752.109 198.062C750.672 196.552 749.953 194.536 749.953 192.016V191.484C749.953 189.807 750.271 188.312 750.906 187C751.552 185.677 752.448 184.646 753.594 183.906C754.75 183.156 756 182.781 757.344 182.781C759.542 182.781 761.25 183.505 762.469 184.953C763.688 186.401 764.297 188.474 764.297 191.172V192.375H752.844C752.885 194.042 753.37 195.391 754.297 196.422C755.234 197.443 756.422 197.953 757.859 197.953C758.88 197.953 759.745 197.745 760.453 197.328C761.161 196.911 761.781 196.359 762.312 195.672L764.078 197.047C762.661 199.224 760.536 200.312 757.703 200.312ZM757.344 185.156C756.177 185.156 755.198 185.583 754.406 186.438C753.615 187.281 753.125 188.469 752.938 190H761.406V189.781C761.323 188.312 760.927 187.177 760.219 186.375C759.51 185.562 758.552 185.156 757.344 185.156ZM770.391 183.094L770.484 185.219C771.776 183.594 773.464 182.781 775.547 182.781C779.12 182.781 780.922 184.797 780.953 188.828V200H778.062V188.812C778.052 187.594 777.771 186.693 777.219 186.109C776.677 185.526 775.828 185.234 774.672 185.234C773.734 185.234 772.911 185.484 772.203 185.984C771.495 186.484 770.943 187.141 770.547 187.953V200H767.656V183.094H770.391ZM789.234 179V183.094H792.391V185.328H789.234V195.812C789.234 196.49 789.375 197 789.656 197.344C789.938 197.677 790.417 197.844 791.094 197.844C791.427 197.844 791.885 197.781 792.469 197.656V200C791.708 200.208 790.969 200.312 790.25 200.312C788.958 200.312 787.984 199.922 787.328 199.141C786.672 198.359 786.344 197.25 786.344 195.812V185.328H783.266V183.094H786.344V179H789.234ZM802.953 191.391C802.953 189.734 803.276 188.245 803.922 186.922C804.578 185.599 805.484 184.578 806.641 183.859C807.807 183.141 809.135 182.781 810.625 182.781C812.927 182.781 814.786 183.578 816.203 185.172C817.63 186.766 818.344 188.885 818.344 191.531V191.734C818.344 193.38 818.026 194.859 817.391 196.172C816.766 197.474 815.865 198.49 814.688 199.219C813.521 199.948 812.177 200.312 810.656 200.312C808.365 200.312 806.505 199.516 805.078 197.922C803.661 196.328 802.953 194.219 802.953 191.594V191.391ZM805.859 191.734C805.859 193.609 806.292 195.115 807.156 196.25C808.031 197.385 809.198 197.953 810.656 197.953C812.125 197.953 813.292 197.38 814.156 196.234C815.021 195.078 815.453 193.464 815.453 191.391C815.453 189.536 815.01 188.036 814.125 186.891C813.25 185.734 812.083 185.156 810.625 185.156C809.198 185.156 808.047 185.724 807.172 186.859C806.297 187.995 805.859 189.62 805.859 191.734ZM832.406 198.328C831.281 199.651 829.63 200.312 827.453 200.312C825.651 200.312 824.276 199.792 823.328 198.75C822.391 197.698 821.917 196.146 821.906 194.094V183.094H824.797V194.016C824.797 196.578 825.839 197.859 827.922 197.859C830.13 197.859 831.599 197.036 832.328 195.391V183.094H835.219V200H832.469L832.406 198.328ZM843.547 179V183.094H846.703V185.328H843.547V195.812C843.547 196.49 843.688 197 843.969 197.344C844.25 197.677 844.729 197.844 845.406 197.844C845.74 197.844 846.198 197.781 846.781 197.656V200C846.021 200.208 845.281 200.312 844.562 200.312C843.271 200.312 842.297 199.922 841.641 199.141C840.984 198.359 840.656 197.25 840.656 195.812V185.328H837.578V183.094H840.656V179H843.547Z" fill="black"/>
<path d="M392.059 311.759H398.738V315.661H392.059V323.272H387.91V315.661H381.195V311.759H387.91V304.639H392.059V311.759Z" fill="black"/>
<g filter="url(#filter8_dd)">
<rect x="272" y="292" width="85.3548" height="45.8387" rx="5" fill="#FFFCFC"/>
</g>
<path d="M306.553 328.839C306.365 328.475 306.201 327.884 306.061 327.063C304.701 328.481 303.037 329.19 301.068 329.19C299.158 329.19 297.6 328.645 296.393 327.555C295.186 326.466 294.582 325.118 294.582 323.512C294.582 321.485 295.332 319.932 296.832 318.854C298.344 317.764 300.5 317.219 303.301 317.219H305.92V315.971C305.92 314.987 305.645 314.202 305.094 313.616C304.543 313.018 303.705 312.719 302.58 312.719C301.607 312.719 300.811 312.966 300.189 313.458C299.568 313.938 299.258 314.553 299.258 315.303H294.986C294.986 314.26 295.332 313.288 296.023 312.385C296.715 311.471 297.652 310.757 298.836 310.241C300.031 309.725 301.361 309.468 302.826 309.468C305.053 309.468 306.828 310.03 308.152 311.155C309.477 312.268 310.156 313.839 310.191 315.866V324.444C310.191 326.155 310.432 327.52 310.912 328.54V328.839H306.553ZM301.859 325.762C302.703 325.762 303.494 325.557 304.232 325.147C304.982 324.737 305.545 324.186 305.92 323.495V319.909H303.617C302.035 319.909 300.846 320.184 300.049 320.735C299.252 321.286 298.854 322.065 298.854 323.073C298.854 323.893 299.123 324.55 299.662 325.042C300.213 325.522 300.945 325.762 301.859 325.762ZM319.209 328.839H314.938V301.839H319.209V328.839ZM329.229 305.196V309.819H332.586V312.983H329.229V323.6C329.229 324.327 329.369 324.854 329.65 325.182C329.943 325.499 330.459 325.657 331.197 325.657C331.689 325.657 332.188 325.598 332.691 325.481V328.786C331.719 329.055 330.781 329.19 329.879 329.19C326.598 329.19 324.957 327.38 324.957 323.759V312.983H321.828V309.819H324.957V305.196H329.229Z" fill="#4200FF"/>
<g clip-path="url(#clip3)">
<path d="M543.94 320.529H530.78H503.803V307.191L543.94 306.489V295.959L568.237 313.509L543.94 331.059V320.529ZM548.8 304.734V309.999H522.462V317.019H548.8V322.284L560.948 313.509L548.8 304.734Z" fill="black"/>
</g>
<path d="M609.516 303.25L616.953 321.812L624.391 303.25H628.281V326H625.281V317.141L625.562 307.578L618.094 326H615.797L608.344 307.625L608.641 317.141V326H605.641V303.25H609.516ZM643.562 324.328C642.438 325.651 640.786 326.312 638.609 326.312C636.807 326.312 635.432 325.792 634.484 324.75C633.547 323.698 633.073 322.146 633.062 320.094V309.094H635.953V320.016C635.953 322.578 636.995 323.859 639.078 323.859C641.286 323.859 642.755 323.036 643.484 321.391V309.094H646.375V326H643.625L643.562 324.328ZM653.922 326H651.031V302H653.922V326ZM662.484 305V309.094H665.641V311.328H662.484V321.812C662.484 322.49 662.625 323 662.906 323.344C663.188 323.677 663.667 323.844 664.344 323.844C664.677 323.844 665.135 323.781 665.719 323.656V326C664.958 326.208 664.219 326.312 663.5 326.312C662.208 326.312 661.234 325.922 660.578 325.141C659.922 324.359 659.594 323.25 659.594 321.812V311.328H656.516V309.094H659.594V305H662.484ZM672.172 326H669.281V309.094H672.172V326ZM669.047 304.609C669.047 304.141 669.188 303.745 669.469 303.422C669.76 303.099 670.188 302.938 670.75 302.938C671.312 302.938 671.74 303.099 672.031 303.422C672.323 303.745 672.469 304.141 672.469 304.609C672.469 305.078 672.323 305.469 672.031 305.781C671.74 306.094 671.312 306.25 670.75 306.25C670.188 306.25 669.76 306.094 669.469 305.781C669.188 305.469 669.047 305.078 669.047 304.609ZM683.594 323.953C684.625 323.953 685.526 323.641 686.297 323.016C687.068 322.391 687.495 321.609 687.578 320.672H690.312C690.26 321.641 689.927 322.562 689.312 323.438C688.698 324.312 687.875 325.01 686.844 325.531C685.823 326.052 684.74 326.312 683.594 326.312C681.292 326.312 679.458 325.547 678.094 324.016C676.74 322.474 676.062 320.37 676.062 317.703V317.219C676.062 315.573 676.365 314.109 676.969 312.828C677.573 311.547 678.438 310.552 679.562 309.844C680.698 309.135 682.036 308.781 683.578 308.781C685.474 308.781 687.047 309.349 688.297 310.484C689.557 311.62 690.229 313.094 690.312 314.906H687.578C687.495 313.812 687.078 312.917 686.328 312.219C685.589 311.51 684.672 311.156 683.578 311.156C682.109 311.156 680.969 311.688 680.156 312.75C679.354 313.802 678.953 315.328 678.953 317.328V317.875C678.953 319.823 679.354 321.323 680.156 322.375C680.958 323.427 682.104 323.953 683.594 323.953ZM704 324.328C702.875 325.651 701.224 326.312 699.047 326.312C697.245 326.312 695.87 325.792 694.922 324.75C693.984 323.698 693.51 322.146 693.5 320.094V309.094H696.391V320.016C696.391 322.578 697.432 323.859 699.516 323.859C701.724 323.859 703.193 323.036 703.922 321.391V309.094H706.812V326H704.062L704 324.328ZM719.391 311.688C718.953 311.615 718.479 311.578 717.969 311.578C716.073 311.578 714.786 312.385 714.109 314V326H711.219V309.094H714.031L714.078 311.047C715.026 309.536 716.37 308.781 718.109 308.781C718.672 308.781 719.099 308.854 719.391 309V311.688ZM731.906 321.516C731.906 320.734 731.609 320.13 731.016 319.703C730.432 319.266 729.406 318.891 727.938 318.578C726.479 318.266 725.318 317.891 724.453 317.453C723.599 317.016 722.964 316.495 722.547 315.891C722.141 315.286 721.938 314.568 721.938 313.734C721.938 312.349 722.521 311.177 723.688 310.219C724.865 309.26 726.365 308.781 728.188 308.781C730.104 308.781 731.656 309.276 732.844 310.266C734.042 311.255 734.641 312.521 734.641 314.062H731.734C731.734 313.271 731.396 312.589 730.719 312.016C730.052 311.443 729.208 311.156 728.188 311.156C727.135 311.156 726.312 311.385 725.719 311.844C725.125 312.302 724.828 312.901 724.828 313.641C724.828 314.339 725.104 314.865 725.656 315.219C726.208 315.573 727.203 315.911 728.641 316.234C730.089 316.557 731.26 316.943 732.156 317.391C733.052 317.839 733.714 318.38 734.141 319.016C734.578 319.641 734.797 320.406 734.797 321.312C734.797 322.823 734.193 324.036 732.984 324.953C731.776 325.859 730.208 326.312 728.281 326.312C726.927 326.312 725.729 326.073 724.688 325.594C723.646 325.115 722.828 324.448 722.234 323.594C721.651 322.729 721.359 321.797 721.359 320.797H724.25C724.302 321.766 724.688 322.536 725.406 323.109C726.135 323.672 727.094 323.953 728.281 323.953C729.375 323.953 730.25 323.734 730.906 323.297C731.573 322.849 731.906 322.255 731.906 321.516ZM737.797 317.391C737.797 315.734 738.12 314.245 738.766 312.922C739.422 311.599 740.328 310.578 741.484 309.859C742.651 309.141 743.979 308.781 745.469 308.781C747.771 308.781 749.63 309.578 751.047 311.172C752.474 312.766 753.188 314.885 753.188 317.531V317.734C753.188 319.38 752.87 320.859 752.234 322.172C751.609 323.474 750.708 324.49 749.531 325.219C748.365 325.948 747.021 326.312 745.5 326.312C743.208 326.312 741.349 325.516 739.922 323.922C738.505 322.328 737.797 320.219 737.797 317.594V317.391ZM740.703 317.734C740.703 319.609 741.135 321.115 742 322.25C742.875 323.385 744.042 323.953 745.5 323.953C746.969 323.953 748.135 323.38 749 322.234C749.865 321.078 750.297 319.464 750.297 317.391C750.297 315.536 749.854 314.036 748.969 312.891C748.094 311.734 746.927 311.156 745.469 311.156C744.042 311.156 742.891 311.724 742.016 312.859C741.141 313.995 740.703 315.62 740.703 317.734ZM764.984 311.688C764.547 311.615 764.073 311.578 763.562 311.578C761.667 311.578 760.38 312.385 759.703 314V326H756.812V309.094H759.625L759.672 311.047C760.62 309.536 761.964 308.781 763.703 308.781C764.266 308.781 764.693 308.854 764.984 309V311.688ZM790.562 322.016L793.812 309.094H796.703L791.781 326H789.438L785.328 313.188L781.328 326H778.984L774.078 309.094H776.953L780.281 321.75L784.219 309.094H786.547L790.562 322.016ZM802.797 326H799.906V309.094H802.797V326ZM799.672 304.609C799.672 304.141 799.812 303.745 800.094 303.422C800.385 303.099 800.812 302.938 801.375 302.938C801.938 302.938 802.365 303.099 802.656 303.422C802.948 303.745 803.094 304.141 803.094 304.609C803.094 305.078 802.948 305.469 802.656 305.781C802.365 306.094 801.938 306.25 801.375 306.25C800.812 306.25 800.385 306.094 800.094 305.781C799.812 305.469 799.672 305.078 799.672 304.609ZM811.359 305V309.094H814.516V311.328H811.359V321.812C811.359 322.49 811.5 323 811.781 323.344C812.062 323.677 812.542 323.844 813.219 323.844C813.552 323.844 814.01 323.781 814.594 323.656V326C813.833 326.208 813.094 326.312 812.375 326.312C811.083 326.312 810.109 325.922 809.453 325.141C808.797 324.359 808.469 323.25 808.469 321.812V311.328H805.391V309.094H808.469V305H811.359ZM820.797 311.141C822.078 309.568 823.745 308.781 825.797 308.781C829.37 308.781 831.172 310.797 831.203 314.828V326H828.312V314.812C828.302 313.594 828.021 312.693 827.469 312.109C826.927 311.526 826.078 311.234 824.922 311.234C823.984 311.234 823.161 311.484 822.453 311.984C821.745 312.484 821.193 313.141 820.797 313.953V326H817.906V302H820.797V311.141ZM848.188 318.172L846.375 320.062V326H843.484V302H846.375V316.516L847.922 314.656L853.188 309.094H856.703L850.125 316.156L857.469 326H854.078L848.188 318.172ZM866.391 326.312C864.099 326.312 862.234 325.562 860.797 324.062C859.359 322.552 858.641 320.536 858.641 318.016V317.484C858.641 315.807 858.958 314.312 859.594 313C860.24 311.677 861.135 310.646 862.281 309.906C863.438 309.156 864.688 308.781 866.031 308.781C868.229 308.781 869.938 309.505 871.156 310.953C872.375 312.401 872.984 314.474 872.984 317.172V318.375H861.531C861.573 320.042 862.057 321.391 862.984 322.422C863.922 323.443 865.109 323.953 866.547 323.953C867.568 323.953 868.432 323.745 869.141 323.328C869.849 322.911 870.469 322.359 871 321.672L872.766 323.047C871.349 325.224 869.224 326.312 866.391 326.312ZM866.031 311.156C864.865 311.156 863.885 311.583 863.094 312.438C862.302 313.281 861.812 314.469 861.625 316H870.094V315.781C870.01 314.312 869.615 313.177 868.906 312.375C868.198 311.562 867.24 311.156 866.031 311.156ZM881.656 321.766L885.594 309.094H888.688L881.891 328.609C880.839 331.422 879.167 332.828 876.875 332.828L876.328 332.781L875.25 332.578V330.234L876.031 330.297C877.01 330.297 877.771 330.099 878.312 329.703C878.865 329.307 879.318 328.583 879.672 327.531L880.312 325.812L874.281 309.094H877.438L881.656 321.766ZM905.594 317.734C905.594 320.318 905 322.396 903.812 323.969C902.625 325.531 901.031 326.312 899.031 326.312C896.896 326.312 895.245 325.557 894.078 324.047L893.938 326H891.281V302H894.172V310.953C895.339 309.505 896.948 308.781 899 308.781C901.052 308.781 902.661 309.557 903.828 311.109C905.005 312.661 905.594 314.786 905.594 317.484V317.734ZM902.703 317.406C902.703 315.438 902.323 313.917 901.562 312.844C900.802 311.771 899.708 311.234 898.281 311.234C896.375 311.234 895.005 312.12 894.172 313.891V321.203C895.057 322.974 896.438 323.859 898.312 323.859C899.698 323.859 900.776 323.323 901.547 322.25C902.318 321.177 902.703 319.562 902.703 317.406ZM908.484 317.391C908.484 315.734 908.807 314.245 909.453 312.922C910.109 311.599 911.016 310.578 912.172 309.859C913.339 309.141 914.667 308.781 916.156 308.781C918.458 308.781 920.318 309.578 921.734 311.172C923.161 312.766 923.875 314.885 923.875 317.531V317.734C923.875 319.38 923.557 320.859 922.922 322.172C922.297 323.474 921.396 324.49 920.219 325.219C919.052 325.948 917.708 326.312 916.188 326.312C913.896 326.312 912.036 325.516 910.609 323.922C909.193 322.328 908.484 320.219 908.484 317.594V317.391ZM911.391 317.734C911.391 319.609 911.823 321.115 912.688 322.25C913.562 323.385 914.729 323.953 916.188 323.953C917.656 323.953 918.823 323.38 919.688 322.234C920.552 321.078 920.984 319.464 920.984 317.391C920.984 315.536 920.542 314.036 919.656 312.891C918.781 311.734 917.615 311.156 916.156 311.156C914.729 311.156 913.578 311.724 912.703 312.859C911.828 313.995 911.391 315.62 911.391 317.734ZM937.938 326C937.771 325.667 937.635 325.073 937.531 324.219C936.188 325.615 934.583 326.312 932.719 326.312C931.052 326.312 929.682 325.844 928.609 324.906C927.547 323.958 927.016 322.76 927.016 321.312C927.016 319.552 927.682 318.188 929.016 317.219C930.359 316.24 932.245 315.75 934.672 315.75H937.484V314.422C937.484 313.411 937.182 312.609 936.578 312.016C935.974 311.411 935.083 311.109 933.906 311.109C932.875 311.109 932.01 311.37 931.312 311.891C930.615 312.411 930.266 313.042 930.266 313.781H927.359C927.359 312.938 927.656 312.125 928.25 311.344C928.854 310.552 929.667 309.927 930.688 309.469C931.719 309.01 932.849 308.781 934.078 308.781C936.026 308.781 937.552 309.271 938.656 310.25C939.76 311.219 940.333 312.557 940.375 314.266V322.047C940.375 323.599 940.573 324.833 940.969 325.75V326H937.938ZM933.141 323.797C934.047 323.797 934.906 323.562 935.719 323.094C936.531 322.625 937.12 322.016 937.484 321.266V317.797H935.219C931.677 317.797 929.906 318.833 929.906 320.906C929.906 321.812 930.208 322.521 930.812 323.031C931.417 323.542 932.193 323.797 933.141 323.797ZM953.078 311.688C952.641 311.615 952.167 311.578 951.656 311.578C949.76 311.578 948.474 312.385 947.797 314V326H944.906V309.094H947.719L947.766 311.047C948.714 309.536 950.057 308.781 951.797 308.781C952.359 308.781 952.786 308.854 953.078 309V311.688ZM954.734 317.406C954.734 314.812 955.349 312.729 956.578 311.156C957.807 309.573 959.417 308.781 961.406 308.781C963.385 308.781 964.953 309.458 966.109 310.812V302H969V326H966.344L966.203 324.188C965.047 325.604 963.438 326.312 961.375 326.312C959.417 326.312 957.818 325.51 956.578 323.906C955.349 322.302 954.734 320.208 954.734 317.625V317.406ZM957.625 317.734C957.625 319.651 958.021 321.151 958.812 322.234C959.604 323.318 960.698 323.859 962.094 323.859C963.927 323.859 965.266 323.036 966.109 321.391V313.625C965.245 312.031 963.917 311.234 962.125 311.234C960.708 311.234 959.604 311.781 958.812 312.875C958.021 313.969 957.625 315.589 957.625 317.734Z" fill="black"/>
<g filter="url(#filter9_dd)">
<rect x="419" y="271" width="50" height="45.8387" rx="5" fill="#FFFCFC"/>
</g>
<g filter="url(#filter10_dd)">
<rect x="419" y="335.161" width="50" height="45.8387" rx="5" fill="#FFFCFC"/>
</g>
<path d="M443.5 279.161L430 290.161M443.5 279.161L456 290.161M443.5 279.161V309.661" stroke="#4200FF" stroke-width="4"/>
<path d="M442.5 373.661L456 362.661M442.5 373.661L430 362.661M442.5 373.661V343.161" stroke="#4200FF" stroke-width="4"/>
<path d="M242.059 560.92H248.738V564.822H242.059V572.434H237.91V564.822H231.195V560.92H237.91V553.801H242.059V560.92Z" fill="black"/>
<path d="M400.777 561.271H407.914V564.348H400.777V572.434H397.508V564.348H390.371V561.271H397.508V553.801H400.777V561.271Z" fill="black"/>
<g filter="url(#filter11_dd)">
<rect x="105" y="542" width="93.2036" height="45.8387" rx="5" fill="#FFFCFC"/>
</g>
<path d="M132.554 574.78C133.62 574.78 134.505 574.469 135.208 573.848C135.911 573.227 136.286 572.46 136.333 571.546H140.358C140.312 572.729 139.942 573.837 139.251 574.868C138.56 575.887 137.622 576.696 136.438 577.294C135.255 577.891 133.978 578.19 132.606 578.19C129.946 578.19 127.837 577.329 126.278 575.606C124.72 573.884 123.94 571.505 123.94 568.469V568.03C123.94 565.135 124.714 562.821 126.261 561.087C127.808 559.341 129.917 558.468 132.589 558.468C134.851 558.468 136.69 559.13 138.108 560.454C139.538 561.766 140.288 563.495 140.358 565.639H136.333C136.286 564.55 135.911 563.653 135.208 562.95C134.517 562.247 133.632 561.895 132.554 561.895C131.171 561.895 130.104 562.399 129.354 563.407C128.604 564.403 128.224 565.921 128.212 567.96V568.645C128.212 570.708 128.581 572.249 129.319 573.268C130.069 574.276 131.147 574.78 132.554 574.78ZM148.937 554.196V558.819H152.294V561.983H148.937V572.6C148.937 573.327 149.077 573.854 149.358 574.182C149.651 574.499 150.167 574.657 150.905 574.657C151.397 574.657 151.896 574.598 152.399 574.481V577.786C151.427 578.055 150.489 578.19 149.587 578.19C146.306 578.19 144.665 576.38 144.665 572.759V561.983H141.536V558.819H144.665V554.196H148.937ZM165.53 562.721C164.968 562.628 164.388 562.581 163.79 562.581C161.833 562.581 160.515 563.331 159.835 564.831V577.839H155.563V558.819H159.642L159.747 560.946C160.778 559.294 162.208 558.468 164.036 558.468C164.646 558.468 165.149 558.55 165.548 558.714L165.53 562.721ZM172.772 577.839H168.501V550.839H172.772V577.839Z" fill="#4200FF"/>
<g filter="url(#filter12_dd)">
<rect x="272" y="543" width="103.119" height="45.8387" rx="5" fill="#FFFCFC"/>
</g>
<path d="M297.992 572.671C297.992 571.909 297.676 571.329 297.043 570.93C296.422 570.532 295.385 570.18 293.931 569.876C292.478 569.571 291.265 569.184 290.293 568.716C288.16 567.684 287.094 566.19 287.094 564.233C287.094 562.593 287.785 561.221 289.168 560.12C290.551 559.018 292.308 558.468 294.441 558.468C296.715 558.468 298.549 559.03 299.943 560.155C301.349 561.28 302.052 562.739 302.052 564.532H297.781C297.781 563.712 297.476 563.032 296.867 562.493C296.258 561.942 295.449 561.667 294.441 561.667C293.504 561.667 292.736 561.884 292.138 562.317C291.552 562.751 291.26 563.331 291.26 564.057C291.26 564.714 291.535 565.223 292.086 565.587C292.636 565.95 293.75 566.319 295.426 566.694C297.101 567.057 298.414 567.497 299.363 568.012C300.324 568.516 301.033 569.126 301.49 569.841C301.959 570.555 302.193 571.423 302.193 572.442C302.193 574.153 301.484 575.542 300.066 576.608C298.648 577.663 296.791 578.19 294.494 578.19C292.935 578.19 291.547 577.909 290.328 577.346C289.109 576.784 288.16 576.01 287.48 575.026C286.801 574.042 286.461 572.981 286.461 571.844H290.609C290.668 572.852 291.049 573.632 291.752 574.182C292.455 574.721 293.386 574.991 294.547 574.991C295.672 574.991 296.527 574.78 297.113 574.358C297.699 573.925 297.992 573.362 297.992 572.671ZM310.138 560.893C311.533 559.276 313.297 558.468 315.429 558.468C319.484 558.468 321.541 560.782 321.599 565.411V577.839H317.328V565.569C317.328 564.257 317.041 563.331 316.467 562.792C315.904 562.241 315.072 561.966 313.97 561.966C312.26 561.966 310.982 562.727 310.138 564.251V577.839H305.867V550.839H310.138V560.893ZM330.476 577.839H326.205V558.819H330.476V577.839ZM325.941 553.88C325.941 553.223 326.146 552.678 326.556 552.245C326.978 551.811 327.576 551.594 328.349 551.594C329.123 551.594 329.72 551.811 330.142 552.245C330.564 552.678 330.775 553.223 330.775 553.88C330.775 554.524 330.564 555.063 330.142 555.497C329.72 555.919 329.123 556.13 328.349 556.13C327.576 556.13 326.978 555.919 326.556 555.497C326.146 555.063 325.941 554.524 325.941 553.88ZM336.646 577.839V561.983H333.746V558.819H336.646V557.079C336.646 554.969 337.232 553.341 338.404 552.192C339.576 551.044 341.217 550.469 343.326 550.469C344.076 550.469 344.873 550.575 345.717 550.786L345.611 554.126C345.142 554.032 344.597 553.985 343.976 553.985C341.937 553.985 340.918 555.034 340.918 557.132V558.819H344.785V561.983H340.918V577.839H336.646ZM353.258 554.196V558.819H356.615V561.983H353.258V572.6C353.258 573.327 353.398 573.854 353.679 574.182C353.972 574.499 354.488 574.657 355.226 574.657C355.719 574.657 356.217 574.598 356.72 574.481V577.786C355.748 578.055 354.81 578.19 353.908 578.19C350.627 578.19 348.986 576.38 348.986 572.759V561.983H345.857V558.819H348.986V554.196H353.258Z" fill="#4200FF"/>
<g clip-path="url(#clip4)">
<path d="M543.94 571.69H530.78H503.803V558.352L543.94 557.65V547.12L568.237 564.67L543.94 582.22V571.69ZM548.8 555.895V561.16H522.462V568.18H548.8V573.445L560.948 564.67L548.8 555.895Z" fill="black"/>
</g>
<path d="M623.141 567.359C623.141 569.589 622.766 571.536 622.016 573.203C621.266 574.859 620.203 576.125 618.828 577C617.453 577.875 615.849 578.312 614.016 578.312C612.224 578.312 610.635 577.875 609.25 577C607.865 576.115 606.786 574.859 606.016 573.234C605.255 571.599 604.865 569.708 604.844 567.562V565.922C604.844 563.734 605.224 561.802 605.984 560.125C606.745 558.448 607.818 557.167 609.203 556.281C610.599 555.385 612.193 554.938 613.984 554.938C615.807 554.938 617.411 555.38 618.797 556.266C620.193 557.141 621.266 558.417 622.016 560.094C622.766 561.76 623.141 563.703 623.141 565.922V567.359ZM620.156 565.891C620.156 563.193 619.615 561.125 618.531 559.688C617.448 558.24 615.932 557.516 613.984 557.516C612.089 557.516 610.594 558.24 609.5 559.688C608.417 561.125 607.859 563.125 607.828 565.688V567.359C607.828 569.974 608.375 572.031 609.469 573.531C610.573 575.021 612.089 575.766 614.016 575.766C615.953 575.766 617.453 575.062 618.516 573.656C619.578 572.24 620.125 570.214 620.156 567.578V565.891ZM641.469 569.734C641.469 572.307 640.88 574.38 639.703 575.953C638.526 577.526 636.932 578.312 634.922 578.312C632.87 578.312 631.255 577.661 630.078 576.359V584.5H627.188V561.094H629.828L629.969 562.969C631.146 561.51 632.781 560.781 634.875 560.781C636.906 560.781 638.51 561.547 639.688 563.078C640.875 564.609 641.469 566.74 641.469 569.469V569.734ZM638.578 569.406C638.578 567.5 638.172 565.995 637.359 564.891C636.547 563.786 635.432 563.234 634.016 563.234C632.266 563.234 630.953 564.01 630.078 565.562V573.641C630.943 575.182 632.266 575.953 634.047 575.953C635.432 575.953 636.531 575.406 637.344 574.312C638.167 573.208 638.578 571.573 638.578 569.406ZM652.172 578.312C649.88 578.312 648.016 577.562 646.578 576.062C645.141 574.552 644.422 572.536 644.422 570.016V569.484C644.422 567.807 644.74 566.312 645.375 565C646.021 563.677 646.917 562.646 648.062 561.906C649.219 561.156 650.469 560.781 651.812 560.781C654.01 560.781 655.719 561.505 656.938 562.953C658.156 564.401 658.766 566.474 658.766 569.172V570.375H647.312C647.354 572.042 647.839 573.391 648.766 574.422C649.703 575.443 650.891 575.953 652.328 575.953C653.349 575.953 654.214 575.745 654.922 575.328C655.63 574.911 656.25 574.359 656.781 573.672L658.547 575.047C657.13 577.224 655.005 578.312 652.172 578.312ZM651.812 563.156C650.646 563.156 649.667 563.583 648.875 564.438C648.083 565.281 647.594 566.469 647.406 568H655.875V567.781C655.792 566.312 655.396 565.177 654.688 564.375C653.979 563.562 653.021 563.156 651.812 563.156ZM664.859 561.094L664.953 563.219C666.245 561.594 667.932 560.781 670.016 560.781C673.589 560.781 675.391 562.797 675.422 566.828V578H672.531V566.812C672.521 565.594 672.24 564.693 671.688 564.109C671.146 563.526 670.297 563.234 669.141 563.234C668.203 563.234 667.38 563.484 666.672 563.984C665.964 564.484 665.411 565.141 665.016 565.953V578H662.125V561.094H664.859ZM694.5 575.953C695.531 575.953 696.432 575.641 697.203 575.016C697.974 574.391 698.401 573.609 698.484 572.672H701.219C701.167 573.641 700.833 574.562 700.219 575.438C699.604 576.312 698.781 577.01 697.75 577.531C696.729 578.052 695.646 578.312 694.5 578.312C692.198 578.312 690.365 577.547 689 576.016C687.646 574.474 686.969 572.37 686.969 569.703V569.219C686.969 567.573 687.271 566.109 687.875 564.828C688.479 563.547 689.344 562.552 690.469 561.844C691.604 561.135 692.943 560.781 694.484 560.781C696.38 560.781 697.953 561.349 699.203 562.484C700.464 563.62 701.135 565.094 701.219 566.906H698.484C698.401 565.812 697.984 564.917 697.234 564.219C696.495 563.51 695.578 563.156 694.484 563.156C693.016 563.156 691.875 563.688 691.062 564.75C690.26 565.802 689.859 567.328 689.859 569.328V569.875C689.859 571.823 690.26 573.323 691.062 574.375C691.865 575.427 693.01 575.953 694.5 575.953ZM703.703 569.391C703.703 567.734 704.026 566.245 704.672 564.922C705.328 563.599 706.234 562.578 707.391 561.859C708.557 561.141 709.885 560.781 711.375 560.781C713.677 560.781 715.536 561.578 716.953 563.172C718.38 564.766 719.094 566.885 719.094 569.531V569.734C719.094 571.38 718.776 572.859 718.141 574.172C717.516 575.474 716.615 576.49 715.438 577.219C714.271 577.948 712.927 578.312 711.406 578.312C709.115 578.312 707.255 577.516 705.828 575.922C704.411 574.328 703.703 572.219 703.703 569.594V569.391ZM706.609 569.734C706.609 571.609 707.042 573.115 707.906 574.25C708.781 575.385 709.948 575.953 711.406 575.953C712.875 575.953 714.042 575.38 714.906 574.234C715.771 573.078 716.203 571.464 716.203 569.391C716.203 567.536 715.76 566.036 714.875 564.891C714 563.734 712.833 563.156 711.375 563.156C709.948 563.156 708.797 563.724 707.922 564.859C707.047 565.995 706.609 567.62 706.609 569.734ZM725.453 561.094L725.547 563.219C726.839 561.594 728.526 560.781 730.609 560.781C734.182 560.781 735.984 562.797 736.016 566.828V578H733.125V566.812C733.115 565.594 732.833 564.693 732.281 564.109C731.74 563.526 730.891 563.234 729.734 563.234C728.797 563.234 727.974 563.484 727.266 563.984C726.557 564.484 726.005 565.141 725.609 565.953V578H722.719V561.094H725.453ZM750.219 573.516C750.219 572.734 749.922 572.13 749.328 571.703C748.745 571.266 747.719 570.891 746.25 570.578C744.792 570.266 743.63 569.891 742.766 569.453C741.911 569.016 741.276 568.495 740.859 567.891C740.453 567.286 740.25 566.568 740.25 565.734C740.25 564.349 740.833 563.177 742 562.219C743.177 561.26 744.677 560.781 746.5 560.781C748.417 560.781 749.969 561.276 751.156 562.266C752.354 563.255 752.953 564.521 752.953 566.062H750.047C750.047 565.271 749.708 564.589 749.031 564.016C748.365 563.443 747.521 563.156 746.5 563.156C745.448 563.156 744.625 563.385 744.031 563.844C743.438 564.302 743.141 564.901 743.141 565.641C743.141 566.339 743.417 566.865 743.969 567.219C744.521 567.573 745.516 567.911 746.953 568.234C748.401 568.557 749.573 568.943 750.469 569.391C751.365 569.839 752.026 570.38 752.453 571.016C752.891 571.641 753.109 572.406 753.109 573.312C753.109 574.823 752.505 576.036 751.297 576.953C750.089 577.859 748.521 578.312 746.594 578.312C745.24 578.312 744.042 578.073 743 577.594C741.958 577.115 741.141 576.448 740.547 575.594C739.964 574.729 739.672 573.797 739.672 572.797H742.562C742.615 573.766 743 574.536 743.719 575.109C744.448 575.672 745.406 575.953 746.594 575.953C747.688 575.953 748.562 575.734 749.219 575.297C749.885 574.849 750.219 574.255 750.219 573.516ZM756.109 569.391C756.109 567.734 756.432 566.245 757.078 564.922C757.734 563.599 758.641 562.578 759.797 561.859C760.964 561.141 762.292 560.781 763.781 560.781C766.083 560.781 767.943 561.578 769.359 563.172C770.786 564.766 771.5 566.885 771.5 569.531V569.734C771.5 571.38 771.182 572.859 770.547 574.172C769.922 575.474 769.021 576.49 767.844 577.219C766.677 577.948 765.333 578.312 763.812 578.312C761.521 578.312 759.661 577.516 758.234 575.922C756.818 574.328 756.109 572.219 756.109 569.594V569.391ZM759.016 569.734C759.016 571.609 759.448 573.115 760.312 574.25C761.188 575.385 762.354 575.953 763.812 575.953C765.281 575.953 766.448 575.38 767.312 574.234C768.177 573.078 768.609 571.464 768.609 569.391C768.609 567.536 768.167 566.036 767.281 564.891C766.406 563.734 765.24 563.156 763.781 563.156C762.354 563.156 761.203 563.724 760.328 564.859C759.453 565.995 759.016 567.62 759.016 569.734ZM778.266 578H775.375V554H778.266V578ZM789.922 578.312C787.63 578.312 785.766 577.562 784.328 576.062C782.891 574.552 782.172 572.536 782.172 570.016V569.484C782.172 567.807 782.49 566.312 783.125 565C783.771 563.677 784.667 562.646 785.812 561.906C786.969 561.156 788.219 560.781 789.562 560.781C791.76 560.781 793.469 561.505 794.688 562.953C795.906 564.401 796.516 566.474 796.516 569.172V570.375H785.062C785.104 572.042 785.589 573.391 786.516 574.422C787.453 575.443 788.641 575.953 790.078 575.953C791.099 575.953 791.964 575.745 792.672 575.328C793.38 574.911 794 574.359 794.531 573.672L796.297 575.047C794.88 577.224 792.755 578.312 789.922 578.312ZM789.562 563.156C788.396 563.156 787.417 563.583 786.625 564.438C785.833 565.281 785.344 566.469 785.156 568H793.625V567.781C793.542 566.312 793.146 565.177 792.438 564.375C791.729 563.562 790.771 563.156 789.562 563.156ZM810.953 578H808.062V561.094H810.953V578ZM807.828 556.609C807.828 556.141 807.969 555.745 808.25 555.422C808.542 555.099 808.969 554.938 809.531 554.938C810.094 554.938 810.521 555.099 810.812 555.422C811.104 555.745 811.25 556.141 811.25 556.609C811.25 557.078 811.104 557.469 810.812 557.781C810.521 558.094 810.094 558.25 809.531 558.25C808.969 558.25 808.542 558.094 808.25 557.781C807.969 557.469 807.828 557.078 807.828 556.609ZM818.328 561.094L818.422 563.219C819.714 561.594 821.401 560.781 823.484 560.781C827.057 560.781 828.859 562.797 828.891 566.828V578H826V566.812C825.99 565.594 825.708 564.693 825.156 564.109C824.615 563.526 823.766 563.234 822.609 563.234C821.672 563.234 820.849 563.484 820.141 563.984C819.432 564.484 818.88 565.141 818.484 565.953V578H815.594V561.094H818.328ZM841.641 578V555.25H849.078C851.547 555.25 853.401 555.76 854.641 556.781C855.891 557.802 856.516 559.312 856.516 561.312C856.516 562.375 856.214 563.318 855.609 564.141C855.005 564.953 854.182 565.583 853.141 566.031C854.37 566.375 855.339 567.031 856.047 568C856.766 568.958 857.125 570.104 857.125 571.438C857.125 573.479 856.464 575.083 855.141 576.25C853.818 577.417 851.948 578 849.531 578H841.641ZM844.641 567.359V575.547H849.594C850.99 575.547 852.089 575.188 852.891 574.469C853.703 573.74 854.109 572.74 854.109 571.469C854.109 568.729 852.62 567.359 849.641 567.359H844.641ZM844.641 564.953H849.172C850.484 564.953 851.531 564.625 852.312 563.969C853.104 563.312 853.5 562.422 853.5 561.297C853.5 560.047 853.135 559.141 852.406 558.578C851.677 558.005 850.568 557.719 849.078 557.719H844.641V564.953ZM869.297 563.688C868.859 563.615 868.385 563.578 867.875 563.578C865.979 563.578 864.693 564.385 864.016 566V578H861.125V561.094H863.938L863.984 563.047C864.932 561.536 866.276 560.781 868.016 560.781C868.578 560.781 869.005 560.854 869.297 561V563.688ZM870.891 569.391C870.891 567.734 871.214 566.245 871.859 564.922C872.516 563.599 873.422 562.578 874.578 561.859C875.745 561.141 877.073 560.781 878.562 560.781C880.865 560.781 882.724 561.578 884.141 563.172C885.568 564.766 886.281 566.885 886.281 569.531V569.734C886.281 571.38 885.964 572.859 885.328 574.172C884.703 575.474 883.802 576.49 882.625 577.219C881.458 577.948 880.115 578.312 878.594 578.312C876.302 578.312 874.443 577.516 873.016 575.922C871.599 574.328 870.891 572.219 870.891 569.594V569.391ZM873.797 569.734C873.797 571.609 874.229 573.115 875.094 574.25C875.969 575.385 877.135 575.953 878.594 575.953C880.062 575.953 881.229 575.38 882.094 574.234C882.958 573.078 883.391 571.464 883.391 569.391C883.391 567.536 882.948 566.036 882.062 564.891C881.188 563.734 880.021 563.156 878.562 563.156C877.135 563.156 875.984 563.724 875.109 564.859C874.234 565.995 873.797 567.62 873.797 569.734ZM904.875 574.016L908.125 561.094H911.016L906.094 578H903.75L899.641 565.188L895.641 578H893.297L888.391 561.094H891.266L894.594 573.75L898.531 561.094H900.859L904.875 574.016ZM923.812 573.516C923.812 572.734 923.516 572.13 922.922 571.703C922.339 571.266 921.312 570.891 919.844 570.578C918.385 570.266 917.224 569.891 916.359 569.453C915.505 569.016 914.87 568.495 914.453 567.891C914.047 567.286 913.844 566.568 913.844 565.734C913.844 564.349 914.427 563.177 915.594 562.219C916.771 561.26 918.271 560.781 920.094 560.781C922.01 560.781 923.562 561.276 924.75 562.266C925.948 563.255 926.547 564.521 926.547 566.062H923.641C923.641 565.271 923.302 564.589 922.625 564.016C921.958 563.443 921.115 563.156 920.094 563.156C919.042 563.156 918.219 563.385 917.625 563.844C917.031 564.302 916.734 564.901 916.734 565.641C916.734 566.339 917.01 566.865 917.562 567.219C918.115 567.573 919.109 567.911 920.547 568.234C921.995 568.557 923.167 568.943 924.062 569.391C924.958 569.839 925.62 570.38 926.047 571.016C926.484 571.641 926.703 572.406 926.703 573.312C926.703 574.823 926.099 576.036 924.891 576.953C923.682 577.859 922.115 578.312 920.188 578.312C918.833 578.312 917.635 578.073 916.594 577.594C915.552 577.115 914.734 576.448 914.141 575.594C913.557 574.729 913.266 573.797 913.266 572.797H916.156C916.208 573.766 916.594 574.536 917.312 575.109C918.042 575.672 919 575.953 920.188 575.953C921.281 575.953 922.156 575.734 922.812 575.297C923.479 574.849 923.812 574.255 923.812 573.516ZM937.484 578.312C935.193 578.312 933.328 577.562 931.891 576.062C930.453 574.552 929.734 572.536 929.734 570.016V569.484C929.734 567.807 930.052 566.312 930.688 565C931.333 563.677 932.229 562.646 933.375 561.906C934.531 561.156 935.781 560.781 937.125 560.781C939.323 560.781 941.031 561.505 942.25 562.953C943.469 564.401 944.078 566.474 944.078 569.172V570.375H932.625C932.667 572.042 933.151 573.391 934.078 574.422C935.016 575.443 936.203 575.953 937.641 575.953C938.661 575.953 939.526 575.745 940.234 575.328C940.943 574.911 941.562 574.359 942.094 573.672L943.859 575.047C942.443 577.224 940.318 578.312 937.484 578.312ZM937.125 563.156C935.958 563.156 934.979 563.583 934.188 564.438C933.396 565.281 932.906 566.469 932.719 568H941.188V567.781C941.104 566.312 940.708 565.177 940 564.375C939.292 563.562 938.333 563.156 937.125 563.156ZM955.609 563.688C955.172 563.615 954.698 563.578 954.188 563.578C952.292 563.578 951.005 564.385 950.328 566V578H947.438V561.094H950.25L950.297 563.047C951.245 561.536 952.589 560.781 954.328 560.781C954.891 560.781 955.318 560.854 955.609 561V563.688Z" fill="black"/>
<defs>
<filter id="filter0_dd" x="261" y="34" width="66.9236" height="67.8386" filterUnits="userSpaceOnUse" color-interpolation-filters="sRGB">
<feFlood flood-opacity="0" result="BackgroundImageFix"/>
<feColorMatrix in="SourceAlpha" type="matrix" values="0 0 0 0 0 0 0 0 0 0 0 0 0 0 0 0 0 0 127 0" result="hardAlpha"/>
<feOffset dx="3" dy="3"/>
<feGaussianBlur stdDeviation="4"/>
<feComposite in2="hardAlpha" operator="out"/>
<feColorMatrix type="matrix" values="0 0 0 0 0 0 0 0 0 0 0 0 0 0 0 0 0 0 0.1 0"/>
<feBlend mode="normal" in2="BackgroundImageFix" result="effect1_dropShadow"/>
<feColorMatrix in="SourceAlpha" type="matrix" values="0 0 0 0 0 0 0 0 0 0 0 0 0 0 0 0 0 0 127 0" result="hardAlpha"/>
<feOffset dx="-3" dy="-3"/>
<feGaussianBlur stdDeviation="4"/>
<feComposite in2="hardAlpha" operator="out"/>
<feColorMatrix type="matrix" values="0 0 0 0 0 0 0 0 0 0 0 0 0 0 0 0 0 0 0.1 0"/>
<feBlend mode="normal" in2="effect1_dropShadow" result="effect2_dropShadow"/>
<feBlend mode="normal" in="SourceGraphic" in2="effect2_dropShadow" result="shape"/>
</filter>
<filter id="filter1_dd" x="261" y="415" width="66.9236" height="67.8386" filterUnits="userSpaceOnUse" color-interpolation-filters="sRGB">
<feFlood flood-opacity="0" result="BackgroundImageFix"/>
<feColorMatrix in="SourceAlpha" type="matrix" values="0 0 0 0 0 0 0 0 0 0 0 0 0 0 0 0 0 0 127 0" result="hardAlpha"/>
<feOffset dx="3" dy="3"/>
<feGaussianBlur stdDeviation="4"/>
<feComposite in2="hardAlpha" operator="out"/>
<feColorMatrix type="matrix" values="0 0 0 0 0 0 0 0 0 0 0 0 0 0 0 0 0 0 0.1 0"/>
<feBlend mode="normal" in2="BackgroundImageFix" result="effect1_dropShadow"/>
<feColorMatrix in="SourceAlpha" type="matrix" values="0 0 0 0 0 0 0 0 0 0 0 0 0 0 0 0 0 0 127 0" result="hardAlpha"/>
<feOffset dx="-3" dy="-3"/>
<feGaussianBlur stdDeviation="4"/>
<feComposite in2="hardAlpha" operator="out"/>
<feColorMatrix type="matrix" values="0 0 0 0 0 0 0 0 0 0 0 0 0 0 0 0 0 0 0.1 0"/>
<feBlend mode="normal" in2="effect1_dropShadow" result="effect2_dropShadow"/>
<feBlend mode="normal" in="SourceGraphic" in2="effect2_dropShadow" result="shape"/>
</filter>
<filter id="filter2_dd" x="408" y="536" width="66.9236" height="67.8386" filterUnits="userSpaceOnUse" color-interpolation-filters="sRGB">
<feFlood flood-opacity="0" result="BackgroundImageFix"/>
<feColorMatrix in="SourceAlpha" type="matrix" values="0 0 0 0 0 0 0 0 0 0 0 0 0 0 0 0 0 0 127 0" result="hardAlpha"/>
<feOffset dx="3" dy="3"/>
<feGaussianBlur stdDeviation="4"/>
<feComposite in2="hardAlpha" operator="out"/>
<feColorMatrix type="matrix" values="0 0 0 0 0 0 0 0 0 0 0 0 0 0 0 0 0 0 0.1 0"/>
<feBlend mode="normal" in2="BackgroundImageFix" result="effect1_dropShadow"/>
<feColorMatrix in="SourceAlpha" type="matrix" values="0 0 0 0 0 0 0 0 0 0 0 0 0 0 0 0 0 0 127 0" result="hardAlpha"/>
<feOffset dx="-3" dy="-3"/>
<feGaussianBlur stdDeviation="4"/>
<feComposite in2="hardAlpha" operator="out"/>
<feColorMatrix type="matrix" values="0 0 0 0 0 0 0 0 0 0 0 0 0 0 0 0 0 0 0.1 0"/>
<feBlend mode="normal" in2="effect1_dropShadow" result="effect2_dropShadow"/>
<feBlend mode="normal" in="SourceGraphic" in2="effect2_dropShadow" result="shape"/>
</filter>
<filter id="filter3_dd" x="261" y="156" width="66.9236" height="67.8386" filterUnits="userSpaceOnUse" color-interpolation-filters="sRGB">
<feFlood flood-opacity="0" result="BackgroundImageFix"/>
<feColorMatrix in="SourceAlpha" type="matrix" values="0 0 0 0 0 0 0 0 0 0 0 0 0 0 0 0 0 0 127 0" result="hardAlpha"/>
<feOffset dx="3" dy="3"/>
<feGaussianBlur stdDeviation="4"/>
<feComposite in2="hardAlpha" operator="out"/>
<feColorMatrix type="matrix" values="0 0 0 0 0 0 0 0 0 0 0 0 0 0 0 0 0 0 0.1 0"/>
<feBlend mode="normal" in2="BackgroundImageFix" result="effect1_dropShadow"/>
<feColorMatrix in="SourceAlpha" type="matrix" values="0 0 0 0 0 0 0 0 0 0 0 0 0 0 0 0 0 0 127 0" result="hardAlpha"/>
<feOffset dx="-3" dy="-3"/>
<feGaussianBlur stdDeviation="4"/>
<feComposite in2="hardAlpha" operator="out"/>
<feColorMatrix type="matrix" values="0 0 0 0 0 0 0 0 0 0 0 0 0 0 0 0 0 0 0.1 0"/>
<feBlend mode="normal" in2="effect1_dropShadow" result="effect2_dropShadow"/>
<feBlend mode="normal" in="SourceGraphic" in2="effect2_dropShadow" result="shape"/>
</filter>
<filter id="filter4_dd" x="94" y="31" width="115.204" height="67.8386" filterUnits="userSpaceOnUse" color-interpolation-filters="sRGB">
<feFlood flood-opacity="0" result="BackgroundImageFix"/>
<feColorMatrix in="SourceAlpha" type="matrix" values="0 0 0 0 0 0 0 0 0 0 0 0 0 0 0 0 0 0 127 0" result="hardAlpha"/>
<feOffset dx="3" dy="3"/>
<feGaussianBlur stdDeviation="4"/>
<feComposite in2="hardAlpha" operator="out"/>
<feColorMatrix type="matrix" values="0 0 0 0 0 0 0 0 0 0 0 0 0 0 0 0 0 0 0.1 0"/>
<feBlend mode="normal" in2="BackgroundImageFix" result="effect1_dropShadow"/>
<feColorMatrix in="SourceAlpha" type="matrix" values="0 0 0 0 0 0 0 0 0 0 0 0 0 0 0 0 0 0 127 0" result="hardAlpha"/>
<feOffset dx="-3" dy="-3"/>
<feGaussianBlur stdDeviation="4"/>
<feComposite in2="hardAlpha" operator="out"/>
<feColorMatrix type="matrix" values="0 0 0 0 0 0 0 0 0 0 0 0 0 0 0 0 0 0 0.1 0"/>
<feBlend mode="normal" in2="effect1_dropShadow" result="effect2_dropShadow"/>
<feBlend mode="normal" in="SourceGraphic" in2="effect2_dropShadow" result="shape"/>
</filter>
<filter id="filter5_dd" x="94" y="412" width="115.204" height="67.8386" filterUnits="userSpaceOnUse" color-interpolation-filters="sRGB">
<feFlood flood-opacity="0" result="BackgroundImageFix"/>
<feColorMatrix in="SourceAlpha" type="matrix" values="0 0 0 0 0 0 0 0 0 0 0 0 0 0 0 0 0 0 127 0" result="hardAlpha"/>
<feOffset dx="3" dy="3"/>
<feGaussianBlur stdDeviation="4"/>
<feComposite in2="hardAlpha" operator="out"/>
<feColorMatrix type="matrix" values="0 0 0 0 0 0 0 0 0 0 0 0 0 0 0 0 0 0 0.1 0"/>
<feBlend mode="normal" in2="BackgroundImageFix" result="effect1_dropShadow"/>
<feColorMatrix in="SourceAlpha" type="matrix" values="0 0 0 0 0 0 0 0 0 0 0 0 0 0 0 0 0 0 127 0" result="hardAlpha"/>
<feOffset dx="-3" dy="-3"/>
<feGaussianBlur stdDeviation="4"/>
<feComposite in2="hardAlpha" operator="out"/>
<feColorMatrix type="matrix" values="0 0 0 0 0 0 0 0 0 0 0 0 0 0 0 0 0 0 0.1 0"/>
<feBlend mode="normal" in2="effect1_dropShadow" result="effect2_dropShadow"/>
<feBlend mode="normal" in="SourceGraphic" in2="effect2_dropShadow" result="shape"/>
</filter>
<filter id="filter6_dd" x="94" y="153" width="115.204" height="67.8386" filterUnits="userSpaceOnUse" color-interpolation-filters="sRGB">
<feFlood flood-opacity="0" result="BackgroundImageFix"/>
<feColorMatrix in="SourceAlpha" type="matrix" values="0 0 0 0 0 0 0 0 0 0 0 0 0 0 0 0 0 0 127 0" result="hardAlpha"/>
<feOffset dx="3" dy="3"/>
<feGaussianBlur stdDeviation="4"/>
<feComposite in2="hardAlpha" operator="out"/>
<feColorMatrix type="matrix" values="0 0 0 0 0 0 0 0 0 0 0 0 0 0 0 0 0 0 0.1 0"/>
<feBlend mode="normal" in2="BackgroundImageFix" result="effect1_dropShadow"/>
<feColorMatrix in="SourceAlpha" type="matrix" values="0 0 0 0 0 0 0 0 0 0 0 0 0 0 0 0 0 0 127 0" result="hardAlpha"/>
<feOffset dx="-3" dy="-3"/>
<feGaussianBlur stdDeviation="4"/>
<feComposite in2="hardAlpha" operator="out"/>
<feColorMatrix type="matrix" values="0 0 0 0 0 0 0 0 0 0 0 0 0 0 0 0 0 0 0.1 0"/>
<feBlend mode="normal" in2="effect1_dropShadow" result="effect2_dropShadow"/>
<feBlend mode="normal" in="SourceGraphic" in2="effect2_dropShadow" result="shape"/>
</filter>
<filter id="filter7_dd" x="94" y="280" width="115.204" height="67.8386" filterUnits="userSpaceOnUse" color-interpolation-filters="sRGB">
<feFlood flood-opacity="0" result="BackgroundImageFix"/>
<feColorMatrix in="SourceAlpha" type="matrix" values="0 0 0 0 0 0 0 0 0 0 0 0 0 0 0 0 0 0 127 0" result="hardAlpha"/>
<feOffset dx="3" dy="3"/>
<feGaussianBlur stdDeviation="4"/>
<feComposite in2="hardAlpha" operator="out"/>
<feColorMatrix type="matrix" values="0 0 0 0 0 0 0 0 0 0 0 0 0 0 0 0 0 0 0.1 0"/>
<feBlend mode="normal" in2="BackgroundImageFix" result="effect1_dropShadow"/>
<feColorMatrix in="SourceAlpha" type="matrix" values="0 0 0 0 0 0 0 0 0 0 0 0 0 0 0 0 0 0 127 0" result="hardAlpha"/>
<feOffset dx="-3" dy="-3"/>
<feGaussianBlur stdDeviation="4"/>
<feComposite in2="hardAlpha" operator="out"/>
<feColorMatrix type="matrix" values="0 0 0 0 0 0 0 0 0 0 0 0 0 0 0 0 0 0 0.1 0"/>
<feBlend mode="normal" in2="effect1_dropShadow" result="effect2_dropShadow"/>
<feBlend mode="normal" in="SourceGraphic" in2="effect2_dropShadow" result="shape"/>
</filter>
<filter id="filter8_dd" x="261" y="281" width="107.355" height="67.8386" filterUnits="userSpaceOnUse" color-interpolation-filters="sRGB">
<feFlood flood-opacity="0" result="BackgroundImageFix"/>
<feColorMatrix in="SourceAlpha" type="matrix" values="0 0 0 0 0 0 0 0 0 0 0 0 0 0 0 0 0 0 127 0" result="hardAlpha"/>
<feOffset dx="3" dy="3"/>
<feGaussianBlur stdDeviation="4"/>
<feComposite in2="hardAlpha" operator="out"/>
<feColorMatrix type="matrix" values="0 0 0 0 0 0 0 0 0 0 0 0 0 0 0 0 0 0 0.1 0"/>
<feBlend mode="normal" in2="BackgroundImageFix" result="effect1_dropShadow"/>
<feColorMatrix in="SourceAlpha" type="matrix" values="0 0 0 0 0 0 0 0 0 0 0 0 0 0 0 0 0 0 127 0" result="hardAlpha"/>
<feOffset dx="-3" dy="-3"/>
<feGaussianBlur stdDeviation="4"/>
<feComposite in2="hardAlpha" operator="out"/>
<feColorMatrix type="matrix" values="0 0 0 0 0 0 0 0 0 0 0 0 0 0 0 0 0 0 0.1 0"/>
<feBlend mode="normal" in2="effect1_dropShadow" result="effect2_dropShadow"/>
<feBlend mode="normal" in="SourceGraphic" in2="effect2_dropShadow" result="shape"/>
</filter>
<filter id="filter9_dd" x="408" y="260" width="72" height="67.8386" filterUnits="userSpaceOnUse" color-interpolation-filters="sRGB">
<feFlood flood-opacity="0" result="BackgroundImageFix"/>
<feColorMatrix in="SourceAlpha" type="matrix" values="0 0 0 0 0 0 0 0 0 0 0 0 0 0 0 0 0 0 127 0" result="hardAlpha"/>
<feOffset dx="3" dy="3"/>
<feGaussianBlur stdDeviation="4"/>
<feComposite in2="hardAlpha" operator="out"/>
<feColorMatrix type="matrix" values="0 0 0 0 0 0 0 0 0 0 0 0 0 0 0 0 0 0 0.1 0"/>
<feBlend mode="normal" in2="BackgroundImageFix" result="effect1_dropShadow"/>
<feColorMatrix in="SourceAlpha" type="matrix" values="0 0 0 0 0 0 0 0 0 0 0 0 0 0 0 0 0 0 127 0" result="hardAlpha"/>
<feOffset dx="-3" dy="-3"/>
<feGaussianBlur stdDeviation="4"/>
<feComposite in2="hardAlpha" operator="out"/>
<feColorMatrix type="matrix" values="0 0 0 0 0 0 0 0 0 0 0 0 0 0 0 0 0 0 0.1 0"/>
<feBlend mode="normal" in2="effect1_dropShadow" result="effect2_dropShadow"/>
<feBlend mode="normal" in="SourceGraphic" in2="effect2_dropShadow" result="shape"/>
</filter>
<filter id="filter10_dd" x="408" y="324.161" width="72" height="67.8386" filterUnits="userSpaceOnUse" color-interpolation-filters="sRGB">
<feFlood flood-opacity="0" result="BackgroundImageFix"/>
<feColorMatrix in="SourceAlpha" type="matrix" values="0 0 0 0 0 0 0 0 0 0 0 0 0 0 0 0 0 0 127 0" result="hardAlpha"/>
<feOffset dx="3" dy="3"/>
<feGaussianBlur stdDeviation="4"/>
<feComposite in2="hardAlpha" operator="out"/>
<feColorMatrix type="matrix" values="0 0 0 0 0 0 0 0 0 0 0 0 0 0 0 0 0 0 0.1 0"/>
<feBlend mode="normal" in2="BackgroundImageFix" result="effect1_dropShadow"/>
<feColorMatrix in="SourceAlpha" type="matrix" values="0 0 0 0 0 0 0 0 0 0 0 0 0 0 0 0 0 0 127 0" result="hardAlpha"/>
<feOffset dx="-3" dy="-3"/>
<feGaussianBlur stdDeviation="4"/>
<feComposite in2="hardAlpha" operator="out"/>
<feColorMatrix type="matrix" values="0 0 0 0 0 0 0 0 0 0 0 0 0 0 0 0 0 0 0.1 0"/>
<feBlend mode="normal" in2="effect1_dropShadow" result="effect2_dropShadow"/>
<feBlend mode="normal" in="SourceGraphic" in2="effect2_dropShadow" result="shape"/>
</filter>
<filter id="filter11_dd" x="94" y="531" width="115.204" height="67.8386" filterUnits="userSpaceOnUse" color-interpolation-filters="sRGB">
<feFlood flood-opacity="0" result="BackgroundImageFix"/>
<feColorMatrix in="SourceAlpha" type="matrix" values="0 0 0 0 0 0 0 0 0 0 0 0 0 0 0 0 0 0 127 0" result="hardAlpha"/>
<feOffset dx="3" dy="3"/>
<feGaussianBlur stdDeviation="4"/>
<feComposite in2="hardAlpha" operator="out"/>
<feColorMatrix type="matrix" values="0 0 0 0 0 0 0 0 0 0 0 0 0 0 0 0 0 0 0.1 0"/>
<feBlend mode="normal" in2="BackgroundImageFix" result="effect1_dropShadow"/>
<feColorMatrix in="SourceAlpha" type="matrix" values="0 0 0 0 0 0 0 0 0 0 0 0 0 0 0 0 0 0 127 0" result="hardAlpha"/>
<feOffset dx="-3" dy="-3"/>
<feGaussianBlur stdDeviation="4"/>
<feComposite in2="hardAlpha" operator="out"/>
<feColorMatrix type="matrix" values="0 0 0 0 0 0 0 0 0 0 0 0 0 0 0 0 0 0 0.1 0"/>
<feBlend mode="normal" in2="effect1_dropShadow" result="effect2_dropShadow"/>
<feBlend mode="normal" in="SourceGraphic" in2="effect2_dropShadow" result="shape"/>
</filter>
<filter id="filter12_dd" x="261" y="532" width="125.119" height="67.8386" filterUnits="userSpaceOnUse" color-interpolation-filters="sRGB">
<feFlood flood-opacity="0" result="BackgroundImageFix"/>
<feColorMatrix in="SourceAlpha" type="matrix" values="0 0 0 0 0 0 0 0 0 0 0 0 0 0 0 0 0 0 127 0" result="hardAlpha"/>
<feOffset dx="3" dy="3"/>
<feGaussianBlur stdDeviation="4"/>
<feComposite in2="hardAlpha" operator="out"/>
<feColorMatrix type="matrix" values="0 0 0 0 0 0 0 0 0 0 0 0 0 0 0 0 0 0 0.1 0"/>
<feBlend mode="normal" in2="BackgroundImageFix" result="effect1_dropShadow"/>
<feColorMatrix in="SourceAlpha" type="matrix" values="0 0 0 0 0 0 0 0 0 0 0 0 0 0 0 0 0 0 127 0" result="hardAlpha"/>
<feOffset dx="-3" dy="-3"/>
<feGaussianBlur stdDeviation="4"/>
<feComposite in2="hardAlpha" operator="out"/>
<feColorMatrix type="matrix" values="0 0 0 0 0 0 0 0 0 0 0 0 0 0 0 0 0 0 0.1 0"/>
<feBlend mode="normal" in2="effect1_dropShadow" result="effect2_dropShadow"/>
<feBlend mode="normal" in="SourceGraphic" in2="effect2_dropShadow" result="shape"/>
</filter>
<clipPath id="clip0">
<rect width="59" height="39" fill="white" transform="translate(517 44)"/>
</clipPath>
<clipPath id="clip1">
<rect width="59" height="39" fill="white" transform="translate(517 425)"/>
</clipPath>
<clipPath id="clip2">
<rect width="59" height="39" fill="white" transform="translate(517 166)"/>
</clipPath>
<clipPath id="clip3">
<rect width="59" height="39" fill="white" transform="translate(517 292.839)"/>
</clipPath>
<clipPath id="clip4">
<rect width="59" height="39" fill="white" transform="translate(517 544)"/>
</clipPath>
</defs>
</svg>
