<svg width="665" height="221" viewBox="0 0 665 221" fill="none" xmlns="http://www.w3.org/2000/svg">
<rect width="665" height="221" fill="#002240"/>
<path d="M201 112H364" stroke="#FAFAFA"/>
<path d="M201 125H406" stroke="#FAFAFA"/>
<path d="M201 140H456.5" stroke="#FAFAFA"/>
<path d="M163.609 98V83.3281H160.938V81.0938H163.609V79.3594C163.609 77.5469 164.094 76.1458 165.062 75.1562C166.031 74.1667 167.401 73.6719 169.172 73.6719C169.839 73.6719 170.5 73.7604 171.156 73.9375L171 76.2812C170.51 76.1875 169.99 76.1406 169.438 76.1406C168.5 76.1406 167.776 76.4167 167.266 76.9688C166.755 77.5104 166.5 78.2917 166.5 79.3125V81.0938H170.109V83.3281H166.5V98H163.609ZM183.75 96.3281C182.625 97.651 180.974 98.3125 178.797 98.3125C176.995 98.3125 175.62 97.7917 174.672 96.75C173.734 95.6979 173.26 94.1458 173.25 92.0938V81.0938H176.141V92.0156C176.141 94.5781 177.182 95.8594 179.266 95.8594C181.474 95.8594 182.943 95.0365 183.672 93.3906V81.0938H186.562V98H183.812L183.75 96.3281ZM193.703 81.0938L193.797 83.2188C195.089 81.5938 196.776 80.7812 198.859 80.7812C202.432 80.7812 204.234 82.7969 204.266 86.8281V98H201.375V86.8125C201.365 85.5938 201.083 84.6927 200.531 84.1094C199.99 83.526 199.141 83.2344 197.984 83.2344C197.047 83.2344 196.224 83.4844 195.516 83.9844C194.807 84.4844 194.255 85.1406 193.859 85.9531V98H190.969V81.0938H193.703ZM215.406 95.9531C216.438 95.9531 217.339 95.6406 218.109 95.0156C218.88 94.3906 219.307 93.6094 219.391 92.6719H222.125C222.073 93.6406 221.74 94.5625 221.125 95.4375C220.51 96.3125 219.688 97.0104 218.656 97.5312C217.635 98.0521 216.552 98.3125 215.406 98.3125C213.104 98.3125 211.271 97.5469 209.906 96.0156C208.552 94.474 207.875 92.3698 207.875 89.7031V89.2188C207.875 87.5729 208.177 86.1094 208.781 84.8281C209.385 83.5469 210.25 82.5521 211.375 81.8438C212.51 81.1354 213.849 80.7812 215.391 80.7812C217.286 80.7812 218.859 81.349 220.109 82.4844C221.37 83.6198 222.042 85.0938 222.125 86.9062H219.391C219.307 85.8125 218.891 84.9167 218.141 84.2188C217.401 83.5104 216.484 83.1562 215.391 83.1562C213.922 83.1562 212.781 83.6875 211.969 84.75C211.167 85.8021 210.766 87.3281 210.766 89.3281V89.875C210.766 91.8229 211.167 93.3229 211.969 94.375C212.771 95.4271 213.917 95.9531 215.406 95.9531ZM229.297 77V81.0938H232.453V83.3281H229.297V93.8125C229.297 94.4896 229.438 95 229.719 95.3438C230 95.6771 230.479 95.8438 231.156 95.8438C231.49 95.8438 231.948 95.7812 232.531 95.6562V98C231.771 98.2083 231.031 98.3125 230.312 98.3125C229.021 98.3125 228.047 97.9219 227.391 97.1406C226.734 96.3594 226.406 95.25 226.406 93.8125V83.3281H223.328V81.0938H226.406V77H229.297ZM238.984 98H236.094V81.0938H238.984V98ZM235.859 76.6094C235.859 76.1406 236 75.7448 236.281 75.4219C236.573 75.099 237 74.9375 237.562 74.9375C238.125 74.9375 238.552 75.099 238.844 75.4219C239.135 75.7448 239.281 76.1406 239.281 76.6094C239.281 77.0781 239.135 77.4688 238.844 77.7812C238.552 78.0938 238.125 78.25 237.562 78.25C237 78.25 236.573 78.0938 236.281 77.7812C236 77.4688 235.859 77.0781 235.859 76.6094ZM242.859 89.3906C242.859 87.7344 243.182 86.2448 243.828 84.9219C244.484 83.599 245.391 82.5781 246.547 81.8594C247.714 81.1406 249.042 80.7812 250.531 80.7812C252.833 80.7812 254.693 81.5781 256.109 83.1719C257.536 84.7656 258.25 86.8854 258.25 89.5312V89.7344C258.25 91.3802 257.932 92.8594 257.297 94.1719C256.672 95.474 255.771 96.4896 254.594 97.2188C253.427 97.9479 252.083 98.3125 250.562 98.3125C248.271 98.3125 246.411 97.5156 244.984 95.9219C243.568 94.3281 242.859 92.2188 242.859 89.5938V89.3906ZM245.766 89.7344C245.766 91.6094 246.198 93.1146 247.062 94.25C247.938 95.3854 249.104 95.9531 250.562 95.9531C252.031 95.9531 253.198 95.3802 254.062 94.2344C254.927 93.0781 255.359 91.4635 255.359 89.3906C255.359 87.5365 254.917 86.0365 254.031 84.8906C253.156 83.7344 251.99 83.1562 250.531 83.1562C249.104 83.1562 247.953 83.724 247.078 84.8594C246.203 85.9948 245.766 87.6198 245.766 89.7344ZM264.609 81.0938L264.703 83.2188C265.995 81.5938 267.682 80.7812 269.766 80.7812C273.339 80.7812 275.141 82.7969 275.172 86.8281V98H272.281V86.8125C272.271 85.5938 271.99 84.6927 271.438 84.1094C270.896 83.526 270.047 83.2344 268.891 83.2344C267.953 83.2344 267.13 83.4844 266.422 83.9844C265.714 84.4844 265.161 85.1406 264.766 85.9531V98H261.875V81.0938H264.609Z" fill="#FFEE80"/>
<path d="M288.891 98V83.3281H286.219V81.0938H288.891V79.3594C288.891 77.5469 289.375 76.1458 290.344 75.1562C291.312 74.1667 292.682 73.6719 294.453 73.6719C295.12 73.6719 295.781 73.7604 296.438 73.9375L296.281 76.2812C295.792 76.1875 295.271 76.1406 294.719 76.1406C293.781 76.1406 293.057 76.4167 292.547 76.9688C292.036 77.5104 291.781 78.2917 291.781 79.3125V81.0938H295.391V83.3281H291.781V98H288.891ZM309.031 96.3281C307.906 97.651 306.255 98.3125 304.078 98.3125C302.276 98.3125 300.901 97.7917 299.953 96.75C299.016 95.6979 298.542 94.1458 298.531 92.0938V81.0938H301.422V92.0156C301.422 94.5781 302.464 95.8594 304.547 95.8594C306.755 95.8594 308.224 95.0365 308.953 93.3906V81.0938H311.844V98H309.094L309.031 96.3281ZM318.984 81.0938L319.078 83.2188C320.37 81.5938 322.057 80.7812 324.141 80.7812C327.714 80.7812 329.516 82.7969 329.547 86.8281V98H326.656V86.8125C326.646 85.5938 326.365 84.6927 325.812 84.1094C325.271 83.526 324.422 83.2344 323.266 83.2344C322.328 83.2344 321.505 83.4844 320.797 83.9844C320.089 84.4844 319.536 85.1406 319.141 85.9531V98H316.25V81.0938H318.984ZM340.688 95.9531C341.719 95.9531 342.62 95.6406 343.391 95.0156C344.161 94.3906 344.589 93.6094 344.672 92.6719H347.406C347.354 93.6406 347.021 94.5625 346.406 95.4375C345.792 96.3125 344.969 97.0104 343.938 97.5312C342.917 98.0521 341.833 98.3125 340.688 98.3125C338.385 98.3125 336.552 97.5469 335.188 96.0156C333.833 94.474 333.156 92.3698 333.156 89.7031V89.2188C333.156 87.5729 333.458 86.1094 334.062 84.8281C334.667 83.5469 335.531 82.5521 336.656 81.8438C337.792 81.1354 339.13 80.7812 340.672 80.7812C342.568 80.7812 344.141 81.349 345.391 82.4844C346.651 83.6198 347.323 85.0938 347.406 86.9062H344.672C344.589 85.8125 344.172 84.9167 343.422 84.2188C342.682 83.5104 341.766 83.1562 340.672 83.1562C339.203 83.1562 338.062 83.6875 337.25 84.75C336.448 85.8021 336.047 87.3281 336.047 89.3281V89.875C336.047 91.8229 336.448 93.3229 337.25 94.375C338.052 95.4271 339.198 95.9531 340.688 95.9531ZM354.578 77V81.0938H357.734V83.3281H354.578V93.8125C354.578 94.4896 354.719 95 355 95.3438C355.281 95.6771 355.76 95.8438 356.438 95.8438C356.771 95.8438 357.229 95.7812 357.812 95.6562V98C357.052 98.2083 356.312 98.3125 355.594 98.3125C354.302 98.3125 353.328 97.9219 352.672 97.1406C352.016 96.3594 351.688 95.25 351.688 93.8125V83.3281H348.609V81.0938H351.688V77H354.578ZM364.266 98H361.375V81.0938H364.266V98ZM361.141 76.6094C361.141 76.1406 361.281 75.7448 361.562 75.4219C361.854 75.099 362.281 74.9375 362.844 74.9375C363.406 74.9375 363.833 75.099 364.125 75.4219C364.417 75.7448 364.562 76.1406 364.562 76.6094C364.562 77.0781 364.417 77.4688 364.125 77.7812C363.833 78.0938 363.406 78.25 362.844 78.25C362.281 78.25 361.854 78.0938 361.562 77.7812C361.281 77.4688 361.141 77.0781 361.141 76.6094ZM368.141 89.3906C368.141 87.7344 368.464 86.2448 369.109 84.9219C369.766 83.599 370.672 82.5781 371.828 81.8594C372.995 81.1406 374.323 80.7812 375.812 80.7812C378.115 80.7812 379.974 81.5781 381.391 83.1719C382.818 84.7656 383.531 86.8854 383.531 89.5312V89.7344C383.531 91.3802 383.214 92.8594 382.578 94.1719C381.953 95.474 381.052 96.4896 379.875 97.2188C378.708 97.9479 377.365 98.3125 375.844 98.3125C373.552 98.3125 371.693 97.5156 370.266 95.9219C368.849 94.3281 368.141 92.2188 368.141 89.5938V89.3906ZM371.047 89.7344C371.047 91.6094 371.479 93.1146 372.344 94.25C373.219 95.3854 374.385 95.9531 375.844 95.9531C377.312 95.9531 378.479 95.3802 379.344 94.2344C380.208 93.0781 380.641 91.4635 380.641 89.3906C380.641 87.5365 380.198 86.0365 379.312 84.8906C378.438 83.7344 377.271 83.1562 375.812 83.1562C374.385 83.1562 373.234 83.724 372.359 84.8594C371.484 85.9948 371.047 87.6198 371.047 89.7344ZM389.891 81.0938L389.984 83.2188C391.276 81.5938 392.964 80.7812 395.047 80.7812C398.62 80.7812 400.422 82.7969 400.453 86.8281V98H397.562V86.8125C397.552 85.5938 397.271 84.6927 396.719 84.1094C396.177 83.526 395.328 83.2344 394.172 83.2344C393.234 83.2344 392.411 83.4844 391.703 83.9844C390.995 84.4844 390.443 85.1406 390.047 85.9531V98H387.156V81.0938H389.891ZM422.75 98H419.734L408.281 80.4688V98H405.266V75.25H408.281L419.766 92.8594V75.25H422.75V98ZM438.062 98C437.896 97.6667 437.76 97.0729 437.656 96.2188C436.312 97.6146 434.708 98.3125 432.844 98.3125C431.177 98.3125 429.807 97.8438 428.734 96.9062C427.672 95.9583 427.141 94.7604 427.141 93.3125C427.141 91.5521 427.807 90.1875 429.141 89.2188C430.484 88.2396 432.37 87.75 434.797 87.75H437.609V86.4219C437.609 85.4115 437.307 84.6094 436.703 84.0156C436.099 83.4115 435.208 83.1094 434.031 83.1094C433 83.1094 432.135 83.3698 431.438 83.8906C430.74 84.4115 430.391 85.0417 430.391 85.7812H427.484C427.484 84.9375 427.781 84.125 428.375 83.3438C428.979 82.5521 429.792 81.9271 430.812 81.4688C431.844 81.0104 432.974 80.7812 434.203 80.7812C436.151 80.7812 437.677 81.2708 438.781 82.25C439.885 83.2188 440.458 84.5573 440.5 86.2656V94.0469C440.5 95.599 440.698 96.8333 441.094 97.75V98H438.062ZM433.266 95.7969C434.172 95.7969 435.031 95.5625 435.844 95.0938C436.656 94.625 437.245 94.0156 437.609 93.2656V89.7969H435.344C431.802 89.7969 430.031 90.8333 430.031 92.9062C430.031 93.8125 430.333 94.5208 430.938 95.0312C431.542 95.5417 432.318 95.7969 433.266 95.7969ZM447.75 81.0938L447.828 82.9688C449.068 81.5104 450.74 80.7812 452.844 80.7812C455.208 80.7812 456.818 81.6875 457.672 83.5C458.234 82.6875 458.964 82.0312 459.859 81.5312C460.766 81.0312 461.833 80.7812 463.062 80.7812C466.771 80.7812 468.656 82.7448 468.719 86.6719V98H465.828V86.8438C465.828 85.6354 465.552 84.7344 465 84.1406C464.448 83.5365 463.521 83.2344 462.219 83.2344C461.146 83.2344 460.255 83.5573 459.547 84.2031C458.839 84.8385 458.427 85.6979 458.312 86.7812V98H455.406V86.9219C455.406 84.4635 454.203 83.2344 451.797 83.2344C449.901 83.2344 448.604 84.0417 447.906 85.6562V98H445.016V81.0938H447.75ZM480.109 98.3125C477.818 98.3125 475.953 97.5625 474.516 96.0625C473.078 94.5521 472.359 92.5365 472.359 90.0156V89.4844C472.359 87.8073 472.677 86.3125 473.312 85C473.958 83.6771 474.854 82.6458 476 81.9062C477.156 81.1562 478.406 80.7812 479.75 80.7812C481.948 80.7812 483.656 81.5052 484.875 82.9531C486.094 84.401 486.703 86.474 486.703 89.1719V90.375H475.25C475.292 92.0417 475.776 93.3906 476.703 94.4219C477.641 95.4427 478.828 95.9531 480.266 95.9531C481.286 95.9531 482.151 95.7448 482.859 95.3281C483.568 94.9115 484.188 94.3594 484.719 93.6719L486.484 95.0469C485.068 97.224 482.943 98.3125 480.109 98.3125ZM479.75 83.1562C478.583 83.1562 477.604 83.5833 476.812 84.4375C476.021 85.2812 475.531 86.4688 475.344 88H483.812V87.7812C483.729 86.3125 483.333 85.1771 482.625 84.375C481.917 83.5625 480.958 83.1562 479.75 83.1562ZM497.891 88.7656C497.891 86.4115 498.203 84.151 498.828 81.9844C499.464 79.8177 500.406 77.849 501.656 76.0781C502.906 74.3073 504.203 73.0573 505.547 72.3281L506.141 74.2344C504.62 75.401 503.37 77.1823 502.391 79.5781C501.422 81.974 500.891 84.6562 500.797 87.625L500.781 88.9531C500.781 92.974 501.516 96.4635 502.984 99.4219C503.87 101.193 504.922 102.578 506.141 103.578L505.547 105.344C504.161 104.573 502.839 103.281 501.578 101.469C499.12 97.9271 497.891 93.6927 497.891 88.7656ZM515.609 88.9219C515.609 91.2448 515.302 93.474 514.688 95.6094C514.083 97.7344 513.151 99.6979 511.891 101.5C510.641 103.302 509.328 104.583 507.953 105.344L507.344 103.578C508.948 102.349 510.234 100.443 511.203 97.8594C512.182 95.2656 512.682 92.3906 512.703 89.2344V88.7344C512.703 86.5469 512.474 84.5156 512.016 82.6406C511.557 80.7552 510.917 79.0677 510.094 77.5781C509.281 76.0885 508.365 74.9271 507.344 74.0938L507.953 72.3281C509.328 73.0885 510.635 74.3594 511.875 76.1406C513.125 77.9219 514.057 79.8854 514.672 82.0312C515.297 84.1771 515.609 86.474 515.609 88.9219ZM535.688 103.719C533.844 103.198 532.453 102.339 531.516 101.141C530.589 99.9531 530.125 98.3802 530.125 96.4219V93.3125C530.125 90.7812 529.021 89.5156 526.812 89.5156V87.25C529.021 87.25 530.125 85.9896 530.125 83.4688V80.2188C530.146 78.3125 530.609 76.776 531.516 75.6094C532.432 74.4323 533.823 73.5781 535.688 73.0469L536.281 74.8438C534.104 75.5417 533.016 77.3594 533.016 80.2969V83.4531C533.016 85.8177 532.146 87.4635 530.406 88.3906C532.146 89.3281 533.016 90.9896 533.016 93.375V96.5938C533.047 99.4583 534.135 101.234 536.281 101.922L535.688 103.719ZM160.297 177.922C162.411 177.245 163.505 175.521 163.578 172.75V169.312C163.578 166.906 164.521 165.266 166.406 164.391C164.521 163.536 163.578 161.896 163.578 159.469V156.297C163.578 153.359 162.49 151.542 160.312 150.844L160.906 149.047C162.75 149.568 164.135 150.417 165.062 151.594C165.99 152.76 166.458 154.307 166.469 156.234V159.516C166.469 162.005 167.573 163.25 169.781 163.25V165.516C167.573 165.516 166.469 166.781 166.469 169.312V172.469C166.469 174.427 165.995 175.995 165.047 177.172C164.109 178.349 162.729 179.198 160.906 179.719L160.297 177.922Z" fill="#FAFAFA"/>
<path d="M233.5 57L225.5 63.5L217 57" stroke="white"/>
<path d="M225.5 63.5V30H136.5" stroke="white"/>
<path d="M449 57L441 63.5L432.5 57" stroke="#27C93F"/>
<path d="M441 63.5V30H546.5" stroke="#27C93F"/>
<path d="M294 163.5L302 157L310.5 163.5" stroke="#FFBD2E"/>
<path d="M302 157V190.5H423" stroke="#FFBD2E"/>
<path d="M14.6919 35V28.1226H13.4395V27.0752H14.6919V26.2622C14.6919 25.4126 14.9189 24.7559 15.373 24.292C15.8271 23.8281 16.4692 23.5962 17.2993 23.5962C17.6118 23.5962 17.9219 23.6377 18.2295 23.7207L18.1562 24.8193C17.9268 24.7754 17.6826 24.7534 17.4238 24.7534C16.9844 24.7534 16.645 24.8828 16.4058 25.1416C16.1665 25.3955 16.0469 25.7617 16.0469 26.2402V27.0752H17.7388V28.1226H16.0469V35H14.6919ZM24.1328 34.2163C23.6055 34.8364 22.8315 35.1465 21.811 35.1465C20.9663 35.1465 20.3218 34.9023 19.8774 34.4141C19.438 33.9209 19.2158 33.1934 19.2109 32.2314V27.0752H20.5659V32.1948C20.5659 33.396 21.0542 33.9966 22.0308 33.9966C23.0659 33.9966 23.7544 33.6108 24.0962 32.8394V27.0752H25.4512V35H24.1621L24.1328 34.2163ZM28.7983 27.0752L28.8423 28.0713C29.4478 27.3096 30.2388 26.9287 31.2153 26.9287C32.8901 26.9287 33.7349 27.8735 33.7495 29.7632V35H32.3945V29.7559C32.3896 29.1846 32.2578 28.7622 31.999 28.4888C31.7451 28.2153 31.3472 28.0786 30.8052 28.0786C30.3657 28.0786 29.98 28.1958 29.6479 28.4302C29.3159 28.6646 29.0571 28.9722 28.8716 29.353V35H27.5166V27.0752H28.7983ZM38.9717 34.0405C39.4551 34.0405 39.8774 33.894 40.2388 33.6011C40.6001 33.3081 40.8003 32.9419 40.8394 32.5024H42.1211C42.0967 32.9565 41.9404 33.3887 41.6523 33.7988C41.3643 34.209 40.9785 34.5361 40.4951 34.7803C40.0166 35.0244 39.5088 35.1465 38.9717 35.1465C37.8926 35.1465 37.0332 34.7876 36.3936 34.0698C35.7588 33.3472 35.4414 32.3608 35.4414 31.1108V30.8838C35.4414 30.1123 35.583 29.4263 35.8662 28.8257C36.1494 28.2251 36.5547 27.7588 37.082 27.4268C37.6143 27.0947 38.2417 26.9287 38.9644 26.9287C39.853 26.9287 40.5903 27.1948 41.1763 27.7271C41.7671 28.2593 42.082 28.9502 42.1211 29.7998H40.8394C40.8003 29.2871 40.605 28.8672 40.2534 28.54C39.9067 28.208 39.4771 28.042 38.9644 28.042C38.2759 28.042 37.7412 28.291 37.3604 28.7891C36.9844 29.2822 36.7964 29.9976 36.7964 30.9351V31.1914C36.7964 32.1045 36.9844 32.8076 37.3604 33.3008C37.7363 33.7939 38.2734 34.0405 38.9717 34.0405ZM45.4829 25.1562V27.0752H46.9624V28.1226H45.4829V33.0371C45.4829 33.3545 45.5488 33.5938 45.6807 33.7549C45.8125 33.9111 46.0371 33.9893 46.3545 33.9893C46.5107 33.9893 46.7256 33.96 46.999 33.9014V35C46.6426 35.0977 46.2959 35.1465 45.959 35.1465C45.3535 35.1465 44.897 34.9634 44.5894 34.5972C44.2817 34.231 44.1279 33.7109 44.1279 33.0371V28.1226H42.6851V27.0752H44.1279V25.1562H45.4829ZM50.0239 35H48.6689V27.0752H50.0239V35ZM48.5591 24.9731C48.5591 24.7534 48.625 24.5679 48.7568 24.4165C48.8936 24.2651 49.0938 24.1895 49.3574 24.1895C49.6211 24.1895 49.8213 24.2651 49.958 24.4165C50.0947 24.5679 50.1631 24.7534 50.1631 24.9731C50.1631 25.1929 50.0947 25.376 49.958 25.5225C49.8213 25.6689 49.6211 25.7422 49.3574 25.7422C49.0938 25.7422 48.8936 25.6689 48.7568 25.5225C48.625 25.376 48.5591 25.1929 48.5591 24.9731ZM51.8403 30.9644C51.8403 30.188 51.9917 29.4897 52.2944 28.8696C52.6021 28.2495 53.0269 27.771 53.5688 27.4341C54.1157 27.0972 54.7383 26.9287 55.4365 26.9287C56.5156 26.9287 57.3872 27.3022 58.0513 28.0493C58.7202 28.7964 59.0547 29.79 59.0547 31.0303V31.1255C59.0547 31.897 58.9058 32.5903 58.6079 33.2056C58.3149 33.8159 57.8926 34.292 57.3408 34.6338C56.7939 34.9756 56.1641 35.1465 55.4512 35.1465C54.377 35.1465 53.5054 34.7729 52.8364 34.0259C52.1724 33.2788 51.8403 32.29 51.8403 31.0596V30.9644ZM53.2026 31.1255C53.2026 32.0044 53.4053 32.71 53.8105 33.2422C54.2207 33.7744 54.7676 34.0405 55.4512 34.0405C56.1396 34.0405 56.6865 33.772 57.0918 33.2349C57.4971 32.6929 57.6997 31.936 57.6997 30.9644C57.6997 30.0952 57.4922 29.3921 57.0771 28.855C56.667 28.313 56.1201 28.042 55.4365 28.042C54.7676 28.042 54.228 28.3081 53.8179 28.8403C53.4077 29.3726 53.2026 30.1343 53.2026 31.1255ZM62.0356 27.0752L62.0796 28.0713C62.6851 27.3096 63.4761 26.9287 64.4526 26.9287C66.1274 26.9287 66.9722 27.8735 66.9868 29.7632V35H65.6318V29.7559C65.627 29.1846 65.4951 28.7622 65.2363 28.4888C64.9824 28.2153 64.5845 28.0786 64.0425 28.0786C63.603 28.0786 63.2173 28.1958 62.8853 28.4302C62.5532 28.6646 62.2944 28.9722 62.1089 29.353V35H60.7539V27.0752H62.0356ZM74.9629 31.3306L74.1133 32.2168V35H72.7583V23.75H74.1133V30.5542L74.8384 29.6826L77.3066 27.0752H78.9546L75.8711 30.3857L79.3135 35H77.7241L74.9629 31.3306ZM83.4956 35.1465C82.4214 35.1465 81.5474 34.7949 80.8735 34.0918C80.1997 33.3838 79.8628 32.439 79.8628 31.2573V31.0083C79.8628 30.2222 80.0117 29.5215 80.3096 28.9062C80.6123 28.2861 81.0322 27.8027 81.5693 27.4561C82.1113 27.1045 82.6973 26.9287 83.3271 26.9287C84.3574 26.9287 85.1582 27.2681 85.7295 27.9468C86.3008 28.6255 86.5864 29.5972 86.5864 30.8618V31.4258H81.2178C81.2373 32.207 81.4644 32.8394 81.8989 33.3228C82.3384 33.8013 82.895 34.0405 83.5688 34.0405C84.0474 34.0405 84.4526 33.9429 84.7847 33.7476C85.1167 33.5522 85.4072 33.2935 85.6562 32.9712L86.4839 33.6157C85.8198 34.6362 84.8237 35.1465 83.4956 35.1465ZM83.3271 28.042C82.7803 28.042 82.3213 28.2422 81.9502 28.6426C81.5791 29.0381 81.3496 29.5947 81.2617 30.3125H85.2314V30.21C85.1924 29.5215 85.0068 28.9893 84.6748 28.6133C84.3428 28.2324 83.8936 28.042 83.3271 28.042ZM90.6514 33.0151L92.4971 27.0752H93.9473L90.7612 36.2231C90.2681 37.5415 89.4844 38.2007 88.4102 38.2007L88.1538 38.1787L87.6484 38.0835V36.9849L88.0146 37.0142C88.4736 37.0142 88.8301 36.9214 89.084 36.7358C89.3428 36.5503 89.5552 36.2109 89.7212 35.7178L90.0215 34.9121L87.1943 27.0752H88.6738L90.6514 33.0151ZM102.18 33.1323L103.703 27.0752H105.058L102.751 35H101.652L99.7261 28.9941L97.8511 35H96.7524L94.4526 27.0752H95.8003L97.3604 33.0078L99.2061 27.0752H100.297L102.18 33.1323ZM106.083 30.9644C106.083 30.188 106.235 29.4897 106.538 28.8696C106.845 28.2495 107.27 27.771 107.812 27.4341C108.359 27.0972 108.981 26.9287 109.68 26.9287C110.759 26.9287 111.63 27.3022 112.294 28.0493C112.963 28.7964 113.298 29.79 113.298 31.0303V31.1255C113.298 31.897 113.149 32.5903 112.851 33.2056C112.558 33.8159 112.136 34.292 111.584 34.6338C111.037 34.9756 110.407 35.1465 109.694 35.1465C108.62 35.1465 107.749 34.7729 107.08 34.0259C106.416 33.2788 106.083 32.29 106.083 31.0596V30.9644ZM107.446 31.1255C107.446 32.0044 107.648 32.71 108.054 33.2422C108.464 33.7744 109.011 34.0405 109.694 34.0405C110.383 34.0405 110.93 33.772 111.335 33.2349C111.74 32.6929 111.943 31.936 111.943 30.9644C111.943 30.0952 111.735 29.3921 111.32 28.855C110.91 28.313 110.363 28.042 109.68 28.042C109.011 28.042 108.471 28.3081 108.061 28.8403C107.651 29.3726 107.446 30.1343 107.446 31.1255ZM118.828 28.291C118.623 28.2568 118.4 28.2397 118.161 28.2397C117.272 28.2397 116.669 28.6182 116.352 29.375V35H114.997V27.0752H116.315L116.337 27.9907C116.782 27.2827 117.412 26.9287 118.227 26.9287C118.491 26.9287 118.691 26.9629 118.828 27.0312V28.291ZM119.604 30.9717C119.604 29.7559 119.892 28.7793 120.468 28.042C121.044 27.2998 121.799 26.9287 122.731 26.9287C123.659 26.9287 124.394 27.2461 124.936 27.8809V23.75H126.291V35H125.046L124.98 34.1504C124.438 34.8145 123.684 35.1465 122.717 35.1465C121.799 35.1465 121.049 34.7705 120.468 34.0186C119.892 33.2666 119.604 32.2852 119.604 31.0742V30.9717ZM120.959 31.1255C120.959 32.0239 121.145 32.7271 121.516 33.2349C121.887 33.7427 122.399 33.9966 123.054 33.9966C123.913 33.9966 124.541 33.6108 124.936 32.8394V29.1992C124.531 28.4521 123.908 28.0786 123.068 28.0786C122.404 28.0786 121.887 28.335 121.516 28.8477C121.145 29.3604 120.959 30.1196 120.959 31.1255Z" fill="white"/>
<path d="M556.692 35V28.1226H555.439V27.0752H556.692V26.2622C556.692 25.4126 556.919 24.7559 557.373 24.292C557.827 23.8281 558.469 23.5962 559.299 23.5962C559.612 23.5962 559.922 23.6377 560.229 23.7207L560.156 24.8193C559.927 24.7754 559.683 24.7534 559.424 24.7534C558.984 24.7534 558.645 24.8828 558.406 25.1416C558.167 25.3955 558.047 25.7617 558.047 26.2402V27.0752H559.739V28.1226H558.047V35H556.692ZM566.133 34.2163C565.605 34.8364 564.832 35.1465 563.811 35.1465C562.966 35.1465 562.322 34.9023 561.877 34.4141C561.438 33.9209 561.216 33.1934 561.211 32.2314V27.0752H562.566V32.1948C562.566 33.396 563.054 33.9966 564.031 33.9966C565.066 33.9966 565.754 33.6108 566.096 32.8394V27.0752H567.451V35H566.162L566.133 34.2163ZM570.798 27.0752L570.842 28.0713C571.448 27.3096 572.239 26.9287 573.215 26.9287C574.89 26.9287 575.735 27.8735 575.75 29.7632V35H574.395V29.7559C574.39 29.1846 574.258 28.7622 573.999 28.4888C573.745 28.2153 573.347 28.0786 572.805 28.0786C572.366 28.0786 571.98 28.1958 571.648 28.4302C571.316 28.6646 571.057 28.9722 570.872 29.353V35H569.517V27.0752H570.798ZM580.972 34.0405C581.455 34.0405 581.877 33.894 582.239 33.6011C582.6 33.3081 582.8 32.9419 582.839 32.5024H584.121C584.097 32.9565 583.94 33.3887 583.652 33.7988C583.364 34.209 582.979 34.5361 582.495 34.7803C582.017 35.0244 581.509 35.1465 580.972 35.1465C579.893 35.1465 579.033 34.7876 578.394 34.0698C577.759 33.3472 577.441 32.3608 577.441 31.1108V30.8838C577.441 30.1123 577.583 29.4263 577.866 28.8257C578.149 28.2251 578.555 27.7588 579.082 27.4268C579.614 27.0947 580.242 26.9287 580.964 26.9287C581.853 26.9287 582.59 27.1948 583.176 27.7271C583.767 28.2593 584.082 28.9502 584.121 29.7998H582.839C582.8 29.2871 582.605 28.8672 582.253 28.54C581.907 28.208 581.477 28.042 580.964 28.042C580.276 28.042 579.741 28.291 579.36 28.7891C578.984 29.2822 578.796 29.9976 578.796 30.9351V31.1914C578.796 32.1045 578.984 32.8076 579.36 33.3008C579.736 33.7939 580.273 34.0405 580.972 34.0405ZM587.483 25.1562V27.0752H588.962V28.1226H587.483V33.0371C587.483 33.3545 587.549 33.5938 587.681 33.7549C587.812 33.9111 588.037 33.9893 588.354 33.9893C588.511 33.9893 588.726 33.96 588.999 33.9014V35C588.643 35.0977 588.296 35.1465 587.959 35.1465C587.354 35.1465 586.897 34.9634 586.589 34.5972C586.282 34.231 586.128 33.7109 586.128 33.0371V28.1226H584.685V27.0752H586.128V25.1562H587.483ZM592.024 35H590.669V27.0752H592.024V35ZM590.559 24.9731C590.559 24.7534 590.625 24.5679 590.757 24.4165C590.894 24.2651 591.094 24.1895 591.357 24.1895C591.621 24.1895 591.821 24.2651 591.958 24.4165C592.095 24.5679 592.163 24.7534 592.163 24.9731C592.163 25.1929 592.095 25.376 591.958 25.5225C591.821 25.6689 591.621 25.7422 591.357 25.7422C591.094 25.7422 590.894 25.6689 590.757 25.5225C590.625 25.376 590.559 25.1929 590.559 24.9731ZM593.84 30.9644C593.84 30.188 593.992 29.4897 594.294 28.8696C594.602 28.2495 595.027 27.771 595.569 27.4341C596.116 27.0972 596.738 26.9287 597.437 26.9287C598.516 26.9287 599.387 27.3022 600.051 28.0493C600.72 28.7964 601.055 29.79 601.055 31.0303V31.1255C601.055 31.897 600.906 32.5903 600.608 33.2056C600.315 33.8159 599.893 34.292 599.341 34.6338C598.794 34.9756 598.164 35.1465 597.451 35.1465C596.377 35.1465 595.505 34.7729 594.836 34.0259C594.172 33.2788 593.84 32.29 593.84 31.0596V30.9644ZM595.203 31.1255C595.203 32.0044 595.405 32.71 595.811 33.2422C596.221 33.7744 596.768 34.0405 597.451 34.0405C598.14 34.0405 598.687 33.772 599.092 33.2349C599.497 32.6929 599.7 31.936 599.7 30.9644C599.7 30.0952 599.492 29.3921 599.077 28.855C598.667 28.313 598.12 28.042 597.437 28.042C596.768 28.042 596.228 28.3081 595.818 28.8403C595.408 29.3726 595.203 30.1343 595.203 31.1255ZM604.036 27.0752L604.08 28.0713C604.685 27.3096 605.476 26.9287 606.453 26.9287C608.127 26.9287 608.972 27.8735 608.987 29.7632V35H607.632V29.7559C607.627 29.1846 607.495 28.7622 607.236 28.4888C606.982 28.2153 606.584 28.0786 606.042 28.0786C605.603 28.0786 605.217 28.1958 604.885 28.4302C604.553 28.6646 604.294 28.9722 604.109 29.353V35H602.754V27.0752H604.036ZM623.159 35H621.746L616.377 26.7822V35H614.963V24.3359H616.377L621.76 32.5903V24.3359H623.159V35ZM630.337 35C630.259 34.8438 630.195 34.5654 630.146 34.165C629.517 34.8193 628.765 35.1465 627.891 35.1465C627.109 35.1465 626.467 34.9268 625.964 34.4873C625.466 34.043 625.217 33.4814 625.217 32.8027C625.217 31.9775 625.53 31.3379 626.155 30.8838C626.785 30.4248 627.668 30.1953 628.806 30.1953H630.125V29.5728C630.125 29.0991 629.983 28.7231 629.7 28.4448C629.417 28.1616 628.999 28.02 628.447 28.02C627.964 28.02 627.559 28.1421 627.231 28.3862C626.904 28.6304 626.741 28.9258 626.741 29.2725H625.378C625.378 28.877 625.518 28.4961 625.796 28.1299C626.079 27.7588 626.46 27.4658 626.938 27.251C627.422 27.0361 627.952 26.9287 628.528 26.9287C629.441 26.9287 630.156 27.1582 630.674 27.6172C631.191 28.0713 631.46 28.6987 631.479 29.4995V33.147C631.479 33.8745 631.572 34.4531 631.758 34.8828V35H630.337ZM628.088 33.9673C628.513 33.9673 628.916 33.8574 629.297 33.6377C629.678 33.418 629.954 33.1323 630.125 32.7808V31.1548H629.062C627.402 31.1548 626.572 31.6406 626.572 32.6123C626.572 33.0371 626.714 33.3691 626.997 33.6084C627.28 33.8477 627.644 33.9673 628.088 33.9673ZM634.878 27.0752L634.915 27.9541C635.496 27.2705 636.279 26.9287 637.266 26.9287C638.374 26.9287 639.128 27.3535 639.529 28.2031C639.792 27.8223 640.134 27.5146 640.554 27.2803C640.979 27.0459 641.479 26.9287 642.056 26.9287C643.794 26.9287 644.678 27.8491 644.707 29.6899V35H643.352V29.7705C643.352 29.2041 643.223 28.7817 642.964 28.5034C642.705 28.2202 642.271 28.0786 641.66 28.0786C641.157 28.0786 640.74 28.23 640.408 28.5327C640.076 28.8306 639.883 29.2334 639.829 29.7412V35H638.467V29.8071C638.467 28.6548 637.903 28.0786 636.775 28.0786C635.886 28.0786 635.278 28.457 634.951 29.2139V35H633.596V27.0752H634.878ZM650.046 35.1465C648.972 35.1465 648.098 34.7949 647.424 34.0918C646.75 33.3838 646.414 32.439 646.414 31.2573V31.0083C646.414 30.2222 646.562 29.5215 646.86 28.9062C647.163 28.2861 647.583 27.8027 648.12 27.4561C648.662 27.1045 649.248 26.9287 649.878 26.9287C650.908 26.9287 651.709 27.2681 652.28 27.9468C652.852 28.6255 653.137 29.5972 653.137 30.8618V31.4258H647.769C647.788 32.207 648.015 32.8394 648.45 33.3228C648.889 33.8013 649.446 34.0405 650.12 34.0405C650.598 34.0405 651.003 33.9429 651.335 33.7476C651.667 33.5522 651.958 33.2935 652.207 32.9712L653.035 33.6157C652.371 34.6362 651.375 35.1465 650.046 35.1465ZM649.878 28.042C649.331 28.042 648.872 28.2422 648.501 28.6426C648.13 29.0381 647.9 29.5947 647.812 30.3125H651.782V30.21C651.743 29.5215 651.558 28.9893 651.226 28.6133C650.894 28.2324 650.444 28.042 649.878 28.042Z" fill="#27C93F"/>
<path d="M433.692 196V189.123H432.439V188.075H433.692V187.262C433.692 186.413 433.919 185.756 434.373 185.292C434.827 184.828 435.469 184.596 436.299 184.596C436.612 184.596 436.922 184.638 437.229 184.721L437.156 185.819C436.927 185.775 436.683 185.753 436.424 185.753C435.984 185.753 435.645 185.883 435.406 186.142C435.167 186.396 435.047 186.762 435.047 187.24V188.075H436.739V189.123H435.047V196H433.692ZM443.133 195.216C442.605 195.836 441.832 196.146 440.811 196.146C439.966 196.146 439.322 195.902 438.877 195.414C438.438 194.921 438.216 194.193 438.211 193.231V188.075H439.566V193.195C439.566 194.396 440.054 194.997 441.031 194.997C442.066 194.997 442.754 194.611 443.096 193.839V188.075H444.451V196H443.162L443.133 195.216ZM447.798 188.075L447.842 189.071C448.448 188.31 449.239 187.929 450.215 187.929C451.89 187.929 452.735 188.874 452.75 190.763V196H451.395V190.756C451.39 190.185 451.258 189.762 450.999 189.489C450.745 189.215 450.347 189.079 449.805 189.079C449.366 189.079 448.98 189.196 448.648 189.43C448.316 189.665 448.057 189.972 447.872 190.353V196H446.517V188.075H447.798ZM457.972 195.041C458.455 195.041 458.877 194.894 459.239 194.601C459.6 194.308 459.8 193.942 459.839 193.502H461.121C461.097 193.957 460.94 194.389 460.652 194.799C460.364 195.209 459.979 195.536 459.495 195.78C459.017 196.024 458.509 196.146 457.972 196.146C456.893 196.146 456.033 195.788 455.394 195.07C454.759 194.347 454.441 193.361 454.441 192.111V191.884C454.441 191.112 454.583 190.426 454.866 189.826C455.149 189.225 455.555 188.759 456.082 188.427C456.614 188.095 457.242 187.929 457.964 187.929C458.853 187.929 459.59 188.195 460.176 188.727C460.767 189.259 461.082 189.95 461.121 190.8H459.839C459.8 190.287 459.605 189.867 459.253 189.54C458.907 189.208 458.477 189.042 457.964 189.042C457.276 189.042 456.741 189.291 456.36 189.789C455.984 190.282 455.796 190.998 455.796 191.935V192.191C455.796 193.104 455.984 193.808 456.36 194.301C456.736 194.794 457.273 195.041 457.972 195.041ZM464.483 186.156V188.075H465.962V189.123H464.483V194.037C464.483 194.354 464.549 194.594 464.681 194.755C464.812 194.911 465.037 194.989 465.354 194.989C465.511 194.989 465.726 194.96 465.999 194.901V196C465.643 196.098 465.296 196.146 464.959 196.146C464.354 196.146 463.897 195.963 463.589 195.597C463.282 195.231 463.128 194.711 463.128 194.037V189.123H461.685V188.075H463.128V186.156H464.483ZM469.024 196H467.669V188.075H469.024V196ZM467.559 185.973C467.559 185.753 467.625 185.568 467.757 185.417C467.894 185.265 468.094 185.189 468.357 185.189C468.621 185.189 468.821 185.265 468.958 185.417C469.095 185.568 469.163 185.753 469.163 185.973C469.163 186.193 469.095 186.376 468.958 186.522C468.821 186.669 468.621 186.742 468.357 186.742C468.094 186.742 467.894 186.669 467.757 186.522C467.625 186.376 467.559 186.193 467.559 185.973ZM470.84 191.964C470.84 191.188 470.992 190.49 471.294 189.87C471.602 189.25 472.027 188.771 472.569 188.434C473.116 188.097 473.738 187.929 474.437 187.929C475.516 187.929 476.387 188.302 477.051 189.049C477.72 189.796 478.055 190.79 478.055 192.03V192.125C478.055 192.897 477.906 193.59 477.608 194.206C477.315 194.816 476.893 195.292 476.341 195.634C475.794 195.976 475.164 196.146 474.451 196.146C473.377 196.146 472.505 195.773 471.836 195.026C471.172 194.279 470.84 193.29 470.84 192.06V191.964ZM472.203 192.125C472.203 193.004 472.405 193.71 472.811 194.242C473.221 194.774 473.768 195.041 474.451 195.041C475.14 195.041 475.687 194.772 476.092 194.235C476.497 193.693 476.7 192.936 476.7 191.964C476.7 191.095 476.492 190.392 476.077 189.855C475.667 189.313 475.12 189.042 474.437 189.042C473.768 189.042 473.228 189.308 472.818 189.84C472.408 190.373 472.203 191.134 472.203 192.125ZM481.036 188.075L481.08 189.071C481.685 188.31 482.476 187.929 483.453 187.929C485.127 187.929 485.972 188.874 485.987 190.763V196H484.632V190.756C484.627 190.185 484.495 189.762 484.236 189.489C483.982 189.215 483.584 189.079 483.042 189.079C482.603 189.079 482.217 189.196 481.885 189.43C481.553 189.665 481.294 189.972 481.109 190.353V196H479.754V188.075H481.036ZM498.46 192.125C498.46 193.336 498.182 194.311 497.625 195.048C497.068 195.78 496.321 196.146 495.384 196.146C494.383 196.146 493.609 195.792 493.062 195.084L492.996 196H491.751V184.75H493.106V188.947C493.653 188.268 494.407 187.929 495.369 187.929C496.331 187.929 497.085 188.292 497.632 189.02C498.184 189.748 498.46 190.744 498.46 192.008V192.125ZM497.105 191.972C497.105 191.049 496.927 190.336 496.57 189.833C496.214 189.33 495.701 189.079 495.032 189.079C494.139 189.079 493.497 189.494 493.106 190.324V193.751C493.521 194.582 494.168 194.997 495.047 194.997C495.696 194.997 496.202 194.745 496.563 194.242C496.924 193.739 497.105 192.982 497.105 191.972ZM499.815 191.964C499.815 191.188 499.966 190.49 500.269 189.87C500.577 189.25 501.001 188.771 501.543 188.434C502.09 188.097 502.713 187.929 503.411 187.929C504.49 187.929 505.362 188.302 506.026 189.049C506.695 189.796 507.029 190.79 507.029 192.03V192.125C507.029 192.897 506.88 193.59 506.583 194.206C506.29 194.816 505.867 195.292 505.315 195.634C504.769 195.976 504.139 196.146 503.426 196.146C502.352 196.146 501.48 195.773 500.811 195.026C500.147 194.279 499.815 193.29 499.815 192.06V191.964ZM501.177 192.125C501.177 193.004 501.38 193.71 501.785 194.242C502.195 194.774 502.742 195.041 503.426 195.041C504.114 195.041 504.661 194.772 505.066 194.235C505.472 193.693 505.674 192.936 505.674 191.964C505.674 191.095 505.467 190.392 505.052 189.855C504.642 189.313 504.095 189.042 503.411 189.042C502.742 189.042 502.203 189.308 501.792 189.84C501.382 190.373 501.177 191.134 501.177 192.125ZM508.399 191.972C508.399 190.756 508.687 189.779 509.263 189.042C509.839 188.3 510.594 187.929 511.526 187.929C512.454 187.929 513.189 188.246 513.731 188.881V184.75H515.086V196H513.841L513.775 195.15C513.233 195.814 512.479 196.146 511.512 196.146C510.594 196.146 509.844 195.771 509.263 195.019C508.687 194.267 508.399 193.285 508.399 192.074V191.972ZM509.754 192.125C509.754 193.024 509.939 193.727 510.311 194.235C510.682 194.743 511.194 194.997 511.849 194.997C512.708 194.997 513.335 194.611 513.731 193.839V190.199C513.326 189.452 512.703 189.079 511.863 189.079C511.199 189.079 510.682 189.335 510.311 189.848C509.939 190.36 509.754 191.12 509.754 192.125ZM519.788 194.015L521.634 188.075H523.084L519.898 197.223C519.405 198.542 518.621 199.201 517.547 199.201L517.291 199.179L516.785 199.083V197.985L517.151 198.014C517.61 198.014 517.967 197.921 518.221 197.736C518.479 197.55 518.692 197.211 518.858 196.718L519.158 195.912L516.331 188.075H517.811L519.788 194.015Z" fill="#FFBD2E"/>
</svg>
