<svg width="584" height="351" viewBox="0 0 584 351" fill="none" xmlns="http://www.w3.org/2000/svg">
<rect width="584" height="351" fill="white"/>
<path d="M0 351V0H452.5L75.5 351H0Z" fill="black" fill-opacity="0.7"/>
<path d="M547.5 0L177 351H584V0H547.5Z" fill="#1572B6"/>
<g filter="url(#filter0_d)">
<circle cx="293" cy="175" r="95" fill="white"/>
</g>
<g filter="url(#filter1_ii)">
<circle cx="293.5" cy="175.5" r="69.5" fill="#EBEBEB"/>
</g>
<path d="M259.182 218.403L251.882 136.5H332.118L324.809 218.39L291.951 227.5L259.182 218.403Z" fill="#1572B6"/>
<path d="M292 220.538L318.553 213.177L324.799 143.198H292V220.538Z" fill="#33A9DC"/>
<path d="M292 172.871H305.293L306.209 162.585H292V152.539H317.188L316.947 155.233L314.48 182.917H292V172.871V172.871Z" fill="white"/>
<path d="M292.062 198.959L292.016 198.972L280.83 195.949L280.115 187.938H270.03L271.437 203.71L292.013 209.424L292.062 209.411V198.959V198.959Z" fill="#EBEBEB"/>
<path d="M304.438 182.491L303.229 195.942L292.026 198.965V209.417L312.618 203.71L312.771 202.013L314.516 182.491H304.438V182.491Z" fill="white"/>
<path d="M292.036 152.539V162.585H267.771L267.57 160.326L267.112 155.233L266.871 152.539H292.036V152.539Z" fill="#EBEBEB"/>
<path d="M292 172.871V182.916H280.953L280.752 180.658L280.297 175.565L280.056 172.871H292V172.871Z" fill="#EBEBEB"/>
<defs>
<filter id="filter0_d" x="193" y="76" width="206" height="206" filterUnits="userSpaceOnUse" color-interpolation-filters="sRGB">
<feFlood flood-opacity="0" result="BackgroundImageFix"/>
<feColorMatrix in="SourceAlpha" type="matrix" values="0 0 0 0 0 0 0 0 0 0 0 0 0 0 0 0 0 0 127 0" result="hardAlpha"/>
<feOffset dx="3" dy="4"/>
<feGaussianBlur stdDeviation="4"/>
<feComposite in2="hardAlpha" operator="out"/>
<feColorMatrix type="matrix" values="0 0 0 0 0 0 0 0 0 0 0 0 0 0 0 0 0 0 0.5 0"/>
<feBlend mode="normal" in2="BackgroundImageFix" result="effect1_dropShadow"/>
<feBlend mode="normal" in="SourceGraphic" in2="effect1_dropShadow" result="shape"/>
</filter>
<filter id="filter1_ii" x="224" y="102" width="139" height="147" filterUnits="userSpaceOnUse" color-interpolation-filters="sRGB">
<feFlood flood-opacity="0" result="BackgroundImageFix"/>
<feBlend mode="normal" in="SourceGraphic" in2="BackgroundImageFix" result="shape"/>
<feColorMatrix in="SourceAlpha" type="matrix" values="0 0 0 0 0 0 0 0 0 0 0 0 0 0 0 0 0 0 127 0" result="hardAlpha"/>
<feOffset dy="4"/>
<feGaussianBlur stdDeviation="2"/>
<feComposite in2="hardAlpha" operator="arithmetic" k2="-1" k3="1"/>
<feColorMatrix type="matrix" values="0 0 0 0 0 0 0 0 0 0 0 0 0 0 0 0 0 0 0.25 0"/>
<feBlend mode="normal" in2="shape" result="effect1_innerShadow"/>
<feColorMatrix in="SourceAlpha" type="matrix" values="0 0 0 0 0 0 0 0 0 0 0 0 0 0 0 0 0 0 127 0" result="hardAlpha"/>
<feOffset dy="-4"/>
<feGaussianBlur stdDeviation="2"/>
<feComposite in2="hardAlpha" operator="arithmetic" k2="-1" k3="1"/>
<feColorMatrix type="matrix" values="0 0 0 0 0 0 0 0 0 0 0 0 0 0 0 0 0 0 0.25 0"/>
<feBlend mode="normal" in2="effect1_innerShadow" result="effect2_innerShadow"/>
</filter>
</defs>
</svg>
