<svg width="584" height="351" viewBox="0 0 584 351" fill="none" xmlns="http://www.w3.org/2000/svg">
<rect width="584" height="351" fill="white"/>
<path d="M0 351V0H452.5L75.5 351H0Z" fill="#366E9E"/>
<path d="M547.5 0L177 351H584V0H547.5Z" fill="#FFD040"/>
<g filter="url(#filter0_d)">
<circle cx="293" cy="175" r="95" fill="white"/>
</g>
<g filter="url(#filter1_ii)">
<circle cx="293.5" cy="175.5" r="69.5" fill="#EBEBEB"/>
</g>
<path d="M291.661 135.023C271.401 135.023 272.666 143.843 272.666 143.843L272.689 152.981H292.023V155.725H265.01C265.01 155.725 252.045 154.249 252.045 174.771C252.045 195.294 263.361 194.566 263.361 194.566H270.114V185.043C270.114 185.043 269.75 173.683 281.249 173.683H300.425C300.425 173.683 311.198 173.857 311.198 163.23V145.657C311.198 145.657 312.834 135.023 291.661 135.023ZM281.001 141.168C281.458 141.167 281.91 141.257 282.332 141.433C282.754 141.608 283.138 141.865 283.461 142.19C283.784 142.514 284.04 142.899 284.215 143.323C284.39 143.747 284.479 144.201 284.479 144.66C284.479 145.118 284.39 145.573 284.215 145.996C284.04 146.42 283.784 146.805 283.461 147.13C283.138 147.454 282.754 147.711 282.332 147.886C281.91 148.062 281.458 148.152 281.001 148.151C280.544 148.152 280.091 148.062 279.669 147.886C279.247 147.711 278.863 147.454 278.54 147.13C278.217 146.805 277.961 146.42 277.787 145.996C277.612 145.573 277.522 145.118 277.523 144.66C277.522 144.201 277.612 143.747 277.787 143.323C277.961 142.899 278.217 142.514 278.54 142.19C278.863 141.865 279.247 141.608 279.669 141.433C280.091 141.257 280.544 141.167 281.001 141.168V141.168Z" fill="url(#paint0_linear)"/>
<path d="M292.236 214.726C312.496 214.726 311.231 205.905 311.231 205.905L311.209 196.768H291.875V194.024H318.888C318.888 194.024 331.852 195.5 331.852 174.977C331.852 154.454 320.536 155.182 320.536 155.182H313.783V164.705C313.783 164.705 314.147 176.065 302.648 176.065H283.473C283.473 176.065 272.699 175.891 272.699 186.519V204.091C272.699 204.091 271.063 214.726 292.236 214.726H292.236ZM302.897 208.581C302.44 208.582 301.988 208.492 301.566 208.316C301.143 208.141 300.76 207.884 300.437 207.559C300.114 207.235 299.857 206.85 299.683 206.426C299.508 206.002 299.419 205.548 299.419 205.089C299.418 204.631 299.508 204.176 299.683 203.753C299.857 203.329 300.114 202.944 300.437 202.619C300.76 202.295 301.143 202.038 301.565 201.862C301.988 201.687 302.44 201.597 302.897 201.597C303.354 201.597 303.806 201.687 304.229 201.862C304.651 202.038 305.034 202.295 305.357 202.619C305.68 202.943 305.937 203.329 306.111 203.752C306.286 204.176 306.376 204.63 306.375 205.089C306.376 205.548 306.286 206.002 306.111 206.426C305.937 206.85 305.68 207.235 305.357 207.559C305.034 207.883 304.651 208.141 304.229 208.316C303.806 208.491 303.354 208.581 302.897 208.581V208.581Z" fill="url(#paint1_linear)"/>
<defs>
<filter id="filter0_d" x="193" y="76" width="206" height="206" filterUnits="userSpaceOnUse" color-interpolation-filters="sRGB">
<feFlood flood-opacity="0" result="BackgroundImageFix"/>
<feColorMatrix in="SourceAlpha" type="matrix" values="0 0 0 0 0 0 0 0 0 0 0 0 0 0 0 0 0 0 127 0" result="hardAlpha"/>
<feOffset dx="3" dy="4"/>
<feGaussianBlur stdDeviation="4"/>
<feComposite in2="hardAlpha" operator="out"/>
<feColorMatrix type="matrix" values="0 0 0 0 0 0 0 0 0 0 0 0 0 0 0 0 0 0 0.5 0"/>
<feBlend mode="normal" in2="BackgroundImageFix" result="effect1_dropShadow"/>
<feBlend mode="normal" in="SourceGraphic" in2="effect1_dropShadow" result="shape"/>
</filter>
<filter id="filter1_ii" x="224" y="102" width="139" height="147" filterUnits="userSpaceOnUse" color-interpolation-filters="sRGB">
<feFlood flood-opacity="0" result="BackgroundImageFix"/>
<feBlend mode="normal" in="SourceGraphic" in2="BackgroundImageFix" result="shape"/>
<feColorMatrix in="SourceAlpha" type="matrix" values="0 0 0 0 0 0 0 0 0 0 0 0 0 0 0 0 0 0 127 0" result="hardAlpha"/>
<feOffset dy="4"/>
<feGaussianBlur stdDeviation="2"/>
<feComposite in2="hardAlpha" operator="arithmetic" k2="-1" k3="1"/>
<feColorMatrix type="matrix" values="0 0 0 0 0 0 0 0 0 0 0 0 0 0 0 0 0 0 0.25 0"/>
<feBlend mode="normal" in2="shape" result="effect1_innerShadow"/>
<feColorMatrix in="SourceAlpha" type="matrix" values="0 0 0 0 0 0 0 0 0 0 0 0 0 0 0 0 0 0 127 0" result="hardAlpha"/>
<feOffset dy="-4"/>
<feGaussianBlur stdDeviation="2"/>
<feComposite in2="hardAlpha" operator="arithmetic" k2="-1" k3="1"/>
<feColorMatrix type="matrix" values="0 0 0 0 0 0 0 0 0 0 0 0 0 0 0 0 0 0 0.25 0"/>
<feBlend mode="normal" in2="effect1_innerShadow" result="effect2_innerShadow"/>
</filter>
<linearGradient id="paint0_linear" x1="259.715" y1="142.191" x2="299.418" y2="181.345" gradientUnits="userSpaceOnUse">
<stop stop-color="#387EB8"/>
<stop offset="1" stop-color="#366994"/>
</linearGradient>
<linearGradient id="paint1_linear" x1="283.99" y1="167.433" x2="326.619" y2="207.574" gradientUnits="userSpaceOnUse">
<stop stop-color="#FFE052"/>
<stop offset="1" stop-color="#FFC331"/>
</linearGradient>
</defs>
</svg>
