<svg width="584" height="351" viewBox="0 0 584 351" fill="none" xmlns="http://www.w3.org/2000/svg">
<rect width="584" height="351" fill="white"/>
<path d="M0 351V0H452.5L75.5 351H0Z" fill="#00D8FF"/>
<path d="M547.5 0L177 351H584V0H547.5Z" fill="black" fill-opacity="0.7"/>
<g filter="url(#filter0_d)">
<circle cx="293" cy="175" r="95" fill="white"/>
</g>
<g filter="url(#filter1_ii)">
<circle cx="293.5" cy="175.5" r="69.5" fill="#00D8FF"/>
</g>
<path d="M325.509 158.113C324.402 157.731 323.286 157.378 322.161 157.053C322.35 156.278 322.524 155.513 322.678 154.76C325.213 142.409 323.556 132.458 317.897 129.182C312.472 126.041 303.599 129.316 294.638 137.147C293.755 137.92 292.891 138.715 292.048 139.532C291.484 138.989 290.909 138.456 290.325 137.934C280.933 129.562 271.52 126.033 265.867 129.319C260.447 132.469 258.841 141.824 261.123 153.529C261.35 154.689 261.606 155.842 261.892 156.988C260.559 157.369 259.273 157.773 258.043 158.204C247.032 162.058 240 168.099 240 174.365C240 180.836 247.549 187.327 259.017 191.263C259.947 191.58 260.885 191.875 261.829 192.146C261.522 193.38 261.25 194.623 261.012 195.873C258.837 207.376 260.536 216.509 265.942 219.639C271.525 222.872 280.897 219.55 290.022 211.541C290.761 210.89 291.485 210.22 292.192 209.533C293.105 210.417 294.042 211.276 295.003 212.108C303.842 219.745 312.572 222.828 317.972 219.689C323.551 216.447 325.364 206.635 323.01 194.698C322.824 193.763 322.617 192.833 322.386 191.907C323.044 191.712 323.69 191.51 324.32 191.3C336.243 187.335 344 180.922 344 174.365C344 168.076 336.741 161.995 325.509 158.113V158.113ZM322.923 187.067C322.354 187.255 321.771 187.438 321.176 187.615C319.86 183.431 318.084 178.983 315.91 174.386C317.984 169.899 319.692 165.508 320.971 161.351C322.035 161.66 323.068 161.986 324.063 162.33C333.687 165.657 339.557 170.575 339.557 174.365C339.557 178.401 333.217 183.641 322.923 187.067V187.067ZM318.652 195.565C319.692 200.843 319.841 205.615 319.151 209.346C318.532 212.699 317.287 214.933 315.746 215.829C312.469 217.734 305.46 215.258 297.901 208.727C297.007 207.953 296.135 207.155 295.286 206.332C298.216 203.114 301.145 199.374 304.003 195.219C309.031 194.771 313.781 194.038 318.089 193.039C318.301 193.898 318.489 194.741 318.652 195.565V195.565ZM275.456 215.5C272.254 216.635 269.703 216.667 268.162 215.775C264.881 213.875 263.517 206.542 265.378 196.705C265.599 195.543 265.852 194.387 266.137 193.238C270.397 194.185 275.112 194.865 280.152 195.275C283.03 199.341 286.043 203.078 289.079 206.35C288.434 206.977 287.773 207.588 287.098 208.182C283.063 211.723 279.02 214.236 275.456 215.5V215.5ZM260.455 187.042C255.383 185.301 251.195 183.039 248.325 180.571C245.745 178.353 244.443 176.151 244.443 174.365C244.443 170.562 250.089 165.712 259.505 162.416C260.648 162.016 261.844 161.639 263.085 161.285C264.387 165.535 266.094 169.979 268.154 174.473C266.067 179.033 264.336 183.548 263.021 187.849C262.159 187.601 261.304 187.332 260.455 187.042V187.042ZM265.483 152.672C263.529 142.644 264.827 135.078 268.093 133.18C271.573 131.157 279.266 134.041 287.375 141.27C287.904 141.743 288.424 142.225 288.936 142.716C285.914 145.974 282.928 149.683 280.076 153.724C275.185 154.18 270.503 154.911 266.198 155.89C265.933 154.824 265.695 153.751 265.483 152.673V152.672ZM310.344 163.795C309.327 162.032 308.273 160.29 307.182 158.573C310.5 158.994 313.679 159.553 316.665 160.237C315.768 163.121 314.651 166.137 313.336 169.229C312.375 167.398 311.377 165.586 310.344 163.795V163.795ZM292.05 145.904C294.099 148.133 296.151 150.622 298.17 153.322C294.075 153.128 289.973 153.127 285.878 153.32C287.899 150.644 289.969 148.159 292.05 145.904ZM273.638 163.826C272.618 165.602 271.639 167.403 270.702 169.225C269.409 166.144 268.302 163.115 267.398 160.19C270.365 159.523 273.529 158.978 276.827 158.564C275.723 160.293 274.66 162.047 273.638 163.825V163.826ZM276.921 190.482C273.515 190.1 270.303 189.584 267.337 188.935C268.255 185.957 269.386 182.864 270.708 179.717C271.648 181.541 272.631 183.342 273.656 185.12C274.71 186.947 275.801 188.737 276.921 190.482ZM292.173 203.139C290.067 200.858 287.966 198.335 285.915 195.62C287.907 195.699 289.937 195.739 292 195.739C294.12 195.739 296.215 195.691 298.278 195.599C296.253 198.362 294.208 200.889 292.173 203.139ZM313.378 179.556C314.768 182.738 315.94 185.815 316.87 188.742C313.855 189.433 310.599 189.989 307.169 190.402C308.268 188.653 309.333 186.881 310.362 185.089C311.408 183.267 312.414 181.423 313.378 179.556V179.556ZM306.513 182.86C304.938 185.608 303.274 188.304 301.524 190.943C298.354 191.168 295.178 191.28 292 191.278C288.763 191.278 285.615 191.177 282.584 190.98C280.788 188.347 279.093 185.647 277.501 182.885H277.501C275.916 180.138 274.436 177.331 273.063 174.471C274.433 171.611 275.908 168.803 277.488 166.053L277.487 166.054C279.066 163.304 280.748 160.615 282.53 157.993C285.623 157.758 288.794 157.636 292 157.636H292C295.22 157.636 298.396 157.76 301.488 157.996C303.252 160.614 304.923 163.294 306.499 166.03C308.083 168.773 309.578 171.567 310.982 174.408C309.593 177.278 308.102 180.097 306.513 182.86V182.86ZM315.678 133.047C319.161 135.063 320.515 143.195 318.327 153.86C318.187 154.54 318.03 155.233 317.86 155.936C313.545 154.936 308.859 154.192 303.954 153.73C301.096 149.644 298.135 145.93 295.163 142.714C295.942 141.96 296.739 141.225 297.555 140.511C305.233 133.802 312.409 131.154 315.678 133.047V133.047ZM292 165.04C297.129 165.04 301.287 169.215 301.287 174.365C301.287 179.514 297.129 183.689 292 183.689C286.871 183.689 282.713 179.514 282.713 174.365C282.713 169.215 286.871 165.04 292 165.04V165.04Z" fill="black"/>
<defs>
<filter id="filter0_d" x="193" y="76" width="206" height="206" filterUnits="userSpaceOnUse" color-interpolation-filters="sRGB">
<feFlood flood-opacity="0" result="BackgroundImageFix"/>
<feColorMatrix in="SourceAlpha" type="matrix" values="0 0 0 0 0 0 0 0 0 0 0 0 0 0 0 0 0 0 127 0" result="hardAlpha"/>
<feOffset dx="3" dy="4"/>
<feGaussianBlur stdDeviation="4"/>
<feComposite in2="hardAlpha" operator="out"/>
<feColorMatrix type="matrix" values="0 0 0 0 0 0 0 0 0 0 0 0 0 0 0 0 0 0 0.5 0"/>
<feBlend mode="normal" in2="BackgroundImageFix" result="effect1_dropShadow"/>
<feBlend mode="normal" in="SourceGraphic" in2="effect1_dropShadow" result="shape"/>
</filter>
<filter id="filter1_ii" x="224" y="102" width="139" height="147" filterUnits="userSpaceOnUse" color-interpolation-filters="sRGB">
<feFlood flood-opacity="0" result="BackgroundImageFix"/>
<feBlend mode="normal" in="SourceGraphic" in2="BackgroundImageFix" result="shape"/>
<feColorMatrix in="SourceAlpha" type="matrix" values="0 0 0 0 0 0 0 0 0 0 0 0 0 0 0 0 0 0 127 0" result="hardAlpha"/>
<feOffset dy="4"/>
<feGaussianBlur stdDeviation="2"/>
<feComposite in2="hardAlpha" operator="arithmetic" k2="-1" k3="1"/>
<feColorMatrix type="matrix" values="0 0 0 0 0 0 0 0 0 0 0 0 0 0 0 0 0 0 0.25 0"/>
<feBlend mode="normal" in2="shape" result="effect1_innerShadow"/>
<feColorMatrix in="SourceAlpha" type="matrix" values="0 0 0 0 0 0 0 0 0 0 0 0 0 0 0 0 0 0 127 0" result="hardAlpha"/>
<feOffset dy="-4"/>
<feGaussianBlur stdDeviation="2"/>
<feComposite in2="hardAlpha" operator="arithmetic" k2="-1" k3="1"/>
<feColorMatrix type="matrix" values="0 0 0 0 0 0 0 0 0 0 0 0 0 0 0 0 0 0 0.25 0"/>
<feBlend mode="normal" in2="effect1_innerShadow" result="effect2_innerShadow"/>
</filter>
</defs>
</svg>
