<svg width="1042" height="555" viewBox="0 0 1042 555" fill="none" xmlns="http://www.w3.org/2000/svg">
<g opacity="0.1">
<path opacity="0.1" d="M164.99 43.42V553.04L122.66 553.5C113.627 553.602 104.631 552.314 95.99 549.68V105.42H96.06C116.85 79.87 140.16 58.55 164.99 43.42Z" fill="#00B0FF"/>
<path opacity="0.1" d="M1039.99 116.5H87.35C90.1833 112.74 93.0633 109.073 95.99 105.5V105.42H1037.62C1038.53 109.04 1039.32 112.733 1039.99 116.5Z" fill="#00B0FF"/>
<path opacity="0.1" d="M963.57 17.93V444.93H960.1C958.3 448.71 956.523 452.417 954.77 456.05C953.99 457.66 953.21 459.24 952.45 460.82V13.89C956.297 15.13 960.003 16.4767 963.57 17.93Z" fill="#00B0FF"/>
<path opacity="0.1" d="M698.96 13V547.25L687.84 547.37V15.28C691.53 14.5 695.23 13.73 698.96 13Z" fill="#00B0FF"/>
<path opacity="0.1" d="M431.97 62.57V550.15L420.86 550.27V62.04C424.57 62.28 428.28 62.42 431.97 62.57Z" fill="#00B0FF"/>
<path opacity="0.1" d="M960.1 444.94C958.3 448.72 956.523 452.427 954.77 456.06H16.6C15.3133 452.4 14.1133 448.693 13 444.94H960.1Z" fill="#00B0FF"/>
</g>
<path d="M230.6 265.83H211.6V323.49H230.6V265.83Z" fill="#3F3D56"/>
<path d="M741.93 262.83H722.93V323.83H741.93V262.83Z" fill="#3F3D56"/>
<path d="M863.1 533.65V546.65L711.18 548.05L709.56 548.08L651.82 548.61L650.44 548.63L632.89 548.78H632.37L525.39 549.77L349.78 551.4H349.63L304.98 551.82L304.5 551.83L106.1 553.65V538.65L152.75 510.65L246.35 509.87L248.35 509.86L249.01 509.85L251.01 509.82L295.95 509.45L297.96 509.44L298.6 509.43L300.6 509.42L315.01 509.3L315.39 509.29L350.94 508.99H351.23L628.63 506.65L635.42 506.6H636.1L641.28 506.55L678.93 506.24L680.93 506.21L682.78 506.19H683.74L695.45 506.1L697.77 506.07L700.88 506.05L710.63 505.96L726.1 505.83L728.1 505.81L731.58 505.79H732.23L806.94 505.15L863.1 533.65Z" fill="#65617D"/>
<path opacity="0.2" d="M863.1 533.65V546.65L711.18 548.05L709.56 548.08L651.82 548.61L650.44 548.63L632.89 548.78H632.37L525.39 549.77L349.78 551.4H349.63L304.98 551.82L304.5 551.83L106.1 553.65V538.65L152.75 510.65L246.35 509.87L248.35 509.86L249.01 509.85L251.01 509.82L295.95 509.45L297.96 509.44L298.6 509.43L300.6 509.42L315.01 509.3L315.39 509.29L350.94 508.99H351.23L628.63 506.65L635.42 506.6H636.1L641.28 506.55L678.93 506.24L680.93 506.21L682.78 506.19H683.74L695.45 506.1L697.77 506.07L700.88 506.05L710.63 505.96L726.1 505.83L728.1 505.81L731.58 505.79H732.23L806.94 505.15L863.1 533.65Z" fill="black"/>
<path d="M296.1 483.66V508.15C296.101 509.31 295.772 510.446 295.152 511.427C294.533 512.408 293.648 513.192 292.6 513.69C291.82 514.068 290.967 514.273 290.1 514.29L255.2 515.03C254.268 515.052 253.343 514.857 252.5 514.46C251.434 513.971 250.53 513.186 249.897 512.199C249.265 511.211 248.929 510.063 248.93 508.89V483.66H296.1Z" fill="#3F3D56"/>
<path opacity="0.1" d="M296.1 483.66V508.15C296.101 509.31 295.772 510.446 295.152 511.427C294.533 512.408 293.648 513.192 292.6 513.69C291.82 514.068 290.967 514.273 290.1 514.29L255.2 515.03C254.268 515.052 253.343 514.857 252.5 514.46C251.434 513.971 250.53 513.186 249.897 512.199C249.265 511.211 248.929 510.063 248.93 508.89V483.66H296.1Z" fill="black"/>
<path d="M298.1 483.66V508.15C298.101 509.31 297.772 510.446 297.152 511.427C296.533 512.408 295.648 513.192 294.6 513.69C293.82 514.068 292.967 514.273 292.1 514.29L257.2 515.03C256.268 515.052 255.343 514.857 254.5 514.46C253.434 513.971 252.53 513.186 251.897 512.199C251.265 511.211 250.929 510.063 250.93 508.89V483.66H298.1Z" fill="#3F3D56"/>
<path d="M728.1 483.66H680.93V515.16H728.1V483.66Z" fill="#3F3D56"/>
<path opacity="0.1" d="M728.1 483.66H680.93V515.16H728.1V483.66Z" fill="black"/>
<path d="M726.1 483.66H678.93V515.16H726.1V483.66Z" fill="#3F3D56"/>
<path opacity="0.1" d="M230.6 265.82V271.55L211.6 271.06V265.82H230.6Z" fill="black"/>
<path d="M355.66 104.4L332.83 268.4C332.685 269.448 332.16 270.405 331.353 271.089C330.547 271.774 329.517 272.137 328.46 272.11L145.66 267.37L142.19 267.28C141.586 267.266 140.991 267.124 140.446 266.865C139.9 266.605 139.415 266.234 139.022 265.774C138.63 265.315 138.339 264.777 138.168 264.198C137.997 263.618 137.95 263.009 138.03 262.41L163.66 90.73C163.825 89.6666 164.383 88.7037 165.224 88.0317C166.064 87.3596 167.126 87.0272 168.2 87.1L351.66 99.52C352.252 99.5543 352.83 99.7109 353.359 99.98C353.887 100.249 354.354 100.625 354.73 101.083C355.105 101.542 355.382 102.073 355.542 102.644C355.702 103.215 355.743 103.813 355.66 104.4Z" fill="#65617D"/>
<path d="M175.93 99.16L156.6 250.49L324.6 255.82L345.26 109.82L175.93 99.16Z" fill="#00B0FF"/>
<path d="M583.94 96.82H389.93C386.986 96.82 384.6 99.2063 384.6 102.15V264.82C384.6 267.764 386.986 270.15 389.93 270.15H583.94C586.884 270.15 589.27 267.764 589.27 264.82V102.15C589.27 99.2063 586.884 96.82 583.94 96.82Z" fill="#65617D"/>
<path d="M580.26 108.49H394.26V252.82H580.26V108.49Z" fill="#00B0FF"/>
<path opacity="0.1" d="M741.93 262.82V266.61L722.93 267V262.82H741.93Z" fill="black"/>
<path d="M827.66 259.62C827.687 260.034 827.63 260.45 827.492 260.842C827.355 261.233 827.139 261.593 826.859 261.9C826.579 262.206 826.24 262.453 825.862 262.624C825.484 262.796 825.075 262.89 824.66 262.9L637.46 266.77C636.682 266.786 635.927 266.507 635.347 265.99C634.766 265.472 634.403 264.754 634.33 263.98L618.24 96.7C618.2 96.2849 618.245 95.8662 618.372 95.4691C618.499 95.0719 618.705 94.7047 618.978 94.3896C619.251 94.0745 619.585 93.8181 619.96 93.636C620.335 93.4538 620.744 93.3497 621.16 93.33L806.94 84.09L808.94 83.99C809.735 83.9481 810.515 84.2167 811.116 84.7391C811.717 85.2615 812.091 85.9969 812.16 86.79L827.66 259.62Z" fill="#65617D"/>
<path d="M628.93 103.16L798.6 94.82L812.93 246.82L644.6 250.82L628.93 103.16Z" fill="#00B0FF"/>
<path opacity="0.1" d="M827.66 259.62C827.687 260.034 827.63 260.45 827.492 260.842C827.355 261.233 827.139 261.593 826.859 261.9C826.579 262.206 826.24 262.453 825.862 262.624C825.484 262.796 825.075 262.89 824.66 262.9L806.94 84.09L808.94 83.99C809.735 83.9481 810.515 84.2167 811.116 84.7391C811.717 85.2615 812.091 85.9969 812.16 86.79L827.66 259.62Z" fill="black"/>
<path opacity="0.1" d="M168.23 87.09L145.66 267.37L142.19 267.28C141.586 267.266 140.991 267.124 140.446 266.865C139.9 266.605 139.415 266.234 139.022 265.774C138.63 265.315 138.339 264.777 138.168 264.198C137.997 263.618 137.95 263.009 138.03 262.41L163.66 90.73C163.823 89.6592 164.385 88.6895 165.232 88.0147C166.079 87.3398 167.15 87.0096 168.23 87.09Z" fill="black"/>
<path opacity="0.1" d="M230.6 306.41H211.6V323.49H230.6V306.41Z" fill="black"/>
<path opacity="0.1" d="M298.1 483.65V488.62L250.93 489.88V483.65H298.1Z" fill="black"/>
<path d="M381.35 312.36V480.56C381.338 481.587 380.931 482.569 380.215 483.305C379.498 484.04 378.526 484.472 377.5 484.51L185.85 489.61H185.8C184.756 489.597 183.759 489.177 183.021 488.439C182.283 487.701 181.863 486.704 181.85 485.66V312.36C181.863 311.316 182.283 310.319 183.021 309.581C183.759 308.843 184.756 308.423 185.8 308.41H377.4C378.444 308.423 379.441 308.843 380.179 309.581C380.917 310.319 381.337 311.316 381.35 312.36Z" fill="#65617D"/>
<path opacity="0.1" d="M185.85 308.41V489.61H185.8C184.756 489.597 183.759 489.177 183.021 488.439C182.283 487.701 181.863 486.704 181.85 485.66V312.36C181.863 311.316 182.283 310.319 183.021 309.581C183.759 308.843 184.756 308.423 185.8 308.41H185.85Z" fill="black"/>
<path d="M194.6 319.15H372.1V467.4L194.6 471.4V319.15Z" fill="#D4DFEC"/>
<path opacity="0.1" d="M741.93 306.41H722.93V323.83H741.93V306.41Z" fill="black"/>
<path opacity="0.1" d="M726.1 483.65V490.06L678.93 488.8V483.65H726.1Z" fill="black"/>
<path d="M788.35 312.36V485.66C788.337 486.712 787.91 487.717 787.161 488.456C786.412 489.196 785.402 489.61 784.35 489.61L592.66 484.51C591.634 484.472 590.662 484.04 589.945 483.305C589.229 482.569 588.822 481.587 588.81 480.56V312.36C588.823 311.316 589.243 310.319 589.981 309.581C590.719 308.843 591.716 308.423 592.76 308.41H784.36C785.411 308.413 786.418 308.828 787.164 309.567C787.911 310.306 788.337 311.31 788.35 312.36Z" fill="#65617D"/>
<path opacity="0.1" d="M788.35 312.36V485.66C788.337 486.712 787.91 487.717 787.161 488.456C786.412 489.196 785.402 489.61 784.35 489.61V308.41C785.402 308.41 786.412 308.825 787.161 309.564C787.91 310.303 788.337 311.308 788.35 312.36Z" fill="black"/>
<path d="M777.5 317H600V465.25L777.5 469.25V317Z" fill="#D4DFEC"/>
<path d="M583.85 312.36V480.56C583.838 481.587 583.431 482.569 582.715 483.305C581.998 484.04 581.026 484.472 580 484.51L388.35 489.61C387.298 489.61 386.288 489.196 385.539 488.456C384.79 487.717 384.363 486.712 384.35 485.66V312.36C384.363 311.316 384.783 310.319 385.521 309.581C386.259 308.843 387.256 308.423 388.3 308.41H579.9C580.944 308.423 581.941 308.843 582.679 309.581C583.417 310.319 583.837 311.316 583.85 312.36Z" fill="#65617D"/>
<path d="M397.1 319.15H574.6V467.4L397.1 471.4V319.15Z" fill="#D4DFEC"/>
<path opacity="0.1" d="M863.1 533.65V546.65L711.18 548.05L709.56 548.08L651.82 548.61L650.44 548.63L632.89 548.78H632.37L525.39 549.77L349.78 551.4H349.63L304.98 551.82L304.5 551.83L106.1 553.65V538.65L308.61 537.32H309.09L350.08 537.04H350.27L633.35 535.17H633.64L633.81 535.16H634.28L639.07 535.13H640.53L715.02 534.63L719.42 534.61L720.4 534.6L863.1 533.65Z" fill="black"/>
<path d="M487.26 323.49C515.609 323.49 538.59 300.509 538.59 272.16C538.59 243.811 515.609 220.83 487.26 220.83C458.911 220.83 435.93 243.811 435.93 272.16C435.93 300.509 458.911 323.49 487.26 323.49Z" fill="#FBBEBE"/>
<path d="M538.6 377.16C538.6 377.16 439.1 389.16 448.6 377.16C452.04 372.82 452.99 359.96 452.8 345.31C452.74 340.86 452.58 336.25 452.35 331.66C451.25 309.66 448.6 288.16 448.6 288.16C448.6 288.16 535.6 247.16 525.6 279.66C521.6 292.79 522.91 311.23 525.95 328.54C526.84 333.59 527.87 338.54 528.95 343.24C531.586 354.704 534.807 366.025 538.6 377.16Z" fill="#FBBEBE"/>
<path opacity="0.1" d="M538.6 377.16C538.6 377.16 439.1 389.16 448.6 377.16C452.04 372.82 452.99 359.96 452.8 345.31C467.97 338.83 487.27 343.66 487.27 343.66C507.59 339.61 520.62 340.4 528.95 343.24C531.586 354.704 534.807 366.025 538.6 377.16Z" fill="black"/>
<path d="M349.74 552.53V551.69L525.36 549.78L632.36 548.78H632.66L632.55 550.26L632.7 548.78H632.89V548.61L634.26 535.16L634.78 530.07L634.94 528.48L635.08 527.15L641.26 506.54L647.44 485.96L652.64 468.63L660.58 442.15C660.58 442.15 656.08 431.65 653.58 428.65C651.08 425.65 648.58 405.15 648.58 405.15C648.58 405.15 627.24 384.82 617.91 382.48C614 381.48 606.28 380.15 598.08 378.48C595.01 377.86 591.86 377.2 588.83 376.48C587.12 376.09 585.44 375.68 583.83 375.27C580.696 374.487 577.608 373.533 574.58 372.41C572.992 371.833 571.481 371.064 570.08 370.12C562.73 364.73 544.31 364.12 543.6 364.12C543.598 364.097 543.598 364.073 543.6 364.05V363.96C543.626 363.54 543.626 363.12 543.6 362.7C543.6 362.3 543.6 361.83 543.51 361.3C543.51 361.14 543.51 360.97 543.44 360.8C543.39 360.44 543.33 360.06 543.24 359.66C543.21 359.481 543.17 359.304 543.12 359.13C542.83 357.925 542.411 356.755 541.87 355.64C541.8 355.48 541.71 355.31 541.63 355.15C541.14 354.226 540.571 353.346 539.93 352.52C539.8 352.35 539.66 352.17 539.51 352C538.691 351.034 537.78 350.15 536.79 349.36C536.52 349.15 536.24 348.93 535.95 348.73C535.788 348.599 535.618 348.478 535.44 348.37L534.55 347.79L533.72 347.31C532.99 346.91 532.22 346.52 531.38 346.15C531.12 346.03 530.84 345.92 530.56 345.81C530.28 345.7 529.84 345.53 529.47 345.39H529.41L528.66 345.09C528.09 344.9 527.51 344.73 526.9 344.56L525.97 344.32L524.97 344.09L523.97 343.88C522.97 343.68 521.9 343.5 520.78 343.36L519.64 343.22L518.47 343.1L517.26 343L515.54 342.9L513.54 342.83C504.719 342.829 495.923 343.764 487.3 345.62C481.309 344.287 475.173 343.722 469.04 343.94H468.17L467.17 344H466.53L465.24 344.12C464.81 344.12 464.37 344.21 463.94 344.27C463.51 344.33 463.06 344.38 462.63 344.45L461.97 344.56C461.32 344.67 460.66 344.79 459.97 344.93C459.75 344.97 459.53 345.02 459.31 345.08C458.44 345.27 457.57 345.5 456.71 345.76C456.28 345.88 455.85 346.02 455.42 346.17C455.2 346.23 454.99 346.31 454.78 346.39L454.14 346.62L453.51 346.87L452.76 347.17C452.38 347.33 452.01 347.5 451.64 347.68C451.43 347.77 451.22 347.87 451.02 347.98C450.82 348.09 450.61 348.18 450.42 348.29C448.159 349.458 446.069 350.932 444.21 352.67L443.7 353.16L443.2 353.67C443.03 353.84 442.87 354.02 442.71 354.2C442.058 354.912 441.45 355.664 440.89 356.45C440.73 356.66 440.58 356.87 440.43 357.09C439.795 358.026 439.221 359.001 438.71 360.01C438.58 360.25 438.46 360.5 438.34 360.74C437.524 362.429 436.855 364.186 436.34 365.99C436.153 366.657 435.983 367.323 435.83 367.99C435.83 367.99 414.66 377.33 397.1 384.09C392.43 385.89 388.03 387.52 384.35 388.75C383.28 389.11 382.28 389.44 381.35 389.75C379.332 390.479 377.234 390.963 375.1 391.19C374.094 391.206 373.091 391.3 372.1 391.47C364.03 392.78 350.2 398.47 348.69 404.18C348.567 404.636 348.533 405.111 348.59 405.58C348.59 405.58 348.59 405.65 348.59 405.69C349.59 412.69 342.59 411.69 342.59 411.69C342.59 411.69 340.09 430.19 336.59 435.19C334.06 438.79 332.33 446.82 332.11 452.88C331.984 454.768 332.132 456.664 332.55 458.51C332.55 458.56 332.55 458.61 332.55 458.65C332.95 459.99 331.99 463.65 330.36 468.34C328.59 473.49 326.01 479.89 323.53 485.93C319.79 495.05 316.27 503.33 316.05 505.15C315.96 505.96 315.7 507.41 315.34 509.28C313.88 516.9 310.64 531.41 309.04 537.28C307.85 541.66 306.12 547.66 304.93 551.78C304.93 551.9 304.86 552.02 304.83 552.13L349.66 551.69V552.53H349.8H349.74Z" fill="#00B0FF"/>
<path opacity="0.1" d="M366.1 434.66C366.1 434.66 423.1 464.16 443.6 460.66L366.1 434.66Z" fill="black"/>
<path opacity="0.1" d="M482.1 422.66C482.1 422.66 537.6 440.66 556.1 443.16C574.6 445.66 482.1 422.66 482.1 422.66Z" fill="black"/>
<path opacity="0.1" d="M543.66 364.74C514.66 370.08 460.06 368.93 436.46 368.12C445.11 337.12 487.29 347.66 487.29 347.66C539.5 337.24 543.5 358.86 543.66 364.74Z" fill="black"/>
<path d="M697.6 499.41C697.6 499.41 731.76 494.16 732.43 509.16C733.1 524.16 715.01 534.64 715.01 534.64L697.6 499.41Z" fill="#FBBEBE"/>
<path opacity="0.1" d="M525.95 328.54C524.481 329.197 522.979 329.777 521.45 330.28C510.67 334 499.8 337.75 488.45 339.11C477.1 340.47 465.19 339.27 455.29 333.61C454.251 333.023 453.249 332.372 452.29 331.66C451.19 309.66 448.54 288.16 448.54 288.16C448.54 288.16 535.54 247.16 525.54 279.66C521.56 292.79 522.91 311.23 525.95 328.54Z" fill="#ECF76F" fill-opacity="0.78"/>
<path d="M473.18 191.93C471.753 192.307 470.257 192.345 468.813 192.041C467.368 191.737 466.014 191.1 464.86 190.18L466.94 193.07C465.714 193.211 464.472 193.083 463.301 192.695C462.13 192.306 461.058 191.666 460.16 190.82C459.971 193.407 460.079 196.007 460.48 198.57C457.038 198.736 453.65 197.673 450.92 195.57C450.867 196.472 451.091 197.369 451.563 198.14C452.035 198.91 452.732 199.518 453.56 199.88C450.103 199.467 446.613 200.326 443.743 202.297C440.872 204.267 438.817 207.215 437.96 210.59L443.18 211.07C439.078 211.946 435.396 214.193 432.74 217.44C431.14 219.44 429.92 222 430.62 224.44C431.32 226.88 434.7 228.44 436.54 226.7C433.923 229.824 432.02 233.483 430.967 237.42C429.913 241.356 429.733 245.476 430.44 249.49C430.915 251.2 431.071 252.983 430.9 254.75C430.57 256.4 429.53 257.83 429.01 259.44C428.01 262.36 428.96 265.53 429.85 268.44L434.54 283.86C436.24 289.43 437.93 295.01 440.15 300.4C441.722 303.808 443.059 307.319 444.15 310.91C445.41 315.75 445.46 321.05 448.15 325.28C449.994 327.942 452.458 330.115 455.33 331.61C465.22 337.27 477.17 338.47 488.49 337.11C499.81 335.75 510.67 332 521.44 328.28C523.833 327.559 526.129 326.552 528.28 325.28C535.73 320.4 537.39 310.42 538.78 301.63C540.33 291.83 542.4 282.05 546.07 272.83C548.25 267.34 551.07 261.77 550.59 255.89C549.98 248.08 543.8 241.75 542.27 234.07C541.758 231.503 541.782 228.857 542.34 226.3C542.814 224.776 543.08 223.195 543.13 221.6C542.96 218.38 540.32 215.9 537.84 213.83C532.46 209.337 526.907 205.09 521.18 201.09C520.89 199.09 523.61 198.23 524.84 196.65C526.58 194.42 524.78 190.88 522.14 189.84C519.5 188.8 516.54 189.48 513.79 190.17C513.969 188.762 513.689 187.335 512.992 186.099C512.294 184.863 511.217 183.885 509.919 183.311C508.621 182.737 507.173 182.597 505.79 182.912C504.406 183.227 503.161 183.981 502.24 185.06C501.51 183.385 500.343 181.938 498.862 180.868C497.381 179.799 495.639 179.146 493.82 178.98C487.19 178.46 487.06 183.53 482.82 186.32C478.58 189.11 475.08 185.43 471.82 182.75C471.221 184.265 471.031 185.911 471.27 187.522C471.509 189.134 472.168 190.654 473.18 191.93Z" fill="#3F3D56"/>
<path d="M722.93 529.41C722.93 529.41 722.04 531.53 720.4 534.6C717.919 539.323 714.899 543.743 711.4 547.77L711.13 548.06H709.51L651.77 548.59H650.39L650.22 548.39L639.02 535.1L634.8 530.09L634.63 529.88L634.27 529.46L634.07 529.22L633.81 528.91L625.6 519.17L628.6 506.67L633.71 485.61L633.84 485.1L634.84 481.1L635.55 478.1L637.93 468.32L646.09 434.67L660.59 442.17L675.88 469.17L684.09 483.67H688.59C689.44 483.67 691.39 485.31 693.35 487.2C694.05 487.87 694.75 488.58 695.35 489.2C697.13 491.04 698.54 492.62 698.54 492.62C698.54 492.62 705.83 492.78 707.79 498.52C707.891 498.798 707.975 499.082 708.04 499.37C708.691 501.626 709.537 503.821 710.57 505.93C711.86 508.74 713.48 511.93 715.12 515.12C718.17 520.97 721.27 526.54 722.41 528.56L722.55 528.81L722.93 529.41Z" fill="#00B0FF"/>
<path opacity="0.1" d="M637.03 484.26L636.93 485.69V485.79L636.76 488.09L635.43 506.6L633.82 528.9L633.36 535.18L632.36 548.62V548.79L525.36 549.79L349.77 551.69V552.53H349.63V551.69V551.41L350.08 537.05L350.94 508.99L351.68 485.2L351.75 482.83C351.794 481.4 352.129 479.993 352.734 478.696C353.34 477.4 354.203 476.24 355.272 475.288C356.341 474.336 357.592 473.612 358.95 473.161C360.308 472.709 361.744 472.538 363.17 472.66C367.89 473.06 374.02 473.55 381.35 474.07L384.35 474.29C426.68 477.23 504.91 481.03 583.85 476.29C585.51 476.2 587.18 476.1 588.85 475.98C601.09 475.21 613.32 474.22 625.43 472.98C626.961 472.82 628.508 472.997 629.963 473.499C631.418 474.001 632.746 474.817 633.851 475.887C634.957 476.958 635.815 478.258 636.364 479.696C636.913 481.134 637.141 482.675 637.03 484.21V484.26Z" fill="black"/>
<path d="M349.74 552.53V551.69L525.36 549.78L632.36 548.78H632.66V548.61L633.66 535.17L634.09 529.17L635.73 506.56L637.02 488.66V488.22C637.08 487.395 637.043 486.566 636.91 485.75C636.916 485.717 636.916 485.683 636.91 485.65C636.635 483.962 635.948 482.368 634.91 481.01C633.809 479.598 632.366 478.49 630.718 477.79C629.07 477.09 627.271 476.822 625.49 477.01C613.38 478.25 601.15 479.24 588.91 480.01C587.24 480.13 585.57 480.23 583.91 480.32C504.97 485.01 426.74 481.21 384.41 478.32L381.41 478.1C374.08 477.58 367.95 477.1 363.23 476.69C360.633 476.471 358.048 477.221 355.972 478.797C353.896 480.372 352.478 482.66 351.99 485.22C351.889 485.761 351.829 486.31 351.81 486.86L351.13 509.02L350.2 537.09L349.76 551.45V551.73V552.57L349.74 552.53Z" fill="#3F3D56"/>
<path opacity="0.1" d="M637.33 491.27L636.1 506.6L634.27 529.45L633.81 535.17L632.81 547.98L632.75 548.62V548.79L632.6 550.27L632.71 548.79H632.42L525.42 549.79L349.77 551.69V551.41L350.26 537.05L351.26 508.99L351.9 490.34C351.931 489.279 352.228 488.243 352.762 487.326C353.297 486.409 354.052 485.64 354.96 485.09C356.092 484.396 357.416 484.081 358.74 484.19C360.84 484.36 363.42 484.56 366.43 484.78C371.32 485.14 377.35 485.56 384.37 486C397.37 486.82 413.68 487.7 432.37 488.42C484.37 490.42 554.57 491.09 621.25 485.25C624.25 484.99 627.35 484.7 630.38 484.41C631.579 484.29 632.788 484.52 633.86 485.07C634.164 485.221 634.452 485.402 634.72 485.61C635.591 486.241 636.28 487.089 636.72 488.07C636.822 488.265 636.906 488.469 636.97 488.68C637.27 489.509 637.393 490.391 637.33 491.27Z" fill="black"/>
<path opacity="0.1" d="M298.1 504.96V508.15C298.101 509.31 297.772 510.446 297.152 511.427C296.533 512.408 295.648 513.192 294.6 513.69L254.5 514.46C253.434 513.971 252.53 513.186 251.897 512.199C251.265 511.211 250.929 510.063 250.93 508.89V505.89L298.1 504.96Z" fill="black"/>
<path d="M298.6 515.57L246.35 516.57V507.9L298.6 506.9V515.57Z" fill="#3F3D56"/>
<path opacity="0.1" d="M298.6 515.57L246.35 516.57V507.9L298.6 506.9V515.57Z" fill="black"/>
<path d="M300.6 515.57L248.35 516.57V507.9L300.6 506.9V515.57Z" fill="#3F3D56"/>
<g opacity="0.1">
<path opacity="0.1" d="M473.59 188.65C472.613 187.381 471.964 185.89 471.7 184.31C471.459 185.855 471.603 187.435 472.12 188.91C472.616 188.864 473.108 188.777 473.59 188.65Z" fill="black"/>
<path opacity="0.1" d="M460.89 195.29C460.701 194.064 460.578 192.829 460.52 191.59C460.52 192.82 460.52 194.06 460.52 195.3L460.89 195.29Z" fill="black"/>
<path opacity="0.1" d="M542.39 228.66C542.445 227.769 542.566 226.883 542.75 226.01C543.223 224.489 543.492 222.912 543.55 221.32C543.528 220.963 543.474 220.608 543.39 220.26C543.22 221.18 542.95 222.1 542.75 223.01C542.351 224.865 542.229 226.769 542.39 228.66Z" fill="black"/>
<path opacity="0.1" d="M521.59 197.76L522.68 198.55C523.599 197.885 524.459 197.143 525.25 196.33C525.626 195.81 525.859 195.199 525.926 194.561C525.993 193.922 525.891 193.277 525.63 192.69C525.53 192.918 525.403 193.133 525.25 193.33C524.02 194.91 521.3 195.78 521.59 197.76Z" fill="black"/>
<path opacity="0.1" d="M439.42 207.38C439.055 208.109 438.764 208.873 438.55 209.66C440.114 208.787 441.799 208.15 443.55 207.77L439.42 207.38Z" fill="black"/>
<path opacity="0.1" d="M453.21 196.5C452.553 196.138 451.925 195.727 451.33 195.27C451.305 195.666 451.335 196.063 451.42 196.45C452.017 196.422 452.615 196.438 453.21 196.5Z" fill="black"/>
<path opacity="0.1" d="M550.98 255.42C550.57 260.27 548.31 264.94 546.48 269.54C542.81 278.76 540.74 288.54 539.19 298.35C537.8 307.14 536.19 317.12 528.69 321.99C526.547 323.27 524.253 324.278 521.86 324.99C511.08 328.72 500.21 332.46 488.86 333.82C477.51 335.18 465.6 333.99 455.7 328.33C452.83 326.832 450.366 324.66 448.52 322C445.85 317.77 445.8 312.47 444.52 307.63C443.429 304.036 442.092 300.521 440.52 297.11C438.31 291.73 436.61 286.11 434.92 280.58C433.353 275.44 431.79 270.297 430.23 265.15C429.716 263.602 429.335 262.013 429.09 260.4C428.7 262.96 429.46 265.64 430.23 268.15C431.79 273.303 433.353 278.447 434.92 283.58C436.61 289.15 438.31 294.73 440.52 300.11C442.092 303.521 443.429 307.036 444.52 310.63C445.78 315.47 445.83 320.77 448.52 325C450.366 327.66 452.83 329.832 455.7 331.33C465.6 336.99 477.54 338.18 488.86 336.82C500.18 335.46 511.04 331.72 521.86 327.99C524.253 327.278 526.547 326.27 528.69 324.99C536.14 320.12 537.8 310.14 539.19 301.35C540.74 291.54 542.81 281.76 546.48 272.54C548.66 267.06 551.48 261.49 551 255.6C551 255.54 550.98 255.48 550.98 255.42Z" fill="black"/>
<path opacity="0.1" d="M431.29 251.55C431.29 251.55 431.29 251.48 431.29 251.44C431.47 249.677 431.314 247.895 430.83 246.19C430.631 245.093 430.5 243.984 430.44 242.87C430.325 244.985 430.456 247.106 430.83 249.19C430.99 249.97 431.17 250.76 431.29 251.55Z" fill="black"/>
<path opacity="0.1" d="M434.34 227.09C435.109 225.798 435.982 224.571 436.95 223.42C435.12 225.17 431.74 223.61 431.03 221.18C430.768 222.163 430.768 223.197 431.03 224.18C431.276 224.914 431.712 225.569 432.293 226.08C432.875 226.592 433.581 226.94 434.34 227.09Z" fill="black"/>
</g>
<path opacity="0.1" d="M684.1 483.66C684.1 483.66 687.27 495.16 684.1 505.16C680.93 515.16 684.1 483.66 684.1 483.66Z" fill="black"/>
<path opacity="0.1" d="M697.6 495.39C697.6 495.39 698.93 509.99 695.93 512.58C692.93 515.17 697.6 495.39 697.6 495.39Z" fill="black"/>
<path d="M206 344L307.61 343" stroke="black" stroke-width="2" stroke-miterlimit="10"/>
<path d="M714 400L767 399" stroke="black" stroke-width="2" stroke-miterlimit="10"/>
<path d="M206.01 356.14L275.01 355.14" stroke="black" stroke-width="2" stroke-miterlimit="10"/>
<path d="M690 411L767 410" stroke="black" stroke-width="2" stroke-miterlimit="10"/>
<path d="M206.01 368.14L256.01 367.14" stroke="black" stroke-width="2" stroke-miterlimit="10"/>
<path d="M669 423L767 422" stroke="black" stroke-width="2" stroke-miterlimit="10"/>
<path d="M691.68 356.984C691.977 356.935 692.273 356.885 692.57 356.836C692.867 356.762 693.189 356.675 693.535 356.576C693.115 356.18 692.558 355.933 691.865 355.834C691.791 356.23 691.729 356.613 691.68 356.984ZM706.857 345.518C706.758 346.581 706.474 347.695 706.004 348.857C705.559 350.02 704.928 351.146 704.111 352.234C703.295 353.323 702.305 354.337 701.143 355.277C699.98 356.217 698.656 356.984 697.172 357.578C697.395 357.999 697.605 358.444 697.803 358.914C698.001 359.384 698.174 359.916 698.322 360.51C698.545 361.301 698.73 362.118 698.879 362.959C699.052 363.8 699.188 364.617 699.287 365.408C699.411 366.2 699.51 366.93 699.584 367.598C699.683 368.29 699.757 368.859 699.807 369.305C699.906 370.047 700.141 370.566 700.512 370.863C700.908 371.185 701.34 371.358 701.811 371.383C702.305 371.432 702.788 371.383 703.258 371.234C703.753 371.086 704.136 370.925 704.408 370.752C704.383 370.777 704.247 370.987 704 371.383C703.753 371.803 703.419 372.236 702.998 372.682C702.577 373.152 702.07 373.548 701.477 373.869C700.908 374.215 700.264 374.327 699.547 374.203C699.052 374.129 698.607 373.956 698.211 373.684C697.84 373.436 697.506 373.053 697.209 372.533C696.937 372.038 696.714 371.395 696.541 370.604C696.368 369.812 696.257 368.847 696.207 367.709C696.158 366.175 696.096 364.715 696.021 363.33C695.972 361.92 695.712 360.621 695.242 359.434C695.168 359.236 695.094 359.05 695.02 358.877C694.945 358.679 694.859 358.506 694.76 358.357C693.745 358.605 692.607 358.766 691.346 358.84C691.173 359.78 690.987 360.745 690.789 361.734C690.591 362.724 690.381 363.689 690.158 364.629C689.96 365.569 689.738 366.447 689.49 367.264C689.268 368.105 689.045 368.822 688.822 369.416C688.575 370.035 688.253 370.529 687.857 370.9C687.486 371.296 686.88 371.494 686.039 371.494C685.544 371.494 685.111 371.383 684.74 371.16C684.369 370.938 684.01 370.628 683.664 370.232C683.763 370.158 683.924 370.035 684.146 369.861C684.344 369.713 684.592 369.391 684.889 368.896C685.161 368.426 685.458 367.746 685.779 366.855C686.126 365.965 686.472 364.765 686.818 363.256C686.942 362.637 687.103 361.92 687.301 361.104C687.523 360.262 687.758 359.347 688.006 358.357C687.016 357.813 686.559 357.083 686.633 356.168C686.682 355.599 686.942 355.117 687.412 354.721C687.882 354.325 688.451 354.053 689.119 353.904C689.441 352.618 689.762 351.319 690.084 350.008C690.43 348.697 690.752 347.472 691.049 346.334C691.346 345.171 691.618 344.132 691.865 343.217C692.113 342.277 692.311 341.535 692.459 340.99C692.014 341.287 691.568 341.621 691.123 341.992C690.727 342.314 690.294 342.685 689.824 343.105C689.379 343.501 688.958 343.922 688.562 344.367C688.365 344.219 688.204 344.058 688.08 343.885C687.956 343.712 687.857 343.563 687.783 343.439C687.684 343.291 687.61 343.13 687.561 342.957C687.387 342.611 687.301 342.24 687.301 341.844C687.301 341.423 687.598 341.003 688.191 340.582C688.513 340.359 688.995 340.038 689.639 339.617C690.307 339.197 691.123 338.788 692.088 338.393C693.053 337.997 694.166 337.65 695.428 337.354C696.714 337.057 698.137 336.908 699.695 336.908C701.254 336.908 702.516 337.217 703.48 337.836C704.445 338.454 705.188 339.209 705.707 340.1C706.227 340.99 706.561 341.93 706.709 342.92C706.882 343.91 706.932 344.775 706.857 345.518ZM695.65 355.723C696.516 355.302 697.37 354.783 698.211 354.164C699.077 353.546 699.856 352.803 700.549 351.938C701.242 351.072 701.823 350.094 702.293 349.006C702.763 347.893 703.06 346.643 703.184 345.258C703.283 344.021 703.196 342.994 702.924 342.178C702.676 341.337 702.293 340.669 701.773 340.174C701.279 339.679 700.71 339.333 700.066 339.135C699.423 338.912 698.78 338.801 698.137 338.801C697.543 338.801 696.937 338.887 696.318 339.061C695.725 339.234 695.143 339.456 694.574 339.729C694.648 339.753 694.735 339.815 694.834 339.914C694.883 339.988 694.933 340.087 694.982 340.211C695.057 340.31 695.106 340.421 695.131 340.545C694.562 342.945 694.104 344.949 693.758 346.557C693.411 348.165 693.127 349.476 692.904 350.49C692.632 351.678 692.434 352.63 692.311 353.348C692.286 353.447 692.261 353.546 692.236 353.645C692.236 353.743 692.224 353.855 692.199 353.979C692.743 354.102 693.312 354.3 693.906 354.572C694.5 354.82 695.081 355.203 695.65 355.723ZM723.111 357.281C722.369 358.37 721.528 359.434 720.588 360.473C719.648 361.487 718.646 362.402 717.582 363.219C716.543 364.01 715.467 364.654 714.354 365.148C713.265 365.643 712.201 365.891 711.162 365.891C710.618 365.891 710.024 365.755 709.381 365.482C708.762 365.235 708.193 364.839 707.674 364.295C707.154 363.751 706.734 363.046 706.412 362.18C706.115 361.314 706.029 360.262 706.152 359.025C706.251 358.011 706.561 356.947 707.08 355.834C707.624 354.696 708.28 353.657 709.047 352.717C709.839 351.777 710.717 350.997 711.682 350.379C712.671 349.76 713.661 349.451 714.65 349.451C715.59 349.451 716.271 349.686 716.691 350.156C717.112 350.626 717.298 351.208 717.248 351.9C717.174 352.667 716.951 353.372 716.58 354.016C716.234 354.659 715.813 355.24 715.318 355.76C714.824 356.279 714.292 356.749 713.723 357.17C713.178 357.59 712.659 357.974 712.164 358.32C711.62 358.691 711.1 359.05 710.605 359.396C710.111 359.718 709.678 360.015 709.307 360.287C709.331 360.906 709.443 361.425 709.641 361.846C709.839 362.266 710.086 362.613 710.383 362.885C710.68 363.132 711.014 363.318 711.385 363.441C711.781 363.54 712.176 363.59 712.572 363.59C713.413 363.59 714.292 363.33 715.207 362.811C716.122 362.266 717.013 361.623 717.879 360.881C718.77 360.114 719.586 359.322 720.328 358.506C721.095 357.689 721.726 356.984 722.221 356.391C722.394 356.193 722.567 356.081 722.74 356.057C722.938 356.007 723.087 356.032 723.186 356.131C723.309 356.205 723.371 356.354 723.371 356.576C723.371 356.774 723.285 357.009 723.111 357.281ZM713.611 351.566C713.314 351.566 712.956 351.715 712.535 352.012C712.139 352.309 711.743 352.742 711.348 353.311C710.952 353.855 710.581 354.535 710.234 355.352C709.888 356.143 709.628 357.059 709.455 358.098C709.752 357.875 710.074 357.652 710.42 357.43C710.766 357.182 711.113 356.923 711.459 356.65C712.523 355.834 713.265 355.117 713.686 354.498C714.106 353.88 714.341 353.348 714.391 352.902C714.44 352.432 714.391 352.098 714.242 351.9C714.094 351.678 713.883 351.566 713.611 351.566ZM739.477 357.615C739.13 358.11 738.685 358.729 738.141 359.471C737.596 360.188 737.027 360.918 736.434 361.66C735.865 362.378 735.296 363.046 734.727 363.664C734.182 364.258 733.725 364.678 733.354 364.926C733.106 365.074 732.822 365.198 732.5 365.297C732.178 365.396 731.844 365.458 731.498 365.482C731.176 365.507 730.867 365.482 730.57 365.408C730.273 365.359 730.014 365.26 729.791 365.111C729.568 364.938 729.383 364.691 729.234 364.369C729.111 364.097 728.987 363.738 728.863 363.293C728.764 362.848 728.727 362.291 728.752 361.623C728.158 362.613 727.503 363.38 726.785 363.924C726.068 364.443 725.387 364.827 724.744 365.074C724.002 365.346 723.26 365.507 722.518 365.557C722.171 365.557 721.8 365.433 721.404 365.186C721.008 364.963 720.674 364.604 720.402 364.109C720.13 363.59 719.957 362.934 719.883 362.143C719.809 361.326 719.908 360.361 720.18 359.248C720.526 357.739 721.07 356.366 721.812 355.129C722.579 353.892 723.408 352.84 724.299 351.975C725.189 351.084 726.068 350.416 726.934 349.971C727.799 349.525 728.517 349.327 729.086 349.377C729.754 349.501 730.298 349.699 730.719 349.971C731.065 350.218 731.288 350.589 731.387 351.084C731.51 351.554 731.312 352.185 730.793 352.977C731.139 352.902 731.424 352.853 731.646 352.828C731.894 352.803 732.079 352.791 732.203 352.791C732.352 352.791 732.451 352.803 732.5 352.828C732.525 352.878 732.537 352.989 732.537 353.162C732.537 353.311 732.5 353.595 732.426 354.016C732.352 354.436 732.24 355.005 732.092 355.723C731.943 356.44 731.745 357.368 731.498 358.506C731.449 358.729 731.399 358.939 731.35 359.137C731.325 359.31 731.288 359.495 731.238 359.693C731.214 359.867 731.176 360.077 731.127 360.324C731.077 360.572 731.016 360.881 730.941 361.252C730.917 361.475 730.904 361.722 730.904 361.994C730.929 362.242 730.979 362.477 731.053 362.699C731.127 362.922 731.238 363.107 731.387 363.256C731.56 363.38 731.795 363.441 732.092 363.441C732.339 363.441 732.661 363.293 733.057 362.996C733.452 362.674 733.873 362.279 734.318 361.809C734.764 361.314 735.221 360.782 735.691 360.213C736.186 359.619 736.644 359.05 737.064 358.506C737.485 357.962 737.856 357.479 738.178 357.059C738.524 356.638 738.771 356.329 738.92 356.131C739.118 355.908 739.316 355.785 739.514 355.76C739.712 355.71 739.86 355.76 739.959 355.908C740.058 356.057 740.07 356.279 739.996 356.576C739.947 356.873 739.773 357.219 739.477 357.615ZM728.604 359.248C728.727 358.753 728.876 358.172 729.049 357.504C729.222 356.836 729.37 356.193 729.494 355.574C729.618 354.956 729.704 354.449 729.754 354.053C729.828 353.632 729.816 353.434 729.717 353.459C729.593 353.484 729.457 353.521 729.309 353.57C729.185 353.62 729.024 353.657 728.826 353.682C728.628 353.706 728.43 353.743 728.232 353.793C728.43 353.397 728.542 353.076 728.566 352.828C728.616 352.556 728.628 352.346 728.604 352.197C728.579 352.024 728.529 351.888 728.455 351.789C728.183 351.566 727.701 351.752 727.008 352.346C726.34 352.915 725.561 353.979 724.67 355.537C724.299 356.18 724.002 356.873 723.779 357.615C723.557 358.333 723.396 359.013 723.297 359.656C723.223 360.299 723.21 360.868 723.26 361.363C723.309 361.833 723.408 362.143 723.557 362.291C723.829 362.563 724.138 362.699 724.484 362.699C724.831 362.674 725.177 362.576 725.523 362.402C725.895 362.204 726.253 361.957 726.6 361.66C726.971 361.363 727.292 361.054 727.564 360.732C727.861 360.411 728.096 360.114 728.27 359.842C728.467 359.57 728.579 359.372 728.604 359.248ZM743.299 363.738C744.066 363.738 744.907 363.441 745.822 362.848C746.762 362.229 747.665 361.512 748.531 360.695C749.422 359.879 750.226 359.05 750.943 358.209C751.686 357.343 752.242 356.65 752.613 356.131C752.836 355.809 753.046 355.624 753.244 355.574C753.442 355.5 753.59 355.525 753.689 355.648C753.788 355.772 753.826 355.97 753.801 356.242C753.776 356.49 753.665 356.774 753.467 357.096C753.294 357.393 752.997 357.826 752.576 358.395C752.18 358.939 751.698 359.545 751.129 360.213C750.585 360.856 749.954 361.524 749.236 362.217C748.544 362.885 747.814 363.503 747.047 364.072C746.28 364.617 745.488 365.062 744.672 365.408C743.855 365.779 743.051 365.965 742.26 365.965C741.171 365.965 740.256 365.755 739.514 365.334C738.796 364.938 738.215 364.419 737.77 363.775C737.349 363.132 737.052 362.427 736.879 361.66C736.706 360.868 736.619 360.089 736.619 359.322C736.619 358.555 736.792 357.603 737.139 356.465C737.485 355.327 737.992 354.238 738.66 353.199C739.353 352.135 740.219 351.232 741.258 350.49C742.297 349.723 743.521 349.34 744.932 349.34C745.723 349.34 746.391 349.612 746.936 350.156C747.505 350.701 747.777 351.443 747.752 352.383C747.752 352.828 747.678 353.273 747.529 353.719C747.381 354.139 747.183 354.523 746.936 354.869C746.688 355.191 746.391 355.451 746.045 355.648C745.723 355.846 745.365 355.945 744.969 355.945C744.647 355.945 744.4 355.834 744.227 355.611C744.078 355.364 743.979 355.092 743.93 354.795C743.905 354.473 743.905 354.164 743.93 353.867C743.979 353.57 744.029 353.372 744.078 353.273C744.202 353.1 744.338 352.977 744.486 352.902C744.635 352.828 744.808 352.742 745.006 352.643C745.154 352.568 745.266 352.457 745.34 352.309C745.439 352.16 745.488 351.999 745.488 351.826C745.488 351.653 745.439 351.505 745.34 351.381C745.241 351.257 745.08 351.195 744.857 351.195C744.635 351.195 744.227 351.381 743.633 351.752C743.064 352.098 742.47 352.63 741.852 353.348C741.258 354.04 740.726 354.919 740.256 355.982C739.786 357.046 739.538 358.283 739.514 359.693C739.489 360.51 739.6 361.178 739.848 361.697C740.095 362.217 740.404 362.625 740.775 362.922C741.146 363.219 741.555 363.429 742 363.553C742.445 363.676 742.878 363.738 743.299 363.738ZM764.488 355.611C764.587 355.463 764.711 355.376 764.859 355.352C765.033 355.302 765.169 355.314 765.268 355.389C765.367 355.463 765.416 355.587 765.416 355.76C765.441 355.933 765.379 356.168 765.23 356.465C764.736 357.405 764.08 358.419 763.264 359.508C762.472 360.596 761.631 361.623 760.74 362.588C759.85 363.528 758.984 364.307 758.143 364.926C757.301 365.544 756.596 365.854 756.027 365.854C755.211 365.854 754.531 365.693 753.986 365.371C753.442 365.049 753.009 364.654 752.688 364.184C752.391 363.714 752.18 363.206 752.057 362.662C751.933 362.093 751.896 361.574 751.945 361.104C751.97 360.708 752.057 360.003 752.205 358.988C752.354 357.949 752.551 356.762 752.799 355.426C753.046 354.065 753.318 352.618 753.615 351.084C753.937 349.525 754.271 348.029 754.617 346.594C754.197 346.643 753.776 346.693 753.355 346.742C752.935 346.792 752.551 346.816 752.205 346.816C751.413 346.816 750.671 346.73 749.979 346.557C749.261 346.359 748.729 346.173 748.383 346C748.185 345.901 748.098 345.765 748.123 345.592C748.148 345.394 748.222 345.208 748.346 345.035C748.469 344.837 748.63 344.676 748.828 344.553C749.001 344.404 749.162 344.33 749.311 344.33C749.781 344.38 750.288 344.429 750.832 344.479C751.376 344.503 751.97 344.503 752.613 344.479C753.083 344.454 753.529 344.417 753.949 344.367C754.395 344.318 754.827 344.256 755.248 344.182C755.57 342.994 755.879 341.967 756.176 341.102C756.497 340.211 756.782 339.592 757.029 339.246C757.104 339.122 757.264 339.023 757.512 338.949C757.784 338.85 758.068 338.788 758.365 338.764C758.662 338.714 758.947 338.714 759.219 338.764C759.491 338.788 759.689 338.875 759.812 339.023C759.936 339.221 759.986 339.729 759.961 340.545C759.936 341.361 759.8 342.4 759.553 343.662C760.592 343.662 761.507 343.724 762.299 343.848C763.115 343.947 763.808 344.07 764.377 344.219C764.946 344.342 765.404 344.479 765.75 344.627C766.096 344.751 766.356 344.837 766.529 344.887C766.702 344.936 766.789 345.06 766.789 345.258C766.814 345.456 766.777 345.666 766.678 345.889C766.604 346.087 766.467 346.26 766.27 346.408C766.072 346.557 765.849 346.606 765.602 346.557C765.354 346.532 765.07 346.482 764.748 346.408C764.451 346.334 764.08 346.272 763.635 346.223C763.214 346.173 762.707 346.124 762.113 346.074C761.52 346.025 760.827 346 760.035 346C759.887 346 759.714 346.012 759.516 346.037C759.342 346.037 759.157 346.037 758.959 346.037C758.86 346.433 758.761 346.829 758.662 347.225C758.588 347.596 758.477 347.992 758.328 348.412C758.007 349.402 757.635 350.478 757.215 351.641C756.844 352.655 756.398 353.818 755.879 355.129C755.359 356.44 754.778 357.838 754.135 359.322C753.986 360.386 753.999 361.202 754.172 361.771C754.37 362.316 754.605 362.712 754.877 362.959C755.199 363.231 755.594 363.38 756.064 363.404C756.436 363.454 756.881 363.33 757.4 363.033C757.945 362.712 758.501 362.291 759.07 361.771C759.639 361.252 760.208 360.683 760.777 360.064C761.371 359.446 761.915 358.84 762.41 358.246C762.905 357.652 763.338 357.12 763.709 356.65C764.08 356.156 764.34 355.809 764.488 355.611Z" fill="black"/>
<path d="M283.926 404.531C283.317 404.323 282.704 404.129 282.086 403.95C282.188 403.533 282.283 403.113 282.369 402.692C283.763 395.912 282.852 390.451 279.741 388.653C276.762 386.928 271.878 388.726 266.95 393.025C266.465 393.449 265.991 393.885 265.526 394.335C265.216 394.036 264.899 393.744 264.573 393.458C259.408 388.862 254.232 386.926 251.124 388.729C248.146 390.458 247.261 395.592 248.515 402.017C248.641 402.653 248.782 403.285 248.938 403.915C248.226 404.117 247.52 404.339 246.821 404.582C240.774 406.697 236.906 410.013 236.906 413.451C236.906 417.004 241.057 420.566 247.363 422.726C247.875 422.9 248.391 423.062 248.912 423.211C248.743 423.885 248.593 424.567 248.463 425.257C247.271 431.571 248.201 436.584 251.173 438.302C254.244 440.076 259.394 438.253 264.415 433.856C264.812 433.508 265.209 433.141 265.606 432.754C266.108 433.24 266.624 433.711 267.155 434.167C272.016 438.359 276.816 440.052 279.784 438.329C282.852 436.549 283.849 431.164 282.554 424.612C282.455 424.112 282.34 423.601 282.211 423.08C282.573 422.973 282.927 422.862 283.275 422.748C289.827 420.571 294.096 417.052 294.096 413.455C294.094 410 290.103 406.663 283.926 404.531V404.531ZM268.557 394.871C272.778 391.189 276.724 389.735 278.523 390.774C280.438 391.881 281.182 396.344 279.979 402.197C279.9 402.578 279.814 402.958 279.722 403.337C277.203 402.764 274.648 402.36 272.075 402.127C270.602 400.005 268.987 397.985 267.242 396.08C267.669 395.666 268.107 395.263 268.555 394.871H268.557ZM253.792 416.389C254.309 417.39 254.85 418.378 255.414 419.355C255.988 420.351 256.586 421.332 257.209 422.299C255.439 422.106 253.679 421.823 251.938 421.449C252.443 419.814 253.065 418.117 253.792 416.389V416.389ZM253.792 410.631C253.077 408.94 252.472 407.277 251.975 405.671C253.607 405.306 255.347 405.006 257.16 404.78C256.553 405.728 255.968 406.691 255.406 407.667C254.845 408.643 254.306 409.631 253.788 410.631H253.792ZM255.091 413.511C255.844 411.94 256.655 410.4 257.524 408.89C258.392 407.381 259.316 405.907 260.296 404.467C261.997 404.338 263.741 404.27 265.504 404.27C267.266 404.27 269.021 404.338 270.721 404.468C271.691 405.905 272.609 407.374 273.476 408.876C274.344 410.378 275.165 411.911 275.941 413.475C275.176 415.051 274.356 416.597 273.482 418.114C272.616 419.623 271.702 421.102 270.742 422.551C269.044 422.67 267.287 422.736 265.5 422.736C263.713 422.736 261.989 422.68 260.322 422.571C259.335 421.127 258.403 419.646 257.527 418.129C256.651 416.612 255.838 415.072 255.087 413.511H255.091ZM275.597 419.338C276.173 418.339 276.726 417.326 277.256 416.301C277.982 417.948 278.623 419.631 279.176 421.343C277.415 421.74 275.633 422.044 273.84 422.254C274.445 421.294 275.031 420.322 275.597 419.338V419.338ZM277.232 410.632C276.704 409.628 276.156 408.635 275.586 407.654C275.03 406.686 274.451 405.731 273.848 404.787C275.672 405.018 277.422 405.326 279.063 405.701C278.536 407.374 277.924 409.02 277.232 410.632V410.632ZM265.527 397.831C266.717 399.131 267.84 400.49 268.893 401.903C266.641 401.796 264.388 401.796 262.133 401.903C263.245 400.433 264.382 399.069 265.527 397.831V397.831ZM252.354 390.847C254.267 389.736 258.498 391.323 262.958 395.287C263.242 395.541 263.529 395.806 263.815 396.082C262.061 397.986 260.435 400.004 258.947 402.123C256.38 402.355 253.831 402.753 251.315 403.315C251.17 402.73 251.039 402.142 250.922 401.549C249.844 396.041 250.557 391.889 252.354 390.847ZM249.565 420.852C249.088 420.716 248.618 420.569 248.153 420.41C245.365 419.457 243.062 418.213 241.481 416.859C240.066 415.645 239.349 414.433 239.349 413.451C239.349 411.365 242.453 408.703 247.631 406.898C248.282 406.672 248.938 406.465 249.599 406.278C250.368 408.749 251.3 411.167 252.387 413.515C251.287 415.897 250.344 418.347 249.565 420.852V420.852ZM262.805 432.012C260.585 433.956 258.362 435.335 256.402 436.029C254.642 436.653 253.239 436.67 252.392 436.181C250.588 435.138 249.838 431.113 250.861 425.713C250.983 425.078 251.122 424.442 251.278 423.807C253.819 424.354 256.394 424.728 258.985 424.926C260.487 427.056 262.127 429.086 263.894 431.002C263.539 431.351 263.176 431.687 262.805 432.012ZM265.595 429.246C264.437 427.993 263.282 426.608 262.155 425.119C263.25 425.161 264.365 425.183 265.5 425.183C266.665 425.183 267.818 425.158 268.955 425.107C267.906 426.543 266.785 427.924 265.595 429.246V429.246ZM280.431 432.652C280.09 434.491 279.405 435.719 278.558 436.209C276.755 437.255 272.901 435.896 268.745 432.311C268.269 431.901 267.792 431.462 267.307 431.001C269.04 429.077 270.641 427.039 272.1 424.901C274.706 424.68 277.294 424.28 279.845 423.703C279.961 424.175 280.065 424.637 280.154 425.09C280.727 427.985 280.81 430.604 280.431 432.652V432.652ZM282.504 420.423C282.192 420.527 281.87 420.627 281.543 420.725C280.744 418.242 279.776 415.816 278.647 413.464C279.734 411.144 280.663 408.753 281.43 406.309C282.015 406.479 282.584 406.658 283.13 406.847C288.423 408.672 291.651 411.375 291.651 413.451C291.651 415.667 288.164 418.543 282.504 420.423V420.423Z" fill="black"/>
<path d="M265.5 418.569C266.514 418.573 267.506 418.275 268.351 417.714C269.195 417.153 269.855 416.354 270.245 415.418C270.635 414.483 270.739 413.452 270.543 412.457C270.348 411.462 269.861 410.548 269.145 409.83C268.429 409.112 267.517 408.622 266.522 408.423C265.528 408.224 264.497 408.324 263.56 408.712C262.623 409.099 261.822 409.756 261.258 410.598C260.695 411.441 260.394 412.432 260.394 413.446C260.392 414.118 260.523 414.784 260.779 415.405C261.035 416.026 261.411 416.59 261.885 417.066C262.359 417.542 262.923 417.92 263.543 418.178C264.163 418.435 264.828 418.569 265.5 418.569Z" fill="black"/>
</svg>
