<svg width="1042" height="555" viewBox="0 0 1042 555" fill="none" xmlns="http://www.w3.org/2000/svg">
<g opacity="0.1">
<path opacity="0.1" d="M164.99 43.42V553.04L122.66 553.5C113.627 553.602 104.631 552.314 95.99 549.68V105.42H96.06C116.85 79.87 140.16 58.55 164.99 43.42Z" fill="#00B0FF"/>
<path opacity="0.1" d="M1039.99 116.5H87.35C90.1833 112.74 93.0633 109.073 95.99 105.5V105.42H1037.62C1038.53 109.04 1039.32 112.733 1039.99 116.5Z" fill="#00B0FF"/>
<path opacity="0.1" d="M963.57 17.93V444.93H960.1C958.3 448.71 956.523 452.417 954.77 456.05C953.99 457.66 953.21 459.24 952.45 460.82V13.89C956.297 15.13 960.003 16.4767 963.57 17.93Z" fill="#00B0FF"/>
<path opacity="0.1" d="M698.96 13V547.25L687.84 547.37V15.28C691.53 14.5 695.23 13.73 698.96 13Z" fill="#00B0FF"/>
<path opacity="0.1" d="M431.97 62.57V550.15L420.86 550.27V62.04C424.57 62.28 428.28 62.42 431.97 62.57Z" fill="#00B0FF"/>
<path opacity="0.1" d="M960.1 444.94C958.3 448.72 956.523 452.427 954.77 456.06H16.6C15.3133 452.4 14.1133 448.693 13 444.94H960.1Z" fill="#00B0FF"/>
</g>
<path d="M230.6 265.83H211.6V323.49H230.6V265.83Z" fill="#3F3D56"/>
<path d="M741.93 262.83H722.93V323.83H741.93V262.83Z" fill="#3F3D56"/>
<path d="M863.1 533.65V546.65L711.18 548.05L709.56 548.08L651.82 548.61L650.44 548.63L632.89 548.78H632.37L525.39 549.77L349.78 551.4H349.63L304.98 551.82L304.5 551.83L106.1 553.65V538.65L152.75 510.65L246.35 509.87L248.35 509.86L249.01 509.85L251.01 509.82L295.95 509.45L297.96 509.44L298.6 509.43L300.6 509.42L315.01 509.3L315.39 509.29L350.94 508.99H351.23L628.63 506.65L635.42 506.6H636.1L641.28 506.55L678.93 506.24L680.93 506.21L682.78 506.19H683.74L695.45 506.1L697.77 506.07L700.88 506.05L710.63 505.96L726.1 505.83L728.1 505.81L731.58 505.79H732.23L806.94 505.15L863.1 533.65Z" fill="#65617D"/>
<path opacity="0.2" d="M863.1 533.65V546.65L711.18 548.05L709.56 548.08L651.82 548.61L650.44 548.63L632.89 548.78H632.37L525.39 549.77L349.78 551.4H349.63L304.98 551.82L304.5 551.83L106.1 553.65V538.65L152.75 510.65L246.35 509.87L248.35 509.86L249.01 509.85L251.01 509.82L295.95 509.45L297.96 509.44L298.6 509.43L300.6 509.42L315.01 509.3L315.39 509.29L350.94 508.99H351.23L628.63 506.65L635.42 506.6H636.1L641.28 506.55L678.93 506.24L680.93 506.21L682.78 506.19H683.74L695.45 506.1L697.77 506.07L700.88 506.05L710.63 505.96L726.1 505.83L728.1 505.81L731.58 505.79H732.23L806.94 505.15L863.1 533.65Z" fill="black"/>
<path d="M296.1 483.66V508.15C296.101 509.31 295.772 510.446 295.152 511.427C294.533 512.408 293.648 513.192 292.6 513.69C291.82 514.068 290.967 514.273 290.1 514.29L255.2 515.03C254.268 515.052 253.343 514.857 252.5 514.46C251.434 513.971 250.53 513.186 249.897 512.199C249.265 511.211 248.929 510.063 248.93 508.89V483.66H296.1Z" fill="#3F3D56"/>
<path opacity="0.1" d="M296.1 483.66V508.15C296.101 509.31 295.772 510.446 295.152 511.427C294.533 512.408 293.648 513.192 292.6 513.69C291.82 514.068 290.967 514.273 290.1 514.29L255.2 515.03C254.268 515.052 253.343 514.857 252.5 514.46C251.434 513.971 250.53 513.186 249.897 512.199C249.265 511.211 248.929 510.063 248.93 508.89V483.66H296.1Z" fill="black"/>
<path d="M298.1 483.66V508.15C298.101 509.31 297.772 510.446 297.152 511.427C296.533 512.408 295.648 513.192 294.6 513.69C293.82 514.068 292.967 514.273 292.1 514.29L257.2 515.03C256.268 515.052 255.343 514.857 254.5 514.46C253.434 513.971 252.53 513.186 251.897 512.199C251.265 511.211 250.929 510.063 250.93 508.89V483.66H298.1Z" fill="#3F3D56"/>
<path d="M728.1 483.66H680.93V515.16H728.1V483.66Z" fill="#3F3D56"/>
<path opacity="0.1" d="M728.1 483.66H680.93V515.16H728.1V483.66Z" fill="black"/>
<path d="M726.1 483.66H678.93V515.16H726.1V483.66Z" fill="#3F3D56"/>
<path opacity="0.1" d="M230.6 265.82V271.55L211.6 271.06V265.82H230.6Z" fill="black"/>
<path d="M355.66 104.4L332.83 268.4C332.685 269.448 332.16 270.405 331.353 271.089C330.547 271.774 329.517 272.137 328.46 272.11L145.66 267.37L142.19 267.28C141.586 267.266 140.991 267.124 140.446 266.865C139.9 266.605 139.415 266.234 139.022 265.774C138.63 265.315 138.339 264.777 138.168 264.198C137.997 263.618 137.95 263.009 138.03 262.41L163.66 90.73C163.825 89.6666 164.383 88.7037 165.224 88.0317C166.064 87.3596 167.126 87.0272 168.2 87.1L351.66 99.52C352.252 99.5543 352.83 99.7109 353.359 99.98C353.887 100.249 354.354 100.625 354.73 101.083C355.105 101.542 355.382 102.073 355.542 102.644C355.702 103.215 355.743 103.813 355.66 104.4Z" fill="#65617D"/>
<path d="M175.93 99.16L156.6 250.49L324.6 255.82L345.26 109.82L175.93 99.16Z" fill="#00B0FF"/>
<path d="M583.94 96.82H389.93C386.986 96.82 384.6 99.2063 384.6 102.15V264.82C384.6 267.764 386.986 270.15 389.93 270.15H583.94C586.884 270.15 589.27 267.764 589.27 264.82V102.15C589.27 99.2063 586.884 96.82 583.94 96.82Z" fill="#65617D"/>
<path d="M580.26 108.49H394.26V252.82H580.26V108.49Z" fill="#00B0FF"/>
<path opacity="0.1" d="M741.93 262.82V266.61L722.93 267V262.82H741.93Z" fill="black"/>
<path d="M827.66 259.62C827.687 260.034 827.63 260.45 827.492 260.842C827.355 261.233 827.139 261.593 826.859 261.9C826.579 262.206 826.24 262.453 825.862 262.624C825.484 262.796 825.075 262.89 824.66 262.9L637.46 266.77C636.682 266.786 635.927 266.507 635.347 265.99C634.766 265.472 634.403 264.754 634.33 263.98L618.24 96.7C618.2 96.2849 618.245 95.8662 618.372 95.4691C618.499 95.0719 618.705 94.7047 618.978 94.3896C619.251 94.0745 619.585 93.8181 619.96 93.636C620.335 93.4538 620.744 93.3497 621.16 93.33L806.94 84.09L808.94 83.99C809.735 83.9481 810.515 84.2167 811.116 84.7391C811.717 85.2615 812.091 85.9969 812.16 86.79L827.66 259.62Z" fill="#65617D"/>
<path d="M628.93 103.16L798.6 94.82L812.93 246.82L644.6 250.82L628.93 103.16Z" fill="#00B0FF"/>
<path opacity="0.1" d="M827.66 259.62C827.687 260.034 827.63 260.45 827.492 260.842C827.355 261.233 827.139 261.593 826.859 261.9C826.579 262.206 826.24 262.453 825.862 262.624C825.484 262.796 825.075 262.89 824.66 262.9L806.94 84.09L808.94 83.99C809.735 83.9481 810.515 84.2167 811.116 84.7391C811.717 85.2615 812.091 85.9969 812.16 86.79L827.66 259.62Z" fill="black"/>
<path opacity="0.1" d="M168.23 87.09L145.66 267.37L142.19 267.28C141.586 267.266 140.991 267.124 140.446 266.865C139.9 266.605 139.415 266.234 139.022 265.774C138.63 265.315 138.339 264.777 138.168 264.198C137.997 263.618 137.95 263.009 138.03 262.41L163.66 90.73C163.823 89.6592 164.385 88.6895 165.232 88.0147C166.079 87.3398 167.15 87.0096 168.23 87.09Z" fill="black"/>
<path opacity="0.1" d="M230.6 306.41H211.6V323.49H230.6V306.41Z" fill="black"/>
<path opacity="0.1" d="M298.1 483.65V488.62L250.93 489.88V483.65H298.1Z" fill="black"/>
<path d="M381.35 312.36V480.56C381.338 481.587 380.931 482.569 380.215 483.305C379.498 484.04 378.526 484.472 377.5 484.51L185.85 489.61H185.8C184.756 489.597 183.759 489.177 183.021 488.439C182.283 487.701 181.863 486.704 181.85 485.66V312.36C181.863 311.316 182.283 310.319 183.021 309.581C183.759 308.843 184.756 308.423 185.8 308.41H377.4C378.444 308.423 379.441 308.843 380.179 309.581C380.917 310.319 381.337 311.316 381.35 312.36Z" fill="#65617D"/>
<path opacity="0.1" d="M185.85 308.41V489.61H185.8C184.756 489.597 183.759 489.177 183.021 488.439C182.283 487.701 181.863 486.704 181.85 485.66V312.36C181.863 311.316 182.283 310.319 183.021 309.581C183.759 308.843 184.756 308.423 185.8 308.41H185.85Z" fill="black"/>
<path d="M194.6 319.15H372.1V467.4L194.6 471.4V319.15Z" fill="#D4DFEC"/>
<path opacity="0.1" d="M741.93 306.41H722.93V323.83H741.93V306.41Z" fill="black"/>
<path opacity="0.1" d="M726.1 483.65V490.06L678.93 488.8V483.65H726.1Z" fill="black"/>
<path d="M788.35 312.36V485.66C788.337 486.712 787.91 487.717 787.161 488.456C786.412 489.196 785.402 489.61 784.35 489.61L592.66 484.51C591.634 484.472 590.662 484.04 589.945 483.305C589.229 482.569 588.822 481.587 588.81 480.56V312.36C588.823 311.316 589.243 310.319 589.981 309.581C590.719 308.843 591.716 308.423 592.76 308.41H784.36C785.411 308.413 786.418 308.828 787.164 309.567C787.911 310.306 788.337 311.31 788.35 312.36Z" fill="#65617D"/>
<path opacity="0.1" d="M788.35 312.36V485.66C788.337 486.712 787.91 487.717 787.161 488.456C786.412 489.196 785.402 489.61 784.35 489.61V308.41C785.402 308.41 786.412 308.825 787.161 309.564C787.91 310.303 788.337 311.308 788.35 312.36Z" fill="black"/>
<path d="M777.5 317H600V465.25L777.5 469.25V317Z" fill="#D4DFEC"/>
<path d="M583.85 312.36V480.56C583.838 481.587 583.431 482.569 582.715 483.305C581.998 484.04 581.026 484.472 580 484.51L388.35 489.61C387.298 489.61 386.288 489.196 385.539 488.456C384.79 487.717 384.363 486.712 384.35 485.66V312.36C384.363 311.316 384.783 310.319 385.521 309.581C386.259 308.843 387.256 308.423 388.3 308.41H579.9C580.944 308.423 581.941 308.843 582.679 309.581C583.417 310.319 583.837 311.316 583.85 312.36Z" fill="#65617D"/>
<path d="M397.1 319.15H574.6V467.4L397.1 471.4V319.15Z" fill="#D4DFEC"/>
<path opacity="0.1" d="M863.1 533.65V546.65L711.18 548.05L709.56 548.08L651.82 548.61L650.44 548.63L632.89 548.78H632.37L525.39 549.77L349.78 551.4H349.63L304.98 551.82L304.5 551.83L106.1 553.65V538.65L308.61 537.32H309.09L350.08 537.04H350.27L633.35 535.17H633.64L633.81 535.16H634.28L639.07 535.13H640.53L715.02 534.63L719.42 534.61L720.4 534.6L863.1 533.65Z" fill="black"/>
<path d="M487.26 323.49C515.609 323.49 538.59 300.509 538.59 272.16C538.59 243.811 515.609 220.83 487.26 220.83C458.911 220.83 435.93 243.811 435.93 272.16C435.93 300.509 458.911 323.49 487.26 323.49Z" fill="#FBBEBE"/>
<path d="M538.6 377.16C538.6 377.16 439.1 389.16 448.6 377.16C452.04 372.82 452.99 359.96 452.8 345.31C452.74 340.86 452.58 336.25 452.35 331.66C451.25 309.66 448.6 288.16 448.6 288.16C448.6 288.16 535.6 247.16 525.6 279.66C521.6 292.79 522.91 311.23 525.95 328.54C526.84 333.59 527.87 338.54 528.95 343.24C531.586 354.704 534.807 366.025 538.6 377.16Z" fill="#FBBEBE"/>
<path opacity="0.1" d="M538.6 377.16C538.6 377.16 439.1 389.16 448.6 377.16C452.04 372.82 452.99 359.96 452.8 345.31C467.97 338.83 487.27 343.66 487.27 343.66C507.59 339.61 520.62 340.4 528.95 343.24C531.586 354.704 534.807 366.025 538.6 377.16Z" fill="black"/>
<path d="M349.74 552.53V551.69L525.36 549.78L632.36 548.78H632.66L632.55 550.26L632.7 548.78H632.89V548.61L634.26 535.16L634.78 530.07L634.94 528.48L635.08 527.15L641.26 506.54L647.44 485.96L652.64 468.63L660.58 442.15C660.58 442.15 656.08 431.65 653.58 428.65C651.08 425.65 648.58 405.15 648.58 405.15C648.58 405.15 627.24 384.82 617.91 382.48C614 381.48 606.28 380.15 598.08 378.48C595.01 377.86 591.86 377.2 588.83 376.48C587.12 376.09 585.44 375.68 583.83 375.27C580.696 374.487 577.608 373.533 574.58 372.41C572.992 371.833 571.481 371.064 570.08 370.12C562.73 364.73 544.31 364.12 543.6 364.12C543.598 364.097 543.598 364.073 543.6 364.05V363.96C543.626 363.54 543.626 363.12 543.6 362.7C543.6 362.3 543.6 361.83 543.51 361.3C543.51 361.14 543.51 360.97 543.44 360.8C543.39 360.44 543.33 360.06 543.24 359.66C543.21 359.481 543.17 359.304 543.12 359.13C542.83 357.925 542.411 356.755 541.87 355.64C541.8 355.48 541.71 355.31 541.63 355.15C541.14 354.226 540.571 353.346 539.93 352.52C539.8 352.35 539.66 352.17 539.51 352C538.691 351.034 537.78 350.15 536.79 349.36C536.52 349.15 536.24 348.93 535.95 348.73C535.788 348.599 535.618 348.478 535.44 348.37L534.55 347.79L533.72 347.31C532.99 346.91 532.22 346.52 531.38 346.15C531.12 346.03 530.84 345.92 530.56 345.81C530.28 345.7 529.84 345.53 529.47 345.39H529.41L528.66 345.09C528.09 344.9 527.51 344.73 526.9 344.56L525.97 344.32L524.97 344.09L523.97 343.88C522.97 343.68 521.9 343.5 520.78 343.36L519.64 343.22L518.47 343.1L517.26 343L515.54 342.9L513.54 342.83C504.719 342.829 495.923 343.764 487.3 345.62C481.309 344.287 475.173 343.722 469.04 343.94H468.17L467.17 344H466.53L465.24 344.12C464.81 344.12 464.37 344.21 463.94 344.27C463.51 344.33 463.06 344.38 462.63 344.45L461.97 344.56C461.32 344.67 460.66 344.79 459.97 344.93C459.75 344.97 459.53 345.02 459.31 345.08C458.44 345.27 457.57 345.5 456.71 345.76C456.28 345.88 455.85 346.02 455.42 346.17C455.2 346.23 454.99 346.31 454.78 346.39L454.14 346.62L453.51 346.87L452.76 347.17C452.38 347.33 452.01 347.5 451.64 347.68C451.43 347.77 451.22 347.87 451.02 347.98C450.82 348.09 450.61 348.18 450.42 348.29C448.159 349.458 446.069 350.932 444.21 352.67L443.7 353.16L443.2 353.67C443.03 353.84 442.87 354.02 442.71 354.2C442.058 354.912 441.45 355.664 440.89 356.45C440.73 356.66 440.58 356.87 440.43 357.09C439.795 358.026 439.221 359.001 438.71 360.01C438.58 360.25 438.46 360.5 438.34 360.74C437.524 362.429 436.855 364.186 436.34 365.99C436.153 366.657 435.983 367.323 435.83 367.99C435.83 367.99 414.66 377.33 397.1 384.09C392.43 385.89 388.03 387.52 384.35 388.75C383.28 389.11 382.28 389.44 381.35 389.75C379.332 390.479 377.234 390.963 375.1 391.19C374.094 391.206 373.091 391.3 372.1 391.47C364.03 392.78 350.2 398.47 348.69 404.18C348.567 404.636 348.533 405.111 348.59 405.58C348.59 405.58 348.59 405.65 348.59 405.69C349.59 412.69 342.59 411.69 342.59 411.69C342.59 411.69 340.09 430.19 336.59 435.19C334.06 438.79 332.33 446.82 332.11 452.88C331.984 454.768 332.132 456.664 332.55 458.51C332.55 458.56 332.55 458.61 332.55 458.65C332.95 459.99 331.99 463.65 330.36 468.34C328.59 473.49 326.01 479.89 323.53 485.93C319.79 495.05 316.27 503.33 316.05 505.15C315.96 505.96 315.7 507.41 315.34 509.28C313.88 516.9 310.64 531.41 309.04 537.28C307.85 541.66 306.12 547.66 304.93 551.78C304.93 551.9 304.86 552.02 304.83 552.13L349.66 551.69V552.53H349.8H349.74Z" fill="#00B0FF"/>
<path opacity="0.1" d="M366.1 434.66C366.1 434.66 423.1 464.16 443.6 460.66L366.1 434.66Z" fill="black"/>
<path opacity="0.1" d="M482.1 422.66C482.1 422.66 537.6 440.66 556.1 443.16C574.6 445.66 482.1 422.66 482.1 422.66Z" fill="black"/>
<path opacity="0.1" d="M543.66 364.74C514.66 370.08 460.06 368.93 436.46 368.12C445.11 337.12 487.29 347.66 487.29 347.66C539.5 337.24 543.5 358.86 543.66 364.74Z" fill="black"/>
<path d="M697.6 499.41C697.6 499.41 731.76 494.16 732.43 509.16C733.1 524.16 715.01 534.64 715.01 534.64L697.6 499.41Z" fill="#FBBEBE"/>
<path opacity="0.1" d="M525.95 328.54C524.481 329.197 522.979 329.777 521.45 330.28C510.67 334 499.8 337.75 488.45 339.11C477.1 340.47 465.19 339.27 455.29 333.61C454.251 333.023 453.249 332.372 452.29 331.66C451.19 309.66 448.54 288.16 448.54 288.16C448.54 288.16 535.54 247.16 525.54 279.66C521.56 292.79 522.91 311.23 525.95 328.54Z" fill="#ECF76F" fill-opacity="0.78"/>
<path d="M473.18 191.93C471.753 192.307 470.257 192.345 468.813 192.041C467.368 191.737 466.014 191.1 464.86 190.18L466.94 193.07C465.714 193.211 464.472 193.083 463.301 192.695C462.13 192.306 461.058 191.666 460.16 190.82C459.971 193.407 460.079 196.007 460.48 198.57C457.038 198.736 453.65 197.673 450.92 195.57C450.867 196.472 451.091 197.369 451.563 198.14C452.035 198.91 452.732 199.518 453.56 199.88C450.103 199.467 446.613 200.326 443.743 202.297C440.872 204.267 438.817 207.215 437.96 210.59L443.18 211.07C439.078 211.946 435.396 214.193 432.74 217.44C431.14 219.44 429.92 222 430.62 224.44C431.32 226.88 434.7 228.44 436.54 226.7C433.923 229.824 432.02 233.483 430.967 237.42C429.913 241.356 429.733 245.476 430.44 249.49C430.915 251.2 431.071 252.983 430.9 254.75C430.57 256.4 429.53 257.83 429.01 259.44C428.01 262.36 428.96 265.53 429.85 268.44L434.54 283.86C436.24 289.43 437.93 295.01 440.15 300.4C441.722 303.808 443.059 307.319 444.15 310.91C445.41 315.75 445.46 321.05 448.15 325.28C449.994 327.942 452.458 330.115 455.33 331.61C465.22 337.27 477.17 338.47 488.49 337.11C499.81 335.75 510.67 332 521.44 328.28C523.833 327.559 526.129 326.552 528.28 325.28C535.73 320.4 537.39 310.42 538.78 301.63C540.33 291.83 542.4 282.05 546.07 272.83C548.25 267.34 551.07 261.77 550.59 255.89C549.98 248.08 543.8 241.75 542.27 234.07C541.758 231.503 541.782 228.857 542.34 226.3C542.814 224.776 543.08 223.195 543.13 221.6C542.96 218.38 540.32 215.9 537.84 213.83C532.46 209.337 526.907 205.09 521.18 201.09C520.89 199.09 523.61 198.23 524.84 196.65C526.58 194.42 524.78 190.88 522.14 189.84C519.5 188.8 516.54 189.48 513.79 190.17C513.969 188.762 513.689 187.335 512.992 186.099C512.294 184.863 511.217 183.885 509.919 183.311C508.621 182.737 507.173 182.597 505.79 182.912C504.406 183.227 503.161 183.981 502.24 185.06C501.51 183.385 500.343 181.938 498.862 180.868C497.381 179.799 495.639 179.146 493.82 178.98C487.19 178.46 487.06 183.53 482.82 186.32C478.58 189.11 475.08 185.43 471.82 182.75C471.221 184.265 471.031 185.911 471.27 187.522C471.509 189.134 472.168 190.654 473.18 191.93Z" fill="#3F3D56"/>
<path d="M722.93 529.41C722.93 529.41 722.04 531.53 720.4 534.6C717.919 539.323 714.899 543.743 711.4 547.77L711.13 548.06H709.51L651.77 548.59H650.39L650.22 548.39L639.02 535.1L634.8 530.09L634.63 529.88L634.27 529.46L634.07 529.22L633.81 528.91L625.6 519.17L628.6 506.67L633.71 485.61L633.84 485.1L634.84 481.1L635.55 478.1L637.93 468.32L646.09 434.67L660.59 442.17L675.88 469.17L684.09 483.67H688.59C689.44 483.67 691.39 485.31 693.35 487.2C694.05 487.87 694.75 488.58 695.35 489.2C697.13 491.04 698.54 492.62 698.54 492.62C698.54 492.62 705.83 492.78 707.79 498.52C707.891 498.798 707.975 499.082 708.04 499.37C708.691 501.626 709.537 503.821 710.57 505.93C711.86 508.74 713.48 511.93 715.12 515.12C718.17 520.97 721.27 526.54 722.41 528.56L722.55 528.81L722.93 529.41Z" fill="#00B0FF"/>
<path opacity="0.1" d="M637.03 484.26L636.93 485.69V485.79L636.76 488.09L635.43 506.6L633.82 528.9L633.36 535.18L632.36 548.62V548.79L525.36 549.79L349.77 551.69V552.53H349.63V551.69V551.41L350.08 537.05L350.94 508.99L351.68 485.2L351.75 482.83C351.794 481.4 352.129 479.993 352.734 478.696C353.34 477.4 354.203 476.24 355.272 475.288C356.341 474.336 357.592 473.612 358.95 473.161C360.308 472.709 361.744 472.538 363.17 472.66C367.89 473.06 374.02 473.55 381.35 474.07L384.35 474.29C426.68 477.23 504.91 481.03 583.85 476.29C585.51 476.2 587.18 476.1 588.85 475.98C601.09 475.21 613.32 474.22 625.43 472.98C626.961 472.82 628.508 472.997 629.963 473.499C631.418 474.001 632.746 474.817 633.851 475.887C634.957 476.958 635.815 478.258 636.364 479.696C636.913 481.134 637.141 482.675 637.03 484.21V484.26Z" fill="black"/>
<path d="M349.74 552.53V551.69L525.36 549.78L632.36 548.78H632.66V548.61L633.66 535.17L634.09 529.17L635.73 506.56L637.02 488.66V488.22C637.08 487.395 637.043 486.566 636.91 485.75C636.916 485.717 636.916 485.683 636.91 485.65C636.635 483.962 635.948 482.368 634.91 481.01C633.809 479.598 632.366 478.49 630.718 477.79C629.07 477.09 627.271 476.822 625.49 477.01C613.38 478.25 601.15 479.24 588.91 480.01C587.24 480.13 585.57 480.23 583.91 480.32C504.97 485.01 426.74 481.21 384.41 478.32L381.41 478.1C374.08 477.58 367.95 477.1 363.23 476.69C360.633 476.471 358.048 477.221 355.972 478.797C353.896 480.372 352.478 482.66 351.99 485.22C351.889 485.761 351.829 486.31 351.81 486.86L351.13 509.02L350.2 537.09L349.76 551.45V551.73V552.57L349.74 552.53Z" fill="#3F3D56"/>
<path opacity="0.1" d="M637.33 491.27L636.1 506.6L634.27 529.45L633.81 535.17L632.81 547.98L632.75 548.62V548.79L632.6 550.27L632.71 548.79H632.42L525.42 549.79L349.77 551.69V551.41L350.26 537.05L351.26 508.99L351.9 490.34C351.931 489.279 352.228 488.243 352.762 487.326C353.297 486.409 354.052 485.64 354.96 485.09C356.092 484.396 357.416 484.081 358.74 484.19C360.84 484.36 363.42 484.56 366.43 484.78C371.32 485.14 377.35 485.56 384.37 486C397.37 486.82 413.68 487.7 432.37 488.42C484.37 490.42 554.57 491.09 621.25 485.25C624.25 484.99 627.35 484.7 630.38 484.41C631.579 484.29 632.788 484.52 633.86 485.07C634.164 485.221 634.452 485.402 634.72 485.61C635.591 486.241 636.28 487.089 636.72 488.07C636.822 488.265 636.906 488.469 636.97 488.68C637.27 489.509 637.393 490.391 637.33 491.27Z" fill="black"/>
<path opacity="0.1" d="M298.1 504.96V508.15C298.101 509.31 297.772 510.446 297.152 511.427C296.533 512.408 295.648 513.192 294.6 513.69L254.5 514.46C253.434 513.971 252.53 513.186 251.897 512.199C251.265 511.211 250.929 510.063 250.93 508.89V505.89L298.1 504.96Z" fill="black"/>
<path d="M298.6 515.57L246.35 516.57V507.9L298.6 506.9V515.57Z" fill="#3F3D56"/>
<path opacity="0.1" d="M298.6 515.57L246.35 516.57V507.9L298.6 506.9V515.57Z" fill="black"/>
<path d="M300.6 515.57L248.35 516.57V507.9L300.6 506.9V515.57Z" fill="#3F3D56"/>
<g opacity="0.1">
<path opacity="0.1" d="M473.59 188.65C472.613 187.381 471.964 185.89 471.7 184.31C471.459 185.855 471.603 187.435 472.12 188.91C472.616 188.864 473.108 188.777 473.59 188.65Z" fill="black"/>
<path opacity="0.1" d="M460.89 195.29C460.701 194.064 460.578 192.829 460.52 191.59C460.52 192.82 460.52 194.06 460.52 195.3L460.89 195.29Z" fill="black"/>
<path opacity="0.1" d="M542.39 228.66C542.445 227.769 542.566 226.883 542.75 226.01C543.223 224.489 543.492 222.912 543.55 221.32C543.528 220.963 543.474 220.608 543.39 220.26C543.22 221.18 542.95 222.1 542.75 223.01C542.351 224.865 542.229 226.769 542.39 228.66Z" fill="black"/>
<path opacity="0.1" d="M521.59 197.76L522.68 198.55C523.599 197.885 524.459 197.143 525.25 196.33C525.626 195.81 525.859 195.199 525.926 194.561C525.993 193.922 525.891 193.277 525.63 192.69C525.53 192.918 525.403 193.133 525.25 193.33C524.02 194.91 521.3 195.78 521.59 197.76Z" fill="black"/>
<path opacity="0.1" d="M439.42 207.38C439.055 208.109 438.764 208.873 438.55 209.66C440.114 208.787 441.799 208.15 443.55 207.77L439.42 207.38Z" fill="black"/>
<path opacity="0.1" d="M453.21 196.5C452.553 196.138 451.925 195.727 451.33 195.27C451.305 195.666 451.335 196.063 451.42 196.45C452.017 196.422 452.615 196.438 453.21 196.5Z" fill="black"/>
<path opacity="0.1" d="M550.98 255.42C550.57 260.27 548.31 264.94 546.48 269.54C542.81 278.76 540.74 288.54 539.19 298.35C537.8 307.14 536.19 317.12 528.69 321.99C526.547 323.27 524.253 324.278 521.86 324.99C511.08 328.72 500.21 332.46 488.86 333.82C477.51 335.18 465.6 333.99 455.7 328.33C452.83 326.832 450.366 324.66 448.52 322C445.85 317.77 445.8 312.47 444.52 307.63C443.429 304.036 442.092 300.521 440.52 297.11C438.31 291.73 436.61 286.11 434.92 280.58C433.353 275.44 431.79 270.297 430.23 265.15C429.716 263.602 429.335 262.013 429.09 260.4C428.7 262.96 429.46 265.64 430.23 268.15C431.79 273.303 433.353 278.447 434.92 283.58C436.61 289.15 438.31 294.73 440.52 300.11C442.092 303.521 443.429 307.036 444.52 310.63C445.78 315.47 445.83 320.77 448.52 325C450.366 327.66 452.83 329.832 455.7 331.33C465.6 336.99 477.54 338.18 488.86 336.82C500.18 335.46 511.04 331.72 521.86 327.99C524.253 327.278 526.547 326.27 528.69 324.99C536.14 320.12 537.8 310.14 539.19 301.35C540.74 291.54 542.81 281.76 546.48 272.54C548.66 267.06 551.48 261.49 551 255.6C551 255.54 550.98 255.48 550.98 255.42Z" fill="black"/>
<path opacity="0.1" d="M431.29 251.55C431.29 251.55 431.29 251.48 431.29 251.44C431.47 249.677 431.314 247.895 430.83 246.19C430.631 245.093 430.5 243.984 430.44 242.87C430.325 244.985 430.456 247.106 430.83 249.19C430.99 249.97 431.17 250.76 431.29 251.55Z" fill="black"/>
<path opacity="0.1" d="M434.34 227.09C435.109 225.798 435.982 224.571 436.95 223.42C435.12 225.17 431.74 223.61 431.03 221.18C430.768 222.163 430.768 223.197 431.03 224.18C431.276 224.914 431.712 225.569 432.293 226.08C432.875 226.592 433.581 226.94 434.34 227.09Z" fill="black"/>
</g>
<path opacity="0.1" d="M684.1 483.66C684.1 483.66 687.27 495.16 684.1 505.16C680.93 515.16 684.1 483.66 684.1 483.66Z" fill="black"/>
<path opacity="0.1" d="M697.6 495.39C697.6 495.39 698.93 509.99 695.93 512.58C692.93 515.17 697.6 495.39 697.6 495.39Z" fill="black"/>
<path d="M206 344L307.61 343" stroke="black" stroke-width="2" stroke-miterlimit="10"/>
<path d="M714 400L767 399" stroke="black" stroke-width="2" stroke-miterlimit="10"/>
<path d="M206.01 356.14L275.01 355.14" stroke="black" stroke-width="2" stroke-miterlimit="10"/>
<path d="M690 411L767 410" stroke="black" stroke-width="2" stroke-miterlimit="10"/>
<path d="M206.01 368.14L256.01 367.14" stroke="black" stroke-width="2" stroke-miterlimit="10"/>
<path d="M669 423L767 422" stroke="black" stroke-width="2" stroke-miterlimit="10"/>
<path d="M726.979 376.902C725.742 376.902 724.616 376.605 723.602 376.012C722.612 375.418 721.758 374.602 721.041 373.562C720.348 372.523 719.816 371.311 719.445 369.926C719.099 368.516 718.951 367.019 719 365.436C719.049 363.951 719.235 362.343 719.557 360.611C719.903 358.88 720.385 357.148 721.004 355.416C721.622 353.66 722.365 351.977 723.23 350.369C724.121 348.736 725.135 347.301 726.273 346.064C727.411 344.827 728.673 343.838 730.059 343.096C731.444 342.329 732.965 341.945 734.623 341.945C735.637 341.945 736.491 342.156 737.184 342.576C737.901 342.972 738.47 343.504 738.891 344.172C739.336 344.84 739.645 345.594 739.818 346.436C739.992 347.277 740.066 348.13 740.041 348.996C739.992 349.812 739.868 350.604 739.67 351.371C739.497 352.138 739.237 352.831 738.891 353.449C738.569 354.043 738.161 354.525 737.666 354.896C737.196 355.243 736.652 355.416 736.033 355.416C735.736 355.391 735.452 355.292 735.18 355.119C734.932 354.971 734.673 354.748 734.4 354.451C734.153 354.154 733.918 353.721 733.695 353.152C734.363 352.88 734.883 352.41 735.254 351.742C735.65 351.049 735.947 350.332 736.145 349.59C736.367 348.749 736.516 347.809 736.59 346.77C736.639 345.755 736.429 345.013 735.959 344.543C735.489 344.073 734.957 343.838 734.363 343.838C733.201 343.838 731.976 344.444 730.689 345.656C729.403 346.868 728.203 348.514 727.09 350.592C726.001 352.645 725.074 355.045 724.307 357.791C723.564 360.537 723.132 363.444 723.008 366.512C722.958 367.897 723.045 369.072 723.268 370.037C723.515 371.002 723.849 371.794 724.27 372.412C724.715 373.031 725.21 373.476 725.754 373.748C726.298 374.02 726.842 374.156 727.387 374.156C728.253 374.156 729.069 373.971 729.836 373.6C730.603 373.229 731.296 372.771 731.914 372.227C732.557 371.682 733.102 371.113 733.547 370.52C734.017 369.951 734.376 369.443 734.623 368.998C734.796 368.676 734.982 368.479 735.18 368.404C735.378 368.33 735.551 368.355 735.699 368.479C735.848 368.577 735.947 368.751 735.996 368.998C736.046 369.221 735.996 369.493 735.848 369.814C735.427 370.656 734.908 371.497 734.289 372.338C733.695 373.179 733.015 373.934 732.248 374.602C731.506 375.294 730.689 375.851 729.799 376.271C728.908 376.692 727.968 376.902 726.979 376.902ZM745.088 368.738C745.236 368.837 745.422 368.887 745.645 368.887C745.892 368.887 746.127 368.837 746.35 368.738C746.597 368.639 746.82 368.503 747.018 368.33C747.24 368.157 747.401 367.934 747.5 367.662C747.599 367.39 747.599 367.007 747.5 366.512C747.401 365.992 747.24 365.448 747.018 364.879C746.82 364.285 746.597 363.691 746.35 363.098C746.102 362.504 745.892 361.96 745.719 361.465C745.57 361.094 745.447 360.747 745.348 360.426C745.249 360.154 745.15 359.894 745.051 359.646C744.977 359.374 744.915 359.189 744.865 359.09C744.742 359.288 744.519 359.609 744.197 360.055C743.9 360.5 743.566 360.97 743.195 361.465C742.849 361.935 742.515 362.38 742.193 362.801C741.872 363.197 741.649 363.469 741.525 363.617C741.327 363.84 741.13 363.976 740.932 364.025C740.758 364.05 740.61 364.013 740.486 363.914C740.363 363.79 740.288 363.63 740.264 363.432C740.264 363.209 740.363 362.949 740.561 362.652C740.709 362.454 740.932 362.145 741.229 361.725C741.525 361.279 741.822 360.834 742.119 360.389C742.416 359.919 742.688 359.51 742.936 359.164C743.183 358.793 743.319 358.57 743.344 358.496C743.393 358.298 743.319 358.038 743.121 357.717C742.948 357.395 742.923 357.024 743.047 356.604C743.146 356.257 743.368 355.861 743.715 355.416C744.061 354.946 744.469 354.525 744.939 354.154C745.41 353.783 745.892 353.511 746.387 353.338C746.882 353.14 747.327 353.14 747.723 353.338C748.044 353.536 748.304 353.758 748.502 354.006C748.7 354.229 748.774 354.464 748.725 354.711C748.675 354.835 748.601 354.995 748.502 355.193C748.403 355.391 748.255 355.639 748.057 355.936C747.859 356.208 747.574 356.566 747.203 357.012C747.277 357.581 747.376 358.1 747.5 358.57C747.648 359.04 747.785 359.449 747.908 359.795C748.057 360.215 748.217 360.599 748.391 360.945C748.613 361.391 748.848 361.848 749.096 362.318C749.343 362.788 749.566 363.258 749.764 363.729C749.962 364.174 750.122 364.594 750.246 364.99C750.37 365.386 750.407 365.72 750.357 365.992C750.283 366.413 750.061 366.92 749.689 367.514C749.343 368.107 748.898 368.689 748.354 369.258C747.834 369.802 747.228 370.272 746.535 370.668C745.867 371.064 745.162 371.262 744.42 371.262C743.9 371.262 743.393 371.101 742.898 370.779C742.428 370.458 742.02 370.087 741.674 369.666C741.352 369.221 741.105 368.788 740.932 368.367C740.783 367.947 740.771 367.625 740.895 367.402C741.043 367.105 741.179 366.87 741.303 366.697C741.426 366.524 741.612 366.326 741.859 366.104C741.958 366.029 742.082 365.943 742.23 365.844C742.354 365.77 742.527 365.695 742.75 365.621C742.973 365.547 743.232 365.46 743.529 365.361C743.777 366.128 743.999 366.734 744.197 367.18C744.395 367.6 744.556 367.934 744.68 368.182C744.828 368.454 744.964 368.639 745.088 368.738ZM758.447 368.738C758.596 368.837 758.781 368.887 759.004 368.887C759.251 368.887 759.486 368.837 759.709 368.738C759.956 368.639 760.179 368.503 760.377 368.33C760.6 368.157 760.76 367.934 760.859 367.662C760.958 367.39 760.958 367.007 760.859 366.512C760.76 365.992 760.6 365.448 760.377 364.879C760.179 364.285 759.956 363.691 759.709 363.098C759.462 362.504 759.251 361.96 759.078 361.465C758.93 361.094 758.806 360.747 758.707 360.426C758.608 360.154 758.509 359.894 758.41 359.646C758.336 359.374 758.274 359.189 758.225 359.09C758.101 359.288 757.878 359.609 757.557 360.055C757.26 360.5 756.926 360.97 756.555 361.465C756.208 361.935 755.874 362.38 755.553 362.801C755.231 363.197 755.008 363.469 754.885 363.617C754.687 363.84 754.489 363.976 754.291 364.025C754.118 364.05 753.969 364.013 753.846 363.914C753.722 363.79 753.648 363.63 753.623 363.432C753.623 363.209 753.722 362.949 753.92 362.652C754.068 362.454 754.291 362.145 754.588 361.725C754.885 361.279 755.182 360.834 755.479 360.389C755.775 359.919 756.048 359.51 756.295 359.164C756.542 358.793 756.678 358.57 756.703 358.496C756.753 358.298 756.678 358.038 756.48 357.717C756.307 357.395 756.283 357.024 756.406 356.604C756.505 356.257 756.728 355.861 757.074 355.416C757.421 354.946 757.829 354.525 758.299 354.154C758.769 353.783 759.251 353.511 759.746 353.338C760.241 353.14 760.686 353.14 761.082 353.338C761.404 353.536 761.663 353.758 761.861 354.006C762.059 354.229 762.133 354.464 762.084 354.711C762.035 354.835 761.96 354.995 761.861 355.193C761.762 355.391 761.614 355.639 761.416 355.936C761.218 356.208 760.934 356.566 760.562 357.012C760.637 357.581 760.736 358.1 760.859 358.57C761.008 359.04 761.144 359.449 761.268 359.795C761.416 360.215 761.577 360.599 761.75 360.945C761.973 361.391 762.208 361.848 762.455 362.318C762.702 362.788 762.925 363.258 763.123 363.729C763.321 364.174 763.482 364.594 763.605 364.99C763.729 365.386 763.766 365.72 763.717 365.992C763.643 366.413 763.42 366.92 763.049 367.514C762.702 368.107 762.257 368.689 761.713 369.258C761.193 369.802 760.587 370.272 759.895 370.668C759.227 371.064 758.521 371.262 757.779 371.262C757.26 371.262 756.753 371.101 756.258 370.779C755.788 370.458 755.38 370.087 755.033 369.666C754.712 369.221 754.464 368.788 754.291 368.367C754.143 367.947 754.13 367.625 754.254 367.402C754.402 367.105 754.538 366.87 754.662 366.697C754.786 366.524 754.971 366.326 755.219 366.104C755.318 366.029 755.441 365.943 755.59 365.844C755.714 365.77 755.887 365.695 756.109 365.621C756.332 365.547 756.592 365.46 756.889 365.361C757.136 366.128 757.359 366.734 757.557 367.18C757.755 367.6 757.915 367.934 758.039 368.182C758.188 368.454 758.324 368.639 758.447 368.738Z" fill="black"/>
<path d="M261.945 447.214L241.242 441.322L236.627 389.215H287.376L282.761 441.325L261.961 447.214H261.948H261.945ZM248.096 422.394L248.798 431.712L262 435.82L274.967 432.115L277.912 399.865H246.062L246.575 406.199H271.045L270.44 412.777H254.395L254.973 418.991H269.923L269.039 427.506L262.006 429.456L254.856 427.506L254.401 422.404H248.096V422.394V422.394Z" fill="black"/>
</svg>
