<svg width="1042" height="555" viewBox="0 0 1042 555" fill="none" xmlns="http://www.w3.org/2000/svg">
<g clip-path="url(#clip0)">
<g opacity="0.1">
<path opacity="0.1" d="M185.99 49.42V559.04L143.66 559.5C134.627 559.602 125.631 558.314 116.99 555.68V111.42H117.06C137.85 85.87 161.16 64.55 185.99 49.42Z" fill="#00B0FF"/>
<path opacity="0.1" d="M1060.99 122.5H108.35C111.183 118.74 114.063 115.073 116.99 111.5V111.42H1058.62C1059.53 115.04 1060.32 118.733 1060.99 122.5Z" fill="#00B0FF"/>
<path opacity="0.1" d="M984.57 23.93V450.93H981.1C979.3 454.71 977.523 458.417 975.77 462.05C974.99 463.66 974.21 465.24 973.45 466.82V19.89C977.297 21.13 981.003 22.4767 984.57 23.93Z" fill="#00B0FF"/>
<path opacity="0.1" d="M719.96 19V553.25L708.84 553.37V21.28C712.53 20.5 716.23 19.73 719.96 19Z" fill="#00B0FF"/>
<path opacity="0.1" d="M452.97 68.57V556.15L441.86 556.27V68.04C445.57 68.28 449.28 68.42 452.97 68.57Z" fill="#00B0FF"/>
<path opacity="0.1" d="M981.1 450.94C979.3 454.72 977.523 458.427 975.77 462.06H37.6C36.3133 458.4 35.1133 454.693 34 450.94H981.1Z" fill="#00B0FF"/>
<path d="M285.09 402.804C286.471 402.804 287.59 401.685 287.59 400.304C287.59 398.923 286.471 397.804 285.09 397.804C283.709 397.804 282.59 398.923 282.59 400.304C282.59 401.685 283.709 402.804 285.09 402.804Z" fill="#007ACC"/>
<path d="M285.09 406.036C282.085 406.109 279.088 405.704 276.21 404.836C274.881 404.415 273.641 403.751 272.553 402.878C272.138 402.58 271.792 402.196 271.54 401.751C271.287 401.307 271.134 400.813 271.09 400.304C271.09 398.651 272.906 397.031 275.948 395.971C278.903 395.032 281.99 394.577 285.09 394.623C288.149 394.58 291.195 395.027 294.112 395.947C295.392 396.355 296.59 396.987 297.65 397.813C298.058 398.097 298.398 398.468 298.647 398.898C298.896 399.329 299.047 399.809 299.09 400.304C299.09 402.022 297.06 403.763 293.79 404.845C290.968 405.684 288.034 406.086 285.09 406.036ZM285.09 395.819C282.124 395.779 279.171 396.212 276.341 397.101C273.541 398.078 272.286 399.414 272.286 400.301C272.286 401.229 273.635 402.688 276.597 403.701C279.35 404.527 282.217 404.911 285.09 404.84C287.906 404.89 290.714 404.509 293.415 403.71C296.49 402.691 297.89 401.23 297.89 400.304C297.84 399.986 297.724 399.682 297.55 399.412C297.376 399.141 297.148 398.909 296.88 398.731C295.932 397.998 294.862 397.438 293.719 397.077C290.928 396.201 288.015 395.776 285.09 395.819Z" fill="#007ACC"/>
<path d="M279.41 412.773C278.944 412.784 278.483 412.671 278.074 412.445C276.642 411.619 276.146 409.237 276.747 406.072C277.41 403.043 278.558 400.141 280.147 397.479C281.638 394.808 283.546 392.393 285.8 390.325C286.793 389.42 287.939 388.698 289.184 388.192C289.634 387.981 290.126 387.872 290.623 387.872C291.12 387.872 291.612 387.981 292.062 388.192C293.551 389.05 294.044 391.678 293.349 395.051C292.666 397.916 291.548 400.658 290.033 403.184C288.595 405.823 286.746 408.218 284.557 410.277C283.528 411.218 282.333 411.96 281.034 412.466C280.514 412.659 279.965 412.763 279.41 412.773ZM281.183 398.073C279.667 400.622 278.567 403.397 277.923 406.292C277.37 409.207 277.901 410.96 278.673 411.406C279.473 411.869 281.415 411.43 283.773 409.37C285.863 407.397 287.627 405.105 289 402.58C290.451 400.166 291.524 397.543 292.181 394.804C292.835 391.629 292.27 389.685 291.468 389.223C291.167 389.108 290.846 389.056 290.525 389.072C290.203 389.087 289.888 389.169 289.6 389.312C288.492 389.769 287.473 390.419 286.59 391.23C284.437 393.211 282.614 395.523 281.19 398.079L281.183 398.073Z" fill="#007ACC"/>
<path d="M290.767 412.786C289.412 412.786 287.691 411.966 285.899 410.425C283.606 408.338 281.665 405.894 280.152 403.188C278.583 400.562 277.444 397.703 276.778 394.717C276.489 393.404 276.436 392.049 276.62 390.717C276.663 390.223 276.813 389.744 277.061 389.314C277.309 388.885 277.648 388.514 278.054 388.23C279.541 387.369 282.064 388.254 284.639 390.54C286.78 392.562 288.597 394.901 290.029 397.474C291.597 400.038 292.748 402.836 293.439 405.761C293.74 407.123 293.787 408.528 293.576 409.907C293.526 410.415 293.366 410.907 293.109 411.348C292.851 411.789 292.501 412.169 292.082 412.462C291.68 412.685 291.226 412.797 290.767 412.786ZM281.187 402.586C282.638 405.172 284.492 407.511 286.679 409.515C288.928 411.45 290.712 411.866 291.479 411.415C292.279 410.95 292.869 409.052 292.261 405.981C291.595 403.188 290.491 400.518 288.99 398.07C287.624 395.607 285.889 393.368 283.845 391.43C281.421 389.278 279.455 388.797 278.654 389.261C278.404 389.464 278.2 389.716 278.052 390.002C277.905 390.289 277.819 390.602 277.799 390.923C277.64 392.111 277.692 393.318 277.952 394.488C278.592 397.343 279.685 400.078 281.188 402.588L281.187 402.586Z" fill="#007ACC"/>
</g>
<path d="M230.6 265.83H211.6V323.49H230.6V265.83Z" fill="#3F3D56"/>
<path d="M741.93 262.83H722.93V323.83H741.93V262.83Z" fill="#3F3D56"/>
<path d="M863.1 533.65V546.65L711.18 548.05L709.56 548.08L651.82 548.61L650.44 548.63L632.89 548.78H632.37L525.39 549.77L349.78 551.4H349.63L304.98 551.82L304.5 551.83L106.1 553.65V538.65L152.75 510.65L246.35 509.87L248.35 509.86L249.01 509.85L251.01 509.82L295.95 509.45L297.96 509.44L298.6 509.43L300.6 509.42L315.01 509.3L315.39 509.29L350.94 508.99H351.23L628.63 506.65L635.42 506.6H636.1L641.28 506.55L678.93 506.24L680.93 506.21L682.78 506.19H683.74L695.45 506.1L697.77 506.07L700.88 506.05L710.63 505.96L726.1 505.83L728.1 505.81L731.58 505.79H732.23L806.94 505.15L863.1 533.65Z" fill="#65617D"/>
<path opacity="0.2" d="M863.1 533.65V546.65L711.18 548.05L709.56 548.08L651.82 548.61L650.44 548.63L632.89 548.78H632.37L525.39 549.77L349.78 551.4H349.63L304.98 551.82L304.5 551.83L106.1 553.65V538.65L152.75 510.65L246.35 509.87L248.35 509.86L249.01 509.85L251.01 509.82L295.95 509.45L297.96 509.44L298.6 509.43L300.6 509.42L315.01 509.3L315.39 509.29L350.94 508.99H351.23L628.63 506.65L635.42 506.6H636.1L641.28 506.55L678.93 506.24L680.93 506.21L682.78 506.19H683.74L695.45 506.1L697.77 506.07L700.88 506.05L710.63 505.96L726.1 505.83L728.1 505.81L731.58 505.79H732.23L806.94 505.15L863.1 533.65Z" fill="black"/>
<path d="M296.1 483.66V508.15C296.101 509.31 295.772 510.446 295.152 511.427C294.533 512.408 293.648 513.192 292.6 513.69C291.82 514.068 290.967 514.273 290.1 514.29L255.2 515.03C254.268 515.052 253.343 514.857 252.5 514.46C251.434 513.971 250.53 513.186 249.897 512.199C249.265 511.211 248.929 510.063 248.93 508.89V483.66H296.1Z" fill="#3F3D56"/>
<path opacity="0.1" d="M296.1 483.66V508.15C296.101 509.31 295.772 510.446 295.152 511.427C294.533 512.408 293.648 513.192 292.6 513.69C291.82 514.068 290.967 514.273 290.1 514.29L255.2 515.03C254.268 515.052 253.343 514.857 252.5 514.46C251.434 513.971 250.53 513.186 249.897 512.199C249.265 511.211 248.929 510.063 248.93 508.89V483.66H296.1Z" fill="black"/>
<path d="M298.1 483.66V508.15C298.101 509.31 297.772 510.446 297.152 511.427C296.533 512.408 295.648 513.192 294.6 513.69C293.82 514.068 292.967 514.273 292.1 514.29L257.2 515.03C256.268 515.052 255.343 514.857 254.5 514.46C253.434 513.971 252.53 513.186 251.897 512.199C251.265 511.211 250.929 510.063 250.93 508.89V483.66H298.1Z" fill="#3F3D56"/>
<path d="M728.1 483.66H680.93V515.16H728.1V483.66Z" fill="#3F3D56"/>
<path opacity="0.1" d="M728.1 483.66H680.93V515.16H728.1V483.66Z" fill="black"/>
<path d="M726.1 483.66H678.93V515.16H726.1V483.66Z" fill="#3F3D56"/>
<path opacity="0.1" d="M230.6 265.82V271.55L211.6 271.06V265.82H230.6Z" fill="black"/>
<path d="M355.66 104.4L332.83 268.4C332.685 269.448 332.16 270.405 331.353 271.089C330.547 271.774 329.517 272.137 328.46 272.11L145.66 267.37L142.19 267.28C141.586 267.266 140.991 267.124 140.446 266.865C139.9 266.605 139.415 266.234 139.022 265.774C138.63 265.315 138.339 264.777 138.168 264.198C137.997 263.618 137.95 263.009 138.03 262.41L163.66 90.73C163.825 89.6666 164.383 88.7037 165.224 88.0317C166.064 87.3596 167.126 87.0272 168.2 87.1L351.66 99.52C352.252 99.5543 352.83 99.7109 353.359 99.98C353.887 100.249 354.354 100.625 354.73 101.083C355.105 101.542 355.382 102.073 355.542 102.644C355.702 103.215 355.743 103.813 355.66 104.4Z" fill="#65617D"/>
<path d="M175.93 99.16L156.6 250.49L324.6 255.82L345.26 109.82L175.93 99.16Z" fill="#00B0FF"/>
<path d="M583.94 96.82H389.93C386.986 96.82 384.6 99.2063 384.6 102.15V264.82C384.6 267.764 386.986 270.15 389.93 270.15H583.94C586.884 270.15 589.27 267.764 589.27 264.82V102.15C589.27 99.2063 586.884 96.82 583.94 96.82Z" fill="#65617D"/>
<path d="M580.26 108.49H394.26V252.82H580.26V108.49Z" fill="#00B0FF"/>
<path opacity="0.1" d="M741.93 262.82V266.61L722.93 267V262.82H741.93Z" fill="black"/>
<path d="M827.66 259.62C827.687 260.034 827.63 260.45 827.492 260.842C827.355 261.233 827.139 261.593 826.859 261.9C826.579 262.206 826.24 262.453 825.862 262.624C825.484 262.796 825.075 262.89 824.66 262.9L637.46 266.77C636.682 266.786 635.927 266.507 635.347 265.99C634.766 265.472 634.403 264.754 634.33 263.98L618.24 96.7C618.2 96.2849 618.245 95.8662 618.372 95.4691C618.499 95.0719 618.705 94.7047 618.978 94.3896C619.251 94.0745 619.585 93.8181 619.96 93.636C620.335 93.4538 620.744 93.3497 621.16 93.33L806.94 84.09L808.94 83.99C809.735 83.9481 810.515 84.2167 811.116 84.7391C811.717 85.2615 812.091 85.9969 812.16 86.79L827.66 259.62Z" fill="#65617D"/>
<path d="M628.93 103.16L798.6 94.82L812.93 246.82L644.6 250.82L628.93 103.16Z" fill="#00B0FF"/>
<path opacity="0.1" d="M827.66 259.62C827.687 260.034 827.63 260.45 827.492 260.842C827.355 261.233 827.139 261.593 826.859 261.9C826.579 262.206 826.24 262.453 825.862 262.624C825.484 262.796 825.075 262.89 824.66 262.9L806.94 84.09L808.94 83.99C809.735 83.9481 810.515 84.2167 811.116 84.7391C811.717 85.2615 812.091 85.9969 812.16 86.79L827.66 259.62Z" fill="black"/>
<path opacity="0.1" d="M168.23 87.09L145.66 267.37L142.19 267.28C141.586 267.266 140.991 267.124 140.446 266.865C139.9 266.605 139.415 266.234 139.022 265.774C138.63 265.315 138.339 264.777 138.168 264.198C137.997 263.618 137.95 263.009 138.03 262.41L163.66 90.73C163.823 89.6592 164.385 88.6895 165.232 88.0147C166.079 87.3398 167.15 87.0096 168.23 87.09Z" fill="black"/>
<path opacity="0.1" d="M230.6 306.41H211.6V323.49H230.6V306.41Z" fill="black"/>
<path opacity="0.1" d="M298.1 483.65V488.62L250.93 489.88V483.65H298.1Z" fill="black"/>
<path d="M381.35 312.36V480.56C381.338 481.587 380.931 482.569 380.215 483.305C379.498 484.04 378.526 484.472 377.5 484.51L185.85 489.61H185.8C184.756 489.597 183.759 489.177 183.021 488.439C182.283 487.701 181.863 486.704 181.85 485.66V312.36C181.863 311.316 182.283 310.319 183.021 309.581C183.759 308.843 184.756 308.423 185.8 308.41H377.4C378.444 308.423 379.441 308.843 380.179 309.581C380.917 310.319 381.337 311.316 381.35 312.36Z" fill="#65617D"/>
<path opacity="0.1" d="M185.85 308.41V489.61H185.8C184.756 489.597 183.759 489.177 183.021 488.439C182.283 487.701 181.863 486.704 181.85 485.66V312.36C181.863 311.316 182.283 310.319 183.021 309.581C183.759 308.843 184.756 308.423 185.8 308.41H185.85Z" fill="black"/>
<path d="M194.6 319.15H372.1V467.4L194.6 471.4V319.15Z" fill="#D4DFEC"/>
<path opacity="0.1" d="M741.93 306.41H722.93V323.83H741.93V306.41Z" fill="black"/>
<path opacity="0.1" d="M726.1 483.65V490.06L678.93 488.8V483.65H726.1Z" fill="black"/>
<path d="M788.35 312.36V485.66C788.337 486.712 787.91 487.717 787.161 488.456C786.412 489.196 785.402 489.61 784.35 489.61L592.66 484.51C591.634 484.472 590.662 484.04 589.945 483.305C589.229 482.569 588.822 481.587 588.81 480.56V312.36C588.823 311.316 589.243 310.319 589.981 309.581C590.719 308.843 591.716 308.423 592.76 308.41H784.36C785.411 308.413 786.418 308.828 787.164 309.567C787.911 310.306 788.337 311.31 788.35 312.36Z" fill="#65617D"/>
<path opacity="0.1" d="M788.35 312.36V485.66C788.337 486.712 787.91 487.717 787.161 488.456C786.412 489.196 785.402 489.61 784.35 489.61V308.41C785.402 308.41 786.412 308.825 787.161 309.564C787.91 310.303 788.337 311.308 788.35 312.36Z" fill="black"/>
<path d="M777.5 317H600V465.25L777.5 469.25V317Z" fill="#D4DFEC"/>
<path d="M583.85 312.36V480.56C583.838 481.587 583.431 482.569 582.715 483.305C581.998 484.04 581.026 484.472 580 484.51L388.35 489.61C387.298 489.61 386.288 489.196 385.539 488.456C384.79 487.717 384.363 486.712 384.35 485.66V312.36C384.363 311.316 384.783 310.319 385.521 309.581C386.259 308.843 387.256 308.423 388.3 308.41H579.9C580.944 308.423 581.941 308.843 582.679 309.581C583.417 310.319 583.837 311.316 583.85 312.36Z" fill="#65617D"/>
<path d="M397.1 319.15H574.6V467.4L397.1 471.4V319.15Z" fill="#D4DFEC"/>
<path opacity="0.1" d="M863.1 533.65V546.65L711.18 548.05L709.56 548.08L651.82 548.61L650.44 548.63L632.89 548.78H632.37L525.39 549.77L349.78 551.4H349.63L304.98 551.82L304.5 551.83L106.1 553.65V538.65L308.61 537.32H309.09L350.08 537.04H350.27L633.35 535.17H633.64L633.81 535.16H634.28L639.07 535.13H640.53L715.02 534.63L719.42 534.61L720.4 534.6L863.1 533.65Z" fill="black"/>
<path d="M487.26 323.49C515.609 323.49 538.59 300.509 538.59 272.16C538.59 243.811 515.609 220.83 487.26 220.83C458.911 220.83 435.93 243.811 435.93 272.16C435.93 300.509 458.911 323.49 487.26 323.49Z" fill="#FBBEBE"/>
<path d="M538.6 377.16C538.6 377.16 439.1 389.16 448.6 377.16C452.04 372.82 452.99 359.96 452.8 345.31C452.74 340.86 452.58 336.25 452.35 331.66C451.25 309.66 448.6 288.16 448.6 288.16C448.6 288.16 535.6 247.16 525.6 279.66C521.6 292.79 522.91 311.23 525.95 328.54C526.84 333.59 527.87 338.54 528.95 343.24C531.586 354.704 534.807 366.025 538.6 377.16Z" fill="#FBBEBE"/>
<path opacity="0.1" d="M538.6 377.16C538.6 377.16 439.1 389.16 448.6 377.16C452.04 372.82 452.99 359.96 452.8 345.31C467.97 338.83 487.27 343.66 487.27 343.66C507.59 339.61 520.62 340.4 528.95 343.24C531.586 354.704 534.807 366.025 538.6 377.16Z" fill="black"/>
<path d="M349.74 552.53V551.69L525.36 549.78L632.36 548.78H632.66L632.55 550.26L632.7 548.78H632.89V548.61L634.26 535.16L634.78 530.07L634.94 528.48L635.08 527.15L641.26 506.54L647.44 485.96L652.64 468.63L660.58 442.15C660.58 442.15 656.08 431.65 653.58 428.65C651.08 425.65 648.58 405.15 648.58 405.15C648.58 405.15 627.24 384.82 617.91 382.48C614 381.48 606.28 380.15 598.08 378.48C595.01 377.86 591.86 377.2 588.83 376.48C587.12 376.09 585.44 375.68 583.83 375.27C580.696 374.487 577.608 373.533 574.58 372.41C572.992 371.833 571.481 371.064 570.08 370.12C562.73 364.73 544.31 364.12 543.6 364.12C543.598 364.097 543.598 364.073 543.6 364.05V363.96C543.626 363.54 543.626 363.12 543.6 362.7C543.6 362.3 543.6 361.83 543.51 361.3C543.51 361.14 543.51 360.97 543.44 360.8C543.39 360.44 543.33 360.06 543.24 359.66C543.21 359.481 543.17 359.304 543.12 359.13C542.83 357.925 542.411 356.755 541.87 355.64C541.8 355.48 541.71 355.31 541.63 355.15C541.14 354.226 540.571 353.346 539.93 352.52C539.8 352.35 539.66 352.17 539.51 352C538.691 351.034 537.78 350.15 536.79 349.36C536.52 349.15 536.24 348.93 535.95 348.73C535.788 348.599 535.618 348.478 535.44 348.37L534.55 347.79L533.72 347.31C532.99 346.91 532.22 346.52 531.38 346.15C531.12 346.03 530.84 345.92 530.56 345.81C530.28 345.7 529.84 345.53 529.47 345.39H529.41L528.66 345.09C528.09 344.9 527.51 344.73 526.9 344.56L525.97 344.32L524.97 344.09L523.97 343.88C522.97 343.68 521.9 343.5 520.78 343.36L519.64 343.22L518.47 343.1L517.26 343L515.54 342.9L513.54 342.83C504.719 342.829 495.923 343.764 487.3 345.62C481.309 344.287 475.173 343.722 469.04 343.94H468.17L467.17 344H466.53L465.24 344.12C464.81 344.12 464.37 344.21 463.94 344.27C463.51 344.33 463.06 344.38 462.63 344.45L461.97 344.56C461.32 344.67 460.66 344.79 459.97 344.93C459.75 344.97 459.53 345.02 459.31 345.08C458.44 345.27 457.57 345.5 456.71 345.76C456.28 345.88 455.85 346.02 455.42 346.17C455.2 346.23 454.99 346.31 454.78 346.39L454.14 346.62L453.51 346.87L452.76 347.17C452.38 347.33 452.01 347.5 451.64 347.68C451.43 347.77 451.22 347.87 451.02 347.98C450.82 348.09 450.61 348.18 450.42 348.29C448.159 349.458 446.069 350.932 444.21 352.67L443.7 353.16L443.2 353.67C443.03 353.84 442.87 354.02 442.71 354.2C442.058 354.912 441.45 355.664 440.89 356.45C440.73 356.66 440.58 356.87 440.43 357.09C439.795 358.026 439.221 359.001 438.71 360.01C438.58 360.25 438.46 360.5 438.34 360.74C437.524 362.429 436.855 364.186 436.34 365.99C436.153 366.657 435.983 367.323 435.83 367.99C435.83 367.99 414.66 377.33 397.1 384.09C392.43 385.89 388.03 387.52 384.35 388.75C383.28 389.11 382.28 389.44 381.35 389.75C379.332 390.479 377.234 390.963 375.1 391.19C374.094 391.206 373.091 391.3 372.1 391.47C364.03 392.78 350.2 398.47 348.69 404.18C348.567 404.636 348.533 405.111 348.59 405.58C348.59 405.58 348.59 405.65 348.59 405.69C349.59 412.69 342.59 411.69 342.59 411.69C342.59 411.69 340.09 430.19 336.59 435.19C334.06 438.79 332.33 446.82 332.11 452.88C331.984 454.768 332.132 456.664 332.55 458.51C332.55 458.56 332.55 458.61 332.55 458.65C332.95 459.99 331.99 463.65 330.36 468.34C328.59 473.49 326.01 479.89 323.53 485.93C319.79 495.05 316.27 503.33 316.05 505.15C315.96 505.96 315.7 507.41 315.34 509.28C313.88 516.9 310.64 531.41 309.04 537.28C307.85 541.66 306.12 547.66 304.93 551.78C304.93 551.9 304.86 552.02 304.83 552.13L349.66 551.69V552.53H349.8H349.74Z" fill="#00B0FF"/>
<path opacity="0.1" d="M366.1 434.66C366.1 434.66 423.1 464.16 443.6 460.66L366.1 434.66Z" fill="black"/>
<path opacity="0.1" d="M482.1 422.66C482.1 422.66 537.6 440.66 556.1 443.16C574.6 445.66 482.1 422.66 482.1 422.66Z" fill="black"/>
<path opacity="0.1" d="M543.66 364.74C514.66 370.08 460.06 368.93 436.46 368.12C445.11 337.12 487.29 347.66 487.29 347.66C539.5 337.24 543.5 358.86 543.66 364.74Z" fill="black"/>
<path d="M697.6 499.41C697.6 499.41 731.76 494.16 732.43 509.16C733.1 524.16 715.01 534.64 715.01 534.64L697.6 499.41Z" fill="#FBBEBE"/>
<path opacity="0.1" d="M525.95 328.54C524.481 329.197 522.979 329.777 521.45 330.28C510.67 334 499.8 337.75 488.45 339.11C477.1 340.47 465.19 339.27 455.29 333.61C454.251 333.023 453.249 332.372 452.29 331.66C451.19 309.66 448.54 288.16 448.54 288.16C448.54 288.16 535.54 247.16 525.54 279.66C521.56 292.79 522.91 311.23 525.95 328.54Z" fill="#ECF76F" fill-opacity="0.78"/>
<path d="M473.18 191.93C471.753 192.307 470.257 192.345 468.813 192.041C467.368 191.737 466.014 191.1 464.86 190.18L466.94 193.07C465.714 193.211 464.472 193.083 463.301 192.695C462.13 192.306 461.058 191.666 460.16 190.82C459.971 193.407 460.079 196.007 460.48 198.57C457.038 198.736 453.65 197.673 450.92 195.57C450.867 196.472 451.091 197.369 451.563 198.14C452.035 198.91 452.732 199.518 453.56 199.88C450.103 199.467 446.613 200.326 443.743 202.297C440.872 204.267 438.817 207.215 437.96 210.59L443.18 211.07C439.078 211.946 435.396 214.193 432.74 217.44C431.14 219.44 429.92 222 430.62 224.44C431.32 226.88 434.7 228.44 436.54 226.7C433.923 229.824 432.02 233.483 430.967 237.42C429.913 241.356 429.733 245.476 430.44 249.49C430.915 251.2 431.071 252.983 430.9 254.75C430.57 256.4 429.53 257.83 429.01 259.44C428.01 262.36 428.96 265.53 429.85 268.44L434.54 283.86C436.24 289.43 437.93 295.01 440.15 300.4C441.722 303.808 443.059 307.319 444.15 310.91C445.41 315.75 445.46 321.05 448.15 325.28C449.994 327.942 452.458 330.115 455.33 331.61C465.22 337.27 477.17 338.47 488.49 337.11C499.81 335.75 510.67 332 521.44 328.28C523.833 327.559 526.129 326.552 528.28 325.28C535.73 320.4 537.39 310.42 538.78 301.63C540.33 291.83 542.4 282.05 546.07 272.83C548.25 267.34 551.07 261.77 550.59 255.89C549.98 248.08 543.8 241.75 542.27 234.07C541.758 231.503 541.782 228.857 542.34 226.3C542.814 224.776 543.08 223.195 543.13 221.6C542.96 218.38 540.32 215.9 537.84 213.83C532.46 209.337 526.907 205.09 521.18 201.09C520.89 199.09 523.61 198.23 524.84 196.65C526.58 194.42 524.78 190.88 522.14 189.84C519.5 188.8 516.54 189.48 513.79 190.17C513.969 188.762 513.689 187.335 512.992 186.099C512.294 184.863 511.217 183.885 509.919 183.311C508.621 182.737 507.173 182.597 505.79 182.912C504.406 183.227 503.161 183.981 502.24 185.06C501.51 183.385 500.343 181.938 498.862 180.868C497.381 179.799 495.639 179.146 493.82 178.98C487.19 178.46 487.06 183.53 482.82 186.32C478.58 189.11 475.08 185.43 471.82 182.75C471.221 184.265 471.031 185.911 471.27 187.522C471.509 189.134 472.168 190.654 473.18 191.93Z" fill="#3F3D56"/>
<path d="M722.93 529.41C722.93 529.41 722.04 531.53 720.4 534.6C717.919 539.323 714.899 543.743 711.4 547.77L711.13 548.06H709.51L651.77 548.59H650.39L650.22 548.39L639.02 535.1L634.8 530.09L634.63 529.88L634.27 529.46L634.07 529.22L633.81 528.91L625.6 519.17L628.6 506.67L633.71 485.61L633.84 485.1L634.84 481.1L635.55 478.1L637.93 468.32L646.09 434.67L660.59 442.17L675.88 469.17L684.09 483.67H688.59C689.44 483.67 691.39 485.31 693.35 487.2C694.05 487.87 694.75 488.58 695.35 489.2C697.13 491.04 698.54 492.62 698.54 492.62C698.54 492.62 705.83 492.78 707.79 498.52C707.891 498.798 707.975 499.082 708.04 499.37C708.691 501.626 709.537 503.821 710.57 505.93C711.86 508.74 713.48 511.93 715.12 515.12C718.17 520.97 721.27 526.54 722.41 528.56L722.55 528.81L722.93 529.41Z" fill="#00B0FF"/>
<path opacity="0.1" d="M637.03 484.26L636.93 485.69V485.79L636.76 488.09L635.43 506.6L633.82 528.9L633.36 535.18L632.36 548.62V548.79L525.36 549.79L349.77 551.69V552.53H349.63V551.69V551.41L350.08 537.05L350.94 508.99L351.68 485.2L351.75 482.83C351.794 481.4 352.129 479.993 352.734 478.696C353.34 477.4 354.203 476.24 355.272 475.288C356.341 474.336 357.592 473.612 358.95 473.161C360.308 472.709 361.744 472.538 363.17 472.66C367.89 473.06 374.02 473.55 381.35 474.07L384.35 474.29C426.68 477.23 504.91 481.03 583.85 476.29C585.51 476.2 587.18 476.1 588.85 475.98C601.09 475.21 613.32 474.22 625.43 472.98C626.961 472.82 628.508 472.997 629.963 473.499C631.418 474.001 632.746 474.817 633.851 475.887C634.957 476.958 635.815 478.258 636.364 479.696C636.913 481.134 637.141 482.675 637.03 484.21V484.26Z" fill="black"/>
<path d="M349.74 552.53V551.69L525.36 549.78L632.36 548.78H632.66V548.61L633.66 535.17L634.09 529.17L635.73 506.56L637.02 488.66V488.22C637.08 487.395 637.043 486.566 636.91 485.75C636.916 485.717 636.916 485.683 636.91 485.65C636.635 483.962 635.948 482.368 634.91 481.01C633.809 479.598 632.366 478.49 630.718 477.79C629.07 477.09 627.271 476.822 625.49 477.01C613.38 478.25 601.15 479.24 588.91 480.01C587.24 480.13 585.57 480.23 583.91 480.32C504.97 485.01 426.74 481.21 384.41 478.32L381.41 478.1C374.08 477.58 367.95 477.1 363.23 476.69C360.633 476.471 358.048 477.221 355.972 478.797C353.896 480.372 352.478 482.66 351.99 485.22C351.889 485.761 351.829 486.31 351.81 486.86L351.13 509.02L350.2 537.09L349.76 551.45V551.73V552.57L349.74 552.53Z" fill="#3F3D56"/>
<path opacity="0.1" d="M637.33 491.27L636.1 506.6L634.27 529.45L633.81 535.17L632.81 547.98L632.75 548.62V548.79L632.6 550.27L632.71 548.79H632.42L525.42 549.79L349.77 551.69V551.41L350.26 537.05L351.26 508.99L351.9 490.34C351.931 489.279 352.228 488.243 352.762 487.326C353.297 486.409 354.052 485.64 354.96 485.09C356.092 484.396 357.416 484.081 358.74 484.19C360.84 484.36 363.42 484.56 366.43 484.78C371.32 485.14 377.35 485.56 384.37 486C397.37 486.82 413.68 487.7 432.37 488.42C484.37 490.42 554.57 491.09 621.25 485.25C624.25 484.99 627.35 484.7 630.38 484.41C631.579 484.29 632.788 484.52 633.86 485.07C634.164 485.221 634.452 485.402 634.72 485.61C635.591 486.241 636.28 487.089 636.72 488.07C636.822 488.265 636.906 488.469 636.97 488.68C637.27 489.509 637.393 490.391 637.33 491.27Z" fill="black"/>
<path opacity="0.1" d="M298.1 504.96V508.15C298.101 509.31 297.772 510.446 297.152 511.427C296.533 512.408 295.648 513.192 294.6 513.69L254.5 514.46C253.434 513.971 252.53 513.186 251.897 512.199C251.265 511.211 250.929 510.063 250.93 508.89V505.89L298.1 504.96Z" fill="black"/>
<path d="M298.6 515.57L246.35 516.57V507.9L298.6 506.9V515.57Z" fill="#3F3D56"/>
<path opacity="0.1" d="M298.6 515.57L246.35 516.57V507.9L298.6 506.9V515.57Z" fill="black"/>
<path d="M300.6 515.57L248.35 516.57V507.9L300.6 506.9V515.57Z" fill="#3F3D56"/>
<g opacity="0.1">
<path opacity="0.1" d="M473.59 188.65C472.613 187.381 471.964 185.89 471.7 184.31C471.459 185.855 471.603 187.435 472.12 188.91C472.616 188.864 473.108 188.777 473.59 188.65Z" fill="black"/>
<path opacity="0.1" d="M460.89 195.29C460.701 194.064 460.578 192.829 460.52 191.59C460.52 192.82 460.52 194.06 460.52 195.3L460.89 195.29Z" fill="black"/>
<path opacity="0.1" d="M542.39 228.66C542.445 227.769 542.566 226.883 542.75 226.01C543.223 224.489 543.492 222.912 543.55 221.32C543.528 220.963 543.474 220.608 543.39 220.26C543.22 221.18 542.95 222.1 542.75 223.01C542.351 224.865 542.229 226.769 542.39 228.66Z" fill="black"/>
<path opacity="0.1" d="M521.59 197.76L522.68 198.55C523.599 197.885 524.459 197.143 525.25 196.33C525.626 195.81 525.859 195.199 525.926 194.561C525.993 193.922 525.891 193.277 525.63 192.69C525.53 192.918 525.403 193.133 525.25 193.33C524.02 194.91 521.3 195.78 521.59 197.76Z" fill="black"/>
<path opacity="0.1" d="M439.42 207.38C439.055 208.109 438.764 208.873 438.55 209.66C440.114 208.787 441.799 208.15 443.55 207.77L439.42 207.38Z" fill="black"/>
<path opacity="0.1" d="M453.21 196.5C452.553 196.138 451.925 195.727 451.33 195.27C451.305 195.666 451.335 196.063 451.42 196.45C452.017 196.422 452.615 196.438 453.21 196.5Z" fill="black"/>
<path opacity="0.1" d="M550.98 255.42C550.57 260.27 548.31 264.94 546.48 269.54C542.81 278.76 540.74 288.54 539.19 298.35C537.8 307.14 536.19 317.12 528.69 321.99C526.547 323.27 524.253 324.278 521.86 324.99C511.08 328.72 500.21 332.46 488.86 333.82C477.51 335.18 465.6 333.99 455.7 328.33C452.83 326.832 450.366 324.66 448.52 322C445.85 317.77 445.8 312.47 444.52 307.63C443.429 304.036 442.092 300.521 440.52 297.11C438.31 291.73 436.61 286.11 434.92 280.58C433.353 275.44 431.79 270.297 430.23 265.15C429.716 263.602 429.335 262.013 429.09 260.4C428.7 262.96 429.46 265.64 430.23 268.15C431.79 273.303 433.353 278.447 434.92 283.58C436.61 289.15 438.31 294.73 440.52 300.11C442.092 303.521 443.429 307.036 444.52 310.63C445.78 315.47 445.83 320.77 448.52 325C450.366 327.66 452.83 329.832 455.7 331.33C465.6 336.99 477.54 338.18 488.86 336.82C500.18 335.46 511.04 331.72 521.86 327.99C524.253 327.278 526.547 326.27 528.69 324.99C536.14 320.12 537.8 310.14 539.19 301.35C540.74 291.54 542.81 281.76 546.48 272.54C548.66 267.06 551.48 261.49 551 255.6C551 255.54 550.98 255.48 550.98 255.42Z" fill="black"/>
<path opacity="0.1" d="M431.29 251.55C431.29 251.55 431.29 251.48 431.29 251.44C431.47 249.677 431.314 247.895 430.83 246.19C430.631 245.093 430.5 243.984 430.44 242.87C430.325 244.985 430.456 247.106 430.83 249.19C430.99 249.97 431.17 250.76 431.29 251.55Z" fill="black"/>
<path opacity="0.1" d="M434.34 227.09C435.109 225.798 435.982 224.571 436.95 223.42C435.12 225.17 431.74 223.61 431.03 221.18C430.768 222.163 430.768 223.197 431.03 224.18C431.276 224.914 431.712 225.569 432.293 226.08C432.875 226.592 433.581 226.94 434.34 227.09Z" fill="black"/>
</g>
<path opacity="0.1" d="M684.1 483.66C684.1 483.66 687.27 495.16 684.1 505.16C680.93 515.16 684.1 483.66 684.1 483.66Z" fill="black"/>
<path opacity="0.1" d="M697.6 495.39C697.6 495.39 698.93 509.99 695.93 512.58C692.93 515.17 697.6 495.39 697.6 495.39Z" fill="black"/>
<path d="M206 344L307.61 343" stroke="black" stroke-width="2" stroke-miterlimit="10"/>
<path d="M714 400L767 399" stroke="black" stroke-width="2" stroke-miterlimit="10"/>
<path d="M206.01 356.14L275.01 355.14" stroke="black" stroke-width="2" stroke-miterlimit="10"/>
<path d="M690 411L767 410" stroke="black" stroke-width="2" stroke-miterlimit="10"/>
<path d="M206.01 368.14L256.01 367.14" stroke="black" stroke-width="2" stroke-miterlimit="10"/>
<path d="M669 423L767 422" stroke="black" stroke-width="2" stroke-miterlimit="10"/>
<path d="M726.979 381.902C725.742 381.902 724.616 381.605 723.602 381.012C722.612 380.418 721.758 379.602 721.041 378.562C720.348 377.523 719.816 376.311 719.445 374.926C719.099 373.516 718.951 372.019 719 370.436C719.049 368.951 719.235 367.343 719.557 365.611C719.903 363.88 720.385 362.148 721.004 360.416C721.622 358.66 722.365 356.977 723.23 355.369C724.121 353.736 725.135 352.301 726.273 351.064C727.411 349.827 728.673 348.838 730.059 348.096C731.444 347.329 732.965 346.945 734.623 346.945C735.637 346.945 736.491 347.156 737.184 347.576C737.901 347.972 738.47 348.504 738.891 349.172C739.336 349.84 739.645 350.594 739.818 351.436C739.992 352.277 740.066 353.13 740.041 353.996C739.992 354.812 739.868 355.604 739.67 356.371C739.497 357.138 739.237 357.831 738.891 358.449C738.569 359.043 738.161 359.525 737.666 359.896C737.196 360.243 736.652 360.416 736.033 360.416C735.736 360.391 735.452 360.292 735.18 360.119C734.932 359.971 734.673 359.748 734.4 359.451C734.153 359.154 733.918 358.721 733.695 358.152C734.363 357.88 734.883 357.41 735.254 356.742C735.65 356.049 735.947 355.332 736.145 354.59C736.367 353.749 736.516 352.809 736.59 351.77C736.639 350.755 736.429 350.013 735.959 349.543C735.489 349.073 734.957 348.838 734.363 348.838C733.201 348.838 731.976 349.444 730.689 350.656C729.403 351.868 728.203 353.514 727.09 355.592C726.001 357.645 725.074 360.045 724.307 362.791C723.564 365.537 723.132 368.444 723.008 371.512C722.958 372.897 723.045 374.072 723.268 375.037C723.515 376.002 723.849 376.794 724.27 377.412C724.715 378.031 725.21 378.476 725.754 378.748C726.298 379.02 726.842 379.156 727.387 379.156C728.253 379.156 729.069 378.971 729.836 378.6C730.603 378.229 731.296 377.771 731.914 377.227C732.557 376.682 733.102 376.113 733.547 375.52C734.017 374.951 734.376 374.443 734.623 373.998C734.796 373.676 734.982 373.479 735.18 373.404C735.378 373.33 735.551 373.355 735.699 373.479C735.848 373.577 735.947 373.751 735.996 373.998C736.046 374.221 735.996 374.493 735.848 374.814C735.427 375.656 734.908 376.497 734.289 377.338C733.695 378.179 733.015 378.934 732.248 379.602C731.506 380.294 730.689 380.851 729.799 381.271C728.908 381.692 727.968 381.902 726.979 381.902ZM752.881 361.195C752.757 361.616 752.609 361.925 752.436 362.123C752.287 362.296 752.04 362.37 751.693 362.346C751.199 362.296 750.58 362.284 749.838 362.309C749.096 362.309 748.329 362.321 747.537 362.346L747.5 362.383C747.352 363.125 747.215 363.818 747.092 364.461C746.968 365.005 746.857 365.525 746.758 366.02C746.659 366.49 746.597 366.799 746.572 366.947C746.498 367.096 746.374 367.219 746.201 367.318C746.053 367.393 745.892 367.454 745.719 367.504C745.521 367.578 745.323 367.628 745.125 367.652C744.927 367.677 744.729 367.689 744.531 367.689C744.135 367.689 743.814 367.603 743.566 367.43L744.754 362.42C744.185 362.445 743.604 362.494 743.01 362.568C742.515 362.618 741.971 362.704 741.377 362.828C740.783 362.927 740.227 363.038 739.707 363.162C739.658 362.989 739.645 362.803 739.67 362.605C739.67 362.408 739.695 362.222 739.744 362.049C739.794 361.851 739.843 361.653 739.893 361.455C739.967 361.257 740.09 361.022 740.264 360.75C740.437 360.478 740.61 360.305 740.783 360.23C740.956 360.132 741.488 360.045 742.379 359.971C743.27 359.872 744.259 359.798 745.348 359.748L746.35 355.592C746.548 355.394 746.758 355.245 746.98 355.146C747.203 355.048 747.413 354.973 747.611 354.924C747.859 354.874 748.094 354.85 748.316 354.85C748.539 354.85 748.737 354.874 748.91 354.924C749.034 354.973 749.145 355.035 749.244 355.109C749.343 355.159 749.368 355.233 749.318 355.332C749.17 355.802 749.021 356.297 748.873 356.816C748.749 357.311 748.626 357.781 748.502 358.227C748.378 358.746 748.242 359.253 748.094 359.748C748.96 359.773 749.727 359.798 750.395 359.822C751.062 359.847 751.706 359.909 752.324 360.008C752.671 360.033 752.881 360.132 752.955 360.305C753.029 360.478 753.005 360.775 752.881 361.195ZM766.203 361.195C766.079 361.616 765.931 361.925 765.758 362.123C765.609 362.296 765.362 362.37 765.016 362.346C764.521 362.296 763.902 362.284 763.16 362.309C762.418 362.309 761.651 362.321 760.859 362.346L760.822 362.383C760.674 363.125 760.538 363.818 760.414 364.461C760.29 365.005 760.179 365.525 760.08 366.02C759.981 366.49 759.919 366.799 759.895 366.947C759.82 367.096 759.697 367.219 759.523 367.318C759.375 367.393 759.214 367.454 759.041 367.504C758.843 367.578 758.645 367.628 758.447 367.652C758.249 367.677 758.051 367.689 757.854 367.689C757.458 367.689 757.136 367.603 756.889 367.43L758.076 362.42C757.507 362.445 756.926 362.494 756.332 362.568C755.837 362.618 755.293 362.704 754.699 362.828C754.105 362.927 753.549 363.038 753.029 363.162C752.98 362.989 752.967 362.803 752.992 362.605C752.992 362.408 753.017 362.222 753.066 362.049C753.116 361.851 753.165 361.653 753.215 361.455C753.289 361.257 753.413 361.022 753.586 360.75C753.759 360.478 753.932 360.305 754.105 360.23C754.279 360.132 754.811 360.045 755.701 359.971C756.592 359.872 757.581 359.798 758.67 359.748L759.672 355.592C759.87 355.394 760.08 355.245 760.303 355.146C760.525 355.048 760.736 354.973 760.934 354.924C761.181 354.874 761.416 354.85 761.639 354.85C761.861 354.85 762.059 354.874 762.232 354.924C762.356 354.973 762.467 355.035 762.566 355.109C762.665 355.159 762.69 355.233 762.641 355.332C762.492 355.802 762.344 356.297 762.195 356.816C762.072 357.311 761.948 357.781 761.824 358.227C761.701 358.746 761.564 359.253 761.416 359.748C762.282 359.773 763.049 359.798 763.717 359.822C764.385 359.847 765.028 359.909 765.646 360.008C765.993 360.033 766.203 360.132 766.277 360.305C766.352 360.478 766.327 360.775 766.203 361.195Z" fill="black"/>
<g clip-path="url(#clip1)">
<path d="M287.876 400.169L267.62 388.504C266.454 387.832 264.544 387.832 263.377 388.504L243.122 400.169C241.955 400.841 241 402.491 241 403.835V427.165C241.091 428.731 241.892 430.027 243.122 430.831L263.377 442.496C264.544 443.168 266.454 443.168 267.621 442.496L287.876 430.831C289.195 429.956 289.946 428.639 289.998 427.165V403.835C289.951 402.421 289.102 400.994 287.876 400.169H287.876ZM249.166 415.5C249.07 399.592 270.431 392.568 279.643 407.349L272.575 411.429C268.308 404.389 257.713 406.907 257.333 415.5C257.447 423.42 267.86 427.099 272.575 419.571L279.643 423.65C271.525 437.708 249.576 432.65 249.166 415.5H249.166ZM281.832 416.405H280.017V418.215H278.202V416.405H276.387V414.595H278.202V412.785H280.017V414.595H281.832V416.405H281.832ZM288.637 416.405H286.822V418.215H285.007V416.405H283.193V414.595H285.008V412.785H286.822V414.595H288.637V416.405H288.637Z" fill="black"/>
</g>
</g>
<defs>
<clipPath id="clip0">
<rect width="1041.32" height="554.17" fill="white"/>
</clipPath>
<clipPath id="clip1">
<rect width="49" height="55" fill="white" transform="translate(241 388)"/>
</clipPath>
</defs>
</svg>
