<svg width="1042" height="555" viewBox="0 0 1042 555" fill="none" xmlns="http://www.w3.org/2000/svg">
<g opacity="0.1">
<path opacity="0.1" d="M164.99 43.42V553.04L122.66 553.5C113.627 553.602 104.631 552.314 95.99 549.68V105.42H96.06C116.85 79.87 140.16 58.55 164.99 43.42Z" fill="#00B0FF"/>
<path opacity="0.1" d="M1039.99 116.5H87.35C90.1833 112.74 93.0633 109.073 95.99 105.5V105.42H1037.62C1038.53 109.04 1039.32 112.733 1039.99 116.5Z" fill="#00B0FF"/>
<path opacity="0.1" d="M963.57 17.93V444.93H960.1C958.3 448.71 956.523 452.417 954.77 456.05C953.99 457.66 953.21 459.24 952.45 460.82V13.89C956.297 15.13 960.003 16.4767 963.57 17.93Z" fill="#00B0FF"/>
<path opacity="0.1" d="M698.96 13V547.25L687.84 547.37V15.28C691.53 14.5 695.23 13.73 698.96 13Z" fill="#00B0FF"/>
<path opacity="0.1" d="M431.97 62.57V550.15L420.86 550.27V62.04C424.57 62.28 428.28 62.42 431.97 62.57Z" fill="#00B0FF"/>
<path opacity="0.1" d="M960.1 444.94C958.3 448.72 956.523 452.427 954.77 456.06H16.6C15.3133 452.4 14.1133 448.693 13 444.94H960.1Z" fill="#00B0FF"/>
</g>
<path d="M230.6 265.83H211.6V323.49H230.6V265.83Z" fill="#3F3D56"/>
<path d="M741.93 262.83H722.93V323.83H741.93V262.83Z" fill="#3F3D56"/>
<path d="M863.1 533.65V546.65L711.18 548.05L709.56 548.08L651.82 548.61L650.44 548.63L632.89 548.78H632.37L525.39 549.77L349.78 551.4H349.63L304.98 551.82L304.5 551.83L106.1 553.65V538.65L152.75 510.65L246.35 509.87L248.35 509.86L249.01 509.85L251.01 509.82L295.95 509.45L297.96 509.44L298.6 509.43L300.6 509.42L315.01 509.3L315.39 509.29L350.94 508.99H351.23L628.63 506.65L635.42 506.6H636.1L641.28 506.55L678.93 506.24L680.93 506.21L682.78 506.19H683.74L695.45 506.1L697.77 506.07L700.88 506.05L710.63 505.96L726.1 505.83L728.1 505.81L731.58 505.79H732.23L806.94 505.15L863.1 533.65Z" fill="#65617D"/>
<path opacity="0.2" d="M863.1 533.65V546.65L711.18 548.05L709.56 548.08L651.82 548.61L650.44 548.63L632.89 548.78H632.37L525.39 549.77L349.78 551.4H349.63L304.98 551.82L304.5 551.83L106.1 553.65V538.65L152.75 510.65L246.35 509.87L248.35 509.86L249.01 509.85L251.01 509.82L295.95 509.45L297.96 509.44L298.6 509.43L300.6 509.42L315.01 509.3L315.39 509.29L350.94 508.99H351.23L628.63 506.65L635.42 506.6H636.1L641.28 506.55L678.93 506.24L680.93 506.21L682.78 506.19H683.74L695.45 506.1L697.77 506.07L700.88 506.05L710.63 505.96L726.1 505.83L728.1 505.81L731.58 505.79H732.23L806.94 505.15L863.1 533.65Z" fill="black"/>
<path d="M296.1 483.66V508.15C296.101 509.31 295.772 510.446 295.152 511.427C294.533 512.408 293.648 513.192 292.6 513.69C291.82 514.068 290.967 514.273 290.1 514.29L255.2 515.03C254.268 515.052 253.343 514.857 252.5 514.46C251.434 513.971 250.53 513.186 249.897 512.199C249.265 511.211 248.929 510.063 248.93 508.89V483.66H296.1Z" fill="#3F3D56"/>
<path opacity="0.1" d="M296.1 483.66V508.15C296.101 509.31 295.772 510.446 295.152 511.427C294.533 512.408 293.648 513.192 292.6 513.69C291.82 514.068 290.967 514.273 290.1 514.29L255.2 515.03C254.268 515.052 253.343 514.857 252.5 514.46C251.434 513.971 250.53 513.186 249.897 512.199C249.265 511.211 248.929 510.063 248.93 508.89V483.66H296.1Z" fill="black"/>
<path d="M298.1 483.66V508.15C298.101 509.31 297.772 510.446 297.152 511.427C296.533 512.408 295.648 513.192 294.6 513.69C293.82 514.068 292.967 514.273 292.1 514.29L257.2 515.03C256.268 515.052 255.343 514.857 254.5 514.46C253.434 513.971 252.53 513.186 251.897 512.199C251.265 511.211 250.929 510.063 250.93 508.89V483.66H298.1Z" fill="#3F3D56"/>
<path d="M728.1 483.66H680.93V515.16H728.1V483.66Z" fill="#3F3D56"/>
<path opacity="0.1" d="M728.1 483.66H680.93V515.16H728.1V483.66Z" fill="black"/>
<path d="M726.1 483.66H678.93V515.16H726.1V483.66Z" fill="#3F3D56"/>
<path opacity="0.1" d="M230.6 265.82V271.55L211.6 271.06V265.82H230.6Z" fill="black"/>
<path d="M355.66 104.4L332.83 268.4C332.685 269.448 332.16 270.405 331.353 271.089C330.547 271.774 329.517 272.137 328.46 272.11L145.66 267.37L142.19 267.28C141.586 267.266 140.991 267.124 140.446 266.865C139.9 266.605 139.415 266.234 139.022 265.774C138.63 265.315 138.339 264.777 138.168 264.198C137.997 263.618 137.95 263.009 138.03 262.41L163.66 90.73C163.825 89.6666 164.383 88.7037 165.224 88.0317C166.064 87.3596 167.126 87.0272 168.2 87.1L351.66 99.52C352.252 99.5543 352.83 99.7109 353.359 99.98C353.887 100.249 354.354 100.625 354.73 101.083C355.105 101.542 355.382 102.073 355.542 102.644C355.702 103.215 355.743 103.813 355.66 104.4Z" fill="#65617D"/>
<path d="M175.93 99.16L156.6 250.49L324.6 255.82L345.26 109.82L175.93 99.16Z" fill="#00B0FF"/>
<path d="M583.94 96.82H389.93C386.986 96.82 384.6 99.2063 384.6 102.15V264.82C384.6 267.764 386.986 270.15 389.93 270.15H583.94C586.884 270.15 589.27 267.764 589.27 264.82V102.15C589.27 99.2063 586.884 96.82 583.94 96.82Z" fill="#65617D"/>
<path d="M580.26 108.49H394.26V252.82H580.26V108.49Z" fill="#00B0FF"/>
<path opacity="0.1" d="M741.93 262.82V266.61L722.93 267V262.82H741.93Z" fill="black"/>
<path d="M827.66 259.62C827.687 260.034 827.63 260.45 827.492 260.842C827.355 261.233 827.139 261.593 826.859 261.9C826.579 262.206 826.24 262.453 825.862 262.624C825.484 262.796 825.075 262.89 824.66 262.9L637.46 266.77C636.682 266.786 635.927 266.507 635.347 265.99C634.766 265.472 634.403 264.754 634.33 263.98L618.24 96.7C618.2 96.2849 618.245 95.8662 618.372 95.4691C618.499 95.0719 618.705 94.7047 618.978 94.3896C619.251 94.0745 619.585 93.8181 619.96 93.636C620.335 93.4538 620.744 93.3497 621.16 93.33L806.94 84.09L808.94 83.99C809.735 83.9481 810.515 84.2167 811.116 84.7391C811.717 85.2615 812.091 85.9969 812.16 86.79L827.66 259.62Z" fill="#65617D"/>
<path d="M628.93 103.16L798.6 94.82L812.93 246.82L644.6 250.82L628.93 103.16Z" fill="#00B0FF"/>
<path opacity="0.1" d="M827.66 259.62C827.687 260.034 827.63 260.45 827.492 260.842C827.355 261.233 827.139 261.593 826.859 261.9C826.579 262.206 826.24 262.453 825.862 262.624C825.484 262.796 825.075 262.89 824.66 262.9L806.94 84.09L808.94 83.99C809.735 83.9481 810.515 84.2167 811.116 84.7391C811.717 85.2615 812.091 85.9969 812.16 86.79L827.66 259.62Z" fill="black"/>
<path opacity="0.1" d="M168.23 87.09L145.66 267.37L142.19 267.28C141.586 267.266 140.991 267.124 140.446 266.865C139.9 266.605 139.415 266.234 139.022 265.774C138.63 265.315 138.339 264.777 138.168 264.198C137.997 263.618 137.95 263.009 138.03 262.41L163.66 90.73C163.823 89.6592 164.385 88.6895 165.232 88.0147C166.079 87.3398 167.15 87.0096 168.23 87.09Z" fill="black"/>
<path opacity="0.1" d="M230.6 306.41H211.6V323.49H230.6V306.41Z" fill="black"/>
<path opacity="0.1" d="M298.1 483.65V488.62L250.93 489.88V483.65H298.1Z" fill="black"/>
<path d="M381.35 312.36V480.56C381.338 481.587 380.931 482.569 380.215 483.305C379.498 484.04 378.526 484.472 377.5 484.51L185.85 489.61H185.8C184.756 489.597 183.759 489.177 183.021 488.439C182.283 487.701 181.863 486.704 181.85 485.66V312.36C181.863 311.316 182.283 310.319 183.021 309.581C183.759 308.843 184.756 308.423 185.8 308.41H377.4C378.444 308.423 379.441 308.843 380.179 309.581C380.917 310.319 381.337 311.316 381.35 312.36Z" fill="#65617D"/>
<path opacity="0.1" d="M185.85 308.41V489.61H185.8C184.756 489.597 183.759 489.177 183.021 488.439C182.283 487.701 181.863 486.704 181.85 485.66V312.36C181.863 311.316 182.283 310.319 183.021 309.581C183.759 308.843 184.756 308.423 185.8 308.41H185.85Z" fill="black"/>
<path d="M194.6 319.15H372.1V467.4L194.6 471.4V319.15Z" fill="#D4DFEC"/>
<path opacity="0.1" d="M741.93 306.41H722.93V323.83H741.93V306.41Z" fill="black"/>
<path opacity="0.1" d="M726.1 483.65V490.06L678.93 488.8V483.65H726.1Z" fill="black"/>
<path d="M788.35 312.36V485.66C788.337 486.712 787.91 487.717 787.161 488.456C786.412 489.196 785.402 489.61 784.35 489.61L592.66 484.51C591.634 484.472 590.662 484.04 589.945 483.305C589.229 482.569 588.822 481.587 588.81 480.56V312.36C588.823 311.316 589.243 310.319 589.981 309.581C590.719 308.843 591.716 308.423 592.76 308.41H784.36C785.411 308.413 786.418 308.828 787.164 309.567C787.911 310.306 788.337 311.31 788.35 312.36Z" fill="#65617D"/>
<path opacity="0.1" d="M788.35 312.36V485.66C788.337 486.712 787.91 487.717 787.161 488.456C786.412 489.196 785.402 489.61 784.35 489.61V308.41C785.402 308.41 786.412 308.825 787.161 309.564C787.91 310.303 788.337 311.308 788.35 312.36Z" fill="black"/>
<path d="M777.5 317H600V465.25L777.5 469.25V317Z" fill="#D4DFEC"/>
<path d="M583.85 312.36V480.56C583.838 481.587 583.431 482.569 582.715 483.305C581.998 484.04 581.026 484.472 580 484.51L388.35 489.61C387.298 489.61 386.288 489.196 385.539 488.456C384.79 487.717 384.363 486.712 384.35 485.66V312.36C384.363 311.316 384.783 310.319 385.521 309.581C386.259 308.843 387.256 308.423 388.3 308.41H579.9C580.944 308.423 581.941 308.843 582.679 309.581C583.417 310.319 583.837 311.316 583.85 312.36Z" fill="#65617D"/>
<path d="M397.1 319.15H574.6V467.4L397.1 471.4V319.15Z" fill="#D4DFEC"/>
<path opacity="0.1" d="M863.1 533.65V546.65L711.18 548.05L709.56 548.08L651.82 548.61L650.44 548.63L632.89 548.78H632.37L525.39 549.77L349.78 551.4H349.63L304.98 551.82L304.5 551.83L106.1 553.65V538.65L308.61 537.32H309.09L350.08 537.04H350.27L633.35 535.17H633.64L633.81 535.16H634.28L639.07 535.13H640.53L715.02 534.63L719.42 534.61L720.4 534.6L863.1 533.65Z" fill="black"/>
<path d="M487.26 323.49C515.609 323.49 538.59 300.509 538.59 272.16C538.59 243.811 515.609 220.83 487.26 220.83C458.911 220.83 435.93 243.811 435.93 272.16C435.93 300.509 458.911 323.49 487.26 323.49Z" fill="#FBBEBE"/>
<path d="M538.6 377.16C538.6 377.16 439.1 389.16 448.6 377.16C452.04 372.82 452.99 359.96 452.8 345.31C452.74 340.86 452.58 336.25 452.35 331.66C451.25 309.66 448.6 288.16 448.6 288.16C448.6 288.16 535.6 247.16 525.6 279.66C521.6 292.79 522.91 311.23 525.95 328.54C526.84 333.59 527.87 338.54 528.95 343.24C531.586 354.704 534.807 366.025 538.6 377.16Z" fill="#FBBEBE"/>
<path opacity="0.1" d="M538.6 377.16C538.6 377.16 439.1 389.16 448.6 377.16C452.04 372.82 452.99 359.96 452.8 345.31C467.97 338.83 487.27 343.66 487.27 343.66C507.59 339.61 520.62 340.4 528.95 343.24C531.586 354.704 534.807 366.025 538.6 377.16Z" fill="black"/>
<path d="M349.74 552.53V551.69L525.36 549.78L632.36 548.78H632.66L632.55 550.26L632.7 548.78H632.89V548.61L634.26 535.16L634.78 530.07L634.94 528.48L635.08 527.15L641.26 506.54L647.44 485.96L652.64 468.63L660.58 442.15C660.58 442.15 656.08 431.65 653.58 428.65C651.08 425.65 648.58 405.15 648.58 405.15C648.58 405.15 627.24 384.82 617.91 382.48C614 381.48 606.28 380.15 598.08 378.48C595.01 377.86 591.86 377.2 588.83 376.48C587.12 376.09 585.44 375.68 583.83 375.27C580.696 374.487 577.608 373.533 574.58 372.41C572.992 371.833 571.481 371.064 570.08 370.12C562.73 364.73 544.31 364.12 543.6 364.12C543.598 364.097 543.598 364.073 543.6 364.05V363.96C543.626 363.54 543.626 363.12 543.6 362.7C543.6 362.3 543.6 361.83 543.51 361.3C543.51 361.14 543.51 360.97 543.44 360.8C543.39 360.44 543.33 360.06 543.24 359.66C543.21 359.481 543.17 359.304 543.12 359.13C542.83 357.925 542.411 356.755 541.87 355.64C541.8 355.48 541.71 355.31 541.63 355.15C541.14 354.226 540.571 353.346 539.93 352.52C539.8 352.35 539.66 352.17 539.51 352C538.691 351.034 537.78 350.15 536.79 349.36C536.52 349.15 536.24 348.93 535.95 348.73C535.788 348.599 535.618 348.478 535.44 348.37L534.55 347.79L533.72 347.31C532.99 346.91 532.22 346.52 531.38 346.15C531.12 346.03 530.84 345.92 530.56 345.81C530.28 345.7 529.84 345.53 529.47 345.39H529.41L528.66 345.09C528.09 344.9 527.51 344.73 526.9 344.56L525.97 344.32L524.97 344.09L523.97 343.88C522.97 343.68 521.9 343.5 520.78 343.36L519.64 343.22L518.47 343.1L517.26 343L515.54 342.9L513.54 342.83C504.719 342.829 495.923 343.764 487.3 345.62C481.309 344.287 475.173 343.722 469.04 343.94H468.17L467.17 344H466.53L465.24 344.12C464.81 344.12 464.37 344.21 463.94 344.27C463.51 344.33 463.06 344.38 462.63 344.45L461.97 344.56C461.32 344.67 460.66 344.79 459.97 344.93C459.75 344.97 459.53 345.02 459.31 345.08C458.44 345.27 457.57 345.5 456.71 345.76C456.28 345.88 455.85 346.02 455.42 346.17C455.2 346.23 454.99 346.31 454.78 346.39L454.14 346.62L453.51 346.87L452.76 347.17C452.38 347.33 452.01 347.5 451.64 347.68C451.43 347.77 451.22 347.87 451.02 347.98C450.82 348.09 450.61 348.18 450.42 348.29C448.159 349.458 446.069 350.932 444.21 352.67L443.7 353.16L443.2 353.67C443.03 353.84 442.87 354.02 442.71 354.2C442.058 354.912 441.45 355.664 440.89 356.45C440.73 356.66 440.58 356.87 440.43 357.09C439.795 358.026 439.221 359.001 438.71 360.01C438.58 360.25 438.46 360.5 438.34 360.74C437.524 362.429 436.855 364.186 436.34 365.99C436.153 366.657 435.983 367.323 435.83 367.99C435.83 367.99 414.66 377.33 397.1 384.09C392.43 385.89 388.03 387.52 384.35 388.75C383.28 389.11 382.28 389.44 381.35 389.75C379.332 390.479 377.234 390.963 375.1 391.19C374.094 391.206 373.091 391.3 372.1 391.47C364.03 392.78 350.2 398.47 348.69 404.18C348.567 404.636 348.533 405.111 348.59 405.58C348.59 405.58 348.59 405.65 348.59 405.69C349.59 412.69 342.59 411.69 342.59 411.69C342.59 411.69 340.09 430.19 336.59 435.19C334.06 438.79 332.33 446.82 332.11 452.88C331.984 454.768 332.132 456.664 332.55 458.51C332.55 458.56 332.55 458.61 332.55 458.65C332.95 459.99 331.99 463.65 330.36 468.34C328.59 473.49 326.01 479.89 323.53 485.93C319.79 495.05 316.27 503.33 316.05 505.15C315.96 505.96 315.7 507.41 315.34 509.28C313.88 516.9 310.64 531.41 309.04 537.28C307.85 541.66 306.12 547.66 304.93 551.78C304.93 551.9 304.86 552.02 304.83 552.13L349.66 551.69V552.53H349.8H349.74Z" fill="#00B0FF"/>
<path opacity="0.1" d="M366.1 434.66C366.1 434.66 423.1 464.16 443.6 460.66L366.1 434.66Z" fill="black"/>
<path opacity="0.1" d="M482.1 422.66C482.1 422.66 537.6 440.66 556.1 443.16C574.6 445.66 482.1 422.66 482.1 422.66Z" fill="black"/>
<path opacity="0.1" d="M543.66 364.74C514.66 370.08 460.06 368.93 436.46 368.12C445.11 337.12 487.29 347.66 487.29 347.66C539.5 337.24 543.5 358.86 543.66 364.74Z" fill="black"/>
<path d="M697.6 499.41C697.6 499.41 731.76 494.16 732.43 509.16C733.1 524.16 715.01 534.64 715.01 534.64L697.6 499.41Z" fill="#FBBEBE"/>
<path opacity="0.1" d="M525.95 328.54C524.481 329.197 522.979 329.777 521.45 330.28C510.67 334 499.8 337.75 488.45 339.11C477.1 340.47 465.19 339.27 455.29 333.61C454.251 333.023 453.249 332.372 452.29 331.66C451.19 309.66 448.54 288.16 448.54 288.16C448.54 288.16 535.54 247.16 525.54 279.66C521.56 292.79 522.91 311.23 525.95 328.54Z" fill="#ECF76F" fill-opacity="0.78"/>
<path d="M473.18 191.93C471.753 192.307 470.257 192.345 468.813 192.041C467.368 191.737 466.014 191.1 464.86 190.18L466.94 193.07C465.714 193.211 464.472 193.083 463.301 192.695C462.13 192.306 461.058 191.666 460.16 190.82C459.971 193.407 460.079 196.007 460.48 198.57C457.038 198.736 453.65 197.673 450.92 195.57C450.867 196.472 451.091 197.369 451.563 198.14C452.035 198.91 452.732 199.518 453.56 199.88C450.103 199.467 446.613 200.326 443.743 202.297C440.872 204.267 438.817 207.215 437.96 210.59L443.18 211.07C439.078 211.946 435.396 214.193 432.74 217.44C431.14 219.44 429.92 222 430.62 224.44C431.32 226.88 434.7 228.44 436.54 226.7C433.923 229.824 432.02 233.483 430.967 237.42C429.913 241.356 429.733 245.476 430.44 249.49C430.915 251.2 431.071 252.983 430.9 254.75C430.57 256.4 429.53 257.83 429.01 259.44C428.01 262.36 428.96 265.53 429.85 268.44L434.54 283.86C436.24 289.43 437.93 295.01 440.15 300.4C441.722 303.808 443.059 307.319 444.15 310.91C445.41 315.75 445.46 321.05 448.15 325.28C449.994 327.942 452.458 330.115 455.33 331.61C465.22 337.27 477.17 338.47 488.49 337.11C499.81 335.75 510.67 332 521.44 328.28C523.833 327.559 526.129 326.552 528.28 325.28C535.73 320.4 537.39 310.42 538.78 301.63C540.33 291.83 542.4 282.05 546.07 272.83C548.25 267.34 551.07 261.77 550.59 255.89C549.98 248.08 543.8 241.75 542.27 234.07C541.758 231.503 541.782 228.857 542.34 226.3C542.814 224.776 543.08 223.195 543.13 221.6C542.96 218.38 540.32 215.9 537.84 213.83C532.46 209.337 526.907 205.09 521.18 201.09C520.89 199.09 523.61 198.23 524.84 196.65C526.58 194.42 524.78 190.88 522.14 189.84C519.5 188.8 516.54 189.48 513.79 190.17C513.969 188.762 513.689 187.335 512.992 186.099C512.294 184.863 511.217 183.885 509.919 183.311C508.621 182.737 507.173 182.597 505.79 182.912C504.406 183.227 503.161 183.981 502.24 185.06C501.51 183.385 500.343 181.938 498.862 180.868C497.381 179.799 495.639 179.146 493.82 178.98C487.19 178.46 487.06 183.53 482.82 186.32C478.58 189.11 475.08 185.43 471.82 182.75C471.221 184.265 471.031 185.911 471.27 187.522C471.509 189.134 472.168 190.654 473.18 191.93Z" fill="#3F3D56"/>
<path d="M722.93 529.41C722.93 529.41 722.04 531.53 720.4 534.6C717.919 539.323 714.899 543.743 711.4 547.77L711.13 548.06H709.51L651.77 548.59H650.39L650.22 548.39L639.02 535.1L634.8 530.09L634.63 529.88L634.27 529.46L634.07 529.22L633.81 528.91L625.6 519.17L628.6 506.67L633.71 485.61L633.84 485.1L634.84 481.1L635.55 478.1L637.93 468.32L646.09 434.67L660.59 442.17L675.88 469.17L684.09 483.67H688.59C689.44 483.67 691.39 485.31 693.35 487.2C694.05 487.87 694.75 488.58 695.35 489.2C697.13 491.04 698.54 492.62 698.54 492.62C698.54 492.62 705.83 492.78 707.79 498.52C707.891 498.798 707.975 499.082 708.04 499.37C708.691 501.626 709.537 503.821 710.57 505.93C711.86 508.74 713.48 511.93 715.12 515.12C718.17 520.97 721.27 526.54 722.41 528.56L722.55 528.81L722.93 529.41Z" fill="#00B0FF"/>
<path opacity="0.1" d="M637.03 484.26L636.93 485.69V485.79L636.76 488.09L635.43 506.6L633.82 528.9L633.36 535.18L632.36 548.62V548.79L525.36 549.79L349.77 551.69V552.53H349.63V551.69V551.41L350.08 537.05L350.94 508.99L351.68 485.2L351.75 482.83C351.794 481.4 352.129 479.993 352.734 478.696C353.34 477.4 354.203 476.24 355.272 475.288C356.341 474.336 357.592 473.612 358.95 473.161C360.308 472.709 361.744 472.538 363.17 472.66C367.89 473.06 374.02 473.55 381.35 474.07L384.35 474.29C426.68 477.23 504.91 481.03 583.85 476.29C585.51 476.2 587.18 476.1 588.85 475.98C601.09 475.21 613.32 474.22 625.43 472.98C626.961 472.82 628.508 472.997 629.963 473.499C631.418 474.001 632.746 474.817 633.851 475.887C634.957 476.958 635.815 478.258 636.364 479.696C636.913 481.134 637.141 482.675 637.03 484.21V484.26Z" fill="black"/>
<path d="M349.74 552.53V551.69L525.36 549.78L632.36 548.78H632.66V548.61L633.66 535.17L634.09 529.17L635.73 506.56L637.02 488.66V488.22C637.08 487.395 637.043 486.566 636.91 485.75C636.916 485.717 636.916 485.683 636.91 485.65C636.635 483.962 635.948 482.368 634.91 481.01C633.809 479.598 632.366 478.49 630.718 477.79C629.07 477.09 627.271 476.822 625.49 477.01C613.38 478.25 601.15 479.24 588.91 480.01C587.24 480.13 585.57 480.23 583.91 480.32C504.97 485.01 426.74 481.21 384.41 478.32L381.41 478.1C374.08 477.58 367.95 477.1 363.23 476.69C360.633 476.471 358.048 477.221 355.972 478.797C353.896 480.372 352.478 482.66 351.99 485.22C351.889 485.761 351.829 486.31 351.81 486.86L351.13 509.02L350.2 537.09L349.76 551.45V551.73V552.57L349.74 552.53Z" fill="#3F3D56"/>
<path opacity="0.1" d="M637.33 491.27L636.1 506.6L634.27 529.45L633.81 535.17L632.81 547.98L632.75 548.62V548.79L632.6 550.27L632.71 548.79H632.42L525.42 549.79L349.77 551.69V551.41L350.26 537.05L351.26 508.99L351.9 490.34C351.931 489.279 352.228 488.243 352.762 487.326C353.297 486.409 354.052 485.64 354.96 485.09C356.092 484.396 357.416 484.081 358.74 484.19C360.84 484.36 363.42 484.56 366.43 484.78C371.32 485.14 377.35 485.56 384.37 486C397.37 486.82 413.68 487.7 432.37 488.42C484.37 490.42 554.57 491.09 621.25 485.25C624.25 484.99 627.35 484.7 630.38 484.41C631.579 484.29 632.788 484.52 633.86 485.07C634.164 485.221 634.452 485.402 634.72 485.61C635.591 486.241 636.28 487.089 636.72 488.07C636.822 488.265 636.906 488.469 636.97 488.68C637.27 489.509 637.393 490.391 637.33 491.27Z" fill="black"/>
<path opacity="0.1" d="M298.1 504.96V508.15C298.101 509.31 297.772 510.446 297.152 511.427C296.533 512.408 295.648 513.192 294.6 513.69L254.5 514.46C253.434 513.971 252.53 513.186 251.897 512.199C251.265 511.211 250.929 510.063 250.93 508.89V505.89L298.1 504.96Z" fill="black"/>
<path d="M298.6 515.57L246.35 516.57V507.9L298.6 506.9V515.57Z" fill="#3F3D56"/>
<path opacity="0.1" d="M298.6 515.57L246.35 516.57V507.9L298.6 506.9V515.57Z" fill="black"/>
<path d="M300.6 515.57L248.35 516.57V507.9L300.6 506.9V515.57Z" fill="#3F3D56"/>
<g opacity="0.1">
<path opacity="0.1" d="M473.59 188.65C472.613 187.381 471.964 185.89 471.7 184.31C471.459 185.855 471.603 187.435 472.12 188.91C472.616 188.864 473.108 188.777 473.59 188.65Z" fill="black"/>
<path opacity="0.1" d="M460.89 195.29C460.701 194.064 460.578 192.829 460.52 191.59C460.52 192.82 460.52 194.06 460.52 195.3L460.89 195.29Z" fill="black"/>
<path opacity="0.1" d="M542.39 228.66C542.445 227.769 542.566 226.883 542.75 226.01C543.223 224.489 543.492 222.912 543.55 221.32C543.528 220.963 543.474 220.608 543.39 220.26C543.22 221.18 542.95 222.1 542.75 223.01C542.351 224.865 542.229 226.769 542.39 228.66Z" fill="black"/>
<path opacity="0.1" d="M521.59 197.76L522.68 198.55C523.599 197.885 524.459 197.143 525.25 196.33C525.626 195.81 525.859 195.199 525.926 194.561C525.993 193.922 525.891 193.277 525.63 192.69C525.53 192.918 525.403 193.133 525.25 193.33C524.02 194.91 521.3 195.78 521.59 197.76Z" fill="black"/>
<path opacity="0.1" d="M439.42 207.38C439.055 208.109 438.764 208.873 438.55 209.66C440.114 208.787 441.799 208.15 443.55 207.77L439.42 207.38Z" fill="black"/>
<path opacity="0.1" d="M453.21 196.5C452.553 196.138 451.925 195.727 451.33 195.27C451.305 195.666 451.335 196.063 451.42 196.45C452.017 196.422 452.615 196.438 453.21 196.5Z" fill="black"/>
<path opacity="0.1" d="M550.98 255.42C550.57 260.27 548.31 264.94 546.48 269.54C542.81 278.76 540.74 288.54 539.19 298.35C537.8 307.14 536.19 317.12 528.69 321.99C526.547 323.27 524.253 324.278 521.86 324.99C511.08 328.72 500.21 332.46 488.86 333.82C477.51 335.18 465.6 333.99 455.7 328.33C452.83 326.832 450.366 324.66 448.52 322C445.85 317.77 445.8 312.47 444.52 307.63C443.429 304.036 442.092 300.521 440.52 297.11C438.31 291.73 436.61 286.11 434.92 280.58C433.353 275.44 431.79 270.297 430.23 265.15C429.716 263.602 429.335 262.013 429.09 260.4C428.7 262.96 429.46 265.64 430.23 268.15C431.79 273.303 433.353 278.447 434.92 283.58C436.61 289.15 438.31 294.73 440.52 300.11C442.092 303.521 443.429 307.036 444.52 310.63C445.78 315.47 445.83 320.77 448.52 325C450.366 327.66 452.83 329.832 455.7 331.33C465.6 336.99 477.54 338.18 488.86 336.82C500.18 335.46 511.04 331.72 521.86 327.99C524.253 327.278 526.547 326.27 528.69 324.99C536.14 320.12 537.8 310.14 539.19 301.35C540.74 291.54 542.81 281.76 546.48 272.54C548.66 267.06 551.48 261.49 551 255.6C551 255.54 550.98 255.48 550.98 255.42Z" fill="black"/>
<path opacity="0.1" d="M431.29 251.55C431.29 251.55 431.29 251.48 431.29 251.44C431.47 249.677 431.314 247.895 430.83 246.19C430.631 245.093 430.5 243.984 430.44 242.87C430.325 244.985 430.456 247.106 430.83 249.19C430.99 249.97 431.17 250.76 431.29 251.55Z" fill="black"/>
<path opacity="0.1" d="M434.34 227.09C435.109 225.798 435.982 224.571 436.95 223.42C435.12 225.17 431.74 223.61 431.03 221.18C430.768 222.163 430.768 223.197 431.03 224.18C431.276 224.914 431.712 225.569 432.293 226.08C432.875 226.592 433.581 226.94 434.34 227.09Z" fill="black"/>
</g>
<path opacity="0.1" d="M684.1 483.66C684.1 483.66 687.27 495.16 684.1 505.16C680.93 515.16 684.1 483.66 684.1 483.66Z" fill="black"/>
<path opacity="0.1" d="M697.6 495.39C697.6 495.39 698.93 509.99 695.93 512.58C692.93 515.17 697.6 495.39 697.6 495.39Z" fill="black"/>
<path d="M206 344L307.61 343" stroke="black" stroke-width="2" stroke-miterlimit="10"/>
<path d="M714 400L767 399" stroke="black" stroke-width="2" stroke-miterlimit="10"/>
<path d="M206.01 356.14L275.01 355.14" stroke="black" stroke-width="2" stroke-miterlimit="10"/>
<path d="M690 411L767 410" stroke="black" stroke-width="2" stroke-miterlimit="10"/>
<path d="M206.01 368.14L256.01 367.14" stroke="black" stroke-width="2" stroke-miterlimit="10"/>
<path d="M669 423L767 422" stroke="black" stroke-width="2" stroke-miterlimit="10"/>
<path d="M709.854 366.512C709.705 368.169 709.21 369.654 708.369 370.965C707.528 372.276 706.452 373.377 705.141 374.268C703.854 375.183 702.395 375.876 700.762 376.346C699.129 376.816 697.447 377.051 695.715 377.051C695.072 377.051 694.465 377.001 693.896 376.902C693.352 376.828 692.857 376.729 692.412 376.605C691.967 376.482 691.583 376.358 691.262 376.234C690.965 376.135 690.755 376.049 690.631 375.975C690.408 375.851 690.223 375.69 690.074 375.492C689.951 375.319 689.876 375.059 689.852 374.713C689.827 374.515 689.814 374.354 689.814 374.23C689.814 374.132 689.827 374.02 689.852 373.896C689.876 373.773 689.926 373.6 690 373.377C690.049 373.179 690.124 372.895 690.223 372.523C690.272 372.301 690.458 371.596 690.779 370.408C691.126 369.245 691.534 367.823 692.004 366.141C692.474 364.434 692.981 362.59 693.525 360.611C694.094 358.632 694.639 356.715 695.158 354.859C695.678 353.004 696.148 351.334 696.568 349.85C696.989 348.34 697.298 347.227 697.496 346.51C697.15 346.757 696.803 347.017 696.457 347.289C696.135 347.561 695.801 347.858 695.455 348.18C695.084 348.526 694.713 348.65 694.342 348.551C693.995 348.427 693.748 348.118 693.6 347.623C693.55 347.376 693.513 347.116 693.488 346.844C693.464 346.621 693.464 346.374 693.488 346.102C693.538 345.805 693.637 345.52 693.785 345.248C694.602 344.753 695.393 344.333 696.16 343.986C696.952 343.64 697.706 343.331 698.424 343.059C698.572 342.638 698.733 342.316 698.906 342.094C699.104 341.871 699.302 341.723 699.5 341.648C699.698 341.574 699.908 341.549 700.131 341.574C700.354 341.599 700.589 341.636 700.836 341.686C701.38 341.809 701.739 341.982 701.912 342.205C702.258 342.156 702.592 342.118 702.914 342.094C703.236 342.069 703.57 342.057 703.916 342.057C705.351 342.057 706.6 342.242 707.664 342.613C708.728 342.984 709.594 343.492 710.262 344.135C710.954 344.753 711.449 345.483 711.746 346.324C712.043 347.165 712.154 348.056 712.08 348.996C712.006 349.812 711.783 350.666 711.412 351.557C711.066 352.423 710.596 353.288 710.002 354.154C709.408 354.995 708.715 355.824 707.924 356.641C707.132 357.432 706.254 358.162 705.289 358.83C706.056 359.275 706.736 359.795 707.33 360.389C707.924 360.982 708.419 361.626 708.814 362.318C709.21 363.011 709.495 363.716 709.668 364.434C709.841 365.151 709.903 365.844 709.854 366.512ZM697.57 357.42C697.521 357.667 697.459 357.915 697.385 358.162C697.335 358.41 697.273 358.669 697.199 358.941C697.496 358.62 697.991 358.323 698.684 358.051C699.401 357.779 700.081 357.643 700.725 357.643C701.071 357.643 701.405 357.667 701.727 357.717C702.048 357.742 702.357 357.779 702.654 357.828C703.347 357.383 704.015 356.814 704.658 356.121C705.301 355.404 705.858 354.649 706.328 353.857C706.823 353.041 707.219 352.212 707.516 351.371C707.837 350.53 708.035 349.751 708.109 349.033C708.258 347.326 707.961 346.064 707.219 345.248C706.501 344.407 705.475 343.986 704.139 343.986C703.248 343.986 702.32 344.147 701.355 344.469C701.158 345.112 700.91 345.916 700.613 346.881C700.316 347.821 699.995 348.86 699.648 349.998C699.327 351.136 698.98 352.336 698.609 353.598C698.238 354.859 697.892 356.133 697.57 357.42ZM696.939 359.869C696.593 361.205 696.247 362.652 695.9 364.211C695.579 365.547 695.232 367.105 694.861 368.887C694.49 370.643 694.094 372.523 693.674 374.527C693.822 374.651 694.02 374.738 694.268 374.787C694.515 374.837 694.762 374.886 695.01 374.936C695.282 374.985 695.579 375.01 695.9 375.01C697.014 375.01 698.139 374.775 699.277 374.305C700.44 373.859 701.504 373.216 702.469 372.375C703.434 371.534 704.238 370.52 704.881 369.332C705.549 368.12 705.945 366.771 706.068 365.287C706.118 364.619 706.068 364.025 705.92 363.506C705.796 362.962 705.598 362.479 705.326 362.059C705.079 361.613 704.782 361.23 704.436 360.908C704.114 360.562 703.768 360.265 703.396 360.018C702.258 360.636 701.009 361.156 699.648 361.576C699.203 361.7 698.82 361.725 698.498 361.65C698.176 361.551 697.904 361.415 697.682 361.242C697.459 361.044 697.286 360.822 697.162 360.574C697.038 360.327 696.964 360.092 696.939 359.869ZM712.525 369.406C713.614 364.829 714.48 361.156 715.123 358.385C715.791 355.614 716.298 353.499 716.645 352.039C717.04 350.307 717.312 349.107 717.461 348.439C717.535 347.969 717.597 347.512 717.646 347.066C717.696 346.671 717.721 346.262 717.721 345.842C717.721 345.421 717.684 345.038 717.609 344.691C717.807 344.568 718.018 344.469 718.24 344.395C718.488 344.32 718.723 344.258 718.945 344.209C719.217 344.135 719.49 344.073 719.762 344.023C720.034 343.974 720.281 343.949 720.504 343.949C720.702 343.949 720.887 343.974 721.061 344.023C721.234 344.048 721.345 344.122 721.395 344.246C721.543 344.37 721.605 344.617 721.58 344.988C721.58 345.359 721.555 345.743 721.506 346.139C721.407 346.609 721.296 347.116 721.172 347.66C720.875 348.724 720.467 350.258 719.947 352.262C719.502 353.969 718.896 356.294 718.129 359.238C717.387 362.182 716.447 365.893 715.309 370.371C715.185 370.495 715.036 370.581 714.863 370.631C714.69 370.68 714.529 370.705 714.381 370.705C714.208 370.705 714.022 370.693 713.824 370.668C713.651 370.618 713.478 370.544 713.305 370.445C713.156 370.346 713.008 370.21 712.859 370.037C712.711 369.889 712.6 369.678 712.525 369.406ZM732.379 364.1C732.132 365.04 731.798 365.918 731.377 366.734C730.956 367.551 730.449 368.256 729.855 368.85C729.286 369.443 728.631 369.901 727.889 370.223C727.171 370.569 726.38 370.742 725.514 370.742C724.499 370.742 723.695 370.52 723.102 370.074C722.533 369.654 722.1 369.122 721.803 368.479C721.531 367.835 721.37 367.13 721.32 366.363C721.246 365.596 721.209 364.879 721.209 364.211C721.209 363.741 721.271 363.221 721.395 362.652C721.493 362.083 721.642 361.502 721.84 360.908C722.038 360.314 722.285 359.721 722.582 359.127C722.904 358.533 723.275 357.989 723.695 357.494C723.844 357.074 724.066 356.702 724.363 356.381C724.685 356.059 725.044 355.799 725.439 355.602C725.86 355.379 726.305 355.218 726.775 355.119C727.245 354.995 727.703 354.934 728.148 354.934C728.223 354.934 728.285 354.946 728.334 354.971C728.408 354.995 728.482 355.02 728.557 355.045C728.878 355.07 729.274 355.193 729.744 355.416C730.239 355.639 730.709 355.973 731.154 356.418C731.624 356.863 732.02 357.432 732.342 358.125C732.663 358.793 732.824 359.609 732.824 360.574C732.824 360.772 732.812 361.02 732.787 361.316C732.762 361.589 732.738 361.824 732.713 362.021C733.282 361.799 733.876 361.527 734.494 361.205C735.113 360.883 735.706 360.549 736.275 360.203C736.869 359.832 737.413 359.461 737.908 359.09C738.403 358.719 738.799 358.385 739.096 358.088C739.343 357.865 739.553 357.742 739.727 357.717C739.9 357.692 740.023 357.742 740.098 357.865C740.172 357.989 740.184 358.162 740.135 358.385C740.085 358.607 739.949 358.855 739.727 359.127C739.603 359.275 739.281 359.572 738.762 360.018C738.267 360.463 737.673 360.945 736.98 361.465C736.288 361.984 735.533 362.492 734.717 362.986C733.9 363.481 733.121 363.852 732.379 364.1ZM726.107 358.459C726.033 358.682 725.996 358.917 725.996 359.164C725.996 359.56 726.021 359.98 726.07 360.426C726.12 360.846 726.243 361.23 726.441 361.576C726.639 361.923 726.949 362.219 727.369 362.467C727.814 362.689 728.421 362.801 729.188 362.801C729.311 362.801 729.435 362.801 729.559 362.801C729.682 362.776 729.806 362.751 729.93 362.727C730.004 362.405 730.066 362.12 730.115 361.873C730.189 361.601 730.227 361.366 730.227 361.168C730.276 360.698 730.276 360.215 730.227 359.721C730.177 359.226 730.078 358.781 729.93 358.385C729.806 357.964 729.633 357.63 729.41 357.383C729.212 357.111 728.965 356.975 728.668 356.975C728.198 356.975 727.74 357.111 727.295 357.383C726.874 357.63 726.479 357.989 726.107 358.459ZM723.732 364.99C723.732 365.436 723.757 365.881 723.807 366.326C723.856 366.747 723.955 367.13 724.104 367.477C724.252 367.798 724.45 368.07 724.697 368.293C724.945 368.491 725.266 368.59 725.662 368.59C726.107 368.59 726.516 368.491 726.887 368.293C727.258 368.07 727.592 367.798 727.889 367.477C728.186 367.13 728.445 366.747 728.668 366.326C728.915 365.881 729.126 365.423 729.299 364.953C729.126 364.978 728.952 365.003 728.779 365.027C728.631 365.027 728.458 365.027 728.26 365.027C727.32 365.027 726.503 364.755 725.811 364.211C725.143 363.642 724.623 362.924 724.252 362.059C724.104 362.578 723.98 363.085 723.881 363.58C723.782 364.075 723.732 364.545 723.732 364.99ZM746.146 375.307C746.023 375.9 745.862 376.643 745.664 377.533C745.491 378.424 745.281 379.364 745.033 380.354C744.811 381.343 744.538 382.32 744.217 383.285C743.92 384.275 743.586 385.153 743.215 385.92C742.844 386.712 742.436 387.355 741.99 387.85C741.545 388.344 741.05 388.592 740.506 388.592C739.689 388.592 738.984 388.344 738.391 387.85C737.822 387.38 737.339 386.773 736.943 386.031C736.548 385.314 736.263 384.535 736.09 383.693C735.892 382.852 735.793 382.073 735.793 381.355C735.793 380.366 735.88 379.537 736.053 378.869C736.226 378.226 736.523 377.607 736.943 377.014C737.389 376.42 737.982 375.789 738.725 375.121C739.467 374.453 740.419 373.624 741.582 372.635C742.151 372.14 742.695 371.67 743.215 371.225C743.734 370.779 744.229 370.371 744.699 370C744.823 369.505 744.934 369.048 745.033 368.627C745.157 368.182 745.256 367.786 745.33 367.439C744.687 368.305 743.908 369.035 742.992 369.629C742.102 370.223 741.075 370.52 739.912 370.52C738.848 370.52 737.982 370.049 737.314 369.109C736.671 368.145 736.35 366.734 736.35 364.879C736.35 363.964 736.523 362.912 736.869 361.725C737.215 360.537 737.71 359.424 738.354 358.385C738.997 357.346 739.788 356.467 740.729 355.75C741.669 355.033 742.72 354.674 743.883 354.674C744.427 354.674 744.897 354.81 745.293 355.082C745.689 355.354 746.023 355.701 746.295 356.121C746.567 356.517 746.777 356.95 746.926 357.42C747.074 357.865 747.186 358.286 747.26 358.682C747.309 358.533 747.346 358.385 747.371 358.236C747.396 358.063 747.433 357.915 747.482 357.791C747.73 356.95 748.002 356.381 748.299 356.084C748.62 355.762 749.09 355.602 749.709 355.602C750.055 355.602 750.34 355.663 750.562 355.787C750.81 355.911 750.934 356.022 750.934 356.121C750.81 356.393 750.711 356.604 750.637 356.752C750.562 356.9 750.488 357.061 750.414 357.234C750.34 357.383 750.266 357.581 750.191 357.828C750.117 358.076 750.018 358.434 749.895 358.904C749.845 359.077 749.746 359.486 749.598 360.129C749.474 360.747 749.301 361.49 749.078 362.355C748.88 363.221 748.658 364.174 748.41 365.213C748.188 366.252 747.965 367.266 747.742 368.256C748.435 367.86 749.152 367.378 749.895 366.809C750.637 366.24 751.342 365.658 752.01 365.064C752.678 364.471 753.271 363.914 753.791 363.395C754.311 362.85 754.694 362.405 754.941 362.059C755.139 361.762 755.362 361.551 755.609 361.428C755.857 361.304 756.067 361.267 756.24 361.316C756.438 361.341 756.549 361.452 756.574 361.65C756.624 361.824 756.549 362.071 756.352 362.393C755.783 363.308 755.09 364.199 754.273 365.064C753.457 365.906 752.616 366.697 751.75 367.439C750.909 368.157 750.08 368.8 749.264 369.369C748.472 369.913 747.792 370.359 747.223 370.705C746.975 371.818 746.765 372.721 746.592 373.414C746.419 374.107 746.27 374.738 746.146 375.307ZM741.471 367.996C741.99 367.996 742.473 367.86 742.918 367.588C743.388 367.316 743.809 367.007 744.18 366.66C744.551 366.289 744.86 365.918 745.107 365.547C745.355 365.176 745.54 364.879 745.664 364.656C745.763 364.434 745.874 364.137 745.998 363.766C746.146 363.395 746.258 363.036 746.332 362.689C746.406 362.343 746.431 362.034 746.406 361.762C746.406 361.49 746.32 361.341 746.146 361.316C745.998 361.292 745.874 361.193 745.775 361.02C745.701 360.846 745.639 360.648 745.59 360.426C745.54 360.203 745.503 359.98 745.479 359.758C745.479 359.535 745.466 359.337 745.441 359.164C745.318 358.298 745.107 357.667 744.811 357.271C744.514 356.876 744.18 356.678 743.809 356.678C743.19 356.678 742.596 356.925 742.027 357.42C741.483 357.915 740.988 358.558 740.543 359.35C740.122 360.117 739.788 360.97 739.541 361.91C739.294 362.826 739.17 363.704 739.17 364.545C739.17 365.584 739.318 366.425 739.615 367.068C739.912 367.687 740.531 367.996 741.471 367.996ZM739.764 385.215C740.258 385.215 740.654 384.844 740.951 384.102C741.273 383.384 741.607 382.395 741.953 381.133C742.027 380.836 742.126 380.403 742.25 379.834C742.398 379.29 742.559 378.659 742.732 377.941C742.93 377.224 743.128 376.445 743.326 375.604C743.524 374.787 743.734 373.958 743.957 373.117C743.759 373.29 743.549 373.464 743.326 373.637C743.128 373.835 742.918 374.057 742.695 374.305C742.151 374.824 741.619 375.319 741.1 375.789C740.605 376.284 740.16 376.791 739.764 377.311C739.368 377.855 739.046 378.436 738.799 379.055C738.576 379.673 738.465 380.391 738.465 381.207C738.465 382.023 738.49 382.691 738.539 383.211C738.613 383.73 738.7 384.139 738.799 384.436C738.923 384.732 739.059 384.93 739.207 385.029C739.38 385.153 739.566 385.215 739.764 385.215ZM759.061 368.738C759.209 368.837 759.395 368.887 759.617 368.887C759.865 368.887 760.1 368.837 760.322 368.738C760.57 368.639 760.792 368.503 760.99 368.33C761.213 368.157 761.374 367.934 761.473 367.662C761.572 367.39 761.572 367.007 761.473 366.512C761.374 365.992 761.213 365.448 760.99 364.879C760.792 364.285 760.57 363.691 760.322 363.098C760.075 362.504 759.865 361.96 759.691 361.465C759.543 361.094 759.419 360.747 759.32 360.426C759.221 360.154 759.122 359.894 759.023 359.646C758.949 359.374 758.887 359.189 758.838 359.09C758.714 359.288 758.492 359.609 758.17 360.055C757.873 360.5 757.539 360.97 757.168 361.465C756.822 361.935 756.488 362.38 756.166 362.801C755.844 363.197 755.622 363.469 755.498 363.617C755.3 363.84 755.102 363.976 754.904 364.025C754.731 364.05 754.583 364.013 754.459 363.914C754.335 363.79 754.261 363.63 754.236 363.432C754.236 363.209 754.335 362.949 754.533 362.652C754.682 362.454 754.904 362.145 755.201 361.725C755.498 361.279 755.795 360.834 756.092 360.389C756.389 359.919 756.661 359.51 756.908 359.164C757.156 358.793 757.292 358.57 757.316 358.496C757.366 358.298 757.292 358.038 757.094 357.717C756.921 357.395 756.896 357.024 757.02 356.604C757.118 356.257 757.341 355.861 757.688 355.416C758.034 354.946 758.442 354.525 758.912 354.154C759.382 353.783 759.865 353.511 760.359 353.338C760.854 353.14 761.299 353.14 761.695 353.338C762.017 353.536 762.277 353.758 762.475 354.006C762.673 354.229 762.747 354.464 762.697 354.711C762.648 354.835 762.574 354.995 762.475 355.193C762.376 355.391 762.227 355.639 762.029 355.936C761.831 356.208 761.547 356.566 761.176 357.012C761.25 357.581 761.349 358.1 761.473 358.57C761.621 359.04 761.757 359.449 761.881 359.795C762.029 360.215 762.19 360.599 762.363 360.945C762.586 361.391 762.821 361.848 763.068 362.318C763.316 362.788 763.538 363.258 763.736 363.729C763.934 364.174 764.095 364.594 764.219 364.99C764.342 365.386 764.38 365.72 764.33 365.992C764.256 366.413 764.033 366.92 763.662 367.514C763.316 368.107 762.87 368.689 762.326 369.258C761.807 369.802 761.201 370.272 760.508 370.668C759.84 371.064 759.135 371.262 758.393 371.262C757.873 371.262 757.366 371.101 756.871 370.779C756.401 370.458 755.993 370.087 755.646 369.666C755.325 369.221 755.077 368.788 754.904 368.367C754.756 367.947 754.743 367.625 754.867 367.402C755.016 367.105 755.152 366.87 755.275 366.697C755.399 366.524 755.585 366.326 755.832 366.104C755.931 366.029 756.055 365.943 756.203 365.844C756.327 365.77 756.5 365.695 756.723 365.621C756.945 365.547 757.205 365.46 757.502 365.361C757.749 366.128 757.972 366.734 758.17 367.18C758.368 367.6 758.529 367.934 758.652 368.182C758.801 368.454 758.937 368.639 759.061 368.738Z" fill="black"/>
<path d="M289.1 415.668C288.866 414.621 288.216 413.649 287.469 413.246C287.241 413.12 285.772 412.96 284.206 412.892C281.577 412.775 281.287 412.723 280.462 412.239C279.146 411.469 278.785 410.637 278.778 408.381C278.772 404.068 276.978 400.064 273.429 396.454C270.907 393.876 268.083 392.134 264.868 391.159C264.101 390.925 262.372 390.844 256.597 390.776C247.539 390.669 245.531 390.854 242.44 392.082C236.759 394.348 232.664 399.122 231.179 405.245C230.896 406.392 230.844 408.235 230.776 418.82C230.695 432.08 230.789 434.03 231.614 436.656C232.303 438.827 232.996 440.156 234.413 442.041C237.126 445.642 241.182 448.239 245.248 448.974C247.182 449.322 271.024 449.413 273.468 449.078C277.712 448.499 281.044 446.796 284.17 443.605C286.426 441.297 287.839 438.798 288.766 435.483C289.146 434.105 289.178 433.436 289.25 425.353C289.305 419.249 289.256 416.389 289.1 415.668V415.668ZM247.023 407.351C248.04 406.324 248.319 406.282 254.706 406.282C260.439 406.282 260.627 406.295 261.469 406.717C262.688 407.331 263.217 408.199 263.217 409.577C263.217 410.825 262.72 411.699 261.615 412.401C261.017 412.775 260.663 412.801 255.047 412.834C251.579 412.857 248.82 412.791 248.407 412.678C246.233 412.08 245.424 408.963 247.023 407.351V407.351ZM272.067 433.471L270.127 433.79L260.006 433.903C251.114 434.011 248.596 433.845 248.137 433.643C247.201 433.24 246.337 432.11 246.181 431.109C246.044 430.16 246.519 428.846 247.253 428.183C248.18 427.348 248.583 427.319 259.964 427.306C271.671 427.3 271.609 427.296 272.72 428.33C274.287 429.792 273.959 432.396 272.067 433.471Z" fill="black"/>
</svg>
