<svg width="1042" height="555" viewBox="0 0 1042 555" fill="none" xmlns="http://www.w3.org/2000/svg">
<g clip-path="url(#clip0)">
<g opacity="0.1">
<path opacity="0.1" d="M162.9 44.09V553.71L120.57 554.17C111.537 554.272 102.541 552.984 93.9 550.35V106.09H93.97C114.76 80.54 138.07 59.22 162.9 44.09Z" fill="#00B0FF"/>
<path opacity="0.1" d="M1037.9 117.17H85.26C88.0933 113.41 90.9733 109.743 93.9 106.17V106.09H1035.53C1036.44 109.71 1037.23 113.403 1037.9 117.17Z" fill="#00B0FF"/>
<path opacity="0.1" d="M961.48 18.6V445.6H958.01C956.21 449.38 954.433 453.087 952.68 456.72C951.9 458.33 951.12 459.91 950.36 461.49V14.56C954.207 15.8 957.913 17.1467 961.48 18.6Z" fill="#00B0FF"/>
<path opacity="0.1" d="M696.87 13.67V547.92L685.75 548.04V15.95C689.44 15.17 693.14 14.4 696.87 13.67Z" fill="#00B0FF"/>
<path opacity="0.1" d="M429.88 63.24V550.82L418.77 550.94V62.71C422.48 62.95 426.19 63.09 429.88 63.24Z" fill="#00B0FF"/>
<path opacity="0.1" d="M958.01 445.61C956.21 449.39 954.433 453.097 952.68 456.73H14.51C13.2233 453.07 12.0233 449.363 10.91 445.61H958.01Z" fill="#00B0FF"/>
</g>
<path d="M230.6 265.83H211.6V323.49H230.6V265.83Z" fill="#3F3D56"/>
<path d="M741.93 262.83H722.93V323.83H741.93V262.83Z" fill="#3F3D56"/>
<path d="M863.1 533.65V546.65L711.18 548.05L709.56 548.08L651.82 548.61L650.44 548.63L632.89 548.78H632.37L525.39 549.77L349.78 551.4H349.63L304.98 551.82L304.5 551.83L106.1 553.65V538.65L152.75 510.65L246.35 509.87L248.35 509.86L249.01 509.85L251.01 509.82L295.95 509.45L297.96 509.44L298.6 509.43L300.6 509.42L315.01 509.3L315.39 509.29L350.94 508.99H351.23L628.63 506.65L635.42 506.6H636.1L641.28 506.55L678.93 506.24L680.93 506.21L682.78 506.19H683.74L695.45 506.1L697.77 506.07L700.88 506.05L710.63 505.96L726.1 505.83L728.1 505.81L731.58 505.79H732.23L806.94 505.15L863.1 533.65Z" fill="#65617D"/>
<path opacity="0.2" d="M863.1 533.65V546.65L711.18 548.05L709.56 548.08L651.82 548.61L650.44 548.63L632.89 548.78H632.37L525.39 549.77L349.78 551.4H349.63L304.98 551.82L304.5 551.83L106.1 553.65V538.65L152.75 510.65L246.35 509.87L248.35 509.86L249.01 509.85L251.01 509.82L295.95 509.45L297.96 509.44L298.6 509.43L300.6 509.42L315.01 509.3L315.39 509.29L350.94 508.99H351.23L628.63 506.65L635.42 506.6H636.1L641.28 506.55L678.93 506.24L680.93 506.21L682.78 506.19H683.74L695.45 506.1L697.77 506.07L700.88 506.05L710.63 505.96L726.1 505.83L728.1 505.81L731.58 505.79H732.23L806.94 505.15L863.1 533.65Z" fill="black"/>
<path d="M296.1 483.66V508.15C296.101 509.31 295.772 510.446 295.152 511.427C294.533 512.408 293.648 513.192 292.6 513.69C291.82 514.068 290.967 514.273 290.1 514.29L255.2 515.03C254.268 515.052 253.343 514.857 252.5 514.46C251.434 513.971 250.53 513.186 249.897 512.199C249.265 511.211 248.929 510.063 248.93 508.89V483.66H296.1Z" fill="#3F3D56"/>
<path opacity="0.1" d="M296.1 483.66V508.15C296.101 509.31 295.772 510.446 295.152 511.427C294.533 512.408 293.648 513.192 292.6 513.69C291.82 514.068 290.967 514.273 290.1 514.29L255.2 515.03C254.268 515.052 253.343 514.857 252.5 514.46C251.434 513.971 250.53 513.186 249.897 512.199C249.265 511.211 248.929 510.063 248.93 508.89V483.66H296.1Z" fill="black"/>
<path d="M298.1 483.66V508.15C298.101 509.31 297.772 510.446 297.152 511.427C296.533 512.408 295.648 513.192 294.6 513.69C293.82 514.068 292.967 514.273 292.1 514.29L257.2 515.03C256.268 515.052 255.343 514.857 254.5 514.46C253.434 513.971 252.53 513.186 251.897 512.199C251.265 511.211 250.929 510.063 250.93 508.89V483.66H298.1Z" fill="#3F3D56"/>
<path d="M728.1 483.66H680.93V515.16H728.1V483.66Z" fill="#3F3D56"/>
<path opacity="0.1" d="M728.1 483.66H680.93V515.16H728.1V483.66Z" fill="black"/>
<path d="M726.1 483.66H678.93V515.16H726.1V483.66Z" fill="#3F3D56"/>
<path opacity="0.1" d="M230.6 265.82V271.55L211.6 271.06V265.82H230.6Z" fill="black"/>
<path d="M355.66 104.4L332.83 268.4C332.685 269.448 332.16 270.405 331.353 271.089C330.547 271.774 329.517 272.137 328.46 272.11L145.66 267.37L142.19 267.28C141.586 267.266 140.991 267.124 140.446 266.865C139.9 266.605 139.415 266.234 139.022 265.774C138.63 265.315 138.339 264.777 138.168 264.198C137.997 263.618 137.95 263.009 138.03 262.41L163.66 90.73C163.825 89.6666 164.383 88.7037 165.224 88.0317C166.064 87.3596 167.126 87.0272 168.2 87.1L351.66 99.52C352.252 99.5543 352.83 99.7109 353.359 99.98C353.887 100.249 354.354 100.625 354.73 101.083C355.105 101.542 355.382 102.073 355.542 102.644C355.702 103.215 355.743 103.813 355.66 104.4V104.4Z" fill="#65617D"/>
<path d="M175.93 99.16L156.6 250.49L324.6 255.82L345.26 109.82L175.93 99.16Z" fill="#00B0FF"/>
<path d="M583.94 96.82H389.93C386.986 96.82 384.6 99.2063 384.6 102.15V264.82C384.6 267.764 386.986 270.15 389.93 270.15H583.94C586.884 270.15 589.27 267.764 589.27 264.82V102.15C589.27 99.2063 586.884 96.82 583.94 96.82Z" fill="#65617D"/>
<path d="M580.26 108.49H394.26V252.82H580.26V108.49Z" fill="#00B0FF"/>
<path opacity="0.1" d="M741.93 262.82V266.61L722.93 267V262.82H741.93Z" fill="black"/>
<path d="M827.66 259.62C827.687 260.034 827.63 260.45 827.492 260.842C827.355 261.233 827.139 261.593 826.859 261.9C826.579 262.206 826.24 262.453 825.862 262.624C825.484 262.796 825.075 262.89 824.66 262.9L637.46 266.77C636.682 266.786 635.927 266.507 635.347 265.99C634.766 265.472 634.403 264.754 634.33 263.98L618.24 96.7C618.2 96.2849 618.245 95.8662 618.372 95.4691C618.499 95.0719 618.705 94.7047 618.978 94.3896C619.251 94.0745 619.585 93.8181 619.96 93.636C620.335 93.4538 620.744 93.3497 621.16 93.33L806.94 84.09L808.94 83.99C809.735 83.9481 810.515 84.2167 811.116 84.7391C811.717 85.2615 812.091 85.9969 812.16 86.79L827.66 259.62Z" fill="#65617D"/>
<path d="M628.93 103.16L798.6 94.82L812.93 246.82L644.6 250.82L628.93 103.16Z" fill="#00B0FF"/>
<path opacity="0.1" d="M827.66 259.62C827.687 260.034 827.63 260.45 827.492 260.842C827.355 261.233 827.139 261.593 826.859 261.9C826.579 262.206 826.24 262.453 825.862 262.624C825.484 262.796 825.075 262.89 824.66 262.9L806.94 84.09L808.94 83.99C809.735 83.9481 810.515 84.2167 811.116 84.7391C811.717 85.2615 812.091 85.9969 812.16 86.79L827.66 259.62Z" fill="black"/>
<path opacity="0.1" d="M168.23 87.09L145.66 267.37L142.19 267.28C141.586 267.266 140.991 267.124 140.446 266.865C139.9 266.605 139.415 266.234 139.022 265.774C138.63 265.315 138.339 264.777 138.168 264.198C137.997 263.618 137.95 263.009 138.03 262.41L163.66 90.73C163.823 89.6592 164.385 88.6895 165.232 88.0147C166.079 87.3398 167.15 87.0096 168.23 87.09V87.09Z" fill="black"/>
<path opacity="0.1" d="M230.6 306.41H211.6V323.49H230.6V306.41Z" fill="black"/>
<path opacity="0.1" d="M298.1 483.65V488.62L250.93 489.88V483.65H298.1Z" fill="black"/>
<path d="M381.35 312.36V480.56C381.338 481.587 380.931 482.569 380.215 483.305C379.498 484.04 378.526 484.472 377.5 484.51L185.85 489.61H185.8C184.756 489.597 183.759 489.177 183.021 488.439C182.283 487.701 181.863 486.704 181.85 485.66V312.36C181.863 311.316 182.283 310.319 183.021 309.581C183.759 308.843 184.756 308.423 185.8 308.41H377.4C378.444 308.423 379.441 308.843 380.179 309.581C380.917 310.319 381.337 311.316 381.35 312.36V312.36Z" fill="#65617D"/>
<path opacity="0.1" d="M185.85 308.41V489.61H185.8C184.756 489.597 183.759 489.177 183.021 488.439C182.283 487.701 181.863 486.704 181.85 485.66V312.36C181.863 311.316 182.283 310.319 183.021 309.581C183.759 308.843 184.756 308.423 185.8 308.41H185.85Z" fill="black"/>
<path d="M194.6 319.15H372.1V467.4L194.6 471.4V319.15Z" fill="#D4DFEC"/>
<path opacity="0.1" d="M741.93 306.41H722.93V323.83H741.93V306.41Z" fill="black"/>
<path opacity="0.1" d="M726.1 483.65V490.06L678.93 488.8V483.65H726.1Z" fill="black"/>
<path d="M788.35 312.36V485.66C788.337 486.712 787.91 487.717 787.161 488.456C786.412 489.196 785.402 489.61 784.35 489.61V489.61L592.66 484.51C591.634 484.472 590.662 484.04 589.945 483.305C589.229 482.569 588.822 481.587 588.81 480.56V312.36C588.823 311.316 589.243 310.319 589.981 309.581C590.719 308.843 591.716 308.423 592.76 308.41H784.36C785.411 308.413 786.418 308.828 787.164 309.567C787.911 310.306 788.337 311.31 788.35 312.36V312.36Z" fill="#65617D"/>
<path opacity="0.1" d="M788.35 312.36V485.66C788.337 486.712 787.91 487.717 787.161 488.456C786.412 489.196 785.402 489.61 784.35 489.61V489.61V308.41C785.402 308.41 786.412 308.825 787.161 309.564C787.91 310.303 788.337 311.308 788.35 312.36Z" fill="black"/>
<path d="M777.5 317H600V465.25L777.5 469.25V317Z" fill="#D4DFEC"/>
<path d="M583.85 312.36V480.56C583.838 481.587 583.431 482.569 582.715 483.305C581.998 484.04 581.026 484.472 580 484.51L388.35 489.61C387.298 489.61 386.288 489.196 385.539 488.456C384.79 487.717 384.363 486.712 384.35 485.66V312.36C384.363 311.316 384.783 310.319 385.521 309.581C386.259 308.843 387.256 308.423 388.3 308.41H579.9C580.944 308.423 581.941 308.843 582.679 309.581C583.417 310.319 583.837 311.316 583.85 312.36V312.36Z" fill="#65617D"/>
<path d="M397.1 319.15H574.6V467.4L397.1 471.4V319.15Z" fill="#D4DFEC"/>
<path opacity="0.1" d="M863.1 533.65V546.65L711.18 548.05L709.56 548.08L651.82 548.61L650.44 548.63L632.89 548.78H632.37L525.39 549.77L349.78 551.4H349.63L304.98 551.82L304.5 551.83L106.1 553.65V538.65L308.61 537.32H309.09L350.08 537.04H350.27L633.35 535.17H633.64L633.81 535.16H634.28L639.07 535.13H640.53L715.02 534.63L719.42 534.61L720.4 534.6L863.1 533.65Z" fill="black"/>
<path d="M487.26 323.49C515.609 323.49 538.59 300.509 538.59 272.16C538.59 243.811 515.609 220.83 487.26 220.83C458.911 220.83 435.93 243.811 435.93 272.16C435.93 300.509 458.911 323.49 487.26 323.49Z" fill="#FBBEBE"/>
<path d="M538.6 377.16C538.6 377.16 439.1 389.16 448.6 377.16C452.04 372.82 452.99 359.96 452.8 345.31C452.74 340.86 452.58 336.25 452.35 331.66C451.25 309.66 448.6 288.16 448.6 288.16C448.6 288.16 535.6 247.16 525.6 279.66C521.6 292.79 522.91 311.23 525.95 328.54C526.84 333.59 527.87 338.54 528.95 343.24C531.586 354.704 534.807 366.025 538.6 377.16V377.16Z" fill="#FBBEBE"/>
<path opacity="0.1" d="M538.6 377.16C538.6 377.16 439.1 389.16 448.6 377.16C452.04 372.82 452.99 359.96 452.8 345.31C467.97 338.83 487.27 343.66 487.27 343.66C507.59 339.61 520.62 340.4 528.95 343.24C531.586 354.704 534.807 366.025 538.6 377.16V377.16Z" fill="black"/>
<path d="M349.74 552.53V551.69L525.36 549.78L632.36 548.78H632.66L632.55 550.26L632.7 548.78H632.89V548.61L634.26 535.16L634.78 530.07L634.94 528.48L635.08 527.15L641.26 506.54L647.44 485.96L652.64 468.63L660.58 442.15C660.58 442.15 656.08 431.65 653.58 428.65C651.08 425.65 648.58 405.15 648.58 405.15C648.58 405.15 627.24 384.82 617.91 382.48C614 381.48 606.28 380.15 598.08 378.48C595.01 377.86 591.86 377.2 588.83 376.48C587.12 376.09 585.44 375.68 583.83 375.27C580.696 374.487 577.608 373.533 574.58 372.41C572.992 371.833 571.481 371.064 570.08 370.12C562.73 364.73 544.31 364.12 543.6 364.12C543.598 364.097 543.598 364.073 543.6 364.05V363.96C543.626 363.54 543.626 363.12 543.6 362.7C543.6 362.3 543.6 361.83 543.51 361.3C543.51 361.14 543.51 360.97 543.44 360.8C543.39 360.44 543.33 360.06 543.24 359.66C543.21 359.481 543.17 359.304 543.12 359.13C542.83 357.925 542.411 356.755 541.87 355.64C541.8 355.48 541.71 355.31 541.63 355.15C541.14 354.226 540.571 353.346 539.93 352.52C539.8 352.35 539.66 352.17 539.51 352C538.691 351.034 537.78 350.15 536.79 349.36C536.52 349.15 536.24 348.93 535.95 348.73C535.788 348.599 535.618 348.478 535.44 348.37L534.55 347.79L533.72 347.31C532.99 346.91 532.22 346.52 531.38 346.15C531.12 346.03 530.84 345.92 530.56 345.81C530.28 345.7 529.84 345.53 529.47 345.39H529.41L528.66 345.09C528.09 344.9 527.51 344.73 526.9 344.56L525.97 344.32L524.97 344.09L523.97 343.88C522.97 343.68 521.9 343.5 520.78 343.36L519.64 343.22L518.47 343.1L517.26 343L515.54 342.9L513.54 342.83C504.719 342.829 495.923 343.764 487.3 345.62C481.309 344.287 475.173 343.722 469.04 343.94H468.17L467.17 344H466.53L465.24 344.12C464.81 344.12 464.37 344.21 463.94 344.27C463.51 344.33 463.06 344.38 462.63 344.45L461.97 344.56C461.32 344.67 460.66 344.79 459.97 344.93C459.75 344.97 459.53 345.02 459.31 345.08C458.44 345.27 457.57 345.5 456.71 345.76C456.28 345.88 455.85 346.02 455.42 346.17C455.2 346.23 454.99 346.31 454.78 346.39L454.14 346.62L453.51 346.87L452.76 347.17C452.38 347.33 452.01 347.5 451.64 347.68C451.43 347.77 451.22 347.87 451.02 347.98C450.82 348.09 450.61 348.18 450.42 348.29C448.159 349.458 446.069 350.932 444.21 352.67L443.7 353.16L443.2 353.67C443.03 353.84 442.87 354.02 442.71 354.2C442.058 354.912 441.45 355.664 440.89 356.45C440.73 356.66 440.58 356.87 440.43 357.09C439.795 358.026 439.221 359.001 438.71 360.01C438.58 360.25 438.46 360.5 438.34 360.74C437.524 362.429 436.855 364.186 436.34 365.99C436.153 366.657 435.983 367.323 435.83 367.99C435.83 367.99 414.66 377.33 397.1 384.09C392.43 385.89 388.03 387.52 384.35 388.75C383.28 389.11 382.28 389.44 381.35 389.75C379.332 390.479 377.234 390.963 375.1 391.19C374.094 391.206 373.091 391.3 372.1 391.47C364.03 392.78 350.2 398.47 348.69 404.18C348.567 404.636 348.533 405.111 348.59 405.58C348.59 405.58 348.59 405.65 348.59 405.69C349.59 412.69 342.59 411.69 342.59 411.69C342.59 411.69 340.09 430.19 336.59 435.19C334.06 438.79 332.33 446.82 332.11 452.88C331.984 454.768 332.132 456.664 332.55 458.51C332.55 458.56 332.55 458.61 332.55 458.65C332.95 459.99 331.99 463.65 330.36 468.34C328.59 473.49 326.01 479.89 323.53 485.93C319.79 495.05 316.27 503.33 316.05 505.15C315.96 505.96 315.7 507.41 315.34 509.28C313.88 516.9 310.64 531.41 309.04 537.28C307.85 541.66 306.12 547.66 304.93 551.78C304.93 551.9 304.86 552.02 304.83 552.13L349.66 551.69V552.53H349.8H349.74Z" fill="#00B0FF"/>
<path opacity="0.1" d="M366.1 434.66C366.1 434.66 423.1 464.16 443.6 460.66L366.1 434.66Z" fill="black"/>
<path opacity="0.1" d="M482.1 422.66C482.1 422.66 537.6 440.66 556.1 443.16C574.6 445.66 482.1 422.66 482.1 422.66Z" fill="black"/>
<path opacity="0.1" d="M543.66 364.74C514.66 370.08 460.06 368.93 436.46 368.12C445.11 337.12 487.29 347.66 487.29 347.66C539.5 337.24 543.5 358.86 543.66 364.74Z" fill="black"/>
<path d="M543.66 362.74C514.66 368.08 460.06 366.93 436.46 366.12C445.11 335.12 487.29 345.66 487.29 345.66C539.5 335.24 543.5 356.86 543.66 362.74Z" fill="#00B0FF"/>
<path d="M697.6 499.41C697.6 499.41 731.76 494.16 732.43 509.16C733.1 524.16 715.01 534.64 715.01 534.64L697.6 499.41Z" fill="#FBBEBE"/>
<path opacity="0.1" d="M525.95 328.54C524.481 329.197 522.979 329.777 521.45 330.28C510.67 334 499.8 337.75 488.45 339.11C477.1 340.47 465.19 339.27 455.29 333.61C454.251 333.023 453.249 332.372 452.29 331.66C451.19 309.66 448.54 288.16 448.54 288.16C448.54 288.16 535.54 247.16 525.54 279.66C521.56 292.79 522.91 311.23 525.95 328.54Z" fill="#ECF76F" fill-opacity="0.78"/>
<path d="M473.18 191.93C471.753 192.307 470.257 192.345 468.813 192.041C467.368 191.737 466.014 191.1 464.86 190.18L466.94 193.07C465.714 193.211 464.472 193.083 463.301 192.695C462.13 192.306 461.058 191.666 460.16 190.82C459.971 193.407 460.079 196.007 460.48 198.57C457.038 198.736 453.65 197.673 450.92 195.57C450.867 196.472 451.091 197.369 451.563 198.14C452.035 198.91 452.732 199.518 453.56 199.88C450.103 199.467 446.613 200.326 443.743 202.297C440.872 204.267 438.817 207.215 437.96 210.59L443.18 211.07C439.078 211.946 435.396 214.193 432.74 217.44C431.14 219.44 429.92 222 430.62 224.44C431.32 226.88 434.7 228.44 436.54 226.7C433.923 229.824 432.02 233.483 430.967 237.42C429.913 241.356 429.733 245.476 430.44 249.49C430.915 251.2 431.071 252.983 430.9 254.75C430.57 256.4 429.53 257.83 429.01 259.44C428.01 262.36 428.96 265.53 429.85 268.44L434.54 283.86C436.24 289.43 437.93 295.01 440.15 300.4C441.722 303.808 443.059 307.319 444.15 310.91C445.41 315.75 445.46 321.05 448.15 325.28C449.994 327.942 452.458 330.115 455.33 331.61C465.22 337.27 477.17 338.47 488.49 337.11C499.81 335.75 510.67 332 521.44 328.28C523.833 327.559 526.129 326.552 528.28 325.28C535.73 320.4 537.39 310.42 538.78 301.63C540.33 291.83 542.4 282.05 546.07 272.83C548.25 267.34 551.07 261.77 550.59 255.89C549.98 248.08 543.8 241.75 542.27 234.07C541.758 231.503 541.782 228.857 542.34 226.3C542.814 224.776 543.08 223.195 543.13 221.6C542.96 218.38 540.32 215.9 537.84 213.83C532.46 209.337 526.907 205.09 521.18 201.09C520.89 199.09 523.61 198.23 524.84 196.65C526.58 194.42 524.78 190.88 522.14 189.84C519.5 188.8 516.54 189.48 513.79 190.17C513.969 188.762 513.689 187.335 512.992 186.099C512.294 184.863 511.217 183.885 509.919 183.311C508.621 182.737 507.173 182.597 505.79 182.912C504.406 183.227 503.161 183.981 502.24 185.06C501.51 183.385 500.343 181.938 498.862 180.868C497.381 179.799 495.639 179.146 493.82 178.98C487.19 178.46 487.06 183.53 482.82 186.32C478.58 189.11 475.08 185.43 471.82 182.75C471.221 184.265 471.031 185.911 471.27 187.522C471.509 189.134 472.168 190.654 473.18 191.93V191.93Z" fill="#3F3D56"/>
<path d="M722.93 529.41C722.93 529.41 722.04 531.53 720.4 534.6C717.919 539.323 714.899 543.743 711.4 547.77L711.13 548.06H709.51L651.77 548.59H650.39L650.22 548.39L639.02 535.1L634.8 530.09L634.63 529.88L634.27 529.46L634.07 529.22L633.81 528.91L625.6 519.17L628.6 506.67L633.71 485.61L633.84 485.1L634.84 481.1L635.55 478.1L637.93 468.32L646.09 434.67L660.59 442.17L675.88 469.17L684.09 483.67H688.59C689.44 483.67 691.39 485.31 693.35 487.2C694.05 487.87 694.75 488.58 695.35 489.2C697.13 491.04 698.54 492.62 698.54 492.62C698.54 492.62 705.83 492.78 707.79 498.52C707.891 498.798 707.975 499.082 708.04 499.37C708.691 501.626 709.537 503.821 710.57 505.93C711.86 508.74 713.48 511.93 715.12 515.12C718.17 520.97 721.27 526.54 722.41 528.56L722.55 528.81L722.93 529.41Z" fill="#00B0FF"/>
<path opacity="0.1" d="M637.03 484.26L636.93 485.69V485.79L636.76 488.09L635.43 506.6L633.82 528.9L633.36 535.18L632.36 548.62V548.79L525.36 549.79L349.77 551.69V552.53H349.63V551.69V551.41L350.08 537.05L350.94 508.99L351.68 485.2L351.75 482.83C351.794 481.4 352.129 479.993 352.734 478.696C353.34 477.4 354.203 476.24 355.272 475.288C356.341 474.336 357.592 473.612 358.95 473.161C360.308 472.709 361.744 472.538 363.17 472.66C367.89 473.06 374.02 473.55 381.35 474.07L384.35 474.29C426.68 477.23 504.91 481.03 583.85 476.29C585.51 476.2 587.18 476.1 588.85 475.98C601.09 475.21 613.32 474.22 625.43 472.98C626.961 472.82 628.508 472.997 629.963 473.499C631.418 474.001 632.746 474.817 633.851 475.887C634.957 476.958 635.815 478.258 636.364 479.696C636.913 481.134 637.141 482.675 637.03 484.21V484.26Z" fill="black"/>
<path d="M349.74 552.53V551.69L525.36 549.78L632.36 548.78H632.66V548.61L633.66 535.17L634.09 529.17L635.73 506.56L637.02 488.66V488.22C637.08 487.395 637.043 486.566 636.91 485.75C636.916 485.717 636.916 485.683 636.91 485.65C636.635 483.962 635.948 482.368 634.91 481.01C633.809 479.598 632.366 478.49 630.718 477.79C629.07 477.09 627.271 476.822 625.49 477.01C613.38 478.25 601.15 479.24 588.91 480.01C587.24 480.13 585.57 480.23 583.91 480.32C504.97 485.01 426.74 481.21 384.41 478.32L381.41 478.1C374.08 477.58 367.95 477.1 363.23 476.69C360.633 476.471 358.048 477.221 355.972 478.797C353.896 480.372 352.478 482.66 351.99 485.22C351.889 485.761 351.829 486.31 351.81 486.86L351.13 509.02L350.2 537.09L349.76 551.45V551.73V552.57L349.74 552.53Z" fill="#3F3D56"/>
<path opacity="0.1" d="M637.33 491.27L636.1 506.6L634.27 529.45L633.81 535.17L632.81 547.98L632.75 548.62V548.79L632.6 550.27L632.71 548.79H632.42L525.42 549.79L349.77 551.69V551.41L350.26 537.05L351.26 508.99L351.9 490.34C351.931 489.279 352.228 488.243 352.762 487.326C353.297 486.409 354.052 485.64 354.96 485.09C356.092 484.396 357.416 484.081 358.74 484.19C360.84 484.36 363.42 484.56 366.43 484.78C371.32 485.14 377.35 485.56 384.37 486C397.37 486.82 413.68 487.7 432.37 488.42C484.37 490.42 554.57 491.09 621.25 485.25C624.25 484.99 627.35 484.7 630.38 484.41C631.579 484.29 632.788 484.52 633.86 485.07C634.164 485.221 634.452 485.402 634.72 485.61C635.591 486.241 636.28 487.089 636.72 488.07C636.822 488.265 636.906 488.469 636.97 488.68C637.27 489.509 637.393 490.391 637.33 491.27V491.27Z" fill="black"/>
<path opacity="0.1" d="M298.1 504.96V508.15C298.101 509.31 297.772 510.446 297.152 511.427C296.533 512.408 295.648 513.192 294.6 513.69L254.5 514.46C253.434 513.971 252.53 513.186 251.897 512.199C251.265 511.211 250.929 510.063 250.93 508.89V505.89L298.1 504.96Z" fill="black"/>
<path d="M298.6 515.57L246.35 516.57V507.9L298.6 506.9V515.57Z" fill="#3F3D56"/>
<path opacity="0.1" d="M298.6 515.57L246.35 516.57V507.9L298.6 506.9V515.57Z" fill="black"/>
<path d="M300.6 515.57L248.35 516.57V507.9L300.6 506.9V515.57Z" fill="#3F3D56"/>
<g opacity="0.1">
<path opacity="0.1" d="M473.59 188.65C472.613 187.381 471.964 185.89 471.7 184.31C471.459 185.855 471.603 187.435 472.12 188.91C472.616 188.864 473.108 188.777 473.59 188.65Z" fill="black"/>
<path opacity="0.1" d="M460.89 195.29C460.701 194.064 460.578 192.829 460.52 191.59C460.52 192.82 460.52 194.06 460.52 195.3L460.89 195.29Z" fill="black"/>
<path opacity="0.1" d="M542.39 228.66C542.445 227.769 542.566 226.883 542.75 226.01C543.223 224.489 543.492 222.912 543.55 221.32C543.528 220.963 543.474 220.608 543.39 220.26C543.22 221.18 542.95 222.1 542.75 223.01C542.351 224.865 542.229 226.769 542.39 228.66Z" fill="black"/>
<path opacity="0.1" d="M521.59 197.76L522.68 198.55C523.599 197.885 524.459 197.143 525.25 196.33C525.626 195.81 525.859 195.199 525.926 194.561C525.993 193.922 525.891 193.277 525.63 192.69C525.53 192.918 525.403 193.133 525.25 193.33C524.02 194.91 521.3 195.78 521.59 197.76Z" fill="black"/>
<path opacity="0.1" d="M439.42 207.38C439.055 208.109 438.764 208.873 438.55 209.66C440.114 208.787 441.799 208.15 443.55 207.77L439.42 207.38Z" fill="black"/>
<path opacity="0.1" d="M453.21 196.5C452.553 196.138 451.925 195.727 451.33 195.27C451.305 195.666 451.335 196.063 451.42 196.45C452.017 196.422 452.615 196.438 453.21 196.5V196.5Z" fill="black"/>
<path opacity="0.1" d="M550.98 255.42C550.57 260.27 548.31 264.94 546.48 269.54C542.81 278.76 540.74 288.54 539.19 298.35C537.8 307.14 536.19 317.12 528.69 321.99C526.547 323.27 524.253 324.278 521.86 324.99C511.08 328.72 500.21 332.46 488.86 333.82C477.51 335.18 465.6 333.99 455.7 328.33C452.83 326.832 450.366 324.66 448.52 322C445.85 317.77 445.8 312.47 444.52 307.63C443.429 304.036 442.092 300.521 440.52 297.11C438.31 291.73 436.61 286.11 434.92 280.58C433.353 275.44 431.79 270.297 430.23 265.15C429.716 263.602 429.335 262.013 429.09 260.4C428.7 262.96 429.46 265.64 430.23 268.15C431.79 273.303 433.353 278.447 434.92 283.58C436.61 289.15 438.31 294.73 440.52 300.11C442.092 303.521 443.429 307.036 444.52 310.63C445.78 315.47 445.83 320.77 448.52 325C450.366 327.66 452.83 329.832 455.7 331.33C465.6 336.99 477.54 338.18 488.86 336.82C500.18 335.46 511.04 331.72 521.86 327.99C524.253 327.278 526.547 326.27 528.69 324.99C536.14 320.12 537.8 310.14 539.19 301.35C540.74 291.54 542.81 281.76 546.48 272.54C548.66 267.06 551.48 261.49 551 255.6C551 255.54 550.98 255.48 550.98 255.42Z" fill="black"/>
<path opacity="0.1" d="M431.29 251.55C431.29 251.55 431.29 251.48 431.29 251.44C431.47 249.677 431.314 247.895 430.83 246.19C430.631 245.093 430.5 243.984 430.44 242.87C430.325 244.985 430.456 247.106 430.83 249.19C430.99 249.97 431.17 250.76 431.29 251.55Z" fill="black"/>
<path opacity="0.1" d="M434.34 227.09C435.109 225.798 435.982 224.571 436.95 223.42C435.12 225.17 431.74 223.61 431.03 221.18C430.768 222.163 430.768 223.197 431.03 224.18C431.276 224.914 431.712 225.569 432.293 226.08C432.875 226.592 433.581 226.94 434.34 227.09V227.09Z" fill="black"/>
</g>
<path opacity="0.1" d="M684.1 483.66C684.1 483.66 687.27 495.16 684.1 505.16C680.93 515.16 684.1 483.66 684.1 483.66Z" fill="black"/>
<path opacity="0.1" d="M697.6 495.39C697.6 495.39 698.93 509.99 695.93 512.58C692.93 515.17 697.6 495.39 697.6 495.39Z" fill="black"/>
<path d="M206 344L307.61 343" stroke="black" stroke-width="2" stroke-miterlimit="10"/>
<path d="M714 400L767 399" stroke="black" stroke-width="2" stroke-miterlimit="10"/>
<path d="M206.01 356.14L275.01 355.14" stroke="black" stroke-width="2" stroke-miterlimit="10"/>
<path d="M690 411L767 410" stroke="black" stroke-width="2" stroke-miterlimit="10"/>
<path d="M206.01 368.14L256.01 367.14" stroke="black" stroke-width="2" stroke-miterlimit="10"/>
<path d="M669 423L767 422" stroke="black" stroke-width="2" stroke-miterlimit="10"/>
<path d="M615.635 367.311C614.917 367.311 614.212 367.162 613.52 366.865C612.827 366.593 612.208 366.197 611.664 365.678C611.12 365.158 610.687 364.515 610.365 363.748C610.044 363.006 609.908 362.152 609.957 361.188C610.031 359.505 610.365 357.947 610.959 356.512C611.553 355.077 612.245 353.84 613.037 352.801C613.829 351.762 614.633 350.958 615.449 350.389C616.266 349.795 616.946 349.498 617.49 349.498C617.837 349.498 618.146 349.622 618.418 349.869C618.715 350.092 618.938 350.389 619.086 350.76C619.259 351.106 619.358 351.502 619.383 351.947C619.432 352.368 619.383 352.776 619.234 353.172C618.987 352.999 618.529 353.061 617.861 353.357C617.193 353.654 616.501 354.161 615.783 354.879C615.066 355.572 614.423 356.438 613.854 357.477C613.285 358.516 612.963 359.678 612.889 360.965C612.839 361.806 612.876 362.523 613 363.117C613.148 363.711 613.346 364.193 613.594 364.564C613.866 364.936 614.163 365.208 614.484 365.381C614.831 365.554 615.189 365.641 615.561 365.641C616.451 365.641 617.268 365.307 618.01 364.639C618.752 363.971 619.432 363.031 620.051 361.818C620.669 360.631 621.251 359.208 621.795 357.551C622.339 355.868 622.859 354.013 623.354 351.984C623.502 351.366 623.688 350.599 623.91 349.684C624.158 348.768 624.417 347.779 624.689 346.715C624.962 345.626 625.246 344.513 625.543 343.375C625.865 342.212 626.161 341.111 626.434 340.072C626.706 339.008 626.965 338.031 627.213 337.141C627.46 336.225 627.658 335.483 627.807 334.914C626.99 334.914 626.174 334.964 625.357 335.062C624.665 335.137 623.947 335.248 623.205 335.396C622.463 335.52 621.844 335.693 621.35 335.916C621.3 335.891 621.263 335.829 621.238 335.73C621.214 335.607 621.189 335.483 621.164 335.359C621.139 335.211 621.115 335.05 621.09 334.877C621.065 334.679 621.065 334.481 621.09 334.283C621.115 334.11 621.139 333.924 621.164 333.727C621.189 333.504 621.238 333.281 621.312 333.059C621.956 332.861 622.698 332.712 623.539 332.613C624.405 332.49 625.209 332.403 625.951 332.354C626.817 332.279 627.708 332.242 628.623 332.242C629.291 332.242 629.984 332.279 630.701 332.354C631.32 332.403 632.012 332.477 632.779 332.576C633.546 332.675 634.313 332.824 635.08 333.021C635.253 333.195 635.365 333.393 635.414 333.615C635.439 333.714 635.451 333.826 635.451 333.949C635.451 334.147 635.414 334.333 635.34 334.506C635.29 334.654 635.204 334.815 635.08 334.988C634.981 335.137 634.845 335.26 634.672 335.359C634.4 335.285 634.053 335.236 633.633 335.211C633.237 335.161 632.841 335.112 632.445 335.062C632 335.013 631.53 334.976 631.035 334.951L627.102 352.467C627.003 352.887 626.829 353.555 626.582 354.471C626.335 355.361 625.988 356.363 625.543 357.477C625.122 358.565 624.603 359.691 623.984 360.854C623.391 362.016 622.686 363.068 621.869 364.008C621.053 364.973 620.125 365.764 619.086 366.383C618.047 367.001 616.896 367.311 615.635 367.311ZM651.074 352.615C650.728 353.11 650.283 353.729 649.738 354.471C649.194 355.188 648.625 355.918 648.031 356.66C647.462 357.378 646.893 358.046 646.324 358.664C645.78 359.258 645.322 359.678 644.951 359.926C644.704 360.074 644.419 360.198 644.098 360.297C643.776 360.396 643.442 360.458 643.096 360.482C642.774 360.507 642.465 360.482 642.168 360.408C641.871 360.359 641.611 360.26 641.389 360.111C641.166 359.938 640.98 359.691 640.832 359.369C640.708 359.097 640.585 358.738 640.461 358.293C640.362 357.848 640.325 357.291 640.35 356.623C639.756 357.613 639.1 358.38 638.383 358.924C637.665 359.443 636.985 359.827 636.342 360.074C635.6 360.346 634.857 360.507 634.115 360.557C633.769 360.557 633.398 360.433 633.002 360.186C632.606 359.963 632.272 359.604 632 359.109C631.728 358.59 631.555 357.934 631.48 357.143C631.406 356.326 631.505 355.361 631.777 354.248C632.124 352.739 632.668 351.366 633.41 350.129C634.177 348.892 635.006 347.84 635.896 346.975C636.787 346.084 637.665 345.416 638.531 344.971C639.397 344.525 640.115 344.327 640.684 344.377C641.352 344.501 641.896 344.699 642.316 344.971C642.663 345.218 642.885 345.589 642.984 346.084C643.108 346.554 642.91 347.185 642.391 347.977C642.737 347.902 643.021 347.853 643.244 347.828C643.492 347.803 643.677 347.791 643.801 347.791C643.949 347.791 644.048 347.803 644.098 347.828C644.122 347.878 644.135 347.989 644.135 348.162C644.135 348.311 644.098 348.595 644.023 349.016C643.949 349.436 643.838 350.005 643.689 350.723C643.541 351.44 643.343 352.368 643.096 353.506C643.046 353.729 642.997 353.939 642.947 354.137C642.923 354.31 642.885 354.495 642.836 354.693C642.811 354.867 642.774 355.077 642.725 355.324C642.675 355.572 642.613 355.881 642.539 356.252C642.514 356.475 642.502 356.722 642.502 356.994C642.527 357.242 642.576 357.477 642.65 357.699C642.725 357.922 642.836 358.107 642.984 358.256C643.158 358.38 643.393 358.441 643.689 358.441C643.937 358.441 644.258 358.293 644.654 357.996C645.05 357.674 645.471 357.279 645.916 356.809C646.361 356.314 646.819 355.782 647.289 355.213C647.784 354.619 648.242 354.05 648.662 353.506C649.083 352.962 649.454 352.479 649.775 352.059C650.122 351.638 650.369 351.329 650.518 351.131C650.715 350.908 650.913 350.785 651.111 350.76C651.309 350.71 651.458 350.76 651.557 350.908C651.656 351.057 651.668 351.279 651.594 351.576C651.544 351.873 651.371 352.219 651.074 352.615ZM640.201 354.248C640.325 353.753 640.473 353.172 640.646 352.504C640.82 351.836 640.968 351.193 641.092 350.574C641.215 349.956 641.302 349.449 641.352 349.053C641.426 348.632 641.413 348.434 641.314 348.459C641.191 348.484 641.055 348.521 640.906 348.57C640.783 348.62 640.622 348.657 640.424 348.682C640.226 348.706 640.028 348.743 639.83 348.793C640.028 348.397 640.139 348.076 640.164 347.828C640.214 347.556 640.226 347.346 640.201 347.197C640.176 347.024 640.127 346.888 640.053 346.789C639.781 346.566 639.298 346.752 638.605 347.346C637.938 347.915 637.158 348.979 636.268 350.537C635.896 351.18 635.6 351.873 635.377 352.615C635.154 353.333 634.993 354.013 634.895 354.656C634.82 355.299 634.808 355.868 634.857 356.363C634.907 356.833 635.006 357.143 635.154 357.291C635.426 357.563 635.736 357.699 636.082 357.699C636.428 357.674 636.775 357.576 637.121 357.402C637.492 357.204 637.851 356.957 638.197 356.66C638.568 356.363 638.89 356.054 639.162 355.732C639.459 355.411 639.694 355.114 639.867 354.842C640.065 354.57 640.176 354.372 640.201 354.248ZM659.461 353.395C658.818 354.335 658.15 355.25 657.457 356.141C656.789 357.031 656.133 357.835 655.49 358.553C654.872 359.245 654.29 359.802 653.746 360.223C653.227 360.668 652.806 360.891 652.484 360.891C651.717 360.891 651.087 360.532 650.592 359.814C650.122 359.072 649.751 358.169 649.479 357.105C649.231 356.017 649.07 354.867 648.996 353.654C648.947 352.417 648.959 351.316 649.033 350.352C649.132 349.387 649.243 348.62 649.367 348.051C649.491 347.457 649.639 346.999 649.812 346.678C650.01 346.356 650.233 346.121 650.48 345.973C650.753 345.824 651.087 345.701 651.482 345.602C651.656 345.552 651.854 345.515 652.076 345.49C652.299 345.465 652.497 345.478 652.67 345.527C652.868 345.552 653.016 345.626 653.115 345.75C653.214 345.874 653.227 346.059 653.152 346.307C653.103 346.529 653.016 346.863 652.893 347.309C652.794 347.729 652.682 348.212 652.559 348.756C652.435 349.3 652.311 349.869 652.188 350.463C652.089 351.057 652.014 351.626 651.965 352.17C651.891 353.11 651.891 353.939 651.965 354.656C652.039 355.349 652.15 355.943 652.299 356.438C652.447 356.908 652.608 357.266 652.781 357.514C652.954 357.761 653.09 357.885 653.189 357.885C653.313 357.885 653.536 357.724 653.857 357.402C654.204 357.056 654.587 356.611 655.008 356.066C655.453 355.522 655.911 354.891 656.381 354.174C656.876 353.456 657.333 352.714 657.754 351.947C657.605 351.551 657.544 351.081 657.568 350.537C657.643 349.696 657.828 348.941 658.125 348.273C658.422 347.581 658.756 346.999 659.127 346.529C659.523 346.059 659.919 345.701 660.314 345.453C660.735 345.181 661.106 345.045 661.428 345.045C662.071 345.045 662.467 345.218 662.615 345.564C662.788 345.886 662.85 346.22 662.801 346.566C662.751 347.086 662.516 347.803 662.096 348.719C661.7 349.609 661.18 350.587 660.537 351.65C660.661 351.7 660.797 351.749 660.945 351.799C661.094 351.848 661.267 351.873 661.465 351.873C662.306 351.873 663.061 351.774 663.729 351.576C664.421 351.378 665.015 351.143 665.51 350.871C666.029 350.599 666.462 350.314 666.809 350.018C667.18 349.696 667.477 349.436 667.699 349.238C667.848 349.09 667.996 349.016 668.145 349.016C668.293 349.016 668.417 349.053 668.516 349.127C668.615 349.201 668.664 349.312 668.664 349.461C668.664 349.609 668.59 349.77 668.441 349.943C667.551 351.032 666.462 351.91 665.176 352.578C663.914 353.246 662.43 353.58 660.723 353.58C660.574 353.58 660.389 353.568 660.166 353.543C659.943 353.518 659.708 353.469 659.461 353.395ZM683.879 352.615C683.533 353.11 683.087 353.729 682.543 354.471C681.999 355.188 681.43 355.918 680.836 356.66C680.267 357.378 679.698 358.046 679.129 358.664C678.585 359.258 678.127 359.678 677.756 359.926C677.508 360.074 677.224 360.198 676.902 360.297C676.581 360.396 676.247 360.458 675.9 360.482C675.579 360.507 675.27 360.482 674.973 360.408C674.676 360.359 674.416 360.26 674.193 360.111C673.971 359.938 673.785 359.691 673.637 359.369C673.513 359.097 673.389 358.738 673.266 358.293C673.167 357.848 673.13 357.291 673.154 356.623C672.561 357.613 671.905 358.38 671.188 358.924C670.47 359.443 669.79 359.827 669.146 360.074C668.404 360.346 667.662 360.507 666.92 360.557C666.574 360.557 666.202 360.433 665.807 360.186C665.411 359.963 665.077 359.604 664.805 359.109C664.533 358.59 664.359 357.934 664.285 357.143C664.211 356.326 664.31 355.361 664.582 354.248C664.928 352.739 665.473 351.366 666.215 350.129C666.982 348.892 667.811 347.84 668.701 346.975C669.592 346.084 670.47 345.416 671.336 344.971C672.202 344.525 672.919 344.327 673.488 344.377C674.156 344.501 674.701 344.699 675.121 344.971C675.467 345.218 675.69 345.589 675.789 346.084C675.913 346.554 675.715 347.185 675.195 347.977C675.542 347.902 675.826 347.853 676.049 347.828C676.296 347.803 676.482 347.791 676.605 347.791C676.754 347.791 676.853 347.803 676.902 347.828C676.927 347.878 676.939 347.989 676.939 348.162C676.939 348.311 676.902 348.595 676.828 349.016C676.754 349.436 676.643 350.005 676.494 350.723C676.346 351.44 676.148 352.368 675.9 353.506C675.851 353.729 675.801 353.939 675.752 354.137C675.727 354.31 675.69 354.495 675.641 354.693C675.616 354.867 675.579 355.077 675.529 355.324C675.48 355.572 675.418 355.881 675.344 356.252C675.319 356.475 675.307 356.722 675.307 356.994C675.331 357.242 675.381 357.477 675.455 357.699C675.529 357.922 675.641 358.107 675.789 358.256C675.962 358.38 676.197 358.441 676.494 358.441C676.742 358.441 677.063 358.293 677.459 357.996C677.855 357.674 678.275 357.279 678.721 356.809C679.166 356.314 679.624 355.782 680.094 355.213C680.589 354.619 681.046 354.05 681.467 353.506C681.887 352.962 682.258 352.479 682.58 352.059C682.926 351.638 683.174 351.329 683.322 351.131C683.52 350.908 683.718 350.785 683.916 350.76C684.114 350.71 684.262 350.76 684.361 350.908C684.46 351.057 684.473 351.279 684.398 351.576C684.349 351.873 684.176 352.219 683.879 352.615ZM673.006 354.248C673.13 353.753 673.278 353.172 673.451 352.504C673.624 351.836 673.773 351.193 673.896 350.574C674.02 349.956 674.107 349.449 674.156 349.053C674.23 348.632 674.218 348.434 674.119 348.459C673.995 348.484 673.859 348.521 673.711 348.57C673.587 348.62 673.426 348.657 673.229 348.682C673.031 348.706 672.833 348.743 672.635 348.793C672.833 348.397 672.944 348.076 672.969 347.828C673.018 347.556 673.031 347.346 673.006 347.197C672.981 347.024 672.932 346.888 672.857 346.789C672.585 346.566 672.103 346.752 671.41 347.346C670.742 347.915 669.963 348.979 669.072 350.537C668.701 351.18 668.404 351.873 668.182 352.615C667.959 353.333 667.798 354.013 667.699 354.656C667.625 355.299 667.613 355.868 667.662 356.363C667.712 356.833 667.811 357.143 667.959 357.291C668.231 357.563 668.54 357.699 668.887 357.699C669.233 357.674 669.579 357.576 669.926 357.402C670.297 357.204 670.656 356.957 671.002 356.66C671.373 356.363 671.695 356.054 671.967 355.732C672.264 355.411 672.499 355.114 672.672 354.842C672.87 354.57 672.981 354.372 673.006 354.248ZM686.625 358.738C686.773 358.837 686.959 358.887 687.182 358.887C687.429 358.887 687.664 358.837 687.887 358.738C688.134 358.639 688.357 358.503 688.555 358.33C688.777 358.157 688.938 357.934 689.037 357.662C689.136 357.39 689.136 357.007 689.037 356.512C688.938 355.992 688.777 355.448 688.555 354.879C688.357 354.285 688.134 353.691 687.887 353.098C687.639 352.504 687.429 351.96 687.256 351.465C687.107 351.094 686.984 350.747 686.885 350.426C686.786 350.154 686.687 349.894 686.588 349.646C686.514 349.374 686.452 349.189 686.402 349.09C686.279 349.288 686.056 349.609 685.734 350.055C685.438 350.5 685.104 350.97 684.732 351.465C684.386 351.935 684.052 352.38 683.73 352.801C683.409 353.197 683.186 353.469 683.062 353.617C682.865 353.84 682.667 353.976 682.469 354.025C682.296 354.05 682.147 354.013 682.023 353.914C681.9 353.79 681.826 353.63 681.801 353.432C681.801 353.209 681.9 352.949 682.098 352.652C682.246 352.454 682.469 352.145 682.766 351.725C683.062 351.279 683.359 350.834 683.656 350.389C683.953 349.919 684.225 349.51 684.473 349.164C684.72 348.793 684.856 348.57 684.881 348.496C684.93 348.298 684.856 348.038 684.658 347.717C684.485 347.395 684.46 347.024 684.584 346.604C684.683 346.257 684.906 345.861 685.252 345.416C685.598 344.946 686.007 344.525 686.477 344.154C686.947 343.783 687.429 343.511 687.924 343.338C688.419 343.14 688.864 343.14 689.26 343.338C689.581 343.536 689.841 343.758 690.039 344.006C690.237 344.229 690.311 344.464 690.262 344.711C690.212 344.835 690.138 344.995 690.039 345.193C689.94 345.391 689.792 345.639 689.594 345.936C689.396 346.208 689.111 346.566 688.74 347.012C688.814 347.581 688.913 348.1 689.037 348.57C689.186 349.04 689.322 349.449 689.445 349.795C689.594 350.215 689.755 350.599 689.928 350.945C690.15 351.391 690.385 351.848 690.633 352.318C690.88 352.788 691.103 353.258 691.301 353.729C691.499 354.174 691.66 354.594 691.783 354.99C691.907 355.386 691.944 355.72 691.895 355.992C691.82 356.413 691.598 356.92 691.227 357.514C690.88 358.107 690.435 358.689 689.891 359.258C689.371 359.802 688.765 360.272 688.072 360.668C687.404 361.064 686.699 361.262 685.957 361.262C685.438 361.262 684.93 361.101 684.436 360.779C683.965 360.458 683.557 360.087 683.211 359.666C682.889 359.221 682.642 358.788 682.469 358.367C682.32 357.947 682.308 357.625 682.432 357.402C682.58 357.105 682.716 356.87 682.84 356.697C682.964 356.524 683.149 356.326 683.396 356.104C683.495 356.029 683.619 355.943 683.768 355.844C683.891 355.77 684.064 355.695 684.287 355.621C684.51 355.547 684.77 355.46 685.066 355.361C685.314 356.128 685.536 356.734 685.734 357.18C685.932 357.6 686.093 357.934 686.217 358.182C686.365 358.454 686.501 358.639 686.625 358.738ZM701.061 358.738C701.827 358.738 702.669 358.441 703.584 357.848C704.524 357.229 705.427 356.512 706.293 355.695C707.184 354.879 707.988 354.05 708.705 353.209C709.447 352.343 710.004 351.65 710.375 351.131C710.598 350.809 710.808 350.624 711.006 350.574C711.204 350.5 711.352 350.525 711.451 350.648C711.55 350.772 711.587 350.97 711.562 351.242C711.538 351.49 711.426 351.774 711.229 352.096C711.055 352.393 710.758 352.826 710.338 353.395C709.942 353.939 709.46 354.545 708.891 355.213C708.346 355.856 707.715 356.524 706.998 357.217C706.305 357.885 705.576 358.503 704.809 359.072C704.042 359.617 703.25 360.062 702.434 360.408C701.617 360.779 700.813 360.965 700.021 360.965C698.933 360.965 698.018 360.755 697.275 360.334C696.558 359.938 695.977 359.419 695.531 358.775C695.111 358.132 694.814 357.427 694.641 356.66C694.467 355.868 694.381 355.089 694.381 354.322C694.381 353.555 694.554 352.603 694.9 351.465C695.247 350.327 695.754 349.238 696.422 348.199C697.115 347.135 697.98 346.232 699.02 345.49C700.059 344.723 701.283 344.34 702.693 344.34C703.485 344.34 704.153 344.612 704.697 345.156C705.266 345.701 705.538 346.443 705.514 347.383C705.514 347.828 705.439 348.273 705.291 348.719C705.143 349.139 704.945 349.523 704.697 349.869C704.45 350.191 704.153 350.451 703.807 350.648C703.485 350.846 703.126 350.945 702.73 350.945C702.409 350.945 702.161 350.834 701.988 350.611C701.84 350.364 701.741 350.092 701.691 349.795C701.667 349.473 701.667 349.164 701.691 348.867C701.741 348.57 701.79 348.372 701.84 348.273C701.964 348.1 702.1 347.977 702.248 347.902C702.396 347.828 702.57 347.742 702.768 347.643C702.916 347.568 703.027 347.457 703.102 347.309C703.201 347.16 703.25 346.999 703.25 346.826C703.25 346.653 703.201 346.505 703.102 346.381C703.003 346.257 702.842 346.195 702.619 346.195C702.396 346.195 701.988 346.381 701.395 346.752C700.826 347.098 700.232 347.63 699.613 348.348C699.02 349.04 698.488 349.919 698.018 350.982C697.548 352.046 697.3 353.283 697.275 354.693C697.251 355.51 697.362 356.178 697.609 356.697C697.857 357.217 698.166 357.625 698.537 357.922C698.908 358.219 699.316 358.429 699.762 358.553C700.207 358.676 700.64 358.738 701.061 358.738ZM707.146 359.814C706.973 360.087 706.788 360.26 706.59 360.334C706.367 360.433 706.182 360.445 706.033 360.371C705.86 360.322 705.749 360.198 705.699 360C705.65 359.802 705.699 359.555 705.848 359.258C705.922 359.109 706.095 358.775 706.367 358.256C706.615 357.736 706.924 357.118 707.295 356.4C707.641 355.658 708.025 354.867 708.445 354.025C708.866 353.16 709.262 352.343 709.633 351.576C710.029 350.809 710.387 350.129 710.709 349.535C711.031 348.917 711.266 348.471 711.414 348.199C711.142 347.952 710.956 347.779 710.857 347.68C710.758 347.556 710.684 347.309 710.635 346.938C710.585 346.616 710.66 346.195 710.857 345.676C711.055 345.156 711.315 344.661 711.637 344.191C711.958 343.697 712.317 343.276 712.713 342.93C713.109 342.583 713.492 342.41 713.863 342.41C714.556 342.41 715.038 342.633 715.311 343.078C715.607 343.523 715.781 343.981 715.83 344.451C715.88 344.773 715.855 345.181 715.756 345.676C715.657 346.171 715.471 346.616 715.199 347.012C715.273 347.061 715.372 347.123 715.496 347.197C715.62 347.247 715.818 347.271 716.09 347.271C716.486 347.271 716.758 347.247 716.906 347.197C717.079 347.148 717.339 347.123 717.686 347.123C718.106 347.123 718.452 347.234 718.725 347.457C718.997 347.655 719.219 347.915 719.393 348.236C719.566 348.533 719.689 348.867 719.764 349.238C719.863 349.585 719.924 349.906 719.949 350.203C720.023 350.822 719.863 351.465 719.467 352.133C719.071 352.801 718.589 353.531 718.02 354.322C717.673 354.817 717.327 355.374 716.98 355.992C716.634 356.611 716.486 357.167 716.535 357.662C716.585 357.984 716.671 358.243 716.795 358.441C716.919 358.639 717.265 358.738 717.834 358.738C718.255 358.738 718.712 358.59 719.207 358.293C719.727 357.971 720.246 357.576 720.766 357.105C721.31 356.611 721.842 356.079 722.361 355.51C722.881 354.916 723.363 354.347 723.809 353.803C724.254 353.234 724.625 352.727 724.922 352.281C725.243 351.836 725.479 351.514 725.627 351.316C725.751 351.118 725.911 350.982 726.109 350.908C726.307 350.834 726.48 350.834 726.629 350.908C726.777 350.982 726.864 351.131 726.889 351.354C726.938 351.576 726.852 351.873 726.629 352.244C726.48 352.492 726.221 352.887 725.85 353.432C725.503 353.976 725.07 354.582 724.551 355.25C724.056 355.918 723.499 356.611 722.881 357.328C722.262 358.021 721.607 358.664 720.914 359.258C720.246 359.827 719.566 360.297 718.873 360.668C718.205 361.039 717.562 361.225 716.943 361.225C716.3 361.225 715.768 361.101 715.348 360.854C714.927 360.606 714.581 360.309 714.309 359.963C714.061 359.592 713.876 359.196 713.752 358.775C713.653 358.33 713.616 357.922 713.641 357.551C713.665 357.254 713.74 356.945 713.863 356.623C714.012 356.277 714.173 355.93 714.346 355.584C714.544 355.213 714.742 354.854 714.939 354.508C715.162 354.137 715.36 353.778 715.533 353.432C715.954 352.714 716.288 352.108 716.535 351.613C716.807 351.094 716.943 350.661 716.943 350.314C716.943 350.092 716.894 349.894 716.795 349.721C716.696 349.548 716.535 349.461 716.312 349.461C716.164 349.461 716.053 349.473 715.979 349.498C715.929 349.498 715.867 349.498 715.793 349.498C715.743 349.498 715.657 349.51 715.533 349.535C715.434 349.535 715.273 349.535 715.051 349.535C714.729 349.535 714.457 349.486 714.234 349.387C714.012 349.288 713.801 349.214 713.604 349.164C713.505 349.337 713.282 349.708 712.936 350.277C712.589 350.846 712.181 351.514 711.711 352.281C711.266 353.048 710.783 353.852 710.264 354.693C709.769 355.535 709.299 356.326 708.854 357.068C708.408 357.786 708.037 358.404 707.74 358.924C707.419 359.419 707.221 359.715 707.146 359.814ZM732.158 338.143C732.084 338.415 731.936 338.687 731.713 338.959C731.515 339.206 731.28 339.417 731.008 339.59C730.76 339.738 730.501 339.837 730.229 339.887C729.956 339.936 729.734 339.887 729.561 339.738C729.041 339.342 728.769 338.922 728.744 338.477C728.719 338.007 728.831 337.574 729.078 337.178C729.326 336.757 729.635 336.411 730.006 336.139C730.377 335.842 730.699 335.669 730.971 335.619C731.243 335.57 731.465 335.632 731.639 335.805C731.837 335.953 731.985 336.163 732.084 336.436C732.183 336.683 732.232 336.967 732.232 337.289C732.257 337.611 732.232 337.895 732.158 338.143ZM727.037 346.047C727.161 345.898 727.396 345.775 727.742 345.676C728.089 345.577 728.447 345.503 728.818 345.453C729.189 345.379 729.523 345.342 729.82 345.342C730.142 345.317 730.327 345.317 730.377 345.342C730.402 345.367 730.34 345.626 730.191 346.121C730.043 346.616 729.857 347.197 729.635 347.865C729.412 348.533 729.177 349.226 728.93 349.943C728.682 350.636 728.497 351.205 728.373 351.65C728.249 352.096 728.101 352.603 727.928 353.172C727.755 353.716 727.594 354.26 727.445 354.805C727.322 355.324 727.235 355.819 727.186 356.289C727.136 356.759 727.173 357.118 727.297 357.365C727.421 357.662 727.557 357.872 727.705 357.996C727.854 358.095 728.014 358.145 728.188 358.145C728.682 358.145 729.301 357.872 730.043 357.328C730.81 356.784 731.577 356.141 732.344 355.398C733.135 354.632 733.865 353.865 734.533 353.098C735.201 352.306 735.696 351.675 736.018 351.205C736.215 350.958 736.413 350.797 736.611 350.723C736.834 350.648 737.007 350.661 737.131 350.76C737.279 350.859 737.354 351.02 737.354 351.242C737.378 351.465 737.304 351.725 737.131 352.021C736.735 352.714 736.154 353.543 735.387 354.508C734.62 355.448 733.803 356.363 732.938 357.254C732.072 358.12 731.218 358.862 730.377 359.48C729.561 360.099 728.893 360.421 728.373 360.445C727.952 360.47 727.532 360.396 727.111 360.223C726.715 360.074 726.344 359.864 725.998 359.592C725.676 359.295 725.404 358.961 725.182 358.59C724.959 358.194 724.835 357.786 724.811 357.365C724.736 356.747 724.736 355.906 724.811 354.842C724.885 353.753 725.021 352.652 725.219 351.539C725.417 350.401 725.664 349.325 725.961 348.311C726.283 347.296 726.641 346.542 727.037 346.047ZM731.75 375.846C731.577 375.771 731.404 375.66 731.23 375.512C731.082 375.388 730.934 375.227 730.785 375.029C730.637 374.856 730.513 374.633 730.414 374.361C731.107 371.714 731.701 369.413 732.195 367.459C732.665 365.505 733.074 363.872 733.42 362.561C733.791 361.027 734.113 359.74 734.385 358.701C734.632 357.712 734.88 356.722 735.127 355.732C735.325 354.867 735.535 353.939 735.758 352.949C736.005 351.96 736.228 351.032 736.426 350.166C736.673 349.201 736.822 348.434 736.871 347.865C736.921 347.271 736.735 346.764 736.314 346.344C736.611 346.096 736.908 345.911 737.205 345.787C737.527 345.639 737.811 345.54 738.059 345.49C738.331 345.416 738.603 345.391 738.875 345.416C739.543 345.465 739.951 345.676 740.1 346.047C740.273 346.418 740.298 347.012 740.174 347.828C740.149 347.952 740.124 348.063 740.1 348.162C740.1 348.236 740.1 348.323 740.1 348.422C740.446 348.026 740.829 347.643 741.25 347.271C741.671 346.9 742.091 346.566 742.512 346.27C742.957 345.973 743.402 345.738 743.848 345.564C744.318 345.367 744.763 345.268 745.184 345.268C745.753 345.268 746.21 345.416 746.557 345.713C746.928 345.985 747.212 346.356 747.41 346.826C747.608 347.296 747.732 347.828 747.781 348.422C747.831 348.991 747.843 349.56 747.818 350.129C747.794 350.747 747.682 351.403 747.484 352.096C747.311 352.788 747.064 353.493 746.742 354.211C746.421 354.928 746.049 355.633 745.629 356.326C745.208 357.019 744.763 357.662 744.293 358.256C744.392 358.281 744.454 358.305 744.479 358.33C744.503 358.33 744.516 358.342 744.516 358.367C744.516 358.367 744.528 358.38 744.553 358.404C744.602 358.404 744.689 358.404 744.812 358.404C745.382 358.404 745.963 358.256 746.557 357.959C747.15 357.662 747.732 357.291 748.301 356.846C748.87 356.376 749.414 355.868 749.934 355.324C750.478 354.78 750.96 354.26 751.381 353.766C751.826 353.246 752.197 352.788 752.494 352.393C752.791 351.972 753.014 351.675 753.162 351.502C753.36 351.255 753.546 351.094 753.719 351.02C753.892 350.921 754.028 350.908 754.127 350.982C754.226 351.057 754.275 351.205 754.275 351.428C754.275 351.626 754.201 351.885 754.053 352.207C753.954 352.43 753.743 352.788 753.422 353.283C753.1 353.778 752.704 354.335 752.234 354.953C751.764 355.572 751.22 356.215 750.602 356.883C750.008 357.551 749.377 358.157 748.709 358.701C748.041 359.245 747.348 359.691 746.631 360.037C745.938 360.408 745.258 360.594 744.59 360.594C744.268 360.594 744.008 360.581 743.811 360.557C743.613 360.532 743.439 360.482 743.291 360.408C743.167 360.359 743.044 360.297 742.92 360.223C742.796 360.173 742.648 360.111 742.475 360.037C742.029 360.383 741.572 360.643 741.102 360.816C740.632 361.014 740.174 361.113 739.729 361.113C739.308 361.113 738.937 361.039 738.615 360.891C738.318 360.767 738.071 360.581 737.873 360.334C737.675 360.111 737.514 359.864 737.391 359.592C737.267 359.295 737.168 359.01 737.094 358.738C737.069 358.837 737.044 358.924 737.02 358.998C737.02 359.072 737.007 359.171 736.982 359.295C736.686 360.482 736.376 361.855 736.055 363.414C735.783 364.75 735.449 366.37 735.053 368.275C734.682 370.205 734.286 372.395 733.865 374.844C733.717 375.512 733.457 375.895 733.086 375.994C732.69 376.093 732.245 376.044 731.75 375.846ZM738.541 352.838C738.417 353.258 738.281 353.753 738.133 354.322C738.009 354.867 737.861 355.522 737.688 356.289C737.885 356.141 738.108 356.029 738.355 355.955C738.603 355.881 738.85 355.844 739.098 355.844C739.37 355.844 739.716 355.992 740.137 356.289C740.557 356.561 741.064 356.858 741.658 357.18C742.029 356.734 742.413 356.24 742.809 355.695C743.229 355.126 743.6 354.545 743.922 353.951C744.268 353.357 744.553 352.751 744.775 352.133C745.023 351.514 745.159 350.921 745.184 350.352C745.233 349.609 745.146 349.028 744.924 348.607C744.701 348.187 744.33 347.977 743.811 347.977C743.044 347.977 742.202 348.434 741.287 349.35C740.396 350.24 739.481 351.403 738.541 352.838ZM765.26 350.611C765.359 350.463 765.482 350.376 765.631 350.352C765.804 350.302 765.94 350.314 766.039 350.389C766.138 350.463 766.188 350.587 766.188 350.76C766.212 350.933 766.15 351.168 766.002 351.465C765.507 352.405 764.852 353.419 764.035 354.508C763.243 355.596 762.402 356.623 761.512 357.588C760.621 358.528 759.755 359.307 758.914 359.926C758.073 360.544 757.368 360.854 756.799 360.854C755.982 360.854 755.302 360.693 754.758 360.371C754.214 360.049 753.781 359.654 753.459 359.184C753.162 358.714 752.952 358.206 752.828 357.662C752.704 357.093 752.667 356.574 752.717 356.104C752.742 355.708 752.828 355.003 752.977 353.988C753.125 352.949 753.323 351.762 753.57 350.426C753.818 349.065 754.09 347.618 754.387 346.084C754.708 344.525 755.042 343.029 755.389 341.594C754.968 341.643 754.548 341.693 754.127 341.742C753.706 341.792 753.323 341.816 752.977 341.816C752.185 341.816 751.443 341.73 750.75 341.557C750.033 341.359 749.501 341.173 749.154 341C748.956 340.901 748.87 340.765 748.895 340.592C748.919 340.394 748.993 340.208 749.117 340.035C749.241 339.837 749.402 339.676 749.6 339.553C749.773 339.404 749.934 339.33 750.082 339.33C750.552 339.38 751.059 339.429 751.604 339.479C752.148 339.503 752.742 339.503 753.385 339.479C753.855 339.454 754.3 339.417 754.721 339.367C755.166 339.318 755.599 339.256 756.02 339.182C756.341 337.994 756.65 336.967 756.947 336.102C757.269 335.211 757.553 334.592 757.801 334.246C757.875 334.122 758.036 334.023 758.283 333.949C758.555 333.85 758.84 333.788 759.137 333.764C759.434 333.714 759.718 333.714 759.99 333.764C760.262 333.788 760.46 333.875 760.584 334.023C760.708 334.221 760.757 334.729 760.732 335.545C760.708 336.361 760.572 337.4 760.324 338.662C761.363 338.662 762.279 338.724 763.07 338.848C763.887 338.947 764.579 339.07 765.148 339.219C765.717 339.342 766.175 339.479 766.521 339.627C766.868 339.751 767.128 339.837 767.301 339.887C767.474 339.936 767.561 340.06 767.561 340.258C767.585 340.456 767.548 340.666 767.449 340.889C767.375 341.087 767.239 341.26 767.041 341.408C766.843 341.557 766.62 341.606 766.373 341.557C766.126 341.532 765.841 341.482 765.52 341.408C765.223 341.334 764.852 341.272 764.406 341.223C763.986 341.173 763.479 341.124 762.885 341.074C762.291 341.025 761.598 341 760.807 341C760.658 341 760.485 341.012 760.287 341.037C760.114 341.037 759.928 341.037 759.73 341.037C759.632 341.433 759.533 341.829 759.434 342.225C759.359 342.596 759.248 342.992 759.1 343.412C758.778 344.402 758.407 345.478 757.986 346.641C757.615 347.655 757.17 348.818 756.65 350.129C756.131 351.44 755.549 352.838 754.906 354.322C754.758 355.386 754.77 356.202 754.943 356.771C755.141 357.316 755.376 357.712 755.648 357.959C755.97 358.231 756.366 358.38 756.836 358.404C757.207 358.454 757.652 358.33 758.172 358.033C758.716 357.712 759.273 357.291 759.842 356.771C760.411 356.252 760.98 355.683 761.549 355.064C762.143 354.446 762.687 353.84 763.182 353.246C763.676 352.652 764.109 352.12 764.48 351.65C764.852 351.156 765.111 350.809 765.26 350.611Z" fill="black"/>
</g>
<defs>
<clipPath id="clip0">
<rect width="1041.32" height="554.17" fill="white"/>
</clipPath>
</defs>
</svg>
