<svg width="1042" height="555" viewBox="0 0 1042 555" fill="none" xmlns="http://www.w3.org/2000/svg">
<g clip-path="url(#clip0)">
<g opacity="0.1">
<path opacity="0.1" d="M185.99 49.42V559.04L143.66 559.5C134.627 559.602 125.631 558.314 116.99 555.68V111.42H117.06C137.85 85.87 161.16 64.55 185.99 49.42Z" fill="#00B0FF"/>
<path opacity="0.1" d="M1060.99 122.5H108.35C111.183 118.74 114.063 115.073 116.99 111.5V111.42H1058.62C1059.53 115.04 1060.32 118.733 1060.99 122.5Z" fill="#00B0FF"/>
<path opacity="0.1" d="M984.57 23.93V450.93H981.1C979.3 454.71 977.523 458.417 975.77 462.05C974.99 463.66 974.21 465.24 973.45 466.82V19.89C977.297 21.13 981.003 22.4767 984.57 23.93Z" fill="#00B0FF"/>
<path opacity="0.1" d="M719.96 19V553.25L708.84 553.37V21.28C712.53 20.5 716.23 19.73 719.96 19Z" fill="#00B0FF"/>
<path opacity="0.1" d="M452.97 68.57V556.15L441.86 556.27V68.04C445.57 68.28 449.28 68.42 452.97 68.57Z" fill="#00B0FF"/>
<path opacity="0.1" d="M981.1 450.94C979.3 454.72 977.523 458.427 975.77 462.06H37.6C36.3133 458.4 35.1133 454.693 34 450.94H981.1Z" fill="#00B0FF"/>
<path d="M285.09 402.804C286.471 402.804 287.59 401.685 287.59 400.304C287.59 398.923 286.471 397.804 285.09 397.804C283.709 397.804 282.59 398.923 282.59 400.304C282.59 401.685 283.709 402.804 285.09 402.804Z" fill="#007ACC"/>
<path d="M285.09 406.036C282.085 406.109 279.088 405.704 276.21 404.836C274.881 404.415 273.641 403.751 272.553 402.878C272.138 402.58 271.792 402.196 271.54 401.751C271.287 401.307 271.134 400.813 271.09 400.304C271.09 398.651 272.906 397.031 275.948 395.971C278.903 395.032 281.99 394.577 285.09 394.623C288.149 394.58 291.195 395.027 294.112 395.947C295.392 396.355 296.59 396.987 297.65 397.813C298.058 398.097 298.398 398.468 298.647 398.898C298.896 399.329 299.047 399.809 299.09 400.304C299.09 402.022 297.06 403.763 293.79 404.845C290.968 405.684 288.034 406.086 285.09 406.036ZM285.09 395.819C282.124 395.779 279.171 396.212 276.341 397.101C273.541 398.078 272.286 399.414 272.286 400.301C272.286 401.229 273.635 402.688 276.597 403.701C279.35 404.527 282.217 404.911 285.09 404.84C287.906 404.89 290.714 404.509 293.415 403.71C296.49 402.691 297.89 401.23 297.89 400.304C297.84 399.986 297.724 399.682 297.55 399.412C297.376 399.141 297.148 398.909 296.88 398.731C295.932 397.998 294.862 397.438 293.719 397.077C290.928 396.201 288.015 395.776 285.09 395.819Z" fill="#007ACC"/>
<path d="M279.41 412.773C278.944 412.784 278.483 412.671 278.074 412.445C276.642 411.619 276.146 409.237 276.747 406.072C277.41 403.043 278.558 400.141 280.147 397.479C281.638 394.808 283.546 392.393 285.8 390.325C286.793 389.42 287.939 388.698 289.184 388.192C289.634 387.981 290.126 387.872 290.623 387.872C291.12 387.872 291.612 387.981 292.062 388.192C293.551 389.05 294.044 391.678 293.349 395.051C292.666 397.916 291.548 400.658 290.033 403.184C288.595 405.823 286.746 408.218 284.557 410.277C283.528 411.218 282.333 411.96 281.034 412.466C280.514 412.659 279.965 412.763 279.41 412.773ZM281.183 398.073C279.667 400.622 278.567 403.397 277.923 406.292C277.37 409.207 277.901 410.96 278.673 411.406C279.473 411.869 281.415 411.43 283.773 409.37C285.863 407.397 287.627 405.105 289 402.58C290.451 400.166 291.524 397.543 292.181 394.804C292.835 391.629 292.27 389.685 291.468 389.223C291.167 389.108 290.846 389.056 290.525 389.072C290.203 389.087 289.888 389.169 289.6 389.312C288.492 389.769 287.473 390.419 286.59 391.23C284.437 393.211 282.614 395.523 281.19 398.079L281.183 398.073Z" fill="#007ACC"/>
<path d="M290.767 412.786C289.412 412.786 287.691 411.966 285.899 410.425C283.606 408.338 281.665 405.894 280.152 403.188C278.583 400.562 277.444 397.703 276.778 394.717C276.489 393.404 276.436 392.049 276.62 390.717C276.663 390.223 276.813 389.744 277.061 389.314C277.309 388.885 277.648 388.514 278.054 388.23C279.541 387.369 282.064 388.254 284.639 390.54C286.78 392.562 288.597 394.901 290.029 397.474C291.597 400.038 292.748 402.836 293.439 405.761C293.74 407.123 293.787 408.528 293.576 409.907C293.526 410.415 293.366 410.907 293.109 411.348C292.851 411.789 292.501 412.169 292.082 412.462C291.68 412.685 291.226 412.797 290.767 412.786ZM281.187 402.586C282.638 405.172 284.492 407.511 286.679 409.515C288.928 411.45 290.712 411.866 291.479 411.415C292.279 410.95 292.869 409.052 292.261 405.981C291.595 403.188 290.491 400.518 288.99 398.07C287.624 395.607 285.889 393.368 283.845 391.43C281.421 389.278 279.455 388.797 278.654 389.261C278.404 389.464 278.2 389.716 278.052 390.002C277.905 390.289 277.819 390.602 277.799 390.923C277.64 392.111 277.692 393.318 277.952 394.488C278.592 397.343 279.685 400.078 281.188 402.588L281.187 402.586Z" fill="#007ACC"/>
</g>
<path d="M230.6 265.83H211.6V323.49H230.6V265.83Z" fill="#3F3D56"/>
<path d="M741.93 262.83H722.93V323.83H741.93V262.83Z" fill="#3F3D56"/>
<path d="M863.1 533.65V546.65L711.18 548.05L709.56 548.08L651.82 548.61L650.44 548.63L632.89 548.78H632.37L525.39 549.77L349.78 551.4H349.63L304.98 551.82L304.5 551.83L106.1 553.65V538.65L152.75 510.65L246.35 509.87L248.35 509.86L249.01 509.85L251.01 509.82L295.95 509.45L297.96 509.44L298.6 509.43L300.6 509.42L315.01 509.3L315.39 509.29L350.94 508.99H351.23L628.63 506.65L635.42 506.6H636.1L641.28 506.55L678.93 506.24L680.93 506.21L682.78 506.19H683.74L695.45 506.1L697.77 506.07L700.88 506.05L710.63 505.96L726.1 505.83L728.1 505.81L731.58 505.79H732.23L806.94 505.15L863.1 533.65Z" fill="#65617D"/>
<path opacity="0.2" d="M863.1 533.65V546.65L711.18 548.05L709.56 548.08L651.82 548.61L650.44 548.63L632.89 548.78H632.37L525.39 549.77L349.78 551.4H349.63L304.98 551.82L304.5 551.83L106.1 553.65V538.65L152.75 510.65L246.35 509.87L248.35 509.86L249.01 509.85L251.01 509.82L295.95 509.45L297.96 509.44L298.6 509.43L300.6 509.42L315.01 509.3L315.39 509.29L350.94 508.99H351.23L628.63 506.65L635.42 506.6H636.1L641.28 506.55L678.93 506.24L680.93 506.21L682.78 506.19H683.74L695.45 506.1L697.77 506.07L700.88 506.05L710.63 505.96L726.1 505.83L728.1 505.81L731.58 505.79H732.23L806.94 505.15L863.1 533.65Z" fill="black"/>
<path d="M296.1 483.66V508.15C296.101 509.31 295.772 510.446 295.152 511.427C294.533 512.408 293.648 513.192 292.6 513.69C291.82 514.068 290.967 514.273 290.1 514.29L255.2 515.03C254.268 515.052 253.343 514.857 252.5 514.46C251.434 513.971 250.53 513.186 249.897 512.199C249.265 511.211 248.929 510.063 248.93 508.89V483.66H296.1Z" fill="#3F3D56"/>
<path opacity="0.1" d="M296.1 483.66V508.15C296.101 509.31 295.772 510.446 295.152 511.427C294.533 512.408 293.648 513.192 292.6 513.69C291.82 514.068 290.967 514.273 290.1 514.29L255.2 515.03C254.268 515.052 253.343 514.857 252.5 514.46C251.434 513.971 250.53 513.186 249.897 512.199C249.265 511.211 248.929 510.063 248.93 508.89V483.66H296.1Z" fill="black"/>
<path d="M298.1 483.66V508.15C298.101 509.31 297.772 510.446 297.152 511.427C296.533 512.408 295.648 513.192 294.6 513.69C293.82 514.068 292.967 514.273 292.1 514.29L257.2 515.03C256.268 515.052 255.343 514.857 254.5 514.46C253.434 513.971 252.53 513.186 251.897 512.199C251.265 511.211 250.929 510.063 250.93 508.89V483.66H298.1Z" fill="#3F3D56"/>
<path d="M728.1 483.66H680.93V515.16H728.1V483.66Z" fill="#3F3D56"/>
<path opacity="0.1" d="M728.1 483.66H680.93V515.16H728.1V483.66Z" fill="black"/>
<path d="M726.1 483.66H678.93V515.16H726.1V483.66Z" fill="#3F3D56"/>
<path opacity="0.1" d="M230.6 265.82V271.55L211.6 271.06V265.82H230.6Z" fill="black"/>
<path d="M355.66 104.4L332.83 268.4C332.685 269.448 332.16 270.405 331.353 271.089C330.547 271.774 329.517 272.137 328.46 272.11L145.66 267.37L142.19 267.28C141.586 267.266 140.991 267.124 140.446 266.865C139.9 266.605 139.415 266.234 139.022 265.774C138.63 265.315 138.339 264.777 138.168 264.198C137.997 263.618 137.95 263.009 138.03 262.41L163.66 90.73C163.825 89.6666 164.383 88.7037 165.224 88.0317C166.064 87.3596 167.126 87.0272 168.2 87.1L351.66 99.52C352.252 99.5543 352.83 99.7109 353.359 99.98C353.887 100.249 354.354 100.625 354.73 101.083C355.105 101.542 355.382 102.073 355.542 102.644C355.702 103.215 355.743 103.813 355.66 104.4Z" fill="#65617D"/>
<path d="M175.93 99.16L156.6 250.49L324.6 255.82L345.26 109.82L175.93 99.16Z" fill="#00B0FF"/>
<path d="M583.94 96.82H389.93C386.986 96.82 384.6 99.2063 384.6 102.15V264.82C384.6 267.764 386.986 270.15 389.93 270.15H583.94C586.884 270.15 589.27 267.764 589.27 264.82V102.15C589.27 99.2063 586.884 96.82 583.94 96.82Z" fill="#65617D"/>
<path d="M580.26 108.49H394.26V252.82H580.26V108.49Z" fill="#00B0FF"/>
<path opacity="0.1" d="M741.93 262.82V266.61L722.93 267V262.82H741.93Z" fill="black"/>
<path d="M827.66 259.62C827.687 260.034 827.63 260.45 827.492 260.842C827.355 261.233 827.139 261.593 826.859 261.9C826.579 262.206 826.24 262.453 825.862 262.624C825.484 262.796 825.075 262.89 824.66 262.9L637.46 266.77C636.682 266.786 635.927 266.507 635.347 265.99C634.766 265.472 634.403 264.754 634.33 263.98L618.24 96.7C618.2 96.2849 618.245 95.8662 618.372 95.4691C618.499 95.0719 618.705 94.7047 618.978 94.3896C619.251 94.0745 619.585 93.8181 619.96 93.636C620.335 93.4538 620.744 93.3497 621.16 93.33L806.94 84.09L808.94 83.99C809.735 83.9481 810.515 84.2167 811.116 84.7391C811.717 85.2615 812.091 85.9969 812.16 86.79L827.66 259.62Z" fill="#65617D"/>
<path d="M628.93 103.16L798.6 94.82L812.93 246.82L644.6 250.82L628.93 103.16Z" fill="#00B0FF"/>
<path opacity="0.1" d="M827.66 259.62C827.687 260.034 827.63 260.45 827.492 260.842C827.355 261.233 827.139 261.593 826.859 261.9C826.579 262.206 826.24 262.453 825.862 262.624C825.484 262.796 825.075 262.89 824.66 262.9L806.94 84.09L808.94 83.99C809.735 83.9481 810.515 84.2167 811.116 84.7391C811.717 85.2615 812.091 85.9969 812.16 86.79L827.66 259.62Z" fill="black"/>
<path opacity="0.1" d="M168.23 87.09L145.66 267.37L142.19 267.28C141.586 267.266 140.991 267.124 140.446 266.865C139.9 266.605 139.415 266.234 139.022 265.774C138.63 265.315 138.339 264.777 138.168 264.198C137.997 263.618 137.95 263.009 138.03 262.41L163.66 90.73C163.823 89.6592 164.385 88.6895 165.232 88.0147C166.079 87.3398 167.15 87.0096 168.23 87.09Z" fill="black"/>
<path opacity="0.1" d="M230.6 306.41H211.6V323.49H230.6V306.41Z" fill="black"/>
<path opacity="0.1" d="M298.1 483.65V488.62L250.93 489.88V483.65H298.1Z" fill="black"/>
<path d="M381.35 312.36V480.56C381.338 481.587 380.931 482.569 380.215 483.305C379.498 484.04 378.526 484.472 377.5 484.51L185.85 489.61H185.8C184.756 489.597 183.759 489.177 183.021 488.439C182.283 487.701 181.863 486.704 181.85 485.66V312.36C181.863 311.316 182.283 310.319 183.021 309.581C183.759 308.843 184.756 308.423 185.8 308.41H377.4C378.444 308.423 379.441 308.843 380.179 309.581C380.917 310.319 381.337 311.316 381.35 312.36Z" fill="#65617D"/>
<path opacity="0.1" d="M185.85 308.41V489.61H185.8C184.756 489.597 183.759 489.177 183.021 488.439C182.283 487.701 181.863 486.704 181.85 485.66V312.36C181.863 311.316 182.283 310.319 183.021 309.581C183.759 308.843 184.756 308.423 185.8 308.41H185.85Z" fill="black"/>
<path d="M194.6 319.15H372.1V467.4L194.6 471.4V319.15Z" fill="#D4DFEC"/>
<path opacity="0.1" d="M741.93 306.41H722.93V323.83H741.93V306.41Z" fill="black"/>
<path opacity="0.1" d="M726.1 483.65V490.06L678.93 488.8V483.65H726.1Z" fill="black"/>
<path d="M788.35 312.36V485.66C788.337 486.712 787.91 487.717 787.161 488.456C786.412 489.196 785.402 489.61 784.35 489.61L592.66 484.51C591.634 484.472 590.662 484.04 589.945 483.305C589.229 482.569 588.822 481.587 588.81 480.56V312.36C588.823 311.316 589.243 310.319 589.981 309.581C590.719 308.843 591.716 308.423 592.76 308.41H784.36C785.411 308.413 786.418 308.828 787.164 309.567C787.911 310.306 788.337 311.31 788.35 312.36Z" fill="#65617D"/>
<path opacity="0.1" d="M788.35 312.36V485.66C788.337 486.712 787.91 487.717 787.161 488.456C786.412 489.196 785.402 489.61 784.35 489.61V308.41C785.402 308.41 786.412 308.825 787.161 309.564C787.91 310.303 788.337 311.308 788.35 312.36Z" fill="black"/>
<path d="M777.5 317H600V465.25L777.5 469.25V317Z" fill="#D4DFEC"/>
<path d="M583.85 312.36V480.56C583.838 481.587 583.431 482.569 582.715 483.305C581.998 484.04 581.026 484.472 580 484.51L388.35 489.61C387.298 489.61 386.288 489.196 385.539 488.456C384.79 487.717 384.363 486.712 384.35 485.66V312.36C384.363 311.316 384.783 310.319 385.521 309.581C386.259 308.843 387.256 308.423 388.3 308.41H579.9C580.944 308.423 581.941 308.843 582.679 309.581C583.417 310.319 583.837 311.316 583.85 312.36Z" fill="#65617D"/>
<path d="M397.1 319.15H574.6V467.4L397.1 471.4V319.15Z" fill="#D4DFEC"/>
<path opacity="0.1" d="M863.1 533.65V546.65L711.18 548.05L709.56 548.08L651.82 548.61L650.44 548.63L632.89 548.78H632.37L525.39 549.77L349.78 551.4H349.63L304.98 551.82L304.5 551.83L106.1 553.65V538.65L308.61 537.32H309.09L350.08 537.04H350.27L633.35 535.17H633.64L633.81 535.16H634.28L639.07 535.13H640.53L715.02 534.63L719.42 534.61L720.4 534.6L863.1 533.65Z" fill="black"/>
<path d="M487.26 323.49C515.609 323.49 538.59 300.509 538.59 272.16C538.59 243.811 515.609 220.83 487.26 220.83C458.911 220.83 435.93 243.811 435.93 272.16C435.93 300.509 458.911 323.49 487.26 323.49Z" fill="#FBBEBE"/>
<path d="M538.6 377.16C538.6 377.16 439.1 389.16 448.6 377.16C452.04 372.82 452.99 359.96 452.8 345.31C452.74 340.86 452.58 336.25 452.35 331.66C451.25 309.66 448.6 288.16 448.6 288.16C448.6 288.16 535.6 247.16 525.6 279.66C521.6 292.79 522.91 311.23 525.95 328.54C526.84 333.59 527.87 338.54 528.95 343.24C531.586 354.704 534.807 366.025 538.6 377.16Z" fill="#FBBEBE"/>
<path opacity="0.1" d="M538.6 377.16C538.6 377.16 439.1 389.16 448.6 377.16C452.04 372.82 452.99 359.96 452.8 345.31C467.97 338.83 487.27 343.66 487.27 343.66C507.59 339.61 520.62 340.4 528.95 343.24C531.586 354.704 534.807 366.025 538.6 377.16Z" fill="black"/>
<path d="M349.74 552.53V551.69L525.36 549.78L632.36 548.78H632.66L632.55 550.26L632.7 548.78H632.89V548.61L634.26 535.16L634.78 530.07L634.94 528.48L635.08 527.15L641.26 506.54L647.44 485.96L652.64 468.63L660.58 442.15C660.58 442.15 656.08 431.65 653.58 428.65C651.08 425.65 648.58 405.15 648.58 405.15C648.58 405.15 627.24 384.82 617.91 382.48C614 381.48 606.28 380.15 598.08 378.48C595.01 377.86 591.86 377.2 588.83 376.48C587.12 376.09 585.44 375.68 583.83 375.27C580.696 374.487 577.608 373.533 574.58 372.41C572.992 371.833 571.481 371.064 570.08 370.12C562.73 364.73 544.31 364.12 543.6 364.12C543.598 364.097 543.598 364.073 543.6 364.05V363.96C543.626 363.54 543.626 363.12 543.6 362.7C543.6 362.3 543.6 361.83 543.51 361.3C543.51 361.14 543.51 360.97 543.44 360.8C543.39 360.44 543.33 360.06 543.24 359.66C543.21 359.481 543.17 359.304 543.12 359.13C542.83 357.925 542.411 356.755 541.87 355.64C541.8 355.48 541.71 355.31 541.63 355.15C541.14 354.226 540.571 353.346 539.93 352.52C539.8 352.35 539.66 352.17 539.51 352C538.691 351.034 537.78 350.15 536.79 349.36C536.52 349.15 536.24 348.93 535.95 348.73C535.788 348.599 535.618 348.478 535.44 348.37L534.55 347.79L533.72 347.31C532.99 346.91 532.22 346.52 531.38 346.15C531.12 346.03 530.84 345.92 530.56 345.81C530.28 345.7 529.84 345.53 529.47 345.39H529.41L528.66 345.09C528.09 344.9 527.51 344.73 526.9 344.56L525.97 344.32L524.97 344.09L523.97 343.88C522.97 343.68 521.9 343.5 520.78 343.36L519.64 343.22L518.47 343.1L517.26 343L515.54 342.9L513.54 342.83C504.719 342.829 495.923 343.764 487.3 345.62C481.309 344.287 475.173 343.722 469.04 343.94H468.17L467.17 344H466.53L465.24 344.12C464.81 344.12 464.37 344.21 463.94 344.27C463.51 344.33 463.06 344.38 462.63 344.45L461.97 344.56C461.32 344.67 460.66 344.79 459.97 344.93C459.75 344.97 459.53 345.02 459.31 345.08C458.44 345.27 457.57 345.5 456.71 345.76C456.28 345.88 455.85 346.02 455.42 346.17C455.2 346.23 454.99 346.31 454.78 346.39L454.14 346.62L453.51 346.87L452.76 347.17C452.38 347.33 452.01 347.5 451.64 347.68C451.43 347.77 451.22 347.87 451.02 347.98C450.82 348.09 450.61 348.18 450.42 348.29C448.159 349.458 446.069 350.932 444.21 352.67L443.7 353.16L443.2 353.67C443.03 353.84 442.87 354.02 442.71 354.2C442.058 354.912 441.45 355.664 440.89 356.45C440.73 356.66 440.58 356.87 440.43 357.09C439.795 358.026 439.221 359.001 438.71 360.01C438.58 360.25 438.46 360.5 438.34 360.74C437.524 362.429 436.855 364.186 436.34 365.99C436.153 366.657 435.983 367.323 435.83 367.99C435.83 367.99 414.66 377.33 397.1 384.09C392.43 385.89 388.03 387.52 384.35 388.75C383.28 389.11 382.28 389.44 381.35 389.75C379.332 390.479 377.234 390.963 375.1 391.19C374.094 391.206 373.091 391.3 372.1 391.47C364.03 392.78 350.2 398.47 348.69 404.18C348.567 404.636 348.533 405.111 348.59 405.58C348.59 405.58 348.59 405.65 348.59 405.69C349.59 412.69 342.59 411.69 342.59 411.69C342.59 411.69 340.09 430.19 336.59 435.19C334.06 438.79 332.33 446.82 332.11 452.88C331.984 454.768 332.132 456.664 332.55 458.51C332.55 458.56 332.55 458.61 332.55 458.65C332.95 459.99 331.99 463.65 330.36 468.34C328.59 473.49 326.01 479.89 323.53 485.93C319.79 495.05 316.27 503.33 316.05 505.15C315.96 505.96 315.7 507.41 315.34 509.28C313.88 516.9 310.64 531.41 309.04 537.28C307.85 541.66 306.12 547.66 304.93 551.78C304.93 551.9 304.86 552.02 304.83 552.13L349.66 551.69V552.53H349.8H349.74Z" fill="#00B0FF"/>
<path opacity="0.1" d="M366.1 434.66C366.1 434.66 423.1 464.16 443.6 460.66L366.1 434.66Z" fill="black"/>
<path opacity="0.1" d="M482.1 422.66C482.1 422.66 537.6 440.66 556.1 443.16C574.6 445.66 482.1 422.66 482.1 422.66Z" fill="black"/>
<path opacity="0.1" d="M543.66 364.74C514.66 370.08 460.06 368.93 436.46 368.12C445.11 337.12 487.29 347.66 487.29 347.66C539.5 337.24 543.5 358.86 543.66 364.74Z" fill="black"/>
<path d="M697.6 499.41C697.6 499.41 731.76 494.16 732.43 509.16C733.1 524.16 715.01 534.64 715.01 534.64L697.6 499.41Z" fill="#FBBEBE"/>
<path opacity="0.1" d="M525.95 328.54C524.481 329.197 522.979 329.777 521.45 330.28C510.67 334 499.8 337.75 488.45 339.11C477.1 340.47 465.19 339.27 455.29 333.61C454.251 333.023 453.249 332.372 452.29 331.66C451.19 309.66 448.54 288.16 448.54 288.16C448.54 288.16 535.54 247.16 525.54 279.66C521.56 292.79 522.91 311.23 525.95 328.54Z" fill="#ECF76F" fill-opacity="0.78"/>
<path d="M473.18 191.93C471.753 192.307 470.257 192.345 468.813 192.041C467.368 191.737 466.014 191.1 464.86 190.18L466.94 193.07C465.714 193.211 464.472 193.083 463.301 192.695C462.13 192.306 461.058 191.666 460.16 190.82C459.971 193.407 460.079 196.007 460.48 198.57C457.038 198.736 453.65 197.673 450.92 195.57C450.867 196.472 451.091 197.369 451.563 198.14C452.035 198.91 452.732 199.518 453.56 199.88C450.103 199.467 446.613 200.326 443.743 202.297C440.872 204.267 438.817 207.215 437.96 210.59L443.18 211.07C439.078 211.946 435.396 214.193 432.74 217.44C431.14 219.44 429.92 222 430.62 224.44C431.32 226.88 434.7 228.44 436.54 226.7C433.923 229.824 432.02 233.483 430.967 237.42C429.913 241.356 429.733 245.476 430.44 249.49C430.915 251.2 431.071 252.983 430.9 254.75C430.57 256.4 429.53 257.83 429.01 259.44C428.01 262.36 428.96 265.53 429.85 268.44L434.54 283.86C436.24 289.43 437.93 295.01 440.15 300.4C441.722 303.808 443.059 307.319 444.15 310.91C445.41 315.75 445.46 321.05 448.15 325.28C449.994 327.942 452.458 330.115 455.33 331.61C465.22 337.27 477.17 338.47 488.49 337.11C499.81 335.75 510.67 332 521.44 328.28C523.833 327.559 526.129 326.552 528.28 325.28C535.73 320.4 537.39 310.42 538.78 301.63C540.33 291.83 542.4 282.05 546.07 272.83C548.25 267.34 551.07 261.77 550.59 255.89C549.98 248.08 543.8 241.75 542.27 234.07C541.758 231.503 541.782 228.857 542.34 226.3C542.814 224.776 543.08 223.195 543.13 221.6C542.96 218.38 540.32 215.9 537.84 213.83C532.46 209.337 526.907 205.09 521.18 201.09C520.89 199.09 523.61 198.23 524.84 196.65C526.58 194.42 524.78 190.88 522.14 189.84C519.5 188.8 516.54 189.48 513.79 190.17C513.969 188.762 513.689 187.335 512.992 186.099C512.294 184.863 511.217 183.885 509.919 183.311C508.621 182.737 507.173 182.597 505.79 182.912C504.406 183.227 503.161 183.981 502.24 185.06C501.51 183.385 500.343 181.938 498.862 180.868C497.381 179.799 495.639 179.146 493.82 178.98C487.19 178.46 487.06 183.53 482.82 186.32C478.58 189.11 475.08 185.43 471.82 182.75C471.221 184.265 471.031 185.911 471.27 187.522C471.509 189.134 472.168 190.654 473.18 191.93Z" fill="#3F3D56"/>
<path d="M722.93 529.41C722.93 529.41 722.04 531.53 720.4 534.6C717.919 539.323 714.899 543.743 711.4 547.77L711.13 548.06H709.51L651.77 548.59H650.39L650.22 548.39L639.02 535.1L634.8 530.09L634.63 529.88L634.27 529.46L634.07 529.22L633.81 528.91L625.6 519.17L628.6 506.67L633.71 485.61L633.84 485.1L634.84 481.1L635.55 478.1L637.93 468.32L646.09 434.67L660.59 442.17L675.88 469.17L684.09 483.67H688.59C689.44 483.67 691.39 485.31 693.35 487.2C694.05 487.87 694.75 488.58 695.35 489.2C697.13 491.04 698.54 492.62 698.54 492.62C698.54 492.62 705.83 492.78 707.79 498.52C707.891 498.798 707.975 499.082 708.04 499.37C708.691 501.626 709.537 503.821 710.57 505.93C711.86 508.74 713.48 511.93 715.12 515.12C718.17 520.97 721.27 526.54 722.41 528.56L722.55 528.81L722.93 529.41Z" fill="#00B0FF"/>
<path opacity="0.1" d="M637.03 484.26L636.93 485.69V485.79L636.76 488.09L635.43 506.6L633.82 528.9L633.36 535.18L632.36 548.62V548.79L525.36 549.79L349.77 551.69V552.53H349.63V551.69V551.41L350.08 537.05L350.94 508.99L351.68 485.2L351.75 482.83C351.794 481.4 352.129 479.993 352.734 478.696C353.34 477.4 354.203 476.24 355.272 475.288C356.341 474.336 357.592 473.612 358.95 473.161C360.308 472.709 361.744 472.538 363.17 472.66C367.89 473.06 374.02 473.55 381.35 474.07L384.35 474.29C426.68 477.23 504.91 481.03 583.85 476.29C585.51 476.2 587.18 476.1 588.85 475.98C601.09 475.21 613.32 474.22 625.43 472.98C626.961 472.82 628.508 472.997 629.963 473.499C631.418 474.001 632.746 474.817 633.851 475.887C634.957 476.958 635.815 478.258 636.364 479.696C636.913 481.134 637.141 482.675 637.03 484.21V484.26Z" fill="black"/>
<path d="M349.74 552.53V551.69L525.36 549.78L632.36 548.78H632.66V548.61L633.66 535.17L634.09 529.17L635.73 506.56L637.02 488.66V488.22C637.08 487.395 637.043 486.566 636.91 485.75C636.916 485.717 636.916 485.683 636.91 485.65C636.635 483.962 635.948 482.368 634.91 481.01C633.809 479.598 632.366 478.49 630.718 477.79C629.07 477.09 627.271 476.822 625.49 477.01C613.38 478.25 601.15 479.24 588.91 480.01C587.24 480.13 585.57 480.23 583.91 480.32C504.97 485.01 426.74 481.21 384.41 478.32L381.41 478.1C374.08 477.58 367.95 477.1 363.23 476.69C360.633 476.471 358.048 477.221 355.972 478.797C353.896 480.372 352.478 482.66 351.99 485.22C351.889 485.761 351.829 486.31 351.81 486.86L351.13 509.02L350.2 537.09L349.76 551.45V551.73V552.57L349.74 552.53Z" fill="#3F3D56"/>
<path opacity="0.1" d="M637.33 491.27L636.1 506.6L634.27 529.45L633.81 535.17L632.81 547.98L632.75 548.62V548.79L632.6 550.27L632.71 548.79H632.42L525.42 549.79L349.77 551.69V551.41L350.26 537.05L351.26 508.99L351.9 490.34C351.931 489.279 352.228 488.243 352.762 487.326C353.297 486.409 354.052 485.64 354.96 485.09C356.092 484.396 357.416 484.081 358.74 484.19C360.84 484.36 363.42 484.56 366.43 484.78C371.32 485.14 377.35 485.56 384.37 486C397.37 486.82 413.68 487.7 432.37 488.42C484.37 490.42 554.57 491.09 621.25 485.25C624.25 484.99 627.35 484.7 630.38 484.41C631.579 484.29 632.788 484.52 633.86 485.07C634.164 485.221 634.452 485.402 634.72 485.61C635.591 486.241 636.28 487.089 636.72 488.07C636.822 488.265 636.906 488.469 636.97 488.68C637.27 489.509 637.393 490.391 637.33 491.27Z" fill="black"/>
<path opacity="0.1" d="M298.1 504.96V508.15C298.101 509.31 297.772 510.446 297.152 511.427C296.533 512.408 295.648 513.192 294.6 513.69L254.5 514.46C253.434 513.971 252.53 513.186 251.897 512.199C251.265 511.211 250.929 510.063 250.93 508.89V505.89L298.1 504.96Z" fill="black"/>
<path d="M298.6 515.57L246.35 516.57V507.9L298.6 506.9V515.57Z" fill="#3F3D56"/>
<path opacity="0.1" d="M298.6 515.57L246.35 516.57V507.9L298.6 506.9V515.57Z" fill="black"/>
<path d="M300.6 515.57L248.35 516.57V507.9L300.6 506.9V515.57Z" fill="#3F3D56"/>
<g opacity="0.1">
<path opacity="0.1" d="M473.59 188.65C472.613 187.381 471.964 185.89 471.7 184.31C471.459 185.855 471.603 187.435 472.12 188.91C472.616 188.864 473.108 188.777 473.59 188.65Z" fill="black"/>
<path opacity="0.1" d="M460.89 195.29C460.701 194.064 460.578 192.829 460.52 191.59C460.52 192.82 460.52 194.06 460.52 195.3L460.89 195.29Z" fill="black"/>
<path opacity="0.1" d="M542.39 228.66C542.445 227.769 542.566 226.883 542.75 226.01C543.223 224.489 543.492 222.912 543.55 221.32C543.528 220.963 543.474 220.608 543.39 220.26C543.22 221.18 542.95 222.1 542.75 223.01C542.351 224.865 542.229 226.769 542.39 228.66Z" fill="black"/>
<path opacity="0.1" d="M521.59 197.76L522.68 198.55C523.599 197.885 524.459 197.143 525.25 196.33C525.626 195.81 525.859 195.199 525.926 194.561C525.993 193.922 525.891 193.277 525.63 192.69C525.53 192.918 525.403 193.133 525.25 193.33C524.02 194.91 521.3 195.78 521.59 197.76Z" fill="black"/>
<path opacity="0.1" d="M439.42 207.38C439.055 208.109 438.764 208.873 438.55 209.66C440.114 208.787 441.799 208.15 443.55 207.77L439.42 207.38Z" fill="black"/>
<path opacity="0.1" d="M453.21 196.5C452.553 196.138 451.925 195.727 451.33 195.27C451.305 195.666 451.335 196.063 451.42 196.45C452.017 196.422 452.615 196.438 453.21 196.5Z" fill="black"/>
<path opacity="0.1" d="M550.98 255.42C550.57 260.27 548.31 264.94 546.48 269.54C542.81 278.76 540.74 288.54 539.19 298.35C537.8 307.14 536.19 317.12 528.69 321.99C526.547 323.27 524.253 324.278 521.86 324.99C511.08 328.72 500.21 332.46 488.86 333.82C477.51 335.18 465.6 333.99 455.7 328.33C452.83 326.832 450.366 324.66 448.52 322C445.85 317.77 445.8 312.47 444.52 307.63C443.429 304.036 442.092 300.521 440.52 297.11C438.31 291.73 436.61 286.11 434.92 280.58C433.353 275.44 431.79 270.297 430.23 265.15C429.716 263.602 429.335 262.013 429.09 260.4C428.7 262.96 429.46 265.64 430.23 268.15C431.79 273.303 433.353 278.447 434.92 283.58C436.61 289.15 438.31 294.73 440.52 300.11C442.092 303.521 443.429 307.036 444.52 310.63C445.78 315.47 445.83 320.77 448.52 325C450.366 327.66 452.83 329.832 455.7 331.33C465.6 336.99 477.54 338.18 488.86 336.82C500.18 335.46 511.04 331.72 521.86 327.99C524.253 327.278 526.547 326.27 528.69 324.99C536.14 320.12 537.8 310.14 539.19 301.35C540.74 291.54 542.81 281.76 546.48 272.54C548.66 267.06 551.48 261.49 551 255.6C551 255.54 550.98 255.48 550.98 255.42Z" fill="black"/>
<path opacity="0.1" d="M431.29 251.55C431.29 251.55 431.29 251.48 431.29 251.44C431.47 249.677 431.314 247.895 430.83 246.19C430.631 245.093 430.5 243.984 430.44 242.87C430.325 244.985 430.456 247.106 430.83 249.19C430.99 249.97 431.17 250.76 431.29 251.55Z" fill="black"/>
<path opacity="0.1" d="M434.34 227.09C435.109 225.798 435.982 224.571 436.95 223.42C435.12 225.17 431.74 223.61 431.03 221.18C430.768 222.163 430.768 223.197 431.03 224.18C431.276 224.914 431.712 225.569 432.293 226.08C432.875 226.592 433.581 226.94 434.34 227.09Z" fill="black"/>
</g>
<path opacity="0.1" d="M684.1 483.66C684.1 483.66 687.27 495.16 684.1 505.16C680.93 515.16 684.1 483.66 684.1 483.66Z" fill="black"/>
<path opacity="0.1" d="M697.6 495.39C697.6 495.39 698.93 509.99 695.93 512.58C692.93 515.17 697.6 495.39 697.6 495.39Z" fill="black"/>
<path d="M206 344L307.61 343" stroke="black" stroke-width="2" stroke-miterlimit="10"/>
<path d="M714 400L767 399" stroke="black" stroke-width="2" stroke-miterlimit="10"/>
<path d="M206.01 356.14L275.01 355.14" stroke="black" stroke-width="2" stroke-miterlimit="10"/>
<path d="M690 411L767 410" stroke="black" stroke-width="2" stroke-miterlimit="10"/>
<path d="M206.01 368.14L256.01 367.14" stroke="black" stroke-width="2" stroke-miterlimit="10"/>
<path d="M669 423L767 422" stroke="black" stroke-width="2" stroke-miterlimit="10"/>
<path d="M663.107 378.307C663.206 378.232 663.367 378.109 663.59 377.936C663.788 377.762 664.035 377.441 664.332 376.971C664.604 376.501 664.913 375.82 665.26 374.93C665.606 374.039 665.965 372.827 666.336 371.293C666.534 370.477 666.794 369.438 667.115 368.176C667.437 366.914 667.783 365.566 668.154 364.131C668.55 362.696 668.946 361.224 669.342 359.715C669.738 358.181 670.121 356.734 670.492 355.373C670.863 353.988 671.197 352.738 671.494 351.625C671.791 350.512 672.026 349.646 672.199 349.027C671.729 349.324 671.271 349.658 670.826 350.029C670.43 350.351 670.01 350.722 669.564 351.143C669.119 351.538 668.686 351.959 668.266 352.404C667.944 352.132 667.697 351.835 667.523 351.514C667.424 351.365 667.338 351.204 667.264 351.031C667.115 350.66 667.041 350.277 667.041 349.881C667.041 349.485 667.35 349.077 667.969 348.656C668.29 348.434 668.773 348.112 669.416 347.691C670.084 347.271 670.9 346.863 671.865 346.467C672.83 346.046 673.956 345.688 675.242 345.391C676.529 345.094 677.951 344.945 679.51 344.945C681.068 344.945 682.318 345.255 683.258 345.873C684.223 346.492 684.952 347.246 685.447 348.137C685.967 349.027 686.301 349.967 686.449 350.957C686.598 351.947 686.635 352.812 686.561 353.555C686.412 354.94 685.967 356.387 685.225 357.896C684.482 359.406 683.456 360.803 682.145 362.09C680.833 363.352 679.238 364.428 677.357 365.318C675.477 366.209 673.325 366.716 670.9 366.84C670.702 367.78 670.505 368.745 670.307 369.734C670.109 370.724 669.898 371.701 669.676 372.666C669.453 373.606 669.218 374.484 668.971 375.301C668.748 376.142 668.513 376.859 668.266 377.453C668.018 378.096 667.697 378.604 667.301 378.975C666.905 379.37 666.274 379.568 665.408 379.568C664.963 379.568 664.555 379.457 664.184 379.234C663.788 379.012 663.429 378.702 663.107 378.307ZM671.902 361.385C671.828 361.781 671.729 362.3 671.605 362.943C671.507 363.562 671.383 364.267 671.234 365.059C671.902 364.96 672.645 364.786 673.461 364.539C674.277 364.267 675.094 363.908 675.91 363.463C676.727 363.018 677.518 362.486 678.285 361.867C679.077 361.224 679.794 360.494 680.438 359.678C681.081 358.837 681.613 357.896 682.033 356.857C682.479 355.794 682.763 354.618 682.887 353.332C683.01 352.095 682.936 351.068 682.664 350.252C682.417 349.411 682.046 348.743 681.551 348.248C681.056 347.729 680.487 347.37 679.844 347.172C679.201 346.949 678.557 346.838 677.914 346.838C677.296 346.838 676.689 346.924 676.096 347.098C675.502 347.271 674.908 347.493 674.314 347.766C674.389 347.79 674.475 347.852 674.574 347.951C674.723 348.1 674.834 348.31 674.908 348.582C674.314 350.982 673.82 352.986 673.424 354.594C673.053 356.202 672.756 357.513 672.533 358.527C672.261 359.715 672.051 360.667 671.902 361.385ZM695.764 359.344C696.085 359.096 696.395 358.911 696.691 358.787C697.013 358.639 697.298 358.54 697.545 358.49C697.817 358.416 698.089 358.391 698.361 358.416C699.029 358.465 699.438 358.676 699.586 359.047C699.759 359.418 699.784 360.012 699.66 360.828C699.586 361.249 699.438 361.781 699.215 362.424C698.992 363.067 698.732 363.859 698.436 364.799C698.139 365.714 697.817 366.766 697.471 367.953C697.149 369.141 696.84 370.477 696.543 371.961C696.246 373.173 695.924 374.571 695.578 376.154C695.281 377.54 694.923 379.21 694.502 381.164C694.106 383.118 693.673 385.357 693.203 387.881C693.079 388.499 692.807 388.858 692.387 388.957C691.991 389.056 691.57 389.007 691.125 388.809C690.952 388.71 690.791 388.598 690.643 388.475C690.519 388.351 690.383 388.202 690.234 388.029C690.086 387.881 689.962 387.671 689.863 387.398C690.432 385.32 690.927 383.428 691.348 381.721C691.793 380.014 692.189 378.529 692.535 377.268C692.906 375.808 693.253 374.497 693.574 373.334C693.698 372.814 693.809 372.307 693.908 371.812C694.032 371.293 694.156 370.786 694.279 370.291C693.958 370.811 693.611 371.305 693.24 371.775C692.869 372.245 692.461 372.654 692.016 373C691.57 373.346 691.088 373.606 690.568 373.779C690.074 373.977 689.554 374.039 689.01 373.965C687.674 373.792 686.721 373.297 686.152 372.48C685.608 371.664 685.373 370.6 685.447 369.289C685.472 368.77 685.546 368.201 685.67 367.582C685.794 366.964 685.93 366.37 686.078 365.801C686.227 365.232 686.363 364.725 686.486 364.279C686.635 363.809 686.746 363.475 686.82 363.277C687.117 362.337 687.327 361.533 687.451 360.865C687.6 360.197 687.501 359.641 687.154 359.195C687.501 358.973 687.822 358.824 688.119 358.75C688.441 358.651 688.725 358.577 688.973 358.527C689.245 358.503 689.517 358.503 689.789 358.527C690.457 358.626 690.84 358.874 690.939 359.27C691.063 359.665 691.026 360.259 690.828 361.051C690.729 361.471 690.568 362.016 690.346 362.684C690.123 363.327 689.888 363.995 689.641 364.688C689.393 365.38 689.171 366.023 688.973 366.617C688.775 367.186 688.663 367.594 688.639 367.842C688.416 368.955 688.404 369.821 688.602 370.439C688.799 371.033 689.232 371.33 689.9 371.33C690.222 371.33 690.581 371.194 690.977 370.922C691.372 370.625 691.768 370.242 692.164 369.771C692.585 369.301 692.993 368.77 693.389 368.176C693.785 367.557 694.143 366.939 694.465 366.32C694.811 365.702 695.108 365.096 695.355 364.502C695.628 363.908 695.826 363.376 695.949 362.906C696.122 361.991 696.234 361.273 696.283 360.754C696.333 360.234 696.16 359.764 695.764 359.344ZM715.135 363.611C715.234 363.463 715.357 363.376 715.506 363.352C715.679 363.302 715.815 363.314 715.914 363.389C716.013 363.463 716.062 363.587 716.062 363.76C716.087 363.933 716.025 364.168 715.877 364.465C715.382 365.405 714.727 366.419 713.91 367.508C713.118 368.596 712.277 369.623 711.387 370.588C710.496 371.528 709.63 372.307 708.789 372.926C707.948 373.544 707.243 373.854 706.674 373.854C705.857 373.854 705.177 373.693 704.633 373.371C704.089 373.049 703.656 372.654 703.334 372.184C703.037 371.714 702.827 371.206 702.703 370.662C702.579 370.093 702.542 369.574 702.592 369.104C702.617 368.708 702.703 368.003 702.852 366.988C703 365.949 703.198 364.762 703.445 363.426C703.693 362.065 703.965 360.618 704.262 359.084C704.583 357.525 704.917 356.029 705.264 354.594C704.843 354.643 704.423 354.693 704.002 354.742C703.581 354.792 703.198 354.816 702.852 354.816C702.06 354.816 701.318 354.73 700.625 354.557C699.908 354.359 699.376 354.173 699.029 354C698.831 353.901 698.745 353.765 698.77 353.592C698.794 353.394 698.868 353.208 698.992 353.035C699.116 352.837 699.277 352.676 699.475 352.553C699.648 352.404 699.809 352.33 699.957 352.33C700.427 352.38 700.934 352.429 701.479 352.479C702.023 352.503 702.617 352.503 703.26 352.479C703.73 352.454 704.175 352.417 704.596 352.367C705.041 352.318 705.474 352.256 705.895 352.182C706.216 350.994 706.525 349.967 706.822 349.102C707.144 348.211 707.428 347.592 707.676 347.246C707.75 347.122 707.911 347.023 708.158 346.949C708.43 346.85 708.715 346.788 709.012 346.764C709.309 346.714 709.593 346.714 709.865 346.764C710.137 346.788 710.335 346.875 710.459 347.023C710.583 347.221 710.632 347.729 710.607 348.545C710.583 349.361 710.447 350.4 710.199 351.662C711.238 351.662 712.154 351.724 712.945 351.848C713.762 351.947 714.454 352.07 715.023 352.219C715.592 352.342 716.05 352.479 716.396 352.627C716.743 352.751 717.003 352.837 717.176 352.887C717.349 352.936 717.436 353.06 717.436 353.258C717.46 353.456 717.423 353.666 717.324 353.889C717.25 354.087 717.114 354.26 716.916 354.408C716.718 354.557 716.495 354.606 716.248 354.557C716.001 354.532 715.716 354.482 715.395 354.408C715.098 354.334 714.727 354.272 714.281 354.223C713.861 354.173 713.354 354.124 712.76 354.074C712.166 354.025 711.473 354 710.682 354C710.533 354 710.36 354.012 710.162 354.037C709.989 354.037 709.803 354.037 709.605 354.037C709.507 354.433 709.408 354.829 709.309 355.225C709.234 355.596 709.123 355.992 708.975 356.412C708.653 357.402 708.282 358.478 707.861 359.641C707.49 360.655 707.045 361.818 706.525 363.129C706.006 364.44 705.424 365.838 704.781 367.322C704.633 368.386 704.645 369.202 704.818 369.771C705.016 370.316 705.251 370.712 705.523 370.959C705.845 371.231 706.241 371.38 706.711 371.404C707.082 371.454 707.527 371.33 708.047 371.033C708.591 370.712 709.148 370.291 709.717 369.771C710.286 369.252 710.855 368.683 711.424 368.064C712.018 367.446 712.562 366.84 713.057 366.246C713.551 365.652 713.984 365.12 714.355 364.65C714.727 364.156 714.986 363.809 715.135 363.611ZM732.057 364.836C732.23 364.638 732.403 364.539 732.576 364.539C732.774 364.514 732.923 364.564 733.021 364.688C733.145 364.786 733.195 364.947 733.17 365.17C733.17 365.393 733.071 365.64 732.873 365.912C732.403 366.555 731.859 367.223 731.24 367.916C730.622 368.584 729.954 369.24 729.236 369.883C728.544 370.526 727.839 371.132 727.121 371.701C726.404 372.27 725.711 372.74 725.043 373.111C724.301 373.532 723.67 373.742 723.15 373.742C722.656 373.742 722.161 373.421 721.666 372.777C721.221 372.208 720.998 371.602 720.998 370.959C721.023 370.291 721.171 369.462 721.443 368.473C721.617 367.854 721.852 367.124 722.148 366.283C722.47 365.417 722.717 364.589 722.891 363.797C723.089 363.005 723.15 362.337 723.076 361.793C723.002 361.224 722.68 360.939 722.111 360.939C721.715 360.939 721.283 361.076 720.812 361.348C720.367 361.62 719.91 361.979 719.439 362.424C718.994 362.844 718.561 363.327 718.141 363.871C717.72 364.415 717.349 364.947 717.027 365.467C716.829 366.432 716.632 367.384 716.434 368.324C716.26 369.116 716.075 369.982 715.877 370.922C715.704 371.837 715.531 372.654 715.357 373.371C715.209 373.495 715.048 373.581 714.875 373.631C714.702 373.68 714.541 373.705 714.393 373.705C714.219 373.705 714.046 373.693 713.873 373.668C713.675 373.618 713.49 373.544 713.316 373.445C713.168 373.346 713.02 373.21 712.871 373.037C712.723 372.889 712.611 372.678 712.537 372.406C713.65 367.829 714.529 364.156 715.172 361.385C715.815 358.614 716.31 356.499 716.656 355.039C717.052 353.307 717.324 352.107 717.473 351.439C717.547 350.969 717.609 350.512 717.658 350.066C717.708 349.671 717.732 349.262 717.732 348.842C717.732 348.421 717.695 348.038 717.621 347.691C717.819 347.568 718.029 347.469 718.252 347.395C718.499 347.32 718.734 347.258 718.957 347.209C719.229 347.135 719.501 347.073 719.773 347.023C720.046 346.974 720.293 346.949 720.516 346.949C720.714 346.949 720.899 346.974 721.072 347.023C721.245 347.048 721.357 347.122 721.406 347.246C721.555 347.37 721.617 347.617 721.592 347.988C721.592 348.359 721.567 348.743 721.518 349.139C721.419 349.609 721.307 350.116 721.184 350.66C720.664 352.664 720.083 354.618 719.439 356.523C718.796 358.404 718.202 360.42 717.658 362.572C717.98 362.077 718.363 361.57 718.809 361.051C719.254 360.531 719.736 360.061 720.256 359.641C720.8 359.195 721.369 358.837 721.963 358.564C722.557 358.268 723.188 358.119 723.855 358.119C724.202 358.119 724.523 358.181 724.82 358.305C725.142 358.404 725.414 358.589 725.637 358.861C725.884 359.109 726.07 359.455 726.193 359.9C726.317 360.321 726.367 360.853 726.342 361.496C726.342 361.892 726.292 362.3 726.193 362.721C726.119 363.141 726.008 363.611 725.859 364.131C725.711 364.626 725.513 365.182 725.266 365.801C725.043 366.419 724.771 367.137 724.449 367.953C724.227 368.522 724.053 369.005 723.93 369.4C723.806 369.796 723.831 370.143 724.004 370.439C724.227 370.835 724.66 370.934 725.303 370.736C725.971 370.514 726.96 369.87 728.271 368.807C728.568 368.559 728.902 368.25 729.273 367.879C729.645 367.508 730.003 367.137 730.35 366.766C730.696 366.37 731.018 365.999 731.314 365.652C731.611 365.306 731.859 365.034 732.057 364.836ZM741.594 367.1C741.346 368.04 741.012 368.918 740.592 369.734C740.171 370.551 739.664 371.256 739.07 371.85C738.501 372.443 737.846 372.901 737.104 373.223C736.386 373.569 735.594 373.742 734.729 373.742C733.714 373.742 732.91 373.52 732.316 373.074C731.747 372.654 731.314 372.122 731.018 371.479C730.745 370.835 730.585 370.13 730.535 369.363C730.461 368.596 730.424 367.879 730.424 367.211C730.424 366.741 730.486 366.221 730.609 365.652C730.708 365.083 730.857 364.502 731.055 363.908C731.253 363.314 731.5 362.721 731.797 362.127C732.118 361.533 732.49 360.989 732.91 360.494C733.059 360.074 733.281 359.702 733.578 359.381C733.9 359.059 734.258 358.799 734.654 358.602C735.075 358.379 735.52 358.218 735.99 358.119C736.46 357.995 736.918 357.934 737.363 357.934C737.438 357.934 737.499 357.946 737.549 357.971C737.623 357.995 737.697 358.02 737.771 358.045C738.093 358.07 738.489 358.193 738.959 358.416C739.454 358.639 739.924 358.973 740.369 359.418C740.839 359.863 741.235 360.432 741.557 361.125C741.878 361.793 742.039 362.609 742.039 363.574C742.039 363.772 742.027 364.02 742.002 364.316C741.977 364.589 741.952 364.824 741.928 365.021C742.497 364.799 743.09 364.527 743.709 364.205C744.327 363.883 744.921 363.549 745.49 363.203C746.084 362.832 746.628 362.461 747.123 362.09C747.618 361.719 748.014 361.385 748.311 361.088C748.558 360.865 748.768 360.742 748.941 360.717C749.115 360.692 749.238 360.742 749.312 360.865C749.387 360.989 749.399 361.162 749.35 361.385C749.3 361.607 749.164 361.855 748.941 362.127C748.818 362.275 748.496 362.572 747.977 363.018C747.482 363.463 746.888 363.945 746.195 364.465C745.503 364.984 744.748 365.492 743.932 365.986C743.115 366.481 742.336 366.852 741.594 367.1ZM735.322 361.459C735.248 361.682 735.211 361.917 735.211 362.164C735.211 362.56 735.236 362.98 735.285 363.426C735.335 363.846 735.458 364.23 735.656 364.576C735.854 364.923 736.163 365.219 736.584 365.467C737.029 365.689 737.635 365.801 738.402 365.801C738.526 365.801 738.65 365.801 738.773 365.801C738.897 365.776 739.021 365.751 739.145 365.727C739.219 365.405 739.281 365.12 739.33 364.873C739.404 364.601 739.441 364.366 739.441 364.168C739.491 363.698 739.491 363.215 739.441 362.721C739.392 362.226 739.293 361.781 739.145 361.385C739.021 360.964 738.848 360.63 738.625 360.383C738.427 360.111 738.18 359.975 737.883 359.975C737.413 359.975 736.955 360.111 736.51 360.383C736.089 360.63 735.693 360.989 735.322 361.459ZM732.947 367.99C732.947 368.436 732.972 368.881 733.021 369.326C733.071 369.747 733.17 370.13 733.318 370.477C733.467 370.798 733.665 371.07 733.912 371.293C734.16 371.491 734.481 371.59 734.877 371.59C735.322 371.59 735.73 371.491 736.102 371.293C736.473 371.07 736.807 370.798 737.104 370.477C737.4 370.13 737.66 369.747 737.883 369.326C738.13 368.881 738.34 368.423 738.514 367.953C738.34 367.978 738.167 368.003 737.994 368.027C737.846 368.027 737.673 368.027 737.475 368.027C736.535 368.027 735.718 367.755 735.025 367.211C734.357 366.642 733.838 365.924 733.467 365.059C733.318 365.578 733.195 366.085 733.096 366.58C732.997 367.075 732.947 367.545 732.947 367.99ZM756.586 373.928C756.017 373.928 755.522 373.816 755.102 373.594C754.706 373.396 754.384 373.124 754.137 372.777C753.889 372.431 753.729 372.035 753.654 371.59C753.58 371.12 753.605 370.625 753.729 370.105C753.803 369.759 753.926 369.301 754.1 368.732C754.273 368.139 754.446 367.508 754.619 366.84C754.817 366.147 754.99 365.467 755.139 364.799C755.312 364.106 755.423 363.488 755.473 362.943C755.522 362.374 755.497 361.917 755.398 361.57C755.299 361.199 755.089 361.014 754.768 361.014C754.372 361.014 753.964 361.15 753.543 361.422C753.122 361.669 752.689 362.016 752.244 362.461C751.824 362.906 751.391 363.426 750.945 364.02C750.525 364.589 750.104 365.182 749.684 365.801C749.461 366.642 749.275 367.384 749.127 368.027C748.979 368.646 748.842 369.215 748.719 369.734C748.62 370.229 748.521 370.674 748.422 371.07C748.323 371.441 748.236 371.8 748.162 372.146C748.088 372.394 747.865 372.641 747.494 372.889C747.123 373.111 746.727 373.297 746.307 373.445C745.886 373.594 745.527 373.668 745.23 373.668C744.909 373.668 744.773 373.557 744.822 373.334C744.847 373.186 744.934 372.852 745.082 372.332C745.206 371.812 745.367 371.206 745.564 370.514C745.738 369.796 745.923 369.042 746.121 368.25C746.319 367.458 746.505 366.704 746.678 365.986C746.801 365.417 746.938 364.786 747.086 364.094C747.21 363.5 747.358 362.807 747.531 362.016C747.729 361.224 747.952 360.358 748.199 359.418C748.372 359.27 748.546 359.158 748.719 359.084C748.917 358.985 749.115 358.911 749.312 358.861C749.51 358.787 749.721 358.738 749.943 358.713C750.141 358.713 750.339 358.725 750.537 358.75C750.71 358.775 750.883 358.824 751.057 358.898C751.255 358.948 751.428 359.035 751.576 359.158C751.502 359.331 751.415 359.579 751.316 359.9C751.217 360.197 751.118 360.519 751.02 360.865C750.921 361.261 750.797 361.669 750.648 362.09C750.97 361.645 751.329 361.199 751.725 360.754C752.145 360.284 752.59 359.863 753.061 359.492C753.555 359.121 754.075 358.824 754.619 358.602C755.163 358.354 755.72 358.23 756.289 358.23C756.759 358.23 757.18 358.367 757.551 358.639C757.922 358.911 758.206 359.294 758.404 359.789C758.627 360.259 758.751 360.828 758.775 361.496C758.825 362.164 758.738 362.894 758.516 363.686L758.107 365.318C757.984 365.838 757.823 366.456 757.625 367.174C757.452 367.867 757.229 368.633 756.957 369.475C756.809 370.019 756.747 370.489 756.771 370.885C756.821 371.281 757.068 371.479 757.514 371.479C757.959 371.479 758.516 371.206 759.184 370.662C759.876 370.118 760.569 369.462 761.262 368.695C761.954 367.928 762.61 367.149 763.229 366.357C763.847 365.541 764.317 364.885 764.639 364.391C764.861 364.069 765.072 363.859 765.27 363.76C765.467 363.661 765.616 363.648 765.715 363.723C765.839 363.797 765.9 363.97 765.9 364.242C765.9 364.49 765.801 364.811 765.604 365.207C765.43 365.553 765.158 366.011 764.787 366.58C764.441 367.149 764.02 367.755 763.525 368.398C763.031 369.042 762.499 369.697 761.93 370.365C761.361 371.008 760.767 371.602 760.148 372.146C759.53 372.666 758.911 373.087 758.293 373.408C757.699 373.755 757.13 373.928 756.586 373.928Z" fill="black"/>
<path d="M287.635 401.625C289.721 401.625 291.721 402.454 293.196 403.929C294.671 405.404 295.5 407.404 295.5 409.49V419.885C295.5 420.918 295.297 421.941 294.901 422.895C294.506 423.849 293.927 424.716 293.196 425.446C292.466 426.177 291.599 426.756 290.645 427.151C289.691 427.547 288.668 427.75 287.635 427.75H268C268 428.822 268.88 430.39 269.953 430.39H281.75V435.01C281.75 437.096 280.921 439.096 279.446 440.571C277.971 442.046 275.971 442.875 273.885 442.875H262.115C260.029 442.875 258.029 442.046 256.554 440.571C255.079 439.096 254.25 437.096 254.25 435.01V424.698C254.25 423.666 254.454 422.645 254.849 421.692C255.245 420.739 255.825 419.874 256.555 419.146C257.286 418.418 258.153 417.841 259.107 417.449C260.061 417.056 261.083 416.856 262.115 416.86H276.552C277.584 416.86 278.605 416.656 279.558 416.261C280.511 415.865 281.376 415.285 282.104 414.555C282.832 413.824 283.409 412.957 283.801 412.003C284.194 411.049 284.394 410.027 284.39 408.995V401.625H287.635ZM275.865 434.048C274.765 434.048 273.885 434.873 273.885 436.495C273.885 438.118 274.765 438.447 275.865 438.447C276.121 438.447 276.375 438.397 276.612 438.299C276.849 438.201 277.064 438.057 277.246 437.876C277.427 437.694 277.571 437.479 277.669 437.242C277.767 437.005 277.817 436.751 277.817 436.495C277.817 434.873 276.937 434.048 275.865 434.048ZM248.365 429.125C246.279 429.125 244.279 428.296 242.804 426.821C241.329 425.346 240.5 423.346 240.5 421.26V410.865C240.5 409.832 240.703 408.809 241.099 407.855C241.494 406.901 242.073 406.034 242.804 405.304C244.279 403.829 246.279 403 248.365 403H268C268 401.928 267.12 400.36 266.047 400.36H254.25V395.74C254.25 393.654 255.079 391.654 256.554 390.179C258.029 388.704 260.029 387.875 262.115 387.875H273.885C274.918 387.875 275.941 388.078 276.895 388.474C277.849 388.869 278.716 389.448 279.446 390.179C280.177 390.909 280.756 391.776 281.151 392.73C281.547 393.684 281.75 394.707 281.75 395.74V406.052C281.75 407.084 281.546 408.105 281.151 409.058C280.755 410.011 280.175 410.876 279.445 411.604C278.714 412.332 277.847 412.909 276.893 413.301C275.939 413.694 274.917 413.894 273.885 413.89H259.448C258.416 413.89 257.395 414.094 256.442 414.489C255.489 414.885 254.624 415.465 253.896 416.195C253.168 416.926 252.591 417.793 252.199 418.747C251.806 419.701 251.606 420.723 251.61 421.755V429.125H248.365V429.125ZM260.135 396.703C261.235 396.703 262.115 395.878 262.115 394.255C262.115 392.633 261.235 392.303 260.135 392.303C259.063 392.303 258.183 392.633 258.183 394.255C258.183 395.878 259.063 396.703 260.135 396.703Z" fill="black"/>
</g>
<defs>
<clipPath id="clip0">
<rect width="1041.32" height="554.17" fill="white"/>
</clipPath>
</defs>
</svg>
