<svg width="409" height="233" viewBox="0 0 409 233" fill="none" xmlns="http://www.w3.org/2000/svg">
<path d="M205.365 81.4638C223.532 81.4638 238.259 66.2015 238.259 47.3744C238.259 28.5474 223.532 13.2851 205.365 13.2851C187.197 13.2851 172.47 28.5474 172.47 47.3744C172.47 66.2015 187.197 81.4638 205.365 81.4638Z" fill="#FEB8B8"/>
<path d="M236.405 18.45C231.487 10.1738 223.789 4.07541 214.792 1.32871L210.754 4.3827V0.417188C208.593 0.0744842 206.406 -0.0575351 204.222 0.0228663L200.738 3.28979V0.294283C195.579 0.958593 190.61 2.72335 186.142 5.47726C181.674 8.23118 177.806 11.9145 174.78 16.295C167.214 27.5988 165.937 43.3248 173.379 54.7192C175.421 48.213 177.901 42.1083 179.944 35.6027C181.55 35.8295 183.177 35.8377 184.785 35.627L187.27 29.617L187.964 35.3727C195.668 34.6774 207.095 33.1501 214.398 31.7509L213.687 27.3352L217.936 31.0044C220.174 30.4707 221.502 29.9864 221.393 29.6164C226.824 38.6909 233.472 44.4867 238.903 53.5613C240.966 40.7657 243.34 30.1263 236.405 18.45Z" fill="#2F2E41"/>
<path d="M272.102 131.783C270.971 124.731 269.804 117.543 266.641 111.19C264.563 107.029 261.263 103.063 256.815 102.24C255.939 102.16 255.078 101.953 254.256 101.627C252.953 100.976 235.439 90.6147 232.655 88.8101C230.265 87.2608 226.492 84.3922 224.589 84.3922C222.675 84.3486 215.336 86.1187 186.691 83.7982C186.691 83.7982 178.822 87.0126 172.733 90.9102C172.641 90.8472 143.002 107.341 141.889 107.298C139.78 107.206 137.82 108.605 136.611 110.367C135.402 112.129 134.835 114.31 134.242 116.419C140.715 131.359 146.638 146.318 153.113 161.258C153.416 161.821 153.577 162.454 153.581 163.098C153.451 163.767 153.175 164.396 152.775 164.938C149.601 170.223 149.702 176.871 150.048 183.083C150.395 189.294 150.825 195.856 148.146 201.424C147.417 202.952 146.47 204.351 145.777 205.88C144.154 209.342 143.567 220.415 144.515 224.135L263.273 227.661C260.72 220.387 272.102 131.783 272.102 131.783Z" fill="#00B0FF"/>
<path d="M123.976 161.92C123.739 163.697 123.716 165.497 123.905 167.279L125.608 192.611C125.767 194.999 125.925 197.381 126.141 199.762C126.549 204.384 127.159 208.97 127.917 213.548C127.934 214.198 128.199 214.815 128.654 215.262C129.109 215.71 129.717 215.952 130.345 215.936C137.837 217.579 145.579 217.513 153.225 217.066C164.894 216.391 194.747 215.114 196.571 212.658C198.394 210.203 197.332 206.232 194.953 204.246C192.575 202.261 153.18 197.421 153.18 197.421C153.565 194.26 154.726 191.282 155.828 188.281C157.807 182.958 159.655 177.46 159.69 171.757C159.726 166.055 157.653 160.059 153.145 156.792C149.437 154.11 144.663 153.613 140.144 153.723C136.857 153.821 131.177 153.005 128.174 154.337C125.798 155.421 124.42 159.509 123.976 161.92Z" fill="#FBBEBE"/>
<path d="M133.899 116.874C133.322 117.5 132.875 118.241 132.585 119.053C127.797 130.235 124.969 142.211 124.233 154.42C124.246 155.016 124.114 155.605 123.848 156.133C123.587 156.484 123.295 156.811 122.978 157.109C122.701 157.449 122.491 157.842 122.361 158.266C122.231 158.69 122.183 159.137 122.219 159.58C122.255 160.024 122.375 160.455 122.573 160.851C122.77 161.246 123.04 161.597 123.369 161.884C123.423 161.931 123.478 161.976 123.534 162.019C124.512 160.114 126.851 159.491 128.931 159.325C138.887 158.509 148.613 163.309 158.599 162.947C157.894 160.424 156.881 157.999 156.306 155.446C153.765 144.109 160.103 131.766 156.217 120.846C155.441 118.66 154.144 116.512 152.101 115.555C151.255 115.201 150.37 114.958 149.465 114.832C146.942 114.359 141.919 112.34 139.479 113.15C138.579 113.451 138.224 114.328 137.477 114.859C136.343 115.609 134.839 115.885 133.899 116.874Z" fill="#00B0FF"/>
<path d="M272.173 154.337C269.17 153.005 263.49 153.821 260.203 153.723C255.684 153.613 250.91 154.11 247.202 156.792C242.695 160.059 240.622 166.055 240.657 171.757C240.693 177.46 242.541 182.958 244.519 188.281C245.621 191.282 246.782 194.26 247.167 197.421C247.167 197.421 207.772 202.261 205.394 204.246C203.016 206.232 201.953 210.203 203.777 212.658C205.6 215.114 262.51 217.579 270.002 215.936C270.63 215.952 271.238 215.71 271.693 215.262C272.148 214.815 272.414 214.198 272.431 213.548C273.188 208.97 273.798 204.384 274.206 199.762C274.423 197.381 274.58 194.999 274.74 192.611L276.442 167.279C276.632 165.497 276.608 163.697 276.371 161.92C275.927 159.509 274.549 155.421 272.173 154.337Z" fill="#FBBEBE"/>
<path d="M262.87 114.859C262.124 114.328 261.768 113.451 260.868 113.15C258.428 112.34 253.405 114.359 250.882 114.832C249.978 114.958 249.092 115.201 248.246 115.555C246.203 116.512 244.906 118.66 244.13 120.846C240.244 131.766 246.582 144.109 244.041 155.446C243.466 157.999 242.453 160.424 241.749 162.947C251.735 163.309 261.46 158.509 271.417 159.325C273.496 159.491 275.836 160.114 276.813 162.02C276.869 161.976 276.925 161.931 276.979 161.884C277.307 161.597 277.577 161.246 277.775 160.851C277.972 160.455 278.092 160.024 278.128 159.58C278.165 159.137 278.116 158.69 277.986 158.266C277.856 157.842 277.646 157.449 277.37 157.109C277.052 156.811 276.761 156.484 276.499 156.133C276.233 155.605 276.101 155.016 276.114 154.42C275.378 142.211 272.55 130.235 267.763 119.053C267.472 118.241 267.025 117.5 266.448 116.874C265.508 115.885 264.004 115.609 262.87 114.859Z" fill="#00B0FF"/>
<path d="M191.612 217.146C196.516 217.146 200.491 213.026 200.491 207.945C200.491 202.863 196.516 198.744 191.612 198.744C186.709 198.744 182.734 202.863 182.734 207.945C182.734 213.026 186.709 217.146 191.612 217.146Z" fill="#FBBEBE"/>
<path d="M211.272 217.146C216.175 217.146 220.15 213.026 220.15 207.945C220.15 202.863 216.175 198.744 211.272 198.744C206.368 198.744 202.393 202.863 202.393 207.945C202.393 213.026 206.368 217.146 211.272 217.146Z" fill="#FBBEBE"/>
<path d="M262.365 228.845H140.391C138.967 228.843 137.601 228.256 136.594 227.212C135.587 226.169 135.021 224.754 135.019 223.278V146.593C135.021 145.117 135.587 143.702 136.594 142.658C137.601 141.615 138.967 141.028 140.391 141.026H262.365C263.789 141.028 265.155 141.615 266.162 142.658C267.169 143.702 267.735 145.117 267.737 146.593V223.278C267.735 224.754 267.169 226.169 266.162 227.212C265.155 228.256 263.789 228.843 262.365 228.845Z" fill="#3F3D56"/>
<path d="M201.543 189.057C203.993 189.057 205.978 186.998 205.978 184.458C205.978 181.919 203.993 179.86 201.543 179.86C199.094 179.86 197.108 181.919 197.108 184.458C197.108 186.998 199.094 189.057 201.543 189.057Z" fill="white"/>
<path d="M175.432 60.5652C170.147 60.5652 165.862 55.7641 165.862 49.8416V44.4798C165.862 38.5574 170.147 33.7563 175.432 33.7563V60.5652H175.432Z" fill="#00B0FF"/>
<path d="M241.532 45.3224H240.013C240.013 23.7446 224.346 6.18969 205.089 6.18969C185.831 6.18969 170.164 23.7446 170.164 45.3224H168.646C168.646 22.8064 184.994 4.48828 205.089 4.48828C225.183 4.48829 241.532 22.8064 241.532 45.3224Z" fill="#00B0FF"/>
<path d="M190.21 83.9998V77.6667C202.528 83.0189 209.159 82.0657 220.761 77.503V84.6845C208.289 85.2678 201.566 85.4677 190.21 83.9998Z" fill="#FEB8B8"/>
<path d="M235.545 33.7237C240.83 33.7237 245.115 38.5247 245.115 44.4472V49.809C245.115 55.7315 240.83 60.5325 235.545 60.5325V33.7237Z" fill="#00B0FF"/>
<path d="M180.971 208.416L178.341 215.386H177.291L174.661 208.416H175.631L177.821 214.426L180.011 208.416H180.971ZM182.439 209.016C182.265 209.016 182.119 208.956 181.999 208.836C181.879 208.716 181.819 208.569 181.819 208.396C181.819 208.223 181.879 208.076 181.999 207.956C182.119 207.836 182.265 207.776 182.439 207.776C182.605 207.776 182.745 207.836 182.859 207.956C182.979 208.076 183.039 208.223 183.039 208.396C183.039 208.569 182.979 208.716 182.859 208.836C182.745 208.956 182.605 209.016 182.439 209.016ZM182.879 209.906V215.386H181.969V209.906H182.879ZM185.34 210.796C185.5 210.483 185.726 210.239 186.02 210.066C186.32 209.893 186.683 209.806 187.11 209.806V210.746H186.87C185.85 210.746 185.34 211.299 185.34 212.406V215.386H184.43V209.906H185.34V210.796ZM189.27 210.656V213.886C189.27 214.153 189.327 214.343 189.44 214.456C189.553 214.563 189.75 214.616 190.03 214.616H190.7V215.386H189.88C189.373 215.386 188.993 215.269 188.74 215.036C188.487 214.803 188.36 214.419 188.36 213.886V210.656H187.65V209.906H188.36V208.526H189.27V209.906H190.7V210.656H189.27ZM196.663 209.906V215.386H195.753V214.576C195.579 214.856 195.336 215.076 195.023 215.236C194.716 215.389 194.376 215.466 194.003 215.466C193.576 215.466 193.193 215.379 192.853 215.206C192.513 215.026 192.243 214.759 192.043 214.406C191.849 214.053 191.753 213.623 191.753 213.116V209.906H192.653V212.996C192.653 213.536 192.789 213.953 193.063 214.246C193.336 214.533 193.709 214.676 194.183 214.676C194.669 214.676 195.053 214.526 195.333 214.226C195.613 213.926 195.753 213.489 195.753 212.916V209.906H196.663ZM197.859 212.626C197.859 212.066 197.973 211.576 198.199 211.156C198.426 210.729 198.736 210.399 199.129 210.166C199.529 209.933 199.973 209.816 200.459 209.816C200.939 209.816 201.356 209.919 201.709 210.126C202.063 210.333 202.326 210.593 202.499 210.906V209.906H203.419V215.386H202.499V214.366C202.319 214.686 202.049 214.953 201.689 215.166C201.336 215.373 200.923 215.476 200.449 215.476C199.963 215.476 199.523 215.356 199.129 215.116C198.736 214.876 198.426 214.539 198.199 214.106C197.973 213.673 197.859 213.179 197.859 212.626ZM202.499 212.636C202.499 212.223 202.416 211.863 202.249 211.556C202.083 211.249 201.856 211.016 201.569 210.856C201.289 210.689 200.979 210.606 200.639 210.606C200.299 210.606 199.989 210.686 199.709 210.846C199.429 211.006 199.206 211.239 199.039 211.546C198.873 211.853 198.789 212.213 198.789 212.626C198.789 213.046 198.873 213.413 199.039 213.726C199.206 214.033 199.429 214.269 199.709 214.436C199.989 214.596 200.299 214.676 200.639 214.676C200.979 214.676 201.289 214.596 201.569 214.436C201.856 214.269 202.083 214.033 202.249 213.726C202.416 213.413 202.499 213.049 202.499 212.636ZM205.867 207.986V215.386H204.957V207.986H205.867ZM212.254 208.416C213.014 208.416 213.671 208.559 214.224 208.846C214.784 209.126 215.211 209.529 215.504 210.056C215.804 210.583 215.954 211.203 215.954 211.916C215.954 212.629 215.804 213.249 215.504 213.776C215.211 214.296 214.784 214.696 214.224 214.976C213.671 215.249 213.014 215.386 212.254 215.386H210.084V208.416H212.254ZM212.254 214.636C213.154 214.636 213.841 214.399 214.314 213.926C214.787 213.446 215.024 212.776 215.024 211.916C215.024 211.049 214.784 210.373 214.304 209.886C213.831 209.399 213.147 209.156 212.254 209.156H210.994V214.636H212.254ZM219.544 215.476C219.031 215.476 218.564 215.359 218.144 215.126C217.731 214.893 217.404 214.563 217.164 214.136C216.931 213.703 216.814 213.203 216.814 212.636C216.814 212.076 216.934 211.583 217.174 211.156C217.421 210.723 217.754 210.393 218.174 210.166C218.594 209.933 219.064 209.816 219.584 209.816C220.104 209.816 220.574 209.933 220.994 210.166C221.414 210.393 221.744 210.719 221.984 211.146C222.231 211.573 222.354 212.069 222.354 212.636C222.354 213.203 222.228 213.703 221.974 214.136C221.728 214.563 221.391 214.893 220.964 215.126C220.538 215.359 220.064 215.476 219.544 215.476ZM219.544 214.676C219.871 214.676 220.178 214.599 220.464 214.446C220.751 214.293 220.981 214.063 221.154 213.756C221.334 213.449 221.424 213.076 221.424 212.636C221.424 212.196 221.338 211.823 221.164 211.516C220.991 211.209 220.764 210.983 220.484 210.836C220.204 210.683 219.901 210.606 219.574 210.606C219.241 210.606 218.934 210.683 218.654 210.836C218.381 210.983 218.161 211.209 217.994 211.516C217.828 211.823 217.744 212.196 217.744 212.636C217.744 213.083 217.824 213.459 217.984 213.766C218.151 214.073 218.371 214.303 218.644 214.456C218.918 214.603 219.218 214.676 219.544 214.676ZM230.141 209.806C230.567 209.806 230.947 209.896 231.281 210.076C231.614 210.249 231.877 210.513 232.071 210.866C232.264 211.219 232.361 211.649 232.361 212.156V215.386H231.461V212.286C231.461 211.739 231.324 211.323 231.051 211.036C230.784 210.743 230.421 210.596 229.961 210.596C229.487 210.596 229.111 210.749 228.831 211.056C228.551 211.356 228.411 211.793 228.411 212.366V215.386H227.511V212.286C227.511 211.739 227.374 211.323 227.101 211.036C226.834 210.743 226.471 210.596 226.011 210.596C225.537 210.596 225.161 210.749 224.881 211.056C224.601 211.356 224.461 211.793 224.461 212.366V215.386H223.551V209.906H224.461V210.696C224.641 210.409 224.881 210.189 225.181 210.036C225.487 209.883 225.824 209.806 226.191 209.806C226.651 209.806 227.057 209.909 227.411 210.116C227.764 210.323 228.027 210.626 228.201 211.026C228.354 210.639 228.607 210.339 228.961 210.126C229.314 209.913 229.707 209.806 230.141 209.806Z" fill="white"/>
</svg>
