<svg width="423" height="115" viewBox="0 0 423 115" fill="none" xmlns="http://www.w3.org/2000/svg">
<rect width="423" height="115" fill="#26252F"/>
<rect x="31" y="18" width="78" height="78" fill="black" stroke="#AF10F8" stroke-width="4"/>
<path d="M29 66H33V76H29V66Z" fill="#19181F"/>
<rect x="29" y="78" width="4" height="10" fill="#19181F"/>
<path d="M142.896 46.288C143.28 48.304 143.76 50.512 144.336 52.912C144.944 55.28 145.568 57.664 146.208 60.064C146.88 62.432 147.552 64.704 148.224 66.88C148.896 69.056 149.52 70.96 150.096 72.592C150.608 70.96 151.2 69.04 151.872 66.832C152.576 64.624 153.264 62.336 153.936 59.968C154.608 57.568 155.232 55.184 155.808 52.816C156.416 50.448 156.912 48.272 157.296 46.288H161.424C161.168 47.568 160.752 49.296 160.176 51.472C159.6 53.616 158.912 56.032 158.112 58.72C157.312 61.376 156.416 64.208 155.424 67.216C154.464 70.192 153.456 73.12 152.4 76H147.504C146.512 73.12 145.536 70.192 144.576 67.216C143.648 64.24 142.784 61.424 141.984 58.768C141.184 56.08 140.496 53.648 139.92 51.472C139.344 49.296 138.912 47.568 138.624 46.288H142.896ZM172.032 50.272C171.2 50.272 170.48 49.984 169.872 49.408C169.264 48.832 168.96 48.048 168.96 47.056C168.96 46.064 169.264 45.28 169.872 44.704C170.48 44.128 171.2 43.84 172.032 43.84C172.896 43.84 173.616 44.128 174.192 44.704C174.8 45.28 175.104 46.064 175.104 47.056C175.104 48.048 174.8 48.832 174.192 49.408C173.616 49.984 172.896 50.272 172.032 50.272ZM171.024 57.04H164.592V53.728H174.96V67.408C174.96 69.616 175.264 71.104 175.872 71.872C176.48 72.608 177.392 72.976 178.608 72.976C179.536 72.976 180.384 72.864 181.152 72.64C181.952 72.416 182.576 72.176 183.024 71.92L183.6 75.28C183.408 75.376 183.136 75.504 182.784 75.664C182.432 75.792 182.016 75.92 181.536 76.048C181.088 76.176 180.576 76.288 180 76.384C179.456 76.48 178.88 76.528 178.272 76.528C176.864 76.528 175.696 76.336 174.768 75.952C173.84 75.568 173.088 74.992 172.512 74.224C171.968 73.456 171.584 72.512 171.36 71.392C171.136 70.24 171.024 68.912 171.024 67.408V57.04ZM191.136 76V54.928C194.4 53.808 197.696 53.248 201.024 53.248C202.048 53.248 203.024 53.296 203.952 53.392C204.88 53.456 205.904 53.616 207.024 53.872L206.304 57.376C205.28 57.088 204.368 56.912 203.568 56.848C202.8 56.752 201.952 56.704 201.024 56.704C199.072 56.704 197.088 56.976 195.072 57.52V76H191.136ZM221.664 53.728H231.072V57.04H221.664V67.408C221.664 68.528 221.744 69.44 221.904 70.144C222.064 70.848 222.32 71.424 222.672 71.872C223.056 72.288 223.536 72.576 224.112 72.736C224.688 72.896 225.392 72.976 226.224 72.976C227.376 72.976 228.304 72.88 229.008 72.688C229.712 72.496 230.384 72.24 231.024 71.92L231.6 75.28C231.152 75.472 230.432 75.728 229.44 76.048C228.48 76.368 227.28 76.528 225.84 76.528C224.176 76.528 222.816 76.336 221.76 75.952C220.704 75.568 219.872 74.992 219.264 74.224C218.688 73.456 218.288 72.512 218.064 71.392C217.84 70.24 217.728 68.912 217.728 67.408V57.04H213.024V53.728H217.728V47.488L221.664 46.816V53.728ZM254.592 75.376C253.728 75.6 252.576 75.84 251.136 76.096C249.728 76.352 248.064 76.48 246.144 76.48C244.448 76.48 243.04 76.24 241.92 75.76C240.8 75.248 239.888 74.544 239.184 73.648C238.48 72.72 237.984 71.632 237.696 70.384C237.408 69.136 237.264 67.76 237.264 66.256V53.728H241.2V65.392C241.2 68.144 241.6 70.096 242.4 71.248C243.232 72.4 244.608 72.976 246.528 72.976C246.944 72.976 247.36 72.96 247.776 72.928C248.224 72.896 248.64 72.864 249.024 72.832C249.408 72.768 249.744 72.72 250.032 72.688C250.32 72.624 250.512 72.576 250.608 72.544V53.728H254.592V75.376ZM270.24 73.168C271.232 73.168 272.112 73.136 272.88 73.072C273.68 73.008 274.336 72.928 274.848 72.832V66.208C274.336 66.048 273.712 65.92 272.976 65.824C272.272 65.728 271.52 65.68 270.72 65.68C269.984 65.68 269.264 65.744 268.56 65.872C267.856 65.968 267.232 66.16 266.688 66.448C266.144 66.736 265.696 67.12 265.344 67.6C264.992 68.048 264.816 68.624 264.816 69.328C264.816 70.768 265.296 71.776 266.256 72.352C267.248 72.896 268.576 73.168 270.24 73.168ZM269.856 53.2C271.52 53.2 272.912 53.408 274.032 53.824C275.184 54.24 276.112 54.816 276.816 55.552C277.52 56.288 278.016 57.184 278.304 58.24C278.592 59.296 278.736 60.448 278.736 61.696V75.616C277.808 75.776 276.576 75.968 275.04 76.192C273.536 76.416 271.984 76.528 270.384 76.528C269.168 76.528 267.984 76.416 266.832 76.192C265.68 76 264.656 75.648 263.76 75.136C262.864 74.592 262.144 73.856 261.6 72.928C261.056 72 260.784 70.816 260.784 69.376C260.784 68.096 261.056 67.024 261.6 66.16C262.176 65.264 262.896 64.544 263.76 64C264.656 63.456 265.664 63.072 266.784 62.848C267.936 62.592 269.088 62.464 270.24 62.464C271.808 62.464 273.344 62.64 274.848 62.992V61.888C274.848 61.216 274.768 60.576 274.608 59.968C274.48 59.328 274.208 58.752 273.792 58.24C273.408 57.728 272.864 57.328 272.16 57.04C271.488 56.72 270.608 56.56 269.52 56.56C268.144 56.56 266.944 56.656 265.92 56.848C264.896 57.04 264.112 57.232 263.568 57.424L263.088 54.16C263.632 53.904 264.528 53.68 265.776 53.488C267.056 53.296 268.416 53.2 269.856 53.2ZM298.224 76.528C296.816 76.528 295.648 76.336 294.72 75.952C293.792 75.568 293.056 74.992 292.512 74.224C291.968 73.456 291.584 72.512 291.36 71.392C291.136 70.24 291.024 68.912 291.024 67.408V46.336H284.592V42.976H294.96V67.408C294.96 68.528 295.024 69.44 295.152 70.144C295.312 70.848 295.536 71.424 295.824 71.872C296.144 72.288 296.528 72.576 296.976 72.736C297.424 72.896 297.952 72.976 298.56 72.976C299.488 72.976 300.352 72.864 301.152 72.64C301.952 72.416 302.576 72.176 303.024 71.92L303.6 75.28C303.408 75.376 303.136 75.504 302.784 75.664C302.432 75.792 302.016 75.92 301.536 76.048C301.056 76.176 300.528 76.288 299.952 76.384C299.408 76.48 298.832 76.528 298.224 76.528ZM328.08 61.12C328.08 63.872 327.728 66.208 327.024 68.128C326.352 70.048 325.408 71.616 324.192 72.832C323.008 74.016 321.584 74.88 319.92 75.424C318.288 75.968 316.512 76.24 314.592 76.24C312.608 76.24 310.608 76 308.592 75.52V46.72C310.608 46.24 312.608 46 314.592 46C316.512 46 318.288 46.272 319.92 46.816C321.584 47.36 323.008 48.24 324.192 49.456C325.408 50.672 326.352 52.24 327.024 54.16C327.728 56.08 328.08 58.4 328.08 61.12ZM312.528 72.688C313.328 72.784 314.144 72.832 314.976 72.832C316.416 72.832 317.696 72.624 318.816 72.208C319.936 71.76 320.88 71.072 321.648 70.144C322.416 69.184 323.008 67.968 323.424 66.496C323.84 64.992 324.048 63.2 324.048 61.12C324.048 57.088 323.264 54.128 321.696 52.24C320.16 50.352 317.872 49.408 314.832 49.408C314.416 49.408 314 49.424 313.584 49.456C313.2 49.456 312.848 49.488 312.528 49.552V72.688ZM352.08 64.864C352.08 66.624 351.824 68.224 351.312 69.664C350.832 71.072 350.144 72.288 349.248 73.312C348.352 74.336 347.28 75.136 346.032 75.712C344.784 76.256 343.424 76.528 341.952 76.528C340.512 76.528 339.168 76.256 337.92 75.712C336.704 75.136 335.648 74.336 334.752 73.312C333.856 72.288 333.152 71.072 332.64 69.664C332.16 68.224 331.92 66.624 331.92 64.864C331.92 63.104 332.16 61.504 332.64 60.064C333.152 58.624 333.856 57.408 334.752 56.416C335.648 55.392 336.704 54.608 337.92 54.064C339.168 53.488 340.512 53.2 341.952 53.2C343.424 53.2 344.784 53.488 346.032 54.064C347.28 54.608 348.352 55.392 349.248 56.416C350.144 57.408 350.832 58.624 351.312 60.064C351.824 61.504 352.08 63.104 352.08 64.864ZM348 64.864C348 62.336 347.456 60.352 346.368 58.912C345.28 57.44 343.808 56.704 341.952 56.704C340.128 56.704 338.672 57.44 337.584 58.912C336.528 60.352 336 62.336 336 64.864C336 67.36 336.528 69.344 337.584 70.816C338.672 72.256 340.128 72.976 341.952 72.976C343.808 72.976 345.28 72.256 346.368 70.816C347.456 69.344 348 67.36 348 64.864ZM355.968 54.352C357.888 53.616 359.696 53.248 361.392 53.248C362.32 53.248 363.184 53.392 363.984 53.68C364.816 53.936 365.52 54.352 366.096 54.928C367.472 53.808 368.944 53.248 370.512 53.248C371.28 53.248 372 53.392 372.672 53.68C373.376 53.968 373.984 54.4 374.496 54.976C375.04 55.552 375.472 56.272 375.792 57.136C376.112 58 376.272 59.008 376.272 60.16V76H372.672V60.064C372.672 58.912 372.416 58.032 371.904 57.424C371.392 56.816 370.752 56.512 369.984 56.512C369.6 56.512 369.2 56.608 368.784 56.8C368.368 56.992 367.984 57.296 367.632 57.712C367.824 58.448 367.92 59.264 367.92 60.16V67.408H364.32V60.112C364.32 58.992 364.144 58.112 363.792 57.472C363.44 56.832 362.752 56.512 361.728 56.512C361.088 56.512 360.368 56.656 359.568 56.944V76H355.968V54.352Z" fill="#AF10F8"/>
<path d="M80.974 71.8C81.1807 71.8413 81.408 71.862 81.656 71.862C81.904 71.862 82.1313 71.862 82.338 71.862C84.074 71.862 85.5207 71.5313 86.678 70.87C87.8767 70.2087 88.8273 69.2993 89.53 68.142C90.274 66.9847 90.7907 65.6207 91.08 64.05C91.4107 62.438 91.576 60.6813 91.576 58.78C91.576 57.1267 91.452 55.5147 91.204 53.944C90.956 52.3733 90.522 50.9887 89.902 49.79C89.282 48.5913 88.4347 47.6407 87.36 46.938C86.2853 46.194 84.9007 45.822 83.206 45.822C82.8753 45.822 82.5033 45.8427 82.09 45.884C81.6767 45.884 81.3047 45.9253 80.974 46.008V71.8ZM99.326 58.78C99.326 62.3347 98.8713 65.3727 97.962 67.894C97.094 70.374 95.8747 72.3993 94.304 73.97C92.7333 75.5407 90.8527 76.698 88.662 77.442C86.5127 78.1447 84.136 78.496 81.532 78.496C80.168 78.496 78.8247 78.4133 77.502 78.248C76.2207 78.124 74.836 77.8967 73.348 77.566V40.118C75.084 39.746 76.7167 39.498 78.246 39.374C79.7753 39.25 81.2013 39.188 82.524 39.188C85.0453 39.188 87.3393 39.56 89.406 40.304C91.514 41.048 93.2913 42.226 94.738 43.838C96.1847 45.4087 97.3007 47.434 98.086 49.914C98.9127 52.3527 99.326 55.308 99.326 58.78Z" fill="white"/>
<path d="M49.532 78C48.54 75.148 47.486 71.924 46.37 68.328C45.254 64.732 44.2 61.1567 43.208 57.602C42.216 54.006 41.3273 50.6167 40.542 47.434C39.7567 44.2513 39.178 41.6473 38.806 39.622H46.866C47.114 41.606 47.486 43.9207 47.982 46.566C48.478 49.17 49.0153 51.8773 49.594 54.688C50.214 57.4573 50.8547 60.206 51.516 62.934C52.2187 65.6207 52.9007 68.0387 53.562 70.188C54.2233 68.08 54.8847 65.6827 55.546 62.996C56.2073 60.268 56.8273 57.5193 57.406 54.75C57.9847 51.9393 58.522 49.2113 59.018 46.566C59.514 43.9207 59.9273 41.606 60.258 39.622H68.256C67.76 42.102 67.14 44.8713 66.396 47.93C65.6933 50.9887 64.8667 54.2127 63.916 57.602C63.0067 60.95 61.994 64.3807 60.878 67.894C59.762 71.366 58.6047 74.7347 57.406 78H49.532Z" fill="white"/>
<circle cx="31.5" cy="77.5" r="6.5" fill="#FA0000"/>
</svg>
