<svg width="423" height="115" viewBox="0 0 423 115" fill="none" xmlns="http://www.w3.org/2000/svg">
<rect width="423" height="115" fill="#DAEDFB"/>
<rect x="44" y="18" width="78" height="78" stroke="black" stroke-width="4"/>
<rect x="38" y="69" width="10" height="4" fill="#DAEDFB"/>
<rect x="39" y="84" width="10" height="4" fill="#DAEDFB"/>
<path d="M142.896 47.288C143.28 49.304 143.76 51.512 144.336 53.912C144.944 56.28 145.568 58.664 146.208 61.064C146.88 63.432 147.552 65.704 148.224 67.88C148.896 70.056 149.52 71.96 150.096 73.592C150.608 71.96 151.2 70.04 151.872 67.832C152.576 65.624 153.264 63.336 153.936 60.968C154.608 58.568 155.232 56.184 155.808 53.816C156.416 51.448 156.912 49.272 157.296 47.288H161.424C161.168 48.568 160.752 50.296 160.176 52.472C159.6 54.616 158.912 57.032 158.112 59.72C157.312 62.376 156.416 65.208 155.424 68.216C154.464 71.192 153.456 74.12 152.4 77H147.504C146.512 74.12 145.536 71.192 144.576 68.216C143.648 65.24 142.784 62.424 141.984 59.768C141.184 57.08 140.496 54.648 139.92 52.472C139.344 50.296 138.912 48.568 138.624 47.288H142.896ZM172.032 51.272C171.2 51.272 170.48 50.984 169.872 50.408C169.264 49.832 168.96 49.048 168.96 48.056C168.96 47.064 169.264 46.28 169.872 45.704C170.48 45.128 171.2 44.84 172.032 44.84C172.896 44.84 173.616 45.128 174.192 45.704C174.8 46.28 175.104 47.064 175.104 48.056C175.104 49.048 174.8 49.832 174.192 50.408C173.616 50.984 172.896 51.272 172.032 51.272ZM171.024 58.04H164.592V54.728H174.96V68.408C174.96 70.616 175.264 72.104 175.872 72.872C176.48 73.608 177.392 73.976 178.608 73.976C179.536 73.976 180.384 73.864 181.152 73.64C181.952 73.416 182.576 73.176 183.024 72.92L183.6 76.28C183.408 76.376 183.136 76.504 182.784 76.664C182.432 76.792 182.016 76.92 181.536 77.048C181.088 77.176 180.576 77.288 180 77.384C179.456 77.48 178.88 77.528 178.272 77.528C176.864 77.528 175.696 77.336 174.768 76.952C173.84 76.568 173.088 75.992 172.512 75.224C171.968 74.456 171.584 73.512 171.36 72.392C171.136 71.24 171.024 69.912 171.024 68.408V58.04ZM191.136 77V55.928C194.4 54.808 197.696 54.248 201.024 54.248C202.048 54.248 203.024 54.296 203.952 54.392C204.88 54.456 205.904 54.616 207.024 54.872L206.304 58.376C205.28 58.088 204.368 57.912 203.568 57.848C202.8 57.752 201.952 57.704 201.024 57.704C199.072 57.704 197.088 57.976 195.072 58.52V77H191.136ZM221.664 54.728H231.072V58.04H221.664V68.408C221.664 69.528 221.744 70.44 221.904 71.144C222.064 71.848 222.32 72.424 222.672 72.872C223.056 73.288 223.536 73.576 224.112 73.736C224.688 73.896 225.392 73.976 226.224 73.976C227.376 73.976 228.304 73.88 229.008 73.688C229.712 73.496 230.384 73.24 231.024 72.92L231.6 76.28C231.152 76.472 230.432 76.728 229.44 77.048C228.48 77.368 227.28 77.528 225.84 77.528C224.176 77.528 222.816 77.336 221.76 76.952C220.704 76.568 219.872 75.992 219.264 75.224C218.688 74.456 218.288 73.512 218.064 72.392C217.84 71.24 217.728 69.912 217.728 68.408V58.04H213.024V54.728H217.728V48.488L221.664 47.816V54.728ZM254.592 76.376C253.728 76.6 252.576 76.84 251.136 77.096C249.728 77.352 248.064 77.48 246.144 77.48C244.448 77.48 243.04 77.24 241.92 76.76C240.8 76.248 239.888 75.544 239.184 74.648C238.48 73.72 237.984 72.632 237.696 71.384C237.408 70.136 237.264 68.76 237.264 67.256V54.728H241.2V66.392C241.2 69.144 241.6 71.096 242.4 72.248C243.232 73.4 244.608 73.976 246.528 73.976C246.944 73.976 247.36 73.96 247.776 73.928C248.224 73.896 248.64 73.864 249.024 73.832C249.408 73.768 249.744 73.72 250.032 73.688C250.32 73.624 250.512 73.576 250.608 73.544V54.728H254.592V76.376ZM270.24 74.168C271.232 74.168 272.112 74.136 272.88 74.072C273.68 74.008 274.336 73.928 274.848 73.832V67.208C274.336 67.048 273.712 66.92 272.976 66.824C272.272 66.728 271.52 66.68 270.72 66.68C269.984 66.68 269.264 66.744 268.56 66.872C267.856 66.968 267.232 67.16 266.688 67.448C266.144 67.736 265.696 68.12 265.344 68.6C264.992 69.048 264.816 69.624 264.816 70.328C264.816 71.768 265.296 72.776 266.256 73.352C267.248 73.896 268.576 74.168 270.24 74.168ZM269.856 54.2C271.52 54.2 272.912 54.408 274.032 54.824C275.184 55.24 276.112 55.816 276.816 56.552C277.52 57.288 278.016 58.184 278.304 59.24C278.592 60.296 278.736 61.448 278.736 62.696V76.616C277.808 76.776 276.576 76.968 275.04 77.192C273.536 77.416 271.984 77.528 270.384 77.528C269.168 77.528 267.984 77.416 266.832 77.192C265.68 77 264.656 76.648 263.76 76.136C262.864 75.592 262.144 74.856 261.6 73.928C261.056 73 260.784 71.816 260.784 70.376C260.784 69.096 261.056 68.024 261.6 67.16C262.176 66.264 262.896 65.544 263.76 65C264.656 64.456 265.664 64.072 266.784 63.848C267.936 63.592 269.088 63.464 270.24 63.464C271.808 63.464 273.344 63.64 274.848 63.992V62.888C274.848 62.216 274.768 61.576 274.608 60.968C274.48 60.328 274.208 59.752 273.792 59.24C273.408 58.728 272.864 58.328 272.16 58.04C271.488 57.72 270.608 57.56 269.52 57.56C268.144 57.56 266.944 57.656 265.92 57.848C264.896 58.04 264.112 58.232 263.568 58.424L263.088 55.16C263.632 54.904 264.528 54.68 265.776 54.488C267.056 54.296 268.416 54.2 269.856 54.2ZM298.224 77.528C296.816 77.528 295.648 77.336 294.72 76.952C293.792 76.568 293.056 75.992 292.512 75.224C291.968 74.456 291.584 73.512 291.36 72.392C291.136 71.24 291.024 69.912 291.024 68.408V47.336H284.592V43.976H294.96V68.408C294.96 69.528 295.024 70.44 295.152 71.144C295.312 71.848 295.536 72.424 295.824 72.872C296.144 73.288 296.528 73.576 296.976 73.736C297.424 73.896 297.952 73.976 298.56 73.976C299.488 73.976 300.352 73.864 301.152 73.64C301.952 73.416 302.576 73.176 303.024 72.92L303.6 76.28C303.408 76.376 303.136 76.504 302.784 76.664C302.432 76.792 302.016 76.92 301.536 77.048C301.056 77.176 300.528 77.288 299.952 77.384C299.408 77.48 298.832 77.528 298.224 77.528ZM328.08 62.12C328.08 64.872 327.728 67.208 327.024 69.128C326.352 71.048 325.408 72.616 324.192 73.832C323.008 75.016 321.584 75.88 319.92 76.424C318.288 76.968 316.512 77.24 314.592 77.24C312.608 77.24 310.608 77 308.592 76.52V47.72C310.608 47.24 312.608 47 314.592 47C316.512 47 318.288 47.272 319.92 47.816C321.584 48.36 323.008 49.24 324.192 50.456C325.408 51.672 326.352 53.24 327.024 55.16C327.728 57.08 328.08 59.4 328.08 62.12ZM312.528 73.688C313.328 73.784 314.144 73.832 314.976 73.832C316.416 73.832 317.696 73.624 318.816 73.208C319.936 72.76 320.88 72.072 321.648 71.144C322.416 70.184 323.008 68.968 323.424 67.496C323.84 65.992 324.048 64.2 324.048 62.12C324.048 58.088 323.264 55.128 321.696 53.24C320.16 51.352 317.872 50.408 314.832 50.408C314.416 50.408 314 50.424 313.584 50.456C313.2 50.456 312.848 50.488 312.528 50.552V73.688ZM352.08 65.864C352.08 67.624 351.824 69.224 351.312 70.664C350.832 72.072 350.144 73.288 349.248 74.312C348.352 75.336 347.28 76.136 346.032 76.712C344.784 77.256 343.424 77.528 341.952 77.528C340.512 77.528 339.168 77.256 337.92 76.712C336.704 76.136 335.648 75.336 334.752 74.312C333.856 73.288 333.152 72.072 332.64 70.664C332.16 69.224 331.92 67.624 331.92 65.864C331.92 64.104 332.16 62.504 332.64 61.064C333.152 59.624 333.856 58.408 334.752 57.416C335.648 56.392 336.704 55.608 337.92 55.064C339.168 54.488 340.512 54.2 341.952 54.2C343.424 54.2 344.784 54.488 346.032 55.064C347.28 55.608 348.352 56.392 349.248 57.416C350.144 58.408 350.832 59.624 351.312 61.064C351.824 62.504 352.08 64.104 352.08 65.864ZM348 65.864C348 63.336 347.456 61.352 346.368 59.912C345.28 58.44 343.808 57.704 341.952 57.704C340.128 57.704 338.672 58.44 337.584 59.912C336.528 61.352 336 63.336 336 65.864C336 68.36 336.528 70.344 337.584 71.816C338.672 73.256 340.128 73.976 341.952 73.976C343.808 73.976 345.28 73.256 346.368 71.816C347.456 70.344 348 68.36 348 65.864ZM355.968 55.352C357.888 54.616 359.696 54.248 361.392 54.248C362.32 54.248 363.184 54.392 363.984 54.68C364.816 54.936 365.52 55.352 366.096 55.928C367.472 54.808 368.944 54.248 370.512 54.248C371.28 54.248 372 54.392 372.672 54.68C373.376 54.968 373.984 55.4 374.496 55.976C375.04 56.552 375.472 57.272 375.792 58.136C376.112 59 376.272 60.008 376.272 61.16V77H372.672V61.064C372.672 59.912 372.416 59.032 371.904 58.424C371.392 57.816 370.752 57.512 369.984 57.512C369.6 57.512 369.2 57.608 368.784 57.8C368.368 57.992 367.984 58.296 367.632 58.712C367.824 59.448 367.92 60.264 367.92 61.16V68.408H364.32V61.112C364.32 59.992 364.144 59.112 363.792 58.472C363.44 57.832 362.752 57.512 361.728 57.512C361.088 57.512 360.368 57.656 359.568 57.944V77H355.968V55.352Z" fill="black"/>
<path d="M64.532 80C63.54 77.148 62.486 73.924 61.37 70.328C60.254 66.732 59.2 63.1567 58.208 59.602C57.216 56.006 56.3273 52.6167 55.542 49.434C54.7567 46.2513 54.178 43.6473 53.806 41.622H61.866C62.114 43.606 62.486 45.9207 62.982 48.566C63.478 51.17 64.0153 53.8773 64.594 56.688C65.214 59.4573 65.8547 62.206 66.516 64.934C67.2187 67.6207 67.9007 70.0387 68.562 72.188C69.2233 70.08 69.8847 67.6827 70.546 64.996C71.2073 62.268 71.8273 59.5193 72.406 56.75C72.9847 53.9393 73.522 51.2113 74.018 48.566C74.514 45.9207 74.9273 43.606 75.258 41.622H83.256C82.76 44.102 82.14 46.8713 81.396 49.93C80.6933 52.9887 79.8667 56.2127 78.916 59.602C78.0067 62.95 76.994 66.3807 75.878 69.894C74.762 73.366 73.6047 76.7347 72.406 80H64.532ZM94.974 73.8C95.1807 73.8413 95.408 73.862 95.656 73.862C95.904 73.862 96.1313 73.862 96.338 73.862C98.074 73.862 99.5207 73.5313 100.678 72.87C101.877 72.2087 102.827 71.2993 103.53 70.142C104.274 68.9847 104.791 67.6207 105.08 66.05C105.411 64.438 105.576 62.6813 105.576 60.78C105.576 59.1267 105.452 57.5147 105.204 55.944C104.956 54.3733 104.522 52.9887 103.902 51.79C103.282 50.5913 102.435 49.6407 101.36 48.938C100.285 48.194 98.9007 47.822 97.206 47.822C96.8753 47.822 96.5033 47.8427 96.09 47.884C95.6767 47.884 95.3047 47.9253 94.974 48.008V73.8ZM113.326 60.78C113.326 64.3347 112.871 67.3727 111.962 69.894C111.094 72.374 109.875 74.3993 108.304 75.97C106.733 77.5407 104.853 78.698 102.662 79.442C100.513 80.1447 98.136 80.496 95.532 80.496C94.168 80.496 92.8247 80.4133 91.502 80.248C90.2207 80.124 88.836 79.8967 87.348 79.566V42.118C89.084 41.746 90.7167 41.498 92.246 41.374C93.7753 41.25 95.2013 41.188 96.524 41.188C99.0453 41.188 101.339 41.56 103.406 42.304C105.514 43.048 107.291 44.226 108.738 45.838C110.185 47.4087 111.301 49.434 112.086 51.914C112.913 54.3527 113.326 57.308 113.326 60.78Z" fill="black"/>
<circle cx="43.5" cy="78.5" r="6.5" fill="#FA0000"/>
</svg>
