<svg width="82" height="82" viewBox="0 0 82 82" fill="none" xmlns="http://www.w3.org/2000/svg">
<rect width="82" height="82" rx="6" fill="#DAEDFB"/>
<path d="M53.974 57.8C54.1807 57.8413 54.408 57.862 54.656 57.862C54.904 57.862 55.1313 57.862 55.338 57.862C57.074 57.862 58.5207 57.5313 59.678 56.87C60.8767 56.2087 61.8273 55.2993 62.53 54.142C63.274 52.9847 63.7907 51.6207 64.08 50.05C64.4107 48.438 64.576 46.6813 64.576 44.78C64.576 43.1267 64.452 41.5147 64.204 39.944C63.956 38.3733 63.522 36.9887 62.902 35.79C62.282 34.5913 61.4347 33.6407 60.36 32.938C59.2853 32.194 57.9007 31.822 56.206 31.822C55.8753 31.822 55.5033 31.8427 55.09 31.884C54.6767 31.884 54.3047 31.9253 53.974 32.008V57.8ZM72.326 44.78C72.326 48.3347 71.8713 51.3727 70.962 53.894C70.094 56.374 68.8747 58.3993 67.304 59.97C65.7333 61.5407 63.8527 62.698 61.662 63.442C59.5127 64.1447 57.136 64.496 54.532 64.496C53.168 64.496 51.8247 64.4133 50.502 64.248C49.2207 64.124 47.836 63.8967 46.348 63.566V26.118C48.084 25.746 49.7167 25.498 51.246 25.374C52.7753 25.25 54.2013 25.188 55.524 25.188C58.0453 25.188 60.3393 25.56 62.406 26.304C64.514 27.048 66.2913 28.226 67.738 29.838C69.1847 31.4087 70.3007 33.434 71.086 35.914C71.9127 38.3527 72.326 41.308 72.326 44.78Z" fill="black"/>
<path d="M22.532 64C21.54 61.148 20.486 57.924 19.37 54.328C18.254 50.732 17.2 47.1567 16.208 43.602C15.216 40.006 14.3273 36.6167 13.542 33.434C12.7567 30.2513 12.178 27.6473 11.806 25.622H19.866C20.114 27.606 20.486 29.9207 20.982 32.566C21.478 35.17 22.0153 37.8773 22.594 40.688C23.214 43.4573 23.8547 46.206 24.516 48.934C25.2187 51.6207 25.9007 54.0387 26.562 56.188C27.2233 54.08 27.8847 51.6827 28.546 48.996C29.2073 46.268 29.8273 43.5193 30.406 40.75C30.9847 37.9393 31.522 35.2113 32.018 32.566C32.514 29.9207 32.9273 27.606 33.258 25.622H41.256C40.76 28.102 40.14 30.8713 39.396 33.93C38.6933 36.9887 37.8667 40.2127 36.916 43.602C36.0067 46.95 34.994 50.3807 33.878 53.894C32.762 57.366 31.6047 60.7347 30.406 64H22.532Z" fill="black"/>
</svg>
